<svg xmlns="http://www.w3.org/2000/svg" viewBox="0 0 71.25 75.04"><defs><style>.cls-1{fill:#fff;}.cls-2{fill:#ff9595;}.cls-3{fill:#ffdc32;}.cls-4{fill:#ffe471;}.cls-5{fill:#ffe473;}.cls-6{fill:#ffed9f;}.cls-7{fill:#fff0b3;}</style></defs><title>hearth</title><g id="Layer_2" data-name="Layer 2"><g id="Layer_1-2" data-name="Layer 1"><circle class="cls-1" cx="37.04" cy="40.04" r="21"/><path class="cls-2" d="M36,58C30.42,54,9.4,33.55,19.21,23,26.68,15,37,27,37,27s8.4-9,14.94-4C62.23,30.94,44.43,53,36,58Z"/><path class="cls-3" d="M55,28.43A10.51,10.51,0,0,1,55,30l0,.21c3.82-1.14,8.33-1.79,8.17,1.54-.09,1.92-5.9,5.71-7,6.45a72.55,72.55,0,0,1-16,7.46,69.8,69.8,0,0,1-17.32,3.74c-1.43.11-8.74,1-9.41-.83-.5-1.36,5.41-5.68,7.35-7a15.68,15.68,0,0,1-.89-1.71l-.05-.07C16.77,42,6.83,49.59,13.65,51.34c4.23,1.09,9.72.16,14-.48A76.85,76.85,0,0,0,45,46a67.36,67.36,0,0,0,12.88-6.49c2.54-1.73,6.9-4.67,7.7-7.88C66.88,26.45,60.28,27.1,55,28.43Z"/><path class="cls-4" d="M3.54,34.07A6.91,6.91,0,0,0,0,29.54,6.91,6.91,0,0,0,3.54,25a6.91,6.91,0,0,0,3.54,4.54A6.91,6.91,0,0,0,3.54,34.07Z"/><path class="cls-3" d="M29.54,9.54a3.46,3.46,0,0,0-1.77-2.27A3.46,3.46,0,0,0,29.54,5,3.46,3.46,0,0,0,31.3,7.27,3.46,3.46,0,0,0,29.54,9.54Z"/><path class="cls-3" d="M54.54,57.54a3.46,3.46,0,0,0-1.77-2.27A3.46,3.46,0,0,0,54.54,53a3.46,3.46,0,0,0,1.77,2.27A3.46,3.46,0,0,0,54.54,57.54Z"/><path class="cls-5" d="M67.54,47a8.87,8.87,0,0,1-3.72,6,8.87,8.87,0,0,1,3.72,6,8.87,8.87,0,0,1,3.72-6A8.87,8.87,0,0,1,67.54,47Z"/><path class="cls-6" d="M50.54,0a8.87,8.87,0,0,1-3.72,6,8.87,8.87,0,0,1,3.72,6,8.87,8.87,0,0,1,3.72-6A8.87,8.87,0,0,1,50.54,0Z"/><path class="cls-7" d="M48.54,65A7.48,7.48,0,0,1,45,70a7.48,7.48,0,0,1,3.5,5A7.48,7.48,0,0,1,52,70,7.48,7.48,0,0,1,48.54,65Z"/><path class="cls-3" d="M16,64a4.48,4.48,0,0,1-2,3,4.48,4.48,0,0,1,2,3,4.48,4.48,0,0,1,2-3A4.48,4.48,0,0,1,16,64Z"/><path class="cls-1" d="M25.54,24a4.34,4.34,0,0,0-4.84,4.55c.07,1.28,2.07,1.29,2,0A2.38,2.38,0,0,1,25.54,26c.54.07,1-.51,1-1a1,1,0,0,0-1-1Z"/></g></g></svg>