<svg xmlns="http://www.w3.org/2000/svg" viewBox="0 0 95.45 79.87"><defs><style>.cls-1{fill:#f1c6f7;}</style></defs><title>heart-ico</title><g id="Layer_2" data-name="Layer 2"><g id="Layer_1-2" data-name="Layer 1"><path class="cls-1" d="M92.57,11.21c-8.93-16.2-36-14-45.67,4C37.4-5,1.9-7.46.07,22.37S34.4,79,47.86,79.87C74.4,76.87,105.07,33.87,92.57,11.21Zm-71.09,6c-1.56-.42-3,1.41-3.54,2.42a9.51,9.51,0,0,0-.73,2.44q-.08.38-.14.75a2,2,0,0,0,0,.56l-.16-.12a3.44,3.44,0,0,1-2.4,3.49h0c-2.29.78-4.29-1.24-4.43-3.37a13.68,13.68,0,0,1,2.83-8.67c2.75-3.31,6-5.45,10.47-4.25S25.83,18.38,21.47,17.2Zm45.66-.7c-.28.15-.55.32-.81.5l-.08.06,0,0a9.75,9.75,0,0,0-1.25,1.31,3.39,3.39,0,0,1-2.47,1,3.52,3.52,0,0,1-2.47-1,3.56,3.56,0,0,1-1-2.47,3.8,3.8,0,0,1,1-2.47,12.19,12.19,0,0,1,3.6-3,3.57,3.57,0,0,1,4.79,1.26A3.53,3.53,0,0,1,67.14,16.5Z"/></g></g></svg>