<svg xmlns="http://www.w3.org/2000/svg" viewBox="0 0 195.95 97.58"><defs><style>.cls-1{fill:#ffcd92;}</style></defs><title>anufacturers-ico</title><g id="Layer_2" data-name="Layer 2"><g id="Layer_1-2" data-name="Layer 1"><path class="cls-1" d="M113.93,70.75a2,2,0,0,0-.66-.09c-4.41-.64-7.19,2.92-7.63,6.83-.55,4.89,2,8.44,6.91,9C123.16,87.55,124.12,71.94,113.93,70.75Zm1.45,8.89a4.06,4.06,0,0,1-2.48,1.89,2.58,2.58,0,0,1-2.82-1.15,3.29,3.29,0,0,1,.18-3.79,2.61,2.61,0,0,1,.48-.7,2.92,2.92,0,0,1,4.06,0A3.17,3.17,0,0,1,115.38,79.64Z"/><path class="cls-1" d="M114.64,76.73l0,.08,0-.05Z"/><path class="cls-1" d="M84.09,70.33C73.74,69.62,71.18,87.49,82.5,88c4.89.22,8.84-2.34,9.75-7.27C93.24,75.32,89.69,70.42,84.09,70.33Zm1.63,10.42a3.41,3.41,0,0,1-5.19.84,2.64,2.64,0,0,1-.87-.86c-1.39-2.28.62-5.32,3.18-5.26A3.58,3.58,0,0,1,85.71,80.74Z"/><path class="cls-1" d="M54.44,70.31C44.9,69.58,40.49,83.45,50,87.22c5.7,2.25,12.62-.93,13.17-7.41C63.71,74,59.72,70.79,54.44,70.31Zm1.34,11.92a3.52,3.52,0,0,1-5.07-2.52,4.65,4.65,0,0,1,.17-2.39A2.61,2.61,0,0,1,51.55,76c.06-.06.13-.1.19-.15a4.15,4.15,0,0,1,1-.84,2.52,2.52,0,0,1,3.11.5,3.3,3.3,0,0,1,1.23,1.25A4.17,4.17,0,0,1,55.78,82.23Z"/><path class="cls-1" d="M148,60s-119.75-.14-129.5.11S.25,65.88,0,78.93s10,17.2,18.75,18c6.31.54,117,1.25,130.75,0S165,84.67,165,78.38C165.05,68.13,157.75,60.27,148,60ZM24,92.45c-9.61-.18-15.6-6.21-15.12-15.84.42-8.5,9.23-13.64,17.21-13a2.69,2.69,0,0,1,.72.16C41.13,66.16,42.12,92.79,24,92.45Zm44.12-12c-.78,8.36-8.82,13.7-16.88,12.31C42.41,91.2,37.41,82.9,40.56,74.42a14.08,14.08,0,0,1,13.88-9.11C62.75,66.07,69,71.5,68.15,80.42Zm29.2-.34c-.63,8-6.95,13.15-14.85,12.92-17.85-.54-15.13-28.82,1.59-27.67A13.44,13.44,0,0,1,97.35,80.08Zm28.67,0c-.85,7.58-6.42,12.28-14.15,11.36s-12.38-7.13-11.14-14.92c1.07-6.73,6.08-11.3,12.93-10.75h.28l.39.06.27,0,.17,0C121.87,67.07,126.85,72.6,126,80.05Zm20.91,11.63a14,14,0,0,1-15.74-11.23C130,73.69,134.35,65.06,141.58,64a2.75,2.75,0,0,1,.7,0,2.63,2.63,0,0,1,.81-.18c7.17-.4,14.66,4.39,15.2,12C158.79,83,154.41,90.68,146.93,91.68Z"/><path class="cls-1" d="M143.09,68.83h-.18c-10.77,1.55-8,19.48,3.35,17.88,5-.71,7.91-6.72,7-11.46S147.26,68.6,143.09,68.83Zm4.81,10.36a3.72,3.72,0,0,1-5.33,2.51,3.36,3.36,0,0,1-1.31-1.37,2.68,2.68,0,0,1-.9-1.29,3.72,3.72,0,0,1,3.76-4.7A4.1,4.1,0,0,1,147.9,79.19Z"/><path class="cls-1" d="M25.47,68.59c-4.29-.1-10.28,2-11.41,6.54-1.41,5.69,1.34,10.77,7.06,12C36.26,90.29,35.31,69.47,25.47,68.59ZM22.78,81.75a3.72,3.72,0,0,1-.45-.14,2.62,2.62,0,0,1-2.69-1.82,4.64,4.64,0,0,1,2.18-5.36,4.07,4.07,0,0,1,3.78-.15,3.84,3.84,0,0,1,2,3.25A4,4,0,0,1,22.78,81.75Z"/><path class="cls-1" d="M181.63,60.76c-9.33-.67-21-.77-21-.77a23.53,23.53,0,0,1,9.46,19.18c-.17,12.39-8,17.22-8,17.22s15.67-.17,20-.83,13.16-4.16,13.83-16.39C196.43,70,191,61.42,181.63,60.76Z"/><path class="cls-1" d="M76.25,27.6a75.1,75.1,0,0,1,27.69-2.9c4.87.31,9.71.93,14.54,1.63,2.14.31,3.82.83,5.37-.92,3.11-3.52,1.2-9.86-2.4-12.15a9.09,9.09,0,0,0-6.08-1.4c-1.85-5.12-6.32-9-12.16-9.06a12.27,12.27,0,0,0-8.17,2.89C91.54,3.85,86.59,5.17,83.71,8a15.09,15.09,0,0,0-3.51,5.46,7.58,7.58,0,0,0-4,1.62c-2.69,2.21-4.26,6.56-3,9.92A2.38,2.38,0,0,0,76.25,27.6Zm16.25-9a1,1,0,0,1,2,0v.25a1,1,0,0,1-2,0Zm-6.25-3.75a1,1,0,0,1,2,0v.25a1,1,0,0,1-2,0Zm-4.74,5,.5-.25a1.5,1.5,0,1,1,1.51,2.59l-.5.25a1.5,1.5,0,0,1-1.51-2.59Z"/><path class="cls-1" d="M17.28,23.41a2.33,2.33,0,0,0,2.85,1.38,87.48,87.48,0,0,1,24-3.15,101.38,101.38,0,0,1,13,1.16c1.86.26,4.51,1.1,6.25,0,4.12-2.66.15-8.84-4.33-9.7a8.7,8.7,0,0,0-9.88-5.13A11.55,11.55,0,0,0,38.66,3.5,16,16,0,0,0,31,6.71C24.18,4,15,10.28,15.14,17.82a7.69,7.69,0,0,0,1.55,4.7A3.48,3.48,0,0,0,17.28,23.41Zm29.47-9.53h.5a1,1,0,0,1,0,2h-.5A1,1,0,0,1,46.75,13.88ZM37,11.64l.25-.5a1.52,1.52,0,0,1,2.05-.54,1.54,1.54,0,0,1,.54,2.05l-.25.5a1.52,1.52,0,0,1-2.05.54A1.54,1.54,0,0,1,37,11.64ZM23.75,14.38h.5a1.5,1.5,0,0,1,0,3h-.5a1.5,1.5,0,0,1,0-3Z"/><path class="cls-1" d="M135,26.19a2.65,2.65,0,0,0,4.33,2.24,12.71,12.71,0,0,1,1.81-1.27c8.73-3.56,19-4,28.7-3,5.43,1.07,11.36,2.75,14.82,5.86,1.31,1.18,3.77.84,4.18-1.1,1.17-5.6,1.44-13.34-3.82-17.07a7.12,7.12,0,0,0-4.23-1.43c-.92-4.26-3.25-8.05-7.59-9.52-6-2-14.65-.89-18.72,4.32a14.42,14.42,0,0,0-5.87.12c-4,.92-9.09,4.72-8.61,9.11-4.22,2.25-6.93,6.07-5,11.62Zm20.21-10.87.25-.25a1.5,1.5,0,1,1,2.12,2.12l-.25.25a1.5,1.5,0,0,1-2.12-2.12Zm-6.19.56a1,1,0,0,1,2,0v.25a1,1,0,0,1-2,0Zm-3-3.59-.09.19-.12,0Zm-1.51,3.09h.25a1,1,0,0,1,0,2h-.25A1,1,0,0,1,144.5,15.38Z"/><path class="cls-1" d="M81.19,29.22c-2,.38-2.19,2.45-1.26,3.77,0,.08,0,.15.05.23,1.42,4.48,3.07,8.86,4.92,13.16a29.72,29.72,0,0,0,1.53,4c2.45,5.1,7.54,4.2,12.61,4,4.69-.18,9.05.14,11.2-4.58a105.46,105.46,0,0,0,3.51-10c1-3,2.43-6,2.28-9.21a2.59,2.59,0,0,0-2.5-2.5A103.12,103.12,0,0,0,81.19,29.22ZM93,40.91l-.17.68c-.3,1.18-1.85.78-2-.27a84.4,84.4,0,0,0-1.5-8.95c-.28-1.26,1.65-1.79,1.93-.53.6,2.68,1.06,5.38,1.4,8.1A.92.92,0,0,1,93,40.91Zm10,5.22c-.06,1.28-2.06,1.29-2,0l.29-6.75c.06-1.28,2.06-1.29,2,0Z"/><path class="cls-1" d="M41.11,24.55a72.4,72.4,0,0,0-18.95,1.58,2.32,2.32,0,0,0-1.37,3.65,2.4,2.4,0,0,0,.07.34c.43,1.4.87,2.79,1.33,4.19,1,4.1,2.15,8.17,3.41,12.2.67,2.14,1.33,4.27,2.77,5.41,2.74,3.47,9.93,2.61,13.86,2.75,4.68.16,7.83-.43,9.82-4.86,1.49-3.32,2.5-7,3.73-10.4,1.14-3.17,3.15-6.89,3.22-10.3A2.45,2.45,0,0,0,57.76,27C53.05,24.8,46.23,24.79,41.11,24.55ZM34.2,43.41a46.68,46.68,0,0,1-.66-11.28c.08-1.28,2.08-1.29,2,0a44.47,44.47,0,0,0,.59,10.75C36.36,44.14,34.43,44.68,34.2,43.41Zm8,4c-.11,1.27-2.11,1.28-2,0l1-11.5c.11-1.27,2.11-1.28,2,0Z"/><path class="cls-1" d="M161.86,27c-6.06-.18-12.25-.3-18.18,1.1a2.18,2.18,0,0,0-1.6,1.28,2,2,0,0,0-.86,2c.72,6.33,1.11,14,3.67,19.91,1.78,4.08,8.16,4.18,12,4.46,2.65.19,6.64.5,9.73-.5a11.8,11.8,0,0,0,1.2,0c3.68-.11,4.45-4,5.76-6.8a2.67,2.67,0,0,0,.25-1c1.37-3.37,2.64-6.77,3.75-10.23.95-2.94,2.36-6-.89-7.84C172.74,27.14,166.34,27.14,161.86,27ZM148.4,45.46a7.09,7.09,0,0,1-.3-4.08c.26-1.26,2.19-.72,1.93.53a5.19,5.19,0,0,0,.3,3C150.8,46.12,148.87,46.64,148.4,45.46ZM151,32l0-.06H151Zm8.29,8.12a1,1,0,0,1-2,0V36.38a1,1,0,0,1,2,0ZM164.94,48c-.38,1.23-2.31.7-1.93-.53a67.87,67.87,0,0,0,2.69-13.06c.13-1.27,2.13-1.28,2,0A70.55,70.55,0,0,1,164.94,48Z"/></g></g></svg>