<svg xmlns="http://www.w3.org/2000/svg" viewBox="0 0 125.6 108.64"><defs><style>.cls-1{fill:#d7f4ae;}</style></defs><title>media-ico</title><g id="Layer_2" data-name="Layer 2"><g id="Layer_1-2" data-name="Layer 1"><path class="cls-1" d="M62.8,56.32c8.63,0,27-18.93,31.63-29.33,4-9,3.33-19.17-3.83-24.17s-20-3.17-29,8.5c0,0-12.33-17-26.67-9.33s-6.59,23-3.5,28.17C37.27,40,54.17,56.32,62.8,56.32ZM43.86,8.64c3.5,4.3-4.12,12.5-8.17,8.33C31.33,12.47,40.51,4.53,43.86,8.64Z"/><path class="cls-1" d="M125.27,14.32c-.67-5.67-2.33-8.46-9-5.82-3,1.2-9.38,3.84-15.44,6.36a36.64,36.64,0,0,1-2.3,12.23c4.56-2,14.1-6.11,15.74-6.61,2.17-.67,3.83-.33,3.83,2.67s.33,8.5,0,10.67,0,3.17-2.17,4.67S92.27,50.15,88.6,51.65s-5.13-.62-5.31-3.14C76.11,55.76,68.08,61.65,63,61.65a17.23,17.23,0,0,1-7.61-2.39c0,2.07.05,5.8.05,6.73,0,1.17-.67,3.33-2.83,2.67S11.58,52.07,9.91,50.4s-2.15-2.67-2.23-3.83a53.63,53.63,0,0,1,0-6.67c.13-1.15,1.34-1.36,2.67-.78,1,.45,27.5,11.56,39.39,16.55A90.2,90.2,0,0,1,36.94,44.1Q23.54,38.5,9.8,33.8c-2.43-.83-1.38-4.69,1.06-3.86Q21.3,33.51,31.52,37.6a48.69,48.69,0,0,1-2.77-4.12c-.29-.49-.63-1.1-1-1.77q-8.49-3.8-17.23-7c-2.41-.87-1.36-4.74,1.06-3.86q6.9,2.5,13.64,5.4a32.91,32.91,0,0,1-2.54-11.69L10.43,9.32C5.6,7.82.36,8.28.22,14.78c-.15,6.88-.44,53.13,0,58,.67,6.83,1.92,9.67,7.38,12.9,4.2,2.49,44.12,19.6,49.29,21.1s8.17,2.67,13.33,1S114.1,87.65,118.1,84.65s7-4.83,7.17-12.33S125.93,20,125.27,14.32ZM8.2,68.49c-2-.89-.75-3.58,1-3.73,2.38-.19,6.52,2.28,8.76,3.14Q23.28,70,28.59,72c7.81,3.06,15.57,6.26,23.33,9.46,2.35,1,1.31,4.84-1.06,3.86-7.17-3-14.34-5.92-21.56-8.77Q24,74.49,18.68,72.45l-5-1.92c-1.2-.46-3.31-1.86-4.49-1.76v0a2.11,2.11,0,0,1-.93-.19ZM51.28,94.35A295.81,295.81,0,0,1,9.82,76.76c-2.29-1.18-.26-4.64,2-3.45A288.88,288.88,0,0,0,52.35,90.5C54.78,91.32,53.73,95.18,51.28,94.35Zm.13-17.48c-3.43-.81-6.34-2.4-9.5-3.89C38,71.14,34,69.74,30,68.23a186,186,0,0,1-20.8-9.35c-2.28-1.2-.26-4.65,2-3.45A184.62,184.62,0,0,0,32.71,65c6.52,2.42,13,6.44,19.77,8C55,73.61,53.92,77.46,51.42,76.87Zm15.67,21.2c0,2.58-4,2.57-4,0l.18-28.17c0-2.58,4-2.57,4,0ZM116.7,75.46c-6,3.13-11.93,6.37-18.12,9.11S86.14,89.84,80.29,93.3c-2.22,1.31-4.23-2.14-2-3.45,5.84-3.46,12.1-6,18.29-8.73s12.13-6,18.12-9.11C117,70.82,119,74.27,116.7,75.46Zm1.08-8.82C111.55,69.34,106,73,99.91,76c-6.33,3.18-12.95,5.8-19.39,8.75-2.33,1.07-4.36-2.38-2-3.45,6.44-3,13.06-5.56,19.39-8.75,6-3,11.64-6.7,17.86-9.4C118.1,62.17,120.13,65.62,117.78,66.64Zm.12-7.53C105.46,65,92.43,70.23,80.39,76.91c-2.26,1.25-4.27-2.21-2-3.45,12.05-6.68,25.06-11.87,37.51-17.79C118.2,54.56,120.22,58,117.9,59.12Zm.16-8.75Q99.42,59.11,81,68.24c-2.3,1.14-4.33-2.31-2-3.45Q97.4,55.66,116,46.91C118.36,45.82,120.39,49.27,118.06,50.37Z"/></g></g></svg>