<svg xmlns="http://www.w3.org/2000/svg" viewBox="0 0 149.68 92.12"><defs><style>.cls-1{fill:#b3ceff;}</style></defs><title>charity-ico</title><g id="Layer_2" data-name="Layer 2"><g id="Layer_1-2" data-name="Layer 1"><path class="cls-1" d="M28.13,44.71c3,3.11,8.71-3,6.1-6.22S24.87,41.34,28.13,44.71Z"/><path class="cls-1" d="M98.16,23.86c-2-4.17-10-16.83-13.33-20.5S79,.36,74.57.19,21.66-.14,18.16.19,13.49,1.36,11.33,4,2.66,18,.66,22.69s1,6.17,2.83,6.33a31,31,0,0,0,4.17,0s0,40.67,1,50.83,4.33,11,11.5,11.67,44.67.33,55.5-.83,11.17-4,12.83-9.67,0-49,0-49a48.82,48.82,0,0,0,6,0C99.34,31.68,100.16,28,98.16,23.86ZM72,52.18C68.55,60,54.82,74.09,48.38,74.09S29.3,61.89,24.95,54.55c-2.31-3.89-8-15.37,2.61-21s19.92,7,19.92,7c6.72-8.71,16.31-10.08,21.66-6.35S75,45.46,72,52.18Z"/><path class="cls-1" d="M114.18,67c1.25,1.29,3.62-1.25,2.53-2.58S112.83,65.6,114.18,67Z"/><path class="cls-1" d="M149.3,58.83a56.82,56.82,0,0,0-5.55-11.88c-1.62-2.5-3-3.37-5.62-3.37s-25,.25-28.5,0-6.06,1.41-8.25,4.38-6.25,9.75-6.5,12.25,2.5,4,6,3.92c0,3.13-.08,14.58-.08,18.21s.29,9.3,6.42,9.55,27.58.42,31.46,0,5.75-2.8,5.63-6.92,0-20.25,0-20.25S151.37,64.74,149.3,58.83ZM132.4,70.1c-1.43,3.23-7.13,9.1-9.81,9.1s-7.92-5.07-9.73-8.12c-1-1.62-3.31-6.38,1.09-8.74s8.27,2.9,8.27,2.9c2.79-3.62,6.77-4.19,9-2.64S133.64,67.31,132.4,70.1Z"/></g></g></svg>