<svg xmlns="http://www.w3.org/2000/svg" viewBox="0 0 87.34 89.07"><defs><style>.cls-1{fill:#ffab31;}</style></defs><title>logistic-basket</title><g id="Layer_2" data-name="Layer 2"><g id="Layer_1-2" data-name="Layer 1"><path class="cls-1" d="M54.54,36.16a20.26,20.26,0,0,1,.81,4,2,2,0,0,1-2.56,2c-1.85-.45-2.59-3.51-3-6l-9.13-.3a26.12,26.12,0,0,1-2.2,5.1c-1.12,1.89-3.53.5-3.27-1.38a22,22,0,0,1,.92-3.81c-3.53-.06-7.06,0-10.57.12a2.1,2.1,0,0,1-.37,0c-3.5,1.38-1.32,5.58-.62,8.24q1.22,4.62,2.68,9.16c.8,2.51,1.35,6.29,4,7.56,2,.94,5.38.43,7.49.45,5,0,10,0,15-.12,5.47-.16,6.17-3.25,7.45-7.81.76-2.68,1.47-5.37,2.2-8.06.45-1.68,1.75-4.2,1.61-5.91C64.7,35.66,58.49,36,54.54,36.16ZM31.19,49.42a1.56,1.56,0,0,1,0-1.55h0c.53-1,1.44-1,2.42-1.1a12,12,0,0,1,2.13,0,1.94,1.94,0,0,1,0,3.88,12,12,0,0,1-2.13,0C32.63,50.43,31.71,50.37,31.19,49.42Zm5.91,7.29A8.36,8.36,0,0,1,33,56a1.6,1.6,0,0,1,.38-2.88,16.34,16.34,0,0,1,3.76-.29,2,2,0,1,1,0,3.91Zm9.63-.36a4.22,4.22,0,0,1-1.74.11,13.82,13.82,0,0,1-1.72-.2,1.67,1.67,0,0,1-1.18-1.18v0a1.6,1.6,0,0,1,0-.84A1.67,1.67,0,0,1,43.27,53a13.84,13.84,0,0,1,1.72-.2,4.24,4.24,0,0,1,1.74.11,1.8,1.8,0,0,1,0,3.43Zm1.78-7c-1.09,1-2.34.71-3.69.65s-2.57.12-3.59-.78a1.46,1.46,0,0,1,0-2c1-.93,2.34-.8,3.59-.83s2.71-.24,3.69.77a1.61,1.61,0,0,1,0,2.23Zm6.16,7.41a6.44,6.44,0,0,1-2.78-.17,1.73,1.73,0,0,1,0-3.3A6.25,6.25,0,0,1,53.4,53h.33l.94-.12a1.92,1.92,0,1,1,0,3.84Zm2.18-6.58a23.62,23.62,0,0,1-2.5-.22A3.4,3.4,0,0,1,52.16,49a1.4,1.4,0,0,1,0-2l0,0c1.1-1,3.09-.94,4.55-.9a2,2,0,0,1,.3,4h-.16Z"/><path class="cls-1" d="M33.26,50h0Z"/><path class="cls-1" d="M43,0C26,0,0,12,0,44S28,88.23,41,89c17,1,39.41-8.29,45-34C91,32,83.11,0,43,0ZM66.14,51c-1,3.52-1.53,8.3-4,11.16C59.29,65.52,55,65.34,51,65.43a159.13,159.13,0,0,1-17.93-.16c-4.59-.41-7-2.54-8.56-6.74a91.76,91.76,0,0,1-5-17.85c-.69-4.33.43-7.36,4.86-8.31A1.92,1.92,0,0,1,25.46,32c4-.22,8-.29,12.08-.28.43-1.06.86-2.11,1.24-3.14C40,25.34,41.06,21.85,43,18.91A1.47,1.47,0,0,1,45.62,20c-.53,3.76-2.21,7.43-3.46,11l-.22.65q3.44,0,6.88.13c-1.08-4-2.3-8.07-2.49-12.15-.07-1.48,2.24-2.19,2.89-.78,1.62,3.54,2.39,7.46,3.42,11.2.17.6.36,1.22.56,1.84l6.15.14c3.73.07,8.53-.21,9.83,4.27,1.19,4.19-1.95,10.71-3,14.68Z"/></g></g></svg>