<svg xmlns="http://www.w3.org/2000/svg" viewBox="0 0 112.14 135.3"><defs><style>.cls-1{fill:#a08ce3;}</style></defs><title>aged</title><g id="Layer_2" data-name="Layer 2"><g id="Layer_1-2" data-name="Layer 1"><path class="cls-1" d="M73.18,78.1c5,1.1,8.6-1.9,9-6.9.3-4.4-1.6-9-6.7-8.4a1.11,1.11,0,0,1-1-.3c-3.3.6-6.1,2.3-7.3,5.9C65.68,73.1,68.68,77,73.18,78.1Zm-1.4-6.7a2.29,2.29,0,0,1,1.5-1.9l.2-.1a2.42,2.42,0,0,1,2.3,4.1,2.28,2.28,0,0,1-1.2.6,1.5,1.5,0,0,1-1.8,0,2.23,2.23,0,0,1-1-2.4v-.3Z"/><path class="cls-1" d="M18.38,54.6c-3.1,1.7-6.2,3.5-9.3,5.1A25.28,25.28,0,0,0,9,62.5a56.92,56.92,0,0,0,29.8-8.2l-3.2-.1c-1.2,0-1.5-2-.3-2.1a30.4,30.4,0,0,1,7.4-.3q1.95-1.35,3.9-3A72.33,72.33,0,0,0,59.28,35c2.2-3.2,4.1-6.2,3.7-10.2-.4-3.5-2.5-6.7-4.3-9.7-.1,6.5-3,12.6-6.8,17.8-4.1,5.6-9.1,11.9-15.5,15-1.2.6-2.3-1.2-1.1-1.8,5.9-3,10.8-8.9,14.6-14.3a33.27,33.27,0,0,0,6.6-18.9c-1.5,0-3,0-4.5.1a.88.88,0,0,1-.1.7c-7.5,12-17.4,23.1-29.3,30.9-.9.6-2.1-.9-1.2-1.5,11.1-8.7,20.9-18.1,28.7-29.9a47.11,47.11,0,0,0-17.5,5.5c-13.1,7.2-21.5,22.9-23.3,38.5,2.7-1.5,5.3-2.9,8-4.4C18.48,52.3,19.48,54,18.38,54.6Z"/><path class="cls-1" d="M58.68,13.1v.4a.79.79,0,0,1,1.1.1h0c4.1,5.1,7.5,11,4.8,17.6-.2.5-.4.9-.6,1.4a23.4,23.4,0,0,0,9.5,16.9,15.46,15.46,0,0,1,6,1c1.2.5.4,2.1-.6,2.2h-.5c6.4,3.4,16.6,7.1,23.1,4.1a1.13,1.13,0,0,1,.8-.1,53.12,53.12,0,0,0-4.5-17.6c-.1.1-.2.1-.4.2-7.2,2-14.8-2.5-18.7-8.3-.7-1.1,1-2,1.7-1,4.2,5.5,9.9,6.9,16.5,7.2a40.8,40.8,0,0,0-4.7-7,45,45,0,0,0-7-6.8A8,8,0,0,0,87,26.1a1.06,1.06,0,0,1-1.5,1.5,8.15,8.15,0,0,1-2.8-6.1,48.94,48.94,0,0,0-12.6-6.1c-4.1,11.7,2.2,21.3,10.2,29.5a1.12,1.12,0,0,1-.1,1.6,1.09,1.09,0,0,1-1.5,0c-8.3-7.8-16.5-20.2-10.5-31.7A39.57,39.57,0,0,0,58.68,13.1Z"/><path class="cls-1" d="M53.28,114.8a1.1,1.1,0,1,1,1.9-1.1c.2.3.3.5.5.8h0c1.1-.4,4.3-1.2,3.1-3.1-.4-.6-1.5-.8-2.1-1a12.85,12.85,0,0,0-3.4-.7,5.69,5.69,0,0,0-2.6.4,2.19,2.19,0,0,0-1.2,2.8,1,1,0,0,1,.3,1.4c-.1.1-.2.3-.3.3-1.6,1-2.6-.1-2.9-1.5-6.2-.2-16.1,7.4-9.1,22.2a20.27,20.27,0,0,0,15.7-10.1C54.28,121.8,55,118.3,53.28,114.8Zm-1.9.7a59.12,59.12,0,0,1-5.2,4.8c-1,.8-2.4-.5-1.4-1.4a32.41,32.41,0,0,1,5.7-4.7c.7-.5,1.5.6.9,1.3Z"/><path class="cls-1" d="M50.28,0c-18.4,0-34.4,14.1-41.2,27.5-16.8,33.2-7.2,56.7,4,70a55.54,55.54,0,0,0,24.4,16.2,12.7,12.7,0,0,1,6.2-2.6c-9.7-3.6-19.5-8-26.1-16.2A51.62,51.62,0,0,1,6.68,68.1c-1.1-11.7,2.5-23.2,7.8-33.5a43.07,43.07,0,0,1,23.6-21.2c21-8.1,46.1-.4,58.9,18.3,9.7,14.2,10.4,35.2,4.4,51-6.2,16.3-20.6,25.9-37.2,28.9a23.14,23.14,0,0,1,6.7,2.3c6.3-1.5,39.4-11,41.2-48.5C113,47.9,103.88,0,50.28,0Z"/><path class="cls-1" d="M21.78,95.9c6.9,7,16.4,10.5,25.3,13.9,1.6-2.3,4.7-2.8,7.3-2.4,2,.3,5.2.9,6.5,2.8,19.8-3,36.1-14.8,40.3-35.2a65.31,65.31,0,0,0,1.3-15.9c-3.7,2.6-8.2,1.7-12.4.7a53.32,53.32,0,0,1-14.4-5.4c-1-.6-2-1.3-3-2-1.3.1-2.6.2-3.9.4s-2.4-1.7-1-2.3a6,6,0,0,1,1.9-.6,24.8,24.8,0,0,1-7.6-14.3A67.26,67.26,0,0,1,51.28,48a59.55,59.55,0,0,1-5.4,4.6,1.23,1.23,0,0,1,.4,1.6,1.33,1.33,0,0,1-1,.6,17,17,0,0,1-2.3-.1A59.12,59.12,0,0,1,8.88,65.1a44.38,44.38,0,0,0,1.3,9.6A47.51,47.51,0,0,0,21.78,95.9Zm43.9-4.8c-2.6,3.4-10.2,4.9-13.2,1.3-.6-.7,0-2,1-1.6a10.29,10.29,0,0,0,6,.6c1.9-.5,3.4-1.8,5.3-1.9a1.06,1.06,0,0,1,1,1.2c0,.1-.1.2-.1.4ZM18.78,69.3c2.7-3,7-2.6,10.5-1.9a.76.76,0,0,1,.5.2,10.2,10.2,0,0,1,2.4-4c.5-1,1.5-2.1,2.6-2a1.17,1.17,0,0,1,.9-1.1c6-1.7,12.7.5,15,6.3,3.4-3.2,10.6-3.3,14.1-.7,2.1-4.4,6.9-7.4,11.8-6.4,4.4-.7,7.3,3.2,8.2,7.8,2.7-.8,5.6-1.1,8.1.5,1.9,1.2,3.7,4.7,1.6,6.6a1.09,1.09,0,0,1-1.5,0,.91.91,0,0,1-.3-.7c-.1-.9.2-1.7-.2-2.5a3.65,3.65,0,0,0-2.4-1.8,10.55,10.55,0,0,0-5,.3c.2,6.1-3,12.5-11.2,11.6-6.3-.7-11-5.7-10-12.1-.1,0-.1-.1-.2-.1l-.2-.1a1.37,1.37,0,0,1-.5-.8c-1.9-1.4-5.2-1.5-7.3-1a5.94,5.94,0,0,0-4.1,3.1c.4,5.3-2.4,10.1-8,11.5a11.7,11.7,0,0,1-14-8.3,10.27,10.27,0,0,1-.2-3.9,1.7,1.7,0,0,1-.7.1c-2.2-.4-4.6-.9-6.7.1a3.18,3.18,0,0,0-1.9,4.1,3.81,3.81,0,0,0,.9,1.3c.8.9-.3,2.6-1.4,1.8a5.14,5.14,0,0,1-1.2-7.2A1,1,0,0,1,18.78,69.3Z"/><path class="cls-1" d="M66.68,115.2c-1.8-.6-3.8-.9-5.6-1.4a4.62,4.62,0,0,1-1.7,1.7,20.69,20.69,0,0,1,6.8,3.4c.9.7-.3,2.2-1.2,1.6a31.62,31.62,0,0,0-7.1-3.6c-.3-.1-.5-.3-.5-.5a2.92,2.92,0,0,1-.9.2,13.84,13.84,0,0,1,0,6.4c5.9,4.4,12.7,5.7,21,1.8C77.08,122.4,72.68,117.2,66.68,115.2Z"/><path class="cls-1" d="M41.78,79.1c5.3-.5,7.8-5.3,6.6-10.2-1.2-5.1-6.3-6.4-10.8-6.1-3.5,1.8-6.1,5-5.5,9.1A8.68,8.68,0,0,0,41.78,79.1Zm-4.9-8a6.37,6.37,0,0,1,2-2,2.42,2.42,0,0,1,3.2,1c1.3,2.2-1.2,4.7-3.5,3.8a2.52,2.52,0,0,1-1.7-2.8Z"/></g></g></svg>