<svg xmlns="http://www.w3.org/2000/svg" viewBox="0 0 798.67 228.55"><defs><style>.cls-1{fill:#fffcc3;}.cls-2{fill:#f2b26d;}.cls-3{fill:#f4d069;}.cls-4{fill:#f29b96;}.cls-5{fill:#a1d7e1;}.cls-6{fill:#daacd0;}.cls-7{fill:#eee9fb;}.cls-8{fill:#a08ce3;}.cls-9{fill:#ffeaea;}.cls-10{fill:#fe8e8e;}.cls-11{fill:#ffb95a;}.cls-12{fill:#cdfbff;}.cls-13{fill:#7ddde6;}</style></defs><title>categories</title><g id="Layer_2" data-name="Layer 2"><g id="Layer_1-2" data-name="Layer 1"><path class="cls-1" d="M188.72,144.41c-5.63,7-15,10.65-24.23,10.37-13.63-.42-23.69-9.56-27-22.41a28.13,28.13,0,0,1-18.55,6.51c-4.89,0-10-.34-14.11-2.71-2.71,13.07-14.33,24.75-28.31,23.56C68,159,58.54,154.58,54.13,146.95c-1.84-3.18-4-8.87-3.51-13.39C19.89,143,.18,159.56,0,178.23c-.16,17,6.94,47.09,105,49,85.43,1.67,110-18,110-43.5C215,170.43,206.36,155.73,188.72,144.41Z"/><path class="cls-2" d="M120.73,37c3,1.09,5.66,2.18,8.38,3,7,2.11,14.2,2.31,21.44,2.14a89,89,0,0,0,20.09-3c1.73-.44,3.41-1.06,5.11-1.59a7.54,7.54,0,0,1,.77-.14c0,.56-.05,1-.1,1.51a15.3,15.3,0,0,0,1,8.49c2.19,4.51,5.86,6.72,10.78,7.11a24.31,24.31,0,0,0,14.69-3.78l1.18-.68c.27,1.24.57,2.34.74,3.45,1.39,9.22,1.35,18.35-1.72,27.3s-9.21,15.25-17.46,19.71c-2.2,1.19-3.84,1.36-6.16,0a31.19,31.19,0,0,0-17.12-4.6,27.85,27.85,0,0,0-3.27.45c-1.65.24-3.33.37-5,.77a19.37,19.37,0,0,0-9.42,5.65,1.31,1.31,0,0,1-1.86.36l-.1,0a4.69,4.69,0,0,1-3.4-3.36c-2.09-5.74-6.45-9.46-11.76-12.17-1.33-.68-2.79-1.1-4.12-1.76a3.5,3.5,0,0,1-1.38-1.36,41.58,41.58,0,0,1-5.35-24.93c.43-4.51.76-9,1.5-13.49A85.06,85.06,0,0,1,120.73,37Zm6.83,25.74a6.86,6.86,0,0,0,7,7.12,6.73,6.73,0,0,0,6.61-6.87c.05-3.82-2.79-7.08-6.22-7.13A6.94,6.94,0,0,0,127.55,62.69Zm24.6.08c0,3.58,2.37,6.06,5.79,6.09,3.82,0,7.09-2.93,7.11-6.41,0-4.08-3.64-6.15-7.08-6.2S152.14,59.11,152.15,62.77Zm-5.08,17.6a9.4,9.4,0,0,0,8.5-4.41,4.8,4.8,0,0,0,.71-2.29,1.65,1.65,0,0,0-.93-1.22c-.32-.12-.9.3-1.32.56-.19.12-.26.42-.38.63A7.37,7.37,0,0,1,142,74.91a6.17,6.17,0,0,0-1.23-1.17,1.42,1.42,0,0,0-1.24-.12,1.51,1.51,0,0,0-.47,1.27,5,5,0,0,0,.92,1.9A8.7,8.7,0,0,0,147.07,80.38ZM132.74,51.85c1.21-.19,2.38-.3,3.52-.57a1.88,1.88,0,0,0,1.56-1.81,1.83,1.83,0,0,0-1.25-1.93,9.49,9.49,0,0,0-2.46-.64,7,7,0,0,0-4.94.87,1.84,1.84,0,0,0-1,1.93,2,2,0,0,0,1.58,1.7A27.89,27.89,0,0,0,132.74,51.85Zm27.06-4.12-.05.26a14.22,14.22,0,0,0-1.92,0,6.8,6.8,0,0,0-1.84.52c-1.39.63-1.53,1.77-.25,2.59a9.29,9.29,0,0,0,7.4,1.11,1.93,1.93,0,0,0,1.58-1.8,1.78,1.78,0,0,0-1.33-1.87A35.21,35.21,0,0,0,159.81,47.73Z"/><path class="cls-2" d="M134.65,38.35a43,43,0,0,1,7-7.79c2.41-2.28,4.84-4.53,7.27-6.79l-.24-.31a8.91,8.91,0,0,0-1,.48,55.74,55.74,0,0,0-13,11.43,12.71,12.71,0,0,0-.82,1.13c-1,1.46-1,1.54-2.6,1-2.78-.9-5.52-1.93-8.29-2.87-.8-.27-.81-.63-.45-1.34,4.66-9.12,12.28-14.43,22-17.09,7-1.92,14.12-1.84,21.27-1.36a39,39,0,0,1,22,8.41c.62.48,1.24,1,1.8,1.52s.78.5,1.26,0a4.68,4.68,0,0,1,1.34-.86c.28-.12.81-.14,1,0a1.29,1.29,0,0,1,.19,1.05,10.86,10.86,0,0,1-.84,1.69,16.6,16.6,0,0,1,2.29,0,11.34,11.34,0,0,1,2.65.68,1.36,1.36,0,0,1,.56,1.13,1.28,1.28,0,0,1-.82.83,24.85,24.85,0,0,1-2.75.43c.24.36.39.62.57.86a52.08,52.08,0,0,1,8,15.44c.16.52.35,1-.31,1.37-3,1.77-6,3.46-9.45,3.84a25,25,0,0,1-6.81-.11A9.08,9.08,0,0,1,179,42.94c-.15-2.09,0-4.2,0-6.3,0-.31,0-.62,0-1.16A181.16,181.16,0,0,1,156,39a2.52,2.52,0,0,0,0-.67.8.8,0,0,0-.34-.45.48.48,0,0,0-.43.2c-.46,1.41-1.66,1.07-2.67,1.14-.48,0-1,0-1.68,0,.37-.92.69-1.59.9-2.29a2.55,2.55,0,0,0-.1-1c-.3.12-.75.14-.88.36-.4.66-.63,1.44-1,2.1a1.65,1.65,0,0,1-1.06.75c-1.39.08-2.78,0-4.17,0-.09,0-.18-.1-.38-.21.26-.39.5-.78.77-1.14l9-12.35c0-.06.11-.11.13-.17.08-.34.14-.68.21-1-.34.1-.79.11-1,.33a20.88,20.88,0,0,0-2.4,2.59c-2.71,3.72-5.35,7.49-8,11.24-.17.23-.46.56-.67.55C139.75,38.85,137.34,38.6,134.65,38.35Zm60,1.78c-.27-.15-.47-.35-.64-.33a2,2,0,0,0-.78.33,28.83,28.83,0,0,0-8,7.62,1.34,1.34,0,0,0-.3.56,3.28,3.28,0,0,0,.07.78,2.27,2.27,0,0,0,.76-.17,4.86,4.86,0,0,0,.67-.68L194,40.76C194.19,40.59,194.35,40.41,194.61,40.13ZM194.33,45c-.57-.06-1-.25-1.19-.11-1.49,1.36-3,2.75-4.36,4.2-.2.2,0,.75,0,1.14a3.12,3.12,0,0,0,1-.43c1.33-1.29,2.62-2.62,3.91-3.95C193.79,45.68,193.93,45.48,194.33,45ZM166,31.79l.24.26a10.24,10.24,0,0,0,1.17-.66c1.86-1.38,3.72-2.77,5.55-4.19.25-.19.33-.61.48-.92-.35,0-.81-.05-1,.13-1.93,1.47-3.82,3-5.7,4.51A5.09,5.09,0,0,0,166,31.79Zm26.67,17.72.29.29a6.21,6.21,0,0,0,1-.61c.91-.79,1.8-1.61,2.65-2.47.2-.2.19-.61.27-.92-.35,0-.79,0-1,.17a28.87,28.87,0,0,0-2.41,2.25A7.64,7.64,0,0,0,192.72,49.51Zm-5-11.11a2.87,2.87,0,0,0-1,.08,1.38,1.38,0,0,0-.55.63c-.05.11.15.34.23.52a3,3,0,0,0,.66-.38A6.09,6.09,0,0,0,187.75,38.4Z"/><path class="cls-2" d="M137.42,62.64c0,1.84-1,2.83-3,2.83a3,3,0,0,1-3.12-3.29,3.08,3.08,0,0,1,3.26-3.1C136.32,59.08,137.41,60.45,137.42,62.64Zm-2.9-1.41c-.5-.51-.94-1.1-1.06-1a2.18,2.18,0,0,0-1,1c-.07.16.49.83.79.85S133.94,61.61,134.51,61.23Z"/><path class="cls-2" d="M161.66,62.29a2.78,2.78,0,1,1-5.54,0A2.84,2.84,0,0,1,159,59.21C160.54,59.2,161.65,60.48,161.66,62.29Zm-3.23-2.57c-.48.72-.95,1.13-1,1.58,0,.29.56.64.87,1,.36-.37.87-.69,1-1.14C159.41,60.87,158.9,60.42,158.43,59.73Z"/><path class="cls-2" d="M129.66,49.3c2-1.28,5.55-1.27,6.59,0C135.14,50.55,130.51,50.53,129.66,49.3Z"/><path class="cls-2" d="M156.68,49.92a6.32,6.32,0,0,1,4.14-.6,9.09,9.09,0,0,1,2.05.5,1,1,0,0,1,.49.71c0,.16-.34.4-.56.54a1.16,1.16,0,0,1-.61.17A11.78,11.78,0,0,1,156.68,49.92Z"/><path class="cls-3" d="M107.33,28.15c-2.43-.8-3.67-2.81-5.47-4.64a28.23,28.23,0,0,1,0,3.57,7.35,7.35,0,0,1-.88,2.5,1.86,1.86,0,0,1-1.28.71,23.27,23.27,0,0,1-2.77,0c.43,1,1.84,1.5,3.48,1.32a2.2,2.2,0,0,0,2-1.86,25.92,25.92,0,0,0,.35-3c.42.39.72.72,1.08,1a16.5,16.5,0,0,0,2.11,1.45c1.51.79,2.08.63,3.32-.64a21.38,21.38,0,0,1-.64,3.91c-1.14,3.21-.32,2.78-3.89,2.9-4.06.14-7.86-.69-10.65-4a15.25,15.25,0,0,1-3.69-9.29c0-.4-.1-.79-.2-1.53-.48.57-.76.87-1,1.19-3.42,4.85-6.9,9.64-11.58,13.42-6.23,5-13,8.91-20.91,10.64a32.18,32.18,0,0,1-13.61-.14,1.75,1.75,0,0,0-.73-.12,1.6,1.6,0,0,0-.9.52c-.09.14.2.72.43.82A25.44,25.44,0,0,0,45,48c.57.15.77.37.67,1a74.87,74.87,0,0,0-.81,15.91c.38,10.42,1,20.83,1.54,31.24A12.67,12.67,0,0,0,47,98.28a2.46,2.46,0,0,1,0,1,6.36,6.36,0,0,1-3.62,4.39,2.43,2.43,0,0,1-1.34.16,53.78,53.78,0,0,1-13.75-3.55A36.46,36.46,0,0,1,11.81,88,35.57,35.57,0,0,1,5.65,74.9a29,29,0,0,1-.31-7.35A117.27,117.27,0,0,1,8.19,44c1.15-4.86,2.22-9.78,4.73-14.18,2.32-4.05,4.47-8.28,7.92-11.52a64,64,0,0,1,13.89-10,5.53,5.53,0,0,1,.55-.2,5.64,5.64,0,0,1-.32.49c-2.72,3.12-5.45,6.23-8.13,9.38-.28.33-.23.94-.33,1.41.52,0,1.16.27,1.56.06,2.55-1.37,5-2.83,7.54-4.28,1.47-.86,2.91-1.76,4.44-2.54-1,1.35-2,2.64-2.87,4.05-1,1.74-1.92,3.59-2.85,5.39a1.82,1.82,0,0,0-.28.8c0,.64-.1,1.6.24,1.83a2.19,2.19,0,0,0,1.93-.06c1.84-1.09,3.59-2.33,5.37-3.53,2-1.38,4.06-2.79,6.1-4.18a3.84,3.84,0,0,1,.5-.26l-4.87,5.09a20.76,20.76,0,0,0-2.08,2.3,5,5,0,0,0-.43,1.74,4.82,4.82,0,0,0,1.78.25,19.15,19.15,0,0,0,3.08-1.21c2.88-1.32,5.75-2.67,8.75-3.86l-.58.64q-2.62,2.9-5.22,5.81a2.59,2.59,0,0,0-.65,1,2.24,2.24,0,0,0,0,1.53c.18.28,1,.35,1.41.24a9.15,9.15,0,0,0,2-.93c3.34-1.85,6.67-3.72,10-5.58a2.81,2.81,0,0,1,1.42-.39c-.17.33-.32.66-.5,1-1.14,2.11-2.33,4.21-2.56,6.65a2.08,2.08,0,0,0,.62,1.71,1.91,1.91,0,0,0,1.8-.32c1.33-1.47,2.5-3.09,3.72-4.67a3,3,0,0,1,.69-.79c0,.39,0,.77,0,1.16,0,1.35,0,2.72.1,4.06a1.55,1.55,0,0,0,.87,1.14,1.64,1.64,0,0,0,1.32-.6,20.32,20.32,0,0,0,1.4-2.4c.23-.39.47-.78.89-1.47.58,2,.31,4.11,2.34,4.9l.36-.16-1.06-2.84a27.17,27.17,0,0,1-1-2.8c-.24-.94-.73-.82-1.2-.36a13.42,13.42,0,0,0-1.44,1.84,4.85,4.85,0,0,1-1,1.23c0-.67,0-1.34,0-2,0-1.25.05-2.5,0-3.74,0-.36-.34-1-.59-1a1.44,1.44,0,0,0-1.15.51c-1.07,1.51-2,3.11-3.09,4.63-.54.77-1.2,1.45-1.81,2.17l-.32-.18a20.65,20.65,0,0,1,.74-2.49c.67-1.54,1.46-3,2.16-4.54.32-.68,1-1.41.36-2.16s-1.58-.22-2.26.13c-3.36,1.73-6.7,3.52-10,5.3-.72.38-1.42.8-2.4,1.36a8.74,8.74,0,0,1,.47-.82,52.42,52.42,0,0,1,7.92-8.26,3.77,3.77,0,0,0,.65-1.19c-.48,0-1-.24-1.43-.07C53,20,48.73,22,44.46,23.86a5,5,0,0,1-1.81.53c.23-.28.44-.57.68-.83,2.1-2.24,4.24-4.45,6.3-6.72a5.66,5.66,0,0,0,.72-1.62,4.83,4.83,0,0,0-1.69.27c-3.35,2-6.66,4-10,6.07-1.08.66-2.12,1.38-3.18,2.07l-.31-.26a37.68,37.68,0,0,1,2.05-4.27c1.47-2.31,3.13-4.5,4.72-6.74a6.08,6.08,0,0,0,.61-.74,14.94,14.94,0,0,0,.55-1.48,4.69,4.69,0,0,0-1.44.25c-3.81,2-7.59,4.13-11.38,6.2l-.9.45a9,9,0,0,1,.59-.89c2.24-2.49,4.42-5.05,6.76-7.44A8,8,0,0,1,41.7,5.92c.16,0,.44-.18.43-.24-.13-1.07.8-1,1.37-1.27A54.78,54.78,0,0,1,59.06.65c3-.31,6-.51,9-.62C74.35-.21,80.47,1,86.5,2.76a38.06,38.06,0,0,1,14.57,7.47,19.57,19.57,0,0,1,6.7,10.36c.43,1.8,0,3.8-.07,5.71A12.84,12.84,0,0,1,107.33,28.15Z"/><path class="cls-3" d="M88.78,26.06a17.63,17.63,0,0,0,3.06,6.41,13.42,13.42,0,0,0,10.48,5.2,40.32,40.32,0,0,0,4.6-.19c.59,0,.92.07,1.12.66,1.73,5.25,3.62,10.47,4.22,16A44.68,44.68,0,0,1,107.4,80.5q-1.36,2.55-2.9,5a3.88,3.88,0,0,1-1.41,1.21c-3.78,2.06-7.69,4-9.89,7.94-1.62,2.86-4.29,3.91-7,5-1.38.58-2.8,1.07-4.22,1.53a14.79,14.79,0,0,1-2.8.64c-.26,0-.68-.42-.86-.74a22.34,22.34,0,0,0-6.57-7.66,7.47,7.47,0,0,0-5-1.53,4.71,4.71,0,0,0-4.49,3.92,53,53,0,0,0-.53,5.61c0,.24,0,.48-.05.92a19.56,19.56,0,0,1-3.07-.57c-2.75-1-5.46-2.07-8.19-3.12l-2-.76a.49.49,0,0,1-.06-.23c-.43-12.42-.91-24.84-1.25-37.26-.1-3.67.22-7.35.3-11,0-.88.37-1.07,1.16-1.06,2.1,0,4.21,0,6.32,0A25.48,25.48,0,0,0,64.19,46c1.28-.52,2.54-1.13,3.86-1.72.59,1.33,1.84,1.46,3,1.48a11.43,11.43,0,0,0,8.46-3.5,4,4,0,0,0,.78-1.14,1.86,1.86,0,0,0-1.54-2.89c-.24,0-.49,0-.88-.08,2-1.94,4.14-3.69,5.95-5.69S87.12,28.24,88.78,26.06ZM76,65.83a18,18,0,0,0,3.24-.94c4.93-2.48,5.25-7.66,3.43-11.15a6.81,6.81,0,0,0-10.32-2.32c-3,2.16-3.58,5.21-3.07,8.57C69.79,63.58,72.28,65.6,76,65.83Zm32.8-11.54A22.33,22.33,0,0,0,107.9,51a5.09,5.09,0,0,0-7.81-1.94,7.74,7.74,0,0,0-1.29,10.4,4.84,4.84,0,0,0,7.1.87A7.82,7.82,0,0,0,108.77,54.29ZM91.4,75c.81-.16,2.33-.36,3.8-.76a10,10,0,0,0,5.48-3.35,7.52,7.52,0,0,0,1.25-3.07c.16-.82-.43-1.05-1.14-.56a3.17,3.17,0,0,0-.56.49c-3.66,4.07-8.23,5.13-13.42,4-1.2-.27-2.34-.85-3.52-1.22a3.26,3.26,0,0,0-1.08,0,2.85,2.85,0,0,0,.12,1.15,4.43,4.43,0,0,0,1.1,1.14C85.54,74.55,88.07,74.9,91.4,75Zm7.3-32.39.06.17c1.68-.44,3.37-.83,5-1.33.81-.24,1.53-.76,1.44-1.75a1.66,1.66,0,0,0-1.73-1.48,22.12,22.12,0,0,0-4.86.19A5.36,5.36,0,0,0,96.06,40c-1,1-.54,2.15.84,2.44A18.12,18.12,0,0,0,98.7,42.65Z"/><path class="cls-3" d="M69.57,43.64c3-1.54,5.27-4.08,8.85-3.55C78.23,42.28,72.24,44.85,69.57,43.64Z"/><path class="cls-3" d="M75.86,61.19a2.85,2.85,0,0,1-3.16-2.87,3,3,0,0,1,3.08-3.26,3.17,3.17,0,0,1,3.32,3.18A3,3,0,0,1,75.86,61.19Zm-.8-2.42c.51-.76,1-1.19,1-1.66,0-.28-.64-.84-1-.88A1,1,0,0,0,74,57.36C74,57.77,74.52,58.1,75.06,58.77Z"/><path class="cls-3" d="M104.44,55.47A2.55,2.55,0,0,1,102,58.11a2.6,2.6,0,0,1-2.43-2.74,2.53,2.53,0,0,1,2.48-2.56A2.49,2.49,0,0,1,104.44,55.47Zm-1.63-.77c-.67-.44-1.13-.91-1.32-.82a2,2,0,0,0-.92,1c-.07.18.54.85.67.81A8,8,0,0,0,102.8,54.7Z"/><path class="cls-3" d="M103.08,40.23l-5.27.92c.72-1.38,3-1.77,5.22-1.21Z"/><path class="cls-4" d="M157.88,100.09c-1.51,2.88-1.88,5.45-.09,8a1.72,1.72,0,0,0,2.17.76c-1.66-2.43-2.26-5-.69-7.6.66-1.1,1.09-1.27,2.74-1.48a7.19,7.19,0,0,0-1.45,4.86,6.36,6.36,0,0,0,2.56,5.08,2.86,2.86,0,0,0,3.53.25,2.24,2.24,0,0,0-.5-.33c-3.79-1.13-4.78-5.4-3.49-8.52.75-1.81.95-1.9,3.19-1.6a6.72,6.72,0,0,0-1.21,5,6.16,6.16,0,0,0,2.66,4.79c2.34,1.56,5.67.48,6.34-2a3.24,3.24,0,0,0-1.37-3.55c-1.15-.79-3.32-1-4.14-.18a2.66,2.66,0,0,0-.77,1.94c.07.57.76,1.11,1.29,1.53.19.15.7-.1,1.06-.17l-.28-.83-.34-.94a3.54,3.54,0,0,1,1.07-.22c1.18.13,1.83.82,1.76,1.76a1.91,1.91,0,0,1-2,1.59,2.69,2.69,0,0,1-2.63-1.3,6.33,6.33,0,0,1-.61-6,1.73,1.73,0,0,1,2.14-1.27A24.5,24.5,0,0,1,184,108.62c4.29,5.35,6.73,11.42,6.38,18.4-.45,9.13-4.71,16-12.53,20.65a25.51,25.51,0,0,1-19.9,3c-6.67-1.67-11.75-5.65-15.64-11.25-7.21-10.38-5-23.39,2.28-32.09,2.6-3.13,5.6-5.73,9.67-6.73C155.37,100.33,156.51,100.28,157.88,100.09Zm-9,19.56.12,0c0,.36,0,.71,0,1.07a6.45,6.45,0,0,0,8.62,5.67,7.64,7.64,0,0,0,4.08-9.29c-1.37-3.69-5.12-5.1-8.89-4a4.71,4.71,0,0,0-3.4,3.53C149.17,117.61,149.07,118.64,148.9,119.65Zm17.21,2c0,5,2.86,7.47,7.43,6.88a7.1,7.1,0,0,0,5.56-5,7.31,7.31,0,0,0-6.38-9c-1.61-.17-3.19,0-4.3,1.33C167,117.63,165.93,119.6,166.11,121.67Zm-4.36,14.7a8.15,8.15,0,0,0,2.1-.63,1.86,1.86,0,0,0,.83-1.42c-.09-.79-.88-.63-1.49-.54a5.61,5.61,0,0,1-3.83-.54,1.67,1.67,0,0,0-1.49-.07c-.59.53-.15,1.19.28,1.69A5,5,0,0,0,161.75,136.36Z"/><path class="cls-4" d="M158.28,119.67a2.79,2.79,0,0,1-2.74,2.94,3.13,3.13,0,0,1-3-2.94,3,3,0,0,1,3-2.89A2.73,2.73,0,0,1,158.28,119.67Zm-2.49-1c-.62-.51-1.09-1.11-1.27-1a2.65,2.65,0,0,0-1.14,1.13c-.06.11.6.89.89.87S155.12,119.17,155.79,118.7Z"/><path class="cls-4" d="M175.4,121.71a3.18,3.18,0,0,1-6.36-.14,3.19,3.19,0,0,1,3.19-3.08A3.22,3.22,0,0,1,175.4,121.71Zm-2.82-1.27c-.62-.44-1-.92-1.34-.88s-.64.58-1,.91c.33.31.63.84,1,.87S172,120.88,172.57,120.44Z"/><path class="cls-5" d="M76.32,104.81c-1.39-1-2.71-2-4.07-2.87a5.21,5.21,0,0,0-1.93-.86,1.61,1.61,0,0,0-2,2.23,12.76,12.76,0,0,0,1.89,2.39,5,5,0,0,0,.77.56c-.4,0-.62.05-.82.09s-.49.13-.74.2c.2.25.34.63.6.74a11.82,11.82,0,0,0,1.81.43l-1.52.84.08.14c1.83-.18,3.65-.45,5.48-.54a27,27,0,0,1,13.35,2.36A17.11,17.11,0,0,1,92.4,113c6.42,5.34,9.62,12.16,9,20.53-.44,5.77-2.17,11.14-6.18,15.53a26.6,26.6,0,0,1-15.49,8.24,21,21,0,0,1-17.18-4.07,23.72,23.72,0,0,1-9.2-16,25.78,25.78,0,0,1,7.13-22,1,1,0,0,1,.78-.31c3.22,1,6.3.17,9.33-.77,1.76-.55,3.42-1.4,5.19-2.14,2.16,4.2,6.11,5.28,10.37,5.59a10.27,10.27,0,0,0,6.69-1.42c-2.29.06-4.37.26-6.44.15-3.94-.22-7.52-1.34-9.91-4.83-.52-.75-1.26-.57-1.93-.32-1.44.54-2.83,1.2-4.27,1.7a19.1,19.1,0,0,1-7.14,1.15,9.88,9.88,0,0,1-1.06-.12c-.09,0-.16-.11-.29-.21,1.26-1.91,3.17-3,5-4.19-.61-1.22-1.26-2.32-1.72-3.5A12.77,12.77,0,0,1,65,97c1.14-3.36,4-4.15,6.76-2a19.93,19.93,0,0,1,5.43,7.47,1.22,1.22,0,0,1-.07.88A15.3,15.3,0,0,1,76.32,104.81Zm-2.88,25c.08-3.9-1.76-6-5.62-6.57a5.68,5.68,0,0,0-6.5,3.67,14.8,14.8,0,0,0-.88,3.51,6.08,6.08,0,0,0,7.94,6.78C71.5,136.23,73.37,133.51,73.44,129.79Zm16.11,2.43c-.09-2.23-.81-4.31-3.13-5.28A5.57,5.57,0,0,0,80.05,128a8.54,8.54,0,0,0-2.38,6.13,5.79,5.79,0,0,0,3.9,5.26,5.06,5.06,0,0,0,6-1.5A8.8,8.8,0,0,0,89.55,132.22ZM73.22,147c1.22-.47,2.4-.86,3.5-1.41.26-.13.27-.77.4-1.18-.4-.09-.85-.33-1.21-.24a22.19,22.19,0,0,0-3,1.09c-.36.16-.62.56-.93.85Z"/><path class="cls-5" d="M83.26,105.46c-.66-2-.65-2,1.07-2.87a16,16,0,0,1,9.19-1.88,5.39,5.39,0,0,1,2.46.9,2.63,2.63,0,0,1,.31,3.85,57.82,57.82,0,0,1-4.5,4.68,1,1,0,0,1-.84.08c-1.71-.7-3.4-1.44-5.14-2.18L88,107.3l-.67-.84a1.4,1.4,0,0,1,.22-.2c.92-.54,1.87-1,2.75-1.65.29-.2.4-.68.59-1-.37-.12-.8-.43-1.11-.34-1.81.5-3.6,1.09-5.38,1.68A8.48,8.48,0,0,0,83.26,105.46Z"/><path class="cls-5" d="M69.41,102.33c1.63-.07,6.24,3,6.92,4.62-.87.31-1.59.61-2.43-.3a17.84,17.84,0,0,0-2.55-1.73,9.92,9.92,0,0,1-1.61-1.54A3.06,3.06,0,0,1,69.41,102.33Z"/><path class="cls-5" d="M79.51,107.19c-.57-.21-1.78.5-1.77-1,0-1.64.76-2.55,2-2.49a2.11,2.11,0,0,1,2,2.34C81.58,107,81.12,107.27,79.51,107.19Z"/><path class="cls-5" d="M86.53,105.27c-2.19,1.68-2.19,1.68-2.07,2.55l-1.71-.23A7.08,7.08,0,0,1,86.53,105.27Z"/><path class="cls-5" d="M63.8,129.92a2.69,2.69,0,0,1,2.63-2.79,2.6,2.6,0,0,1,2.4,2.54,2.53,2.53,0,1,1-5,.25Zm3-1a6.57,6.57,0,0,0-1.15-.68c-.07,0-.48.48-.43.62a3.67,3.67,0,0,0,.69.89Z"/><path class="cls-5" d="M85.65,133.46a3.09,3.09,0,0,1-3.08,3A2.45,2.45,0,0,1,80.2,134a3.14,3.14,0,0,1,3.11-3.15A2.42,2.42,0,0,1,85.65,133.46Zm-1.59-1.17c-.55-.34-.87-.7-1.18-.69s-.72.55-.66.72a1.27,1.27,0,0,0,.8.75C83.24,133.12,83.55,132.69,84.06,132.29Z"/><path class="cls-6" d="M106,88.39a10.83,10.83,0,0,1,1.84-.63,1.17,1.17,0,0,1,.89.49c1,1.38,1.84,2.8,2.77,4.2a4.54,4.54,0,0,0,.71.93c.5.44,1.13.19,1.12-.47a3.13,3.13,0,0,0-.43-1.51c-.85-1.39-1.77-2.74-2.78-4.27,1.24-.13,2.35-.3,3.48-.34.28,0,.69.35.86.65,1,1.71,1.87,3.45,2.78,5.18.27.52.41,1.3,1.22,1A1.19,1.19,0,0,0,119,92c-.59-1.45-1.32-2.84-2-4.25-.12-.25-.25-.49-.56-1.1a35.08,35.08,0,0,1,5,.76A24.12,24.12,0,0,1,136.81,101a26.38,26.38,0,0,1,2.25,8.23,3.86,3.86,0,0,1-.27,2,33.28,33.28,0,0,0-3,14.55,3.29,3.29,0,0,1-.61,1.75c-6.28,9.11-17.85,11.27-27.09,7.29-1.08-.46-2.1-1.07-3.16-1.57a1.66,1.66,0,0,1-1-1.68,24.66,24.66,0,0,0-3.79-13.2,24.26,24.26,0,0,0-6.86-6.83l-.77-.55c1.27-1,2.52-1.83,3.69-2.8a27,27,0,0,0,3.15-2.89c2.13-2.42,1.15-5.42-2-6.15-1-.23-2-.31-3.06-.47a21.64,21.64,0,0,1,5.69-6.9c.54,1.12,1,2.15,1.52,3.15s.92,1.77,1.44,2.62c.13.22.49.31.74.45a2.59,2.59,0,0,0,.25-.83,11.76,11.76,0,0,0-2.07-5.66c-.42-.65-.34-1,.33-1.32s1.31-.72,2.1-1.16c.34.59.68,1.12,1,1.68.8,1.63,1.54,3.3,2.37,4.91.19.36.68.57,1,.85.2-.45.64-1,.54-1.35a20.36,20.36,0,0,0-1.32-3.37C107.29,90.62,106.62,89.57,106,88.39Zm28.15,21.51a29.92,29.92,0,0,0-.9-3.7c-1.71-4.53-7.51-4.43-9.87-1.93a6.62,6.62,0,0,0-1.47,7,6.85,6.85,0,0,0,5.26,4.83,6.69,6.69,0,0,0,3.25-.19C132.81,115.09,134,112.93,134.1,109.89Zm-18.21.42a7,7,0,0,0-6.73-7.39c-3.16,0-5.82,3-5.82,6.69a6.62,6.62,0,0,0,6.7,6.72A5.7,5.7,0,0,0,115.89,110.31Zm3,15.5a8.23,8.23,0,0,0,1.86-.21,5.39,5.39,0,0,0,1.89-1.07.75.75,0,0,0-.51-1.32c-1.63.12-3.26.33-4.87.6-.29,0-.72.54-.7.79a1.32,1.32,0,0,0,.71.91A7.14,7.14,0,0,0,118.85,125.81Z"/><path class="cls-6" d="M129.32,112.79a3.06,3.06,0,0,1-3.19-3c0-1.85,1.16-2.82,3.16-2.75a3,3,0,0,1,3,3A2.8,2.8,0,0,1,129.32,112.79Zm.78-5.32c-.34.61-.72,1-.66,1.25s.54.53.83.79c.24-.29.68-.58.68-.87S130.54,108,130.1,107.47Z"/><path class="cls-6" d="M107.74,109.71a2.8,2.8,0,0,1,2.92-3,3.2,3.2,0,0,1,3,3.48,2.9,2.9,0,0,1-2.95,3A3.19,3.19,0,0,1,107.74,109.71Zm4.08.7c.42-.59.87-1,.8-1.17a1.92,1.92,0,0,0-.93-.91c-.15-.07-.81.46-.77.56A8.34,8.34,0,0,0,111.82,110.41Z"/><path d="M24.09,170.94l3.29,9.28,3.27-9.28h3.46v12.8H31.46v-3.5l.26-6-3.45,9.54H26.46L23,174.21l.26,6v3.5H20.65v-12.8Z"/><path d="M44.49,183.73H41.94v-3.65H38.79v3.65H36.25v-9.51h2.54V178h3.16v-3.81h2.55Z"/><path d="M46.06,178.89a5.64,5.64,0,0,1,.54-2.52,4,4,0,0,1,1.57-1.71,4.58,4.58,0,0,1,2.38-.61,4.33,4.33,0,0,1,3.14,1.18,4.73,4.73,0,0,1,1.36,3.2l0,.65a5,5,0,0,1-1.22,3.51,4.74,4.74,0,0,1-6.56,0A5.05,5.05,0,0,1,46.06,179Zm2.54.18a3.55,3.55,0,0,0,.51,2.07,1.83,1.83,0,0,0,2.9,0,3.89,3.89,0,0,0,.52-2.27,3.52,3.52,0,0,0-.52-2.06,1.68,1.68,0,0,0-1.46-.73,1.66,1.66,0,0,0-1.44.73A4,4,0,0,0,48.6,179.07Z"/><path d="M63.11,176.27H59.18v7.46H56.64v-9.51h6.48Z"/><path d="M63.61,178.89a5.64,5.64,0,0,1,.54-2.52,4,4,0,0,1,1.57-1.71A4.58,4.58,0,0,1,68.1,174a4.33,4.33,0,0,1,3.14,1.18,4.73,4.73,0,0,1,1.36,3.2l0,.65a5,5,0,0,1-1.22,3.51,4.74,4.74,0,0,1-6.56,0A5.05,5.05,0,0,1,63.61,179Zm2.54.18a3.55,3.55,0,0,0,.51,2.07,1.83,1.83,0,0,0,2.9,0,3.89,3.89,0,0,0,.52-2.27,3.52,3.52,0,0,0-.52-2.06,1.68,1.68,0,0,0-1.46-.73,1.66,1.66,0,0,0-1.44.73A4,4,0,0,0,66.15,179.07Z"/><path d="M73.68,181.69a5.13,5.13,0,0,0,1.17-1.81,8.76,8.76,0,0,0,.34-2.54l.07-3.11h7v7.46h1.37v4.9H81.09v-2.86H75.45v2.86H72.86v-4.9Zm3,0h3v-5.36h-2l0,1.14A8.54,8.54,0,0,1,76.68,181.69Z"/><path d="M89.29,183.91a4.67,4.67,0,0,1-3.41-1.28,4.56,4.56,0,0,1-1.31-3.42V179a5.74,5.74,0,0,1,.55-2.56,4.06,4.06,0,0,1,1.57-1.74A4.4,4.4,0,0,1,89,174a3.94,3.94,0,0,1,3.07,1.23,5,5,0,0,1,1.12,3.49v1H87.14a2.36,2.36,0,0,0,.74,1.49,2.24,2.24,0,0,0,1.57.56,2.74,2.74,0,0,0,2.29-1.06L93,182.2a3.8,3.8,0,0,1-1.55,1.26A5.08,5.08,0,0,1,89.29,183.91ZM89,176.1a1.59,1.59,0,0,0-1.23.51,2.65,2.65,0,0,0-.6,1.47H90.7v-.2a1.89,1.89,0,0,0-.46-1.31A1.64,1.64,0,0,0,89,176.1Z"/><path d="M102.44,176.27h-3v7.46H96.84v-7.46h-3v-2h8.6Z"/><path d="M112,183.73h-2.55v-3.65h-3.16v3.65h-2.54v-9.51h2.54V178h3.16v-3.81H112Z"/><path d="M116.64,177h1.82a5.29,5.29,0,0,1,2.16.41A3.19,3.19,0,0,1,122,178.6a3.24,3.24,0,0,1,.5,1.79,3,3,0,0,1-1.11,2.42,4.62,4.62,0,0,1-3,.92h-4.32v-9.51h2.55Zm0,2v2.63h1.8a1.73,1.73,0,0,0,1.16-.35,1.19,1.19,0,0,0,.4-.95,1.25,1.25,0,0,0-.4-1,1.68,1.68,0,0,0-1.17-.36Zm9.95,4.68H124v-9.51h2.54Z"/><path d="M133.2,183.91a4.67,4.67,0,0,1-3.41-1.28,4.56,4.56,0,0,1-1.31-3.42V179a5.74,5.74,0,0,1,.55-2.56,4.06,4.06,0,0,1,1.57-1.74,4.4,4.4,0,0,1,2.32-.61,3.94,3.94,0,0,1,3.07,1.23,5,5,0,0,1,1.12,3.49v1h-6.06a2.36,2.36,0,0,0,.74,1.49,2.24,2.24,0,0,0,1.57.56,2.74,2.74,0,0,0,2.29-1.06l1.25,1.4a3.8,3.8,0,0,1-1.55,1.26A5.08,5.08,0,0,1,133.2,183.91Zm-.29-7.81a1.59,1.59,0,0,0-1.23.51,2.65,2.65,0,0,0-.6,1.47h3.53v-.2a1.89,1.89,0,0,0-.46-1.31A1.64,1.64,0,0,0,132.91,176.1Z"/><path d="M147,181.86a1.67,1.67,0,0,0,1.14-.39,1.35,1.35,0,0,0,.46-1H151a3.26,3.26,0,0,1-.53,1.77,3.49,3.49,0,0,1-1.42,1.25,4.45,4.45,0,0,1-2,.44,4.13,4.13,0,0,1-3.22-1.3,5.13,5.13,0,0,1-1.18-3.58v-.17a5.07,5.07,0,0,1,1.17-3.51A4.08,4.08,0,0,1,147,174a4,4,0,0,1,2.86,1,3.58,3.58,0,0,1,1.09,2.7h-2.38a1.73,1.73,0,0,0-.46-1.2,1.7,1.7,0,0,0-2.5.18,3.75,3.75,0,0,0-.45,2.1v.26a3.8,3.8,0,0,0,.45,2.11A1.55,1.55,0,0,0,147,181.86Z"/><path d="M156.8,183.91a4.67,4.67,0,0,1-3.41-1.28,4.56,4.56,0,0,1-1.31-3.42V179a5.74,5.74,0,0,1,.55-2.56,4.06,4.06,0,0,1,1.57-1.74,4.4,4.4,0,0,1,2.32-.61,3.94,3.94,0,0,1,3.07,1.23,5,5,0,0,1,1.12,3.49v1h-6.06a2.36,2.36,0,0,0,.74,1.49,2.24,2.24,0,0,0,1.57.56,2.74,2.74,0,0,0,2.29-1.06l1.25,1.4a3.8,3.8,0,0,1-1.55,1.26A5.08,5.08,0,0,1,156.8,183.91Zm-.29-7.81a1.59,1.59,0,0,0-1.23.51,2.65,2.65,0,0,0-.6,1.47h3.53v-.2a1.89,1.89,0,0,0-.46-1.31A1.64,1.64,0,0,0,156.51,176.1Z"/><path d="M167.94,180.74l2.49-6.51h3.18v9.51h-2.54V177.9l-2.28,5.84h-1.71L164.86,178v5.74h-2.54v-9.51h3.16Z"/><path d="M178.53,177h1.82a5.29,5.29,0,0,1,2.16.41,3.19,3.19,0,0,1,1.43,1.18,3.24,3.24,0,0,1,.5,1.79,3,3,0,0,1-1.11,2.42,4.62,4.62,0,0,1-3,.92H176v-9.51h2.55Zm0,2v2.63h1.8a1.73,1.73,0,0,0,1.16-.35,1.19,1.19,0,0,0,.4-.95,1.25,1.25,0,0,0-.4-1,1.68,1.68,0,0,0-1.17-.36Z"/><path d="M191.59,174.22h2.54v9.51h-2.54v-5.87l-3.18,5.87h-2.55v-9.51h2.55v5.86Z"/><path class="cls-7" d="M335.76,136.55c-6.37,7.34-20.07,9-27.38,2.49-3.38,4.64-7.6,8.6-12.92,10.29A16.54,16.54,0,0,1,288,151.2a4.34,4.34,0,0,1-4.15-3.16,53.29,53.29,0,0,1-1.08-9.54,15.9,15.9,0,0,1-.17-2.25c-26.83,5.6-53.08,18.75-54.29,44.56-.73,15.65,17.89,45.33,71.35,47.6,56.65,2.4,82.08-29.56,83.65-45.6C385.7,158.35,361.49,142.94,335.76,136.55Z"/><path class="cls-8" d="M324.33,90.78c5,1.14,8.61-1.91,9-6.86.31-4.42-1.58-9-6.71-8.44a1.05,1.05,0,0,1-1-.35c-3.28.64-6.1,2.32-7.27,5.94C316.79,85.78,319.75,89.74,324.33,90.78Zm-1.39-6.69a2.35,2.35,0,0,1,1.47-1.92l.2-.09a2.49,2.49,0,0,1,2.83,1.19,2.34,2.34,0,0,1-.52,2.87,2.62,2.62,0,0,1-1.19.59,1.65,1.65,0,0,1-1.8,0,2.15,2.15,0,0,1-1-2.37A2.36,2.36,0,0,1,322.93,84.1Z"/><path class="cls-8" d="M269.51,67.35q-4.61,2.62-9.27,5.14-.1,1.38-.12,2.76a57.2,57.2,0,0,0,29.83-8.16L286.75,67c-1.17,0-1.54-2-.29-2.13a31.9,31.9,0,0,1,7.37-.3c1.33-.94,2.63-1.92,3.89-3a71.39,71.39,0,0,0,12.74-13.79c2.22-3.16,4.15-6.22,3.71-10.25-.38-3.47-2.47-6.71-4.3-9.67-.15,6.46-3,12.6-6.81,17.82-4.07,5.64-9.14,11.91-15.53,15-1.22.58-2.29-1.21-1.07-1.83,5.93-3,10.83-8.94,14.65-14.27a33.2,33.2,0,0,0,6.59-18.88q-2.25-.06-4.51.09a.81.81,0,0,1-.1.72c-7.55,12-17.37,23.09-29.3,30.92-.93.61-2.07-.86-1.19-1.55,11.15-8.66,20.86-18.09,28.66-29.92a46.75,46.75,0,0,0-17.5,5.49c-13.11,7.19-21.49,22.92-23.29,38.53q4-2.21,8-4.36C269.64,65,270.65,66.69,269.51,67.35Z"/><path class="cls-8" d="M309.83,25.78c0,.13,0,.26,0,.39a.76.76,0,0,1,1.09.1c4.08,5.09,7.55,11,4.77,17.56-.2.46-.41.92-.64,1.38.47,7,4.18,12.76,9.5,16.92a14.66,14.66,0,0,1,6,1c1.2.53.42,2.1-.6,2.2-.17,0-.35,0-.52,0,6.35,3.42,16.58,7.12,23.1,4.11a1.4,1.4,0,0,1,.82-.13,51.84,51.84,0,0,0-4.51-17.64,1.08,1.08,0,0,1-.37.18c-7.16,2-14.83-2.52-18.72-8.31-.73-1.09,1-2,1.72-1,4.19,5.52,9.93,6.94,16.45,7.24a39.46,39.46,0,0,0-4.71-7,47.63,47.63,0,0,0-7-6.77A9.06,9.06,0,0,0,338,38.75a1,1,0,0,1-1.47,1.47,8.41,8.41,0,0,1-2.82-6.14,48.38,48.38,0,0,0-12.58-6.13c-4.14,11.69,2.23,21.28,10.17,29.54a1.14,1.14,0,0,1-1.61,1.61c-8.34-7.8-16.52-20.23-10.54-31.73A48.59,48.59,0,0,0,309.83,25.78Z"/><path class="cls-8" d="M304.35,127.5a1.1,1.1,0,0,1,1.91-1.11c.17.26.31.53.45.8h0c1.09-.43,4.26-1.15,3.07-3.06-.35-.55-1.55-.81-2.13-1a13.45,13.45,0,0,0-3.4-.72,5.35,5.35,0,0,0-2.61.41q-1.71.7-1.16,2.75a1,1,0,0,1,0,1.72c-1.6,1-2.58-.12-2.9-1.5-6.21-.18-16.09,7.36-9.09,22.2,7.68-1,12.5-4.78,15.72-10.09C305.35,134.47,306.07,131,304.35,127.5Zm-1.83.73a51.84,51.84,0,0,1-5.25,4.77c-1,.82-2.38-.49-1.44-1.44a31,31,0,0,1,5.66-4.67C302.33,126.36,303.15,127.53,302.51,128.22Z"/><path class="cls-8" d="M301.43,12.73c-18.43,0-34.42,14.1-41.18,27.5-16.75,33.2-7.24,56.75,4,70,9.64,11.36,22.91,15.75,24.36,16.21a13,13,0,0,1,6.17-2.6c-9.68-3.57-19.51-8-26.09-16.15a50.9,50.9,0,0,1-10.91-26.75c-1.07-11.71,2.52-23.22,7.83-33.53a42.77,42.77,0,0,1,23.61-21.18c21-8.12,46.13-.42,58.88,18.34,9.69,14.25,10.43,35.23,4.42,51-6.23,16.32-20.61,25.87-37.18,28.92a24.25,24.25,0,0,1,6.69,2.3c6.31-1.48,39.4-11,41.21-48.53C364.1,60.64,355,12.73,301.43,12.73Z"/><path class="cls-8" d="M272.9,108.6c6.86,7,16.39,10.49,25.33,13.94,1.56-2.3,4.68-2.83,7.3-2.42,2,.32,5.16.86,6.46,2.76,19.81-3,36.09-14.83,40.31-35.18a65.45,65.45,0,0,0,1.29-15.92c-3.66,2.58-8.24,1.69-12.38.73a51.26,51.26,0,0,1-14.35-5.39,32.44,32.44,0,0,1-3-2,34.42,34.42,0,0,0-3.87.4c-1.28.2-2.35-1.65-1-2.28a11.1,11.1,0,0,1,1.89-.62,24.58,24.58,0,0,1-7.58-14.3,68.77,68.77,0,0,1-10.8,12.44,65.77,65.77,0,0,1-5.44,4.58,1.14,1.14,0,0,1-.56,2.12,13.08,13.08,0,0,1-2.32-.07,59.29,59.29,0,0,1-34.09,10.43,45.72,45.72,0,0,0,1.29,9.6A46.67,46.67,0,0,0,272.9,108.6Zm43.86-4.82c-2.6,3.41-10.17,4.87-13.21,1.32-.58-.67,0-2,1-1.64a9.63,9.63,0,0,0,6,.6c1.87-.47,3.4-1.75,5.31-1.93A1.1,1.1,0,0,1,316.75,103.78ZM269.87,82c2.71-3,7-2.58,10.53-1.87a1.17,1.17,0,0,1,.54.25,10.89,10.89,0,0,1,2.42-4c.46-1,1.48-2.11,2.63-2a1.1,1.1,0,0,1,.89-1.07c5.95-1.65,12.72.48,15,6.29,3.37-3.19,10.65-3.29,14.12-.72,2.1-4.42,6.89-7.4,11.81-6.42,4.36-.67,7.31,3.16,8.18,7.8,2.71-.78,5.63-1.13,8.11.51,1.88,1.24,3.68,4.74,1.62,6.57a1.08,1.08,0,0,1-1.82-.75c-.11-.89.17-1.69-.25-2.54a3.59,3.59,0,0,0-2.42-1.8,10.13,10.13,0,0,0-5,.3c.24,6.09-3,12.49-11.2,11.55-6.26-.72-11-5.67-10-12.09a1.08,1.08,0,0,1-.2-.1l-.19-.13a1.49,1.49,0,0,1-.54-.76c-1.88-1.39-5.24-1.48-7.34-1a6.19,6.19,0,0,0-4.12,3.06c.41,5.34-2.37,10.13-8,11.5a11.68,11.68,0,0,1-14-8.27,10.26,10.26,0,0,1-.2-3.87,1.27,1.27,0,0,1-.71.08c-2.17-.37-4.61-.94-6.69.07A3.22,3.22,0,0,0,272,88c.82.9-.3,2.56-1.36,1.77A5.16,5.16,0,0,1,269.87,82Z"/><path class="cls-8" d="M317.79,127.88c-1.83-.61-3.75-.9-5.59-1.41a4.58,4.58,0,0,1-1.69,1.74,19.89,19.89,0,0,1,6.78,3.45c.89.71-.27,2.16-1.21,1.56a31.65,31.65,0,0,0-7.08-3.59.85.85,0,0,1-.55-.53c-.31.09-.61.16-.92.21a13.33,13.33,0,0,1,0,6.37c5.91,4.42,12.71,5.72,21,1.8C328.24,135.13,323.75,129.86,317.79,127.88Z"/><path class="cls-8" d="M292.92,91.85c5.3-.52,7.84-5.28,6.64-10.19-1.24-5.09-6.26-6.43-10.84-6.05-3.45,1.77-6.13,5-5.51,9.07A8.73,8.73,0,0,0,292.92,91.85Zm-4.9-8a6.9,6.9,0,0,1,1.95-2,2.39,2.39,0,0,1,3.17,1c1.3,2.22-1.25,4.71-3.49,3.79A2.53,2.53,0,0,1,288,83.8Z"/><path d="M265.07,183.73h-2.65V173.07H257.3v10.66h-2.64v-12.8h10.41Z"/><path d="M271.59,183.91a4.67,4.67,0,0,1-3.41-1.28,4.56,4.56,0,0,1-1.31-3.42V179a5.74,5.74,0,0,1,.55-2.56,4.06,4.06,0,0,1,1.57-1.74,4.4,4.4,0,0,1,2.32-.61,3.94,3.94,0,0,1,3.07,1.23,5,5,0,0,1,1.12,3.49v1h-6.06a2.36,2.36,0,0,0,.74,1.49,2.24,2.24,0,0,0,1.57.56,2.74,2.74,0,0,0,2.29-1.06l1.25,1.4a3.8,3.8,0,0,1-1.55,1.26A5.08,5.08,0,0,1,271.59,183.91Zm-.29-7.81a1.59,1.59,0,0,0-1.23.51,2.65,2.65,0,0,0-.6,1.47H273v-.2a1.89,1.89,0,0,0-.46-1.31A1.64,1.64,0,0,0,271.3,176.1Z"/><path d="M285.19,183.73h-2.55v-3.65h-3.16v3.65h-2.54v-9.51h2.54V178h3.16v-3.81h2.55Z"/><path d="M291.11,181.86a1.67,1.67,0,0,0,1.14-.39,1.35,1.35,0,0,0,.46-1h2.38a3.26,3.26,0,0,1-.53,1.77,3.49,3.49,0,0,1-1.42,1.25,4.45,4.45,0,0,1-2,.44,4.13,4.13,0,0,1-3.22-1.3,5.13,5.13,0,0,1-1.18-3.58v-.17a5.07,5.07,0,0,1,1.17-3.51,4.08,4.08,0,0,1,3.21-1.31,4,4,0,0,1,2.86,1,3.58,3.58,0,0,1,1.09,2.7h-2.38a1.73,1.73,0,0,0-.46-1.2,1.7,1.7,0,0,0-2.5.18,3.75,3.75,0,0,0-.45,2.1v.26a3.8,3.8,0,0,0,.45,2.11A1.55,1.55,0,0,0,291.11,181.86Z"/><path d="M302.27,174.22h2.54v9.51h-2.54v-5.87l-3.18,5.87h-2.55v-9.51h2.55v5.86Z"/><path d="M306.36,178.89a5.64,5.64,0,0,1,.54-2.52,4,4,0,0,1,1.57-1.71,4.58,4.58,0,0,1,2.38-.61,4.33,4.33,0,0,1,3.14,1.18,4.73,4.73,0,0,1,1.36,3.2l0,.65a5,5,0,0,1-1.22,3.51,4.74,4.74,0,0,1-6.56,0,5.05,5.05,0,0,1-1.23-3.59Zm2.54.18a3.55,3.55,0,0,0,.51,2.07,1.83,1.83,0,0,0,2.9,0,3.89,3.89,0,0,0,.52-2.27,3.52,3.52,0,0,0-.52-2.06,1.68,1.68,0,0,0-1.46-.73,1.66,1.66,0,0,0-1.44.73A4,4,0,0,0,308.9,179.07Z"/><path d="M325.18,183.73h-2.55v-3.65h-3.16v3.65h-2.54v-9.51h2.54V178h3.16v-3.81h2.55Z"/><path d="M331.52,183.91a4.67,4.67,0,0,1-3.41-1.28,4.56,4.56,0,0,1-1.31-3.42V179a5.74,5.74,0,0,1,.55-2.56,4.06,4.06,0,0,1,1.57-1.74,4.4,4.4,0,0,1,2.32-.61,3.94,3.94,0,0,1,3.07,1.23,5,5,0,0,1,1.12,3.49v1h-6.06a2.36,2.36,0,0,0,.74,1.49,2.24,2.24,0,0,0,1.57.56A2.74,2.74,0,0,0,334,180.8l1.25,1.4a3.8,3.8,0,0,1-1.55,1.26A5.08,5.08,0,0,1,331.52,183.91Zm-.29-7.81a1.59,1.59,0,0,0-1.23.51,2.65,2.65,0,0,0-.6,1.47h3.53v-.2a1.89,1.89,0,0,0-.46-1.31A1.64,1.64,0,0,0,331.23,176.1Z"/><path d="M345.44,179.07a5.71,5.71,0,0,1-1,3.52,3.2,3.2,0,0,1-2.69,1.32,3,3,0,0,1-2.33-1v4.48h-2.54V174.22h2.36l.09.93a3,3,0,0,1,2.41-1.11,3.22,3.22,0,0,1,2.73,1.3,5.86,5.86,0,0,1,1,3.59Zm-2.54-.19a3.77,3.77,0,0,0-.47-2.05,1.53,1.53,0,0,0-1.37-.72,1.66,1.66,0,0,0-1.64.92v3.91a1.69,1.69,0,0,0,1.66.94Q342.9,181.86,342.9,178.87Z"/><path d="M349.73,177h1.82a5.29,5.29,0,0,1,2.16.41,3.19,3.19,0,0,1,1.43,1.18,3.24,3.24,0,0,1,.5,1.79,3,3,0,0,1-1.11,2.42,4.62,4.62,0,0,1-3,.92h-4.32v-9.51h2.55Zm0,2v2.63h1.8a1.73,1.73,0,0,0,1.16-.35,1.19,1.19,0,0,0,.4-.95,1.25,1.25,0,0,0-.4-1,1.68,1.68,0,0,0-1.17-.36Zm9.95,4.68h-2.54v-9.51h2.54Z"/><path class="cls-9" d="M602,175.73c-1.11-14-12.72-24.1-30-30.88a49.68,49.68,0,0,1-25.37,11.67c-15.55,2.07-34.47-6.36-39-22.44-6-.14-12.09-.12-18.15.09-54.25,1.87-94.5,18.55-95,47.22s38.5,46.46,109,46.15C568.09,227.27,604.5,207.23,602,175.73Z"/><path class="cls-10" d="M417.86,89.47c-.84-15.54,5-29.25,12-42.55,8.83-16.61,22.87-26.27,40.65-32,13.31-4.32,33.66,1.87,39.59,4.56,21,9.55,32.21,26.47,37.78,48a74.83,74.83,0,0,1,1.44,8.34c.26,1.83.45,3.6.58,5.17a15.2,15.2,0,0,1-9.19-2.16c-2.06-1.52-4-2.77-5.2-5.65-3.4,4.26-5,8.25-4.69,14-2-7.78-3.21-14.38-6.68-20.3-1.68-2.86-3.35-3.85-6.52-3.53a26.66,26.66,0,0,1-20.05-5.89c-5.2-4.19-7.23-9.72-6.85-16.55-10.91,16.07-28,31.35-46.5,28.35A6.81,6.81,0,0,0,448,73.29c-5.38,14.11-4.52,24.27-3.56,36.72.1,1.28,1.2,2.86-.08,3.71-1.54,1-2.75-.47-3.8-1.52-1.3-1.3-2-2.5-4.27-.48-1.85,1.68-7.31-2.31-8.66-5.62-2.08-5.53-2.41-11.28-1.78-18.65-2,5.78-1.71,13.53-.8,17.71C421.92,103,418.2,95.61,417.86,89.47Zm70.6-57.54c-3.58,9.24-10.44,15.75-18.86,22.22C478.47,51.48,488.53,39.35,488.47,31.92Zm3.22-6.08c1.61,6.87,5.16,9.36,11.13,8.23A19.35,19.35,0,0,1,491.69,25.84ZM473.82,37.3c3.56-.44,9.91-5.49,11.16-10.62C481.82,30.16,475.34,35.74,473.82,37.3Z"/><path class="cls-10" d="M526.89,84.11c-1.06-5.39-2.1-10.77-5-15.59-1.32-2.19-2.55-3.18-5.53-2.77-11,1.51-23.52-6.6-27-17.23-.56.13-.77.11-.85.2-.63.76-1.23,1.56-1.86,2.32-10.3,13.36-24,20.78-36.2,22.36a82.5,82.5,0,0,0-3.67,33.77,16.57,16.57,0,0,0,7.7,12.7q21.75,14.58,47.17,8.25c3.88-1,5.59-2.68,5.51-7.21C506.95,107,511.6,95.4,524.6,88.5,526.53,87.47,527.3,86.2,526.89,84.11ZM471,88.35c-4.87.06-8.53-3.2-8.62-7.69-.1-5,3.73-9.31,8.34-9.4a9.33,9.33,0,0,1,9.21,9.11C479.86,85,476.18,88.29,471,88.35Zm24,14.55c-4.06,5-13.28,1.66-16.31-2.81-.81-1.2.95-2.39,1.93-1.49,3.43,3.18,8.49,5,12.74,2.16C494.76,99.83,495.91,101.8,495,102.9ZM500.69,88c-4.3.05-8.4-3.74-8.25-7.64.18-4.7,4.8-9.07,9.57-9a7.75,7.75,0,0,1,7.79,7.45A9,9,0,0,1,500.69,88Z"/><path class="cls-10" d="M500.68,74.58a1.27,1.27,0,0,0-.7.43,2.76,2.76,0,0,0-.66.27,4.67,4.67,0,0,0-2.1,3,4.31,4.31,0,0,0,3.5,5.45,4.86,4.86,0,0,0,5.16-4.8A4.18,4.18,0,0,0,500.68,74.58Zm1.74,2.74a3.39,3.39,0,0,1-.15,1.45,1.67,1.67,0,0,1-.19.27,3.72,3.72,0,0,1-1.88.79,1,1,0,0,0-.18.07,2.25,2.25,0,0,1,0-1.16c.25-.86,1-1.24,1.62-1.68A1.21,1.21,0,0,1,502.42,77.33Z"/><path class="cls-10" d="M472.55,75.81a2.93,2.93,0,0,0-1.71,0,3.35,3.35,0,0,0-2.5.6,4.3,4.3,0,0,0-1.69,3.15A4.17,4.17,0,0,0,471,84.12c2.65-.17,4.13-3.13,3.74-5.54A3.33,3.33,0,0,0,472.55,75.81Zm-3.37,3.75a2,2,0,0,1,.85-1.25,2.05,2.05,0,0,1,.54-.24h.09a1.45,1.45,0,0,1,.86,0c-.17,1.08-1.47,2-2.26,2.5l-.06.05A2.17,2.17,0,0,1,469.19,79.56Z"/><path class="cls-11" d="M529,102.27a9,9,0,0,0,1.73-.1,7.85,7.85,0,0,0,1.41-.36,2.19,2.19,0,0,0,.55-.23c.53-.15.51-.52,0-1.11a10.54,10.54,0,0,0-2.15.34c-.54.15-2.13.48-2.39,1S528.64,102.25,529,102.27Z"/><path class="cls-11" d="M555,103.3a.81.81,0,0,1-.5,0,8.78,8.78,0,0,0-3.12-.33,8.53,8.53,0,0,0-1.32.28c.19,0,.4.19.6.26a9.86,9.86,0,0,0,3.07.52c.24,0,1.29.06,1.47-.2S555.19,103.45,555,103.3Z"/><path class="cls-11" d="M559.32,90.3c-.53.87-1.11,2.31-2,2.77-.68-7.28-3.14-8.51-10.16-9.23-4.06-.42-9.06-2.22-11.56-5.41l-.09.19a.62.62,0,0,1,.35.94c-1.57,2.34-1.65,6.1-1.49,8.82.13,2.17.64,4.5,2.76,5.66,1.63.89,3.74.75,5.54.84.81,0,1.09,1.37.2,1.5-2.75.39-5.5.17-7.47-1.25-2.88-.47-4-1.72-6.55-5.69-12.13,5.92-19.19,15.52-19.4,29.06-.21,12.7,5.18,23,16.57,29.28,13.84,7.65,34.11,3.06,42.14-9.19C577,125.08,577.34,102.44,559.32,90.3Zm-14.75-5,.38.13c.89.3.52,1.7-.39,1.42l-.38-.12C543.26,86.43,543.67,85,544.57,85.29Zm-1.76,6.59a5.13,5.13,0,0,1-6.44-4.9.64.64,0,0,1,1.25-.17,4.68,4.68,0,0,0,5,3.68A.71.71,0,0,1,542.81,91.88Zm-1.75-4.3a.62.62,0,0,1,.85-.85,9.84,9.84,0,0,0,1.61.7,11.62,11.62,0,0,0,1.74.2.69.69,0,0,1,.34,1.27A3.56,3.56,0,0,1,541.06,87.58Zm-14.94,13a8.68,8.68,0,0,1,5.9-2,2.44,2.44,0,0,1,3.42,3c-.9,2.34-4.52,2.93-6.68,2.85-1.13,0-2.43-.23-3.08-1.29A2.08,2.08,0,0,1,526.11,100.61Zm3.16,23.17c-3.62-.34-5-2.89-5.08-6.24-.11-3.93,2.87-7.82,6.06-8,2.94-.15,5.62,2.84,5.68,6.33C536,120,532.66,124.1,529.27,123.78Zm15.26,11.36c-2.87,1.86-11.07,1.37-11.58-3a.73.73,0,0,1,1.09-.63c1.39.84,2.38,1.78,4.05,2.11a12.81,12.81,0,0,0,5.66-.32A1,1,0,0,1,544.53,135.14Zm4.94-10.4c-3.78-.34-5.37-2.93-5.37-6.52,0-4.18,2.8-7.1,6.65-7.09s5.3,2.13,5.3,5.67C556.06,121,552.93,125,549.47,124.74Zm7.43-19.66c-1.39,1.86-4.74,1.42-6.66.89s-4.36-2.42-2.14-4.23a6,6,0,0,1,5.42-.66.87.87,0,0,1,.32-.05C555.82,101.09,558.56,102.86,556.9,105.08Z"/><path class="cls-11" d="M532.31,113.25a.79.79,0,0,0-1.51,0,2.34,2.34,0,0,1-.5,1.19c-.46.44-.79,0-1.3,0a1.49,1.49,0,0,0-1.53.91,2.46,2.46,0,0,0,1.74,3.32C531.82,119.26,534.11,115,532.31,113.25Z"/><path class="cls-11" d="M551.06,114c-.39-.29-.86.13-.84.54a.85.85,0,0,0-.21.77c.14.75-.56,1.22-1.2,1.25s-1.15,0-1.59.47c-1,1.11.26,2.61,1.43,2.82a4.65,4.65,0,0,0,2.55-1,3.15,3.15,0,0,0,.85-1.85A2.7,2.7,0,0,0,551.06,114Z"/><path d="M427.67,170.94l3.29,9.28,3.27-9.28h3.46v12.8H435v-3.5l.26-6-3.46,9.54H430l-3.45-9.53.26,6v3.5h-2.64v-12.8Z"/><path d="M445.34,183.73a2.82,2.82,0,0,1-.25-.85,3.08,3.08,0,0,1-2.4,1,3.38,3.38,0,0,1-2.32-.81,2.6,2.6,0,0,1-.92-2,2.69,2.69,0,0,1,1.12-2.32,5.53,5.53,0,0,1,3.24-.82H445v-.54a1.56,1.56,0,0,0-.34-1.05,1.33,1.33,0,0,0-1.07-.4,1.52,1.52,0,0,0-1,.31,1,1,0,0,0-.36.84h-2.54a2.55,2.55,0,0,1,.51-1.53,3.37,3.37,0,0,1,1.44-1.1,5.25,5.25,0,0,1,2.09-.4,4.16,4.16,0,0,1,2.79.88,3.1,3.1,0,0,1,1,2.48v4.12a4.55,4.55,0,0,0,.38,2v.15Zm-2.1-1.77a2.18,2.18,0,0,0,1-.25,1.64,1.64,0,0,0,.7-.67v-1.63H444q-1.91,0-2,1.32v.15a1,1,0,0,0,.33.78A1.3,1.3,0,0,0,443.24,182Z"/><path d="M457.23,176.27h-3.05v7.46h-2.55v-7.46h-3v-2h8.6Z"/><path d="M462.32,183.91a4.66,4.66,0,0,1-3.4-1.28,4.56,4.56,0,0,1-1.31-3.42V179a5.74,5.74,0,0,1,.55-2.56,4.06,4.06,0,0,1,1.57-1.74A4.4,4.4,0,0,1,462,174a4,4,0,0,1,3.07,1.23,5,5,0,0,1,1.12,3.49v1h-6.06a2.36,2.36,0,0,0,.74,1.49,2.24,2.24,0,0,0,1.57.56,2.74,2.74,0,0,0,2.29-1.06l1.25,1.4a3.8,3.8,0,0,1-1.55,1.26A5.08,5.08,0,0,1,462.32,183.91ZM462,176.1a1.59,1.59,0,0,0-1.23.51,2.65,2.65,0,0,0-.6,1.47h3.53v-.2a1.89,1.89,0,0,0-.46-1.31A1.64,1.64,0,0,0,462,176.1Z"/><path d="M476.24,179.07a5.71,5.71,0,0,1-1,3.52,3.2,3.2,0,0,1-2.69,1.32,3,3,0,0,1-2.33-1v4.48h-2.54V174.22H470l.09.93a3,3,0,0,1,2.41-1.11,3.22,3.22,0,0,1,2.73,1.3,5.86,5.86,0,0,1,1,3.59Zm-2.54-.19a3.76,3.76,0,0,0-.47-2.05,1.53,1.53,0,0,0-1.37-.72,1.66,1.66,0,0,0-1.64.92v3.91a1.69,1.69,0,0,0,1.66.94Q473.7,181.86,473.69,178.87Z"/><path d="M483.54,174.22h2.54v9.51h-2.54v-5.87l-3.18,5.87h-2.55v-9.51h2.55v5.86Z"/><path d="M493,179.28H488v-2H493Z"/><path d="M494.6,178.89a5.64,5.64,0,0,1,.54-2.52,4,4,0,0,1,1.57-1.71,4.57,4.57,0,0,1,2.38-.61,4.33,4.33,0,0,1,3.14,1.18,4.73,4.73,0,0,1,1.36,3.2l0,.65a5,5,0,0,1-1.22,3.51,4.74,4.74,0,0,1-6.56,0A5.05,5.05,0,0,1,494.6,179Zm2.54.18a3.55,3.55,0,0,0,.51,2.07,1.83,1.83,0,0,0,2.9,0,3.89,3.89,0,0,0,.52-2.27,3.52,3.52,0,0,0-.52-2.06,1.68,1.68,0,0,0-1.46-.73,1.66,1.66,0,0,0-1.44.73A4,4,0,0,0,497.14,179.07Z"/><path d="M504.68,181.69a5.12,5.12,0,0,0,1.17-1.81,8.75,8.75,0,0,0,.34-2.54l.07-3.11h7v7.46h1.37v4.9h-2.54v-2.86h-5.63v2.86h-2.59v-4.9Zm3,0h3.05v-5.36h-2l0,1.14A8.54,8.54,0,0,1,507.67,181.69Z"/><path d="M521.48,174.22H524v9.51h-2.54v-5.87l-3.18,5.87h-2.55v-9.51h2.55v5.86Z"/><path d="M534.21,183.73h-2.55v-3.65H528.5v3.65H526v-9.51h2.54V178h3.16v-3.81h2.55Z"/><path d="M535.78,178.89a5.64,5.64,0,0,1,.54-2.52,4,4,0,0,1,1.57-1.71,4.58,4.58,0,0,1,2.38-.61,4.33,4.33,0,0,1,3.14,1.18,4.72,4.72,0,0,1,1.36,3.2l0,.65a5,5,0,0,1-1.22,3.51,4.74,4.74,0,0,1-6.56,0,5.05,5.05,0,0,1-1.23-3.59Zm2.54.18a3.55,3.55,0,0,0,.51,2.07,1.83,1.83,0,0,0,2.9,0,3.89,3.89,0,0,0,.52-2.27,3.52,3.52,0,0,0-.52-2.06,1.68,1.68,0,0,0-1.46-.73,1.66,1.66,0,0,0-1.44.73A4,4,0,0,0,538.32,179.07Z"/><path d="M554.37,183.73h-2.54v-3a7.3,7.3,0,0,1-1.33.13,5,5,0,0,1-3.24-.91,3.34,3.34,0,0,1-1.11-2.67v-3.07h2.54v3.07a1.55,1.55,0,0,0,.4,1.18,2.13,2.13,0,0,0,1.41.36,6.3,6.3,0,0,0,1.33-.15v-4.46h2.54Z"/><path d="M560,180.23h-1v3.51h-2.54v-9.51H559v3.58h.9l2.07-3.58h3.21l-3.11,4.53,3.4,5h-3.38Z"/><path d="M572.19,174.22h2.54v9.51h-2.54v-5.87L569,183.73h-2.55v-9.51H569v5.86Z"/><path class="cls-12" d="M731.77,142c-2.54,9.93-11.54,19.25-21.91,17.07-7.78-1.63-13-9.42-10.7-17.19a18,18,0,0,1,3.52-6.3c-1.77-.15-3.54-.28-5.31-.35-37.38-1.5-71.87,18-71.88,43.5s24,44.5,69,44.5c40.5,0,74.5-14,76-40C771.53,165.51,754.53,150.34,731.77,142Z"/><path class="cls-13" d="M703,56.5c.8,0,4,.37,2.55-.78a1,1,0,0,1-.55.16c-2.36,0-5.24-.2-7.65.57A54.33,54.33,0,0,0,703,56.5Z"/><path class="cls-13" d="M648.5,52.2c4.4-4.18,7.37-9,10.16-14.31v0c-.4-1.6,1.91-2.65,2.7-1.14,10.32,19.68,38.1,9.69,52-.66,0-.27-.05-.55-.07-.82-.09-1.76,2.6-2.07,3-.41,1.91,7.47,4.51,14.11,10.25,19.54a31.62,31.62,0,0,0,13,7.3C734.19,44,719.46,27.42,693.77,24.38c-6.83-.81-15.45.37-23.88,3.8,3.06,2,8.62,1.35,11.55.92,1.38-.2,2,1.73.59,2.14-3.91,1.12-11.43,1.57-14.61-2q-1.62.75-3.22,1.62c6.12,7.45,18.78,5.28,27,3.26a1.1,1.1,0,0,1,.58,2.12c-8.47,3.08-24,4.8-29.68-4.18a49.33,49.33,0,0,0-21.53,26A45.51,45.51,0,0,0,648.5,52.2Z"/><path class="cls-13" d="M663.37,55.8c1.25-.23,4.59-2.07,4.19-2.18-2-.53-4.29.57-6,1.6a12,12,0,0,0-1,.68q-.8.23,0,.15A7.08,7.08,0,0,0,663.37,55.8Z"/><path class="cls-13" d="M704.74,73a4.66,4.66,0,0,0-.48-.21,4.8,4.8,0,0,0-1.85,0,3,3,0,0,0-.72.25,4.86,4.86,0,0,0-1.06.79,3.65,3.65,0,0,0-.45,2.91,2.79,2.79,0,0,0,4,2.05,3.29,3.29,0,0,0,2-2.65A3,3,0,0,0,704.74,73Zm-1.25,2.78c0,.06-.07.11-.1.16s-.16.36-.23.55a1.24,1.24,0,0,1-1.14.87,1.2,1.2,0,0,1-1.14-.87,1.94,1.94,0,0,1,1.32-2.4,1.19,1.19,0,0,1,1.21.41A1.14,1.14,0,0,1,703.49,75.82Z"/><path class="cls-13" d="M669.2,72a4.66,4.66,0,0,0-.48-.21c-.62,0-1.23,0-1.85,0a3,3,0,0,0-.72.25,4.86,4.86,0,0,0-1.06.79,3.65,3.65,0,0,0-.45,2.91,2.79,2.79,0,0,0,4,2.05,4.3,4.3,0,0,0,2-2.65A3.74,3.74,0,0,0,669.2,72Zm-1.25,2.78c0,.06-.07.11-.1.16s-.16.36-.23.55a1.24,1.24,0,0,1-1.14.87,1.2,1.2,0,0,1-1.14-.87,1.94,1.94,0,0,1,1.32-2.4,1.19,1.19,0,0,1,1.21.41A1.14,1.14,0,0,1,667.95,74.82Z"/><path class="cls-13" d="M733.06,91.63a33.5,33.5,0,0,1,6.3-10q1.13-1.44,2.46-2.88a52.39,52.39,0,0,0-1.11-12.51c-12.77-2.65-24-13.66-26.83-26.35-8,7.29-20.44,11.11-31,11.81-8.43.57-18.72-2.53-22.89-10.32A44.17,44.17,0,0,1,639.09,63a58.4,58.4,0,0,0-1.59,14c.09,39.81,34.25,48.5,50.5,49.25,12.4.57,32.14-5.08,44.08-20.59C731.55,100.93,731.37,96.18,733.06,91.63ZM693.93,54.84c2.21-1.42,8.79-1.91,9.08-1.94,1.93-.19,4.2,0,5.44,1.7,1.08,1.48.82,3.5-1,4.19-2.77,1.05-6.83.89-9.71.52-2.06-.26-4.38-.85-4.55-3.2A1.48,1.48,0,0,1,693.93,54.84Zm-36-.32a11.63,11.63,0,0,1,7.85-3.46c2.63-.47,6.67-.35,6.29,2.8s-7.12,4.48-9.52,4.76c-1.47.17-3.76.51-4.9-.75A2.42,2.42,0,0,1,657.91,54.51Zm10,29.71c-6.44.77-9.9-5.27-9.37-11,.37-4,3.55-9,7.6-9.33a5,5,0,0,1,1.51-.12,8.18,8.18,0,0,1,3.26.4c2.88.74,5.23,3.21,5.76,7.06C677.45,77.11,674.21,83.46,667.87,84.22Zm27.32,14c-1.12,4.09-5.9,6.53-9.9,6.54-3.75,0-8.73-2.19-8.75-6.51a1.28,1.28,0,0,1,2.37-.64c1.91,2.63,4.22,4.14,7.62,3.56,3-.51,4.21-2.4,6.11-4.42A1.53,1.53,0,0,1,695.2,98.19Zm14.87-22.58c-.53,5-4,10.09-9.6,9.45s-8.72-6-7.66-11.26a10.61,10.61,0,0,1,10.33-8.53C708.21,65.4,710.53,71.25,710.07,75.61Z"/><path class="cls-13" d="M798.36,74.79c-1.5-5.64-7.35-10.64-11.76-14-3.64-2.75-26-18-26-5.24a1.5,1.5,0,0,0,.27.86,1.36,1.36,0,0,0,.09.39A16.84,16.84,0,0,0,762.07,59c-4.47,2.78-8,7.38-11.31,11.4a113.55,113.55,0,0,0-9.6,13.39c-2.51,4.19-4.62,8.73-5.14,13.63a35.45,35.45,0,0,0,.35,7.27,18.14,18.14,0,0,1-1.53,9.39A179.53,179.53,0,0,0,722,128.12c-1.8,2.12-3.23,3.74-3.44,5.31a9.72,9.72,0,0,0-3.4-.89.91.91,0,0,0-1,.54,3.81,3.81,0,0,0-1,.65c-1.07.83-2.11,1.72-3.12,2.62-1.86,1.65-4.15,3.43-5.44,5.57a1.16,1.16,0,0,0-.15.44c-.92,1-.82,2.81-.64,4.07a10.25,10.25,0,0,0,2.52,5.47c2.55,2.81,7.93,4.05,10.88,1.14a1.22,1.22,0,0,0,.34-.67,30.57,30.57,0,0,0,3.92-4.22,20.85,20.85,0,0,0,3.64-5.47,1,1,0,0,0,.06-.43.93.93,0,0,0,0-.26,9.32,9.32,0,0,0-1.73-4.44,1.58,1.58,0,0,0,.65-.44c5.22-5.75,10.55-11.78,15.44-18l0,0c.87-.68,1.7-1.4,2.53-2.12a75.11,75.11,0,0,1,11-3.47c4.8-1.05,9.51-2.29,13.62-5.09s7.68-6.84,11.16-10.56c4.66-5,9.24-10,13.64-15.25l.65.39a2.31,2.31,0,0,0,1.14.33,2.5,2.5,0,0,0,1,.2,3.16,3.16,0,0,0,2.19-1.06,4.59,4.59,0,0,0,.56-.77C798.73,80.16,799,77.06,798.36,74.79Zm-33.48,26.4-1.36,1.33c-4.15,2-8.15,3.72-13.16,4.1a20.7,20.7,0,0,0-5.62,1.22,20.2,20.2,0,0,0,.16-2.61c0-6.13-.76-10.88,2.26-16.59a62,62,0,0,1,6.1-9.23c2.87,7.19,9.25,15.08,17.22,16.1C768.65,97.44,766.8,99.34,764.88,101.19Zm5-21.1a.68.68,0,0,0,0,.17,7.57,7.57,0,0,0,1.6,3,5.05,5.05,0,0,0,2.19,1.78,11.87,11.87,0,0,1,.83,3,12.27,12.27,0,0,0-1.79-2.3,8.82,8.82,0,0,1-2.6-3,15.41,15.41,0,0,0-.93-2A26.88,26.88,0,0,0,763.64,75a40.82,40.82,0,0,1,5,3.85C769,79.25,769.45,79.67,769.87,80.09Zm-15-1.8c2.78.86,3.56,3,4.66,5.63a22.69,22.69,0,0,0,3,4.9l.24.32C759.48,86.12,757,82,754.88,78.29Zm17.6,15.09a1.16,1.16,0,0,0-.34-.08c-.21,0-.41,0-.61-.05a5.12,5.12,0,0,0-2.46-2c-1.34-.63-2.72-.71-3.93-1.73a16,16,0,0,1-2.88-3.93c-2.07-3.42-2.46-8.1-6.94-8.7l.87-1c3.34-.24,4.37,4.48,6.36,6.16A5.58,5.58,0,0,0,764,83a2.62,2.62,0,0,1,.65,3.11,7.13,7.13,0,0,0,.15,1.56c.73,2.25,2.69,2.28,4.54,3a4,4,0,0,1,2.8,1.69q.17.42.38.82l.08.05Zm1.3-1.41c-.91-1.46-.54-2.24-3-2.89-1.82-.49-3.75-1-4.16-3.4a8.54,8.54,0,0,0,.34-1.52,2.5,2.5,0,0,0-.89-1.94c-1.13-1.13-2.48-1.51-3.51-2.91a33.41,33.41,0,0,0-2.22-3.4,4.78,4.78,0,0,0-2.81-1.6l.78-.88a46.25,46.25,0,0,1,6.62,5.67,24.83,24.83,0,0,1,2.24,2.37c1,1.32.94,2.49,1.69,3.79,1,1.64,2.84,2.26,4,3.76a8.56,8.56,0,0,0,1.75,2.06Zm3.17-3.48a9.89,9.89,0,0,0-1-4.52,23.79,23.79,0,0,0-4.42-5.47,36.76,36.76,0,0,0-10.85-7.63c2-2.15,4-4.28,5.92-6.43a80.53,80.53,0,0,0,6.26,5.12c4.23,3.24,8.48,6.44,12.9,9.41C782.73,82.08,779.84,85.28,776.95,88.48Zm5.61-26a46.83,46.83,0,0,1,6.94,5.89c.73.76,1.45,1.57,2.13,2.4l.05.25c-.23.1-.45.21-.65.32h0a26,26,0,0,0-5.34-4.89A105.6,105.6,0,0,0,771,58c-2.09-1.15-4.19-2.2-6.24-3.18C768.4,53.31,781.17,61.53,782.56,62.5ZM719,146.7c-1.22,1.44-2.62,2.76-3.76,4.27-2.35.69-4.51.85-6.5-1.08a6.53,6.53,0,0,1-1.29-1.84,19.5,19.5,0,0,0,5,2.1,1.34,1.34,0,0,0,1.29-2.22,44.43,44.43,0,0,0-5.9-5.45c1.16-1.12,2.21-2.41,3.34-3.53q1.2-1.19,2.43-2.35a14.5,14.5,0,0,0,1.75-1.66,13.65,13.65,0,0,1,4.56,2.8,16.94,16.94,0,0,1,2.89,4.31C721.42,143.45,720.29,145.2,719,146.7Z"/><path d="M660.9,169.94h2.64v12.8H660.9v-8.5l-5.12,8.5h-2.64v-12.8h2.64v8.52Z"/><path d="M673.91,182.73h-2.55v-3.65h-3.16v3.65h-2.54v-9.51h2.54V177h3.16v-3.81h2.55Z"/><path d="M676,182.73v-9.51h4a5.4,5.4,0,0,1,3,.69,2.22,2.22,0,0,1,1,2,1.8,1.8,0,0,1-.44,1.18,2.74,2.74,0,0,1-1.27.8,3.07,3.07,0,0,1,1.6.76,1.87,1.87,0,0,1,.58,1.39,2.31,2.31,0,0,1-1,2,5,5,0,0,1-2.89.69Zm2.54-5.65h1.57q1.34,0,1.34-.86a.79.79,0,0,0-.37-.73,2.21,2.21,0,0,0-1.11-.22h-1.43Zm0,1.71v1.9h2q1.34,0,1.35-.93t-1.28-1Z"/><path d="M691.58,182.73a2.82,2.82,0,0,1-.26-.85,3.07,3.07,0,0,1-2.4,1,3.38,3.38,0,0,1-2.32-.81,2.6,2.6,0,0,1-.92-2,2.69,2.69,0,0,1,1.12-2.32,5.53,5.53,0,0,1,3.24-.82h1.17v-.54a1.57,1.57,0,0,0-.34-1.05,1.33,1.33,0,0,0-1.07-.4,1.51,1.51,0,0,0-1,.31,1,1,0,0,0-.37.84H685.9a2.55,2.55,0,0,1,.51-1.53,3.37,3.37,0,0,1,1.44-1.1,5.25,5.25,0,0,1,2.09-.4,4.16,4.16,0,0,1,2.79.88,3.09,3.09,0,0,1,1,2.48v4.12a4.54,4.54,0,0,0,.38,2v.15Zm-2.1-1.77a2.18,2.18,0,0,0,1-.25,1.64,1.64,0,0,0,.7-.67v-1.63h-.95q-1.91,0-2,1.32v.15a1,1,0,0,0,.33.78A1.3,1.3,0,0,0,689.48,181Z"/><path d="M704,173.22v9.51h-2.54v-7.46h-2.24l-.16,2.94a6.69,6.69,0,0,1-.92,3.42,2.72,2.72,0,0,1-2.3,1.1H695l0-2,.32,0a1.16,1.16,0,0,0,1-.81,8.34,8.34,0,0,0,.39-2.58l.18-4Z"/><path d="M711.68,173.22h2.54v9.51h-2.54v-5.87l-3.18,5.87h-2.55v-9.51h2.55v5.86Z"/><path d="M716.29,180.69a5.12,5.12,0,0,0,1.17-1.81,8.75,8.75,0,0,0,.34-2.54l.07-3.11h7v7.46h1.37v4.9H723.7v-2.86h-5.63v2.86h-2.59v-4.9Zm3,0h3.05v-5.36h-2l0,1.14A8.54,8.54,0,0,1,719.29,180.69Z"/><path d="M730.24,176h1.82a5.29,5.29,0,0,1,2.16.41,3.19,3.19,0,0,1,1.43,1.18,3.24,3.24,0,0,1,.5,1.79,3,3,0,0,1-1.11,2.42,4.61,4.61,0,0,1-3,.92h-4.32v-9.51h2.55Zm0,2v2.63H732a1.73,1.73,0,0,0,1.16-.35,1.19,1.19,0,0,0,.4-.95,1.25,1.25,0,0,0-.4-1,1.67,1.67,0,0,0-1.17-.36Zm9.95,4.68h-2.54v-9.51h2.54Z"/></g></g></svg>