<svg xmlns="http://www.w3.org/2000/svg" viewBox="0 0 352.92 277.57"><defs><style>.cls-1{fill:#fabe6a;}.cls-2{fill:#f4a586;}.cls-3{fill:#f29b96;}.cls-4{fill:#a1d7e1;}.cls-5{fill:#daacd0;}</style></defs><title>families</title><g id="Layer_2" data-name="Layer 2"><g id="Layer_1-2" data-name="Layer 1"><path class="cls-1" d="M203.29,65.05c5.31,1.92,10,3.84,14.75,5.29,12.31,3.72,25,4.07,37.74,3.76a156.69,156.69,0,0,0,35.36-5.2c3-.78,6-1.87,9-2.8a13.28,13.28,0,0,1,1.36-.25c-.07,1-.1,1.83-.18,2.66-.52,5.12-.49,10.16,1.84,15,3.86,7.94,10.32,11.83,19,12.51,9.4.74,17.89-1.89,25.86-6.65.58-.35,1.17-.68,2.07-1.19.48,2.19,1,4.11,1.3,6.07,2.45,16.24,2.38,32.31-3,48.06S332.12,169.11,317.59,177c-3.88,2.09-6.76,2.4-10.85-.07a54.91,54.91,0,0,0-30.14-8.09,49,49,0,0,0-5.76.79c-2.91.43-5.87.65-8.72,1.35a34.1,34.1,0,0,0-16.58,9.95c-1,1.09-2,1.41-3.27.63a.66.66,0,0,0-.17-.08c-3.14-.83-4.82-2.72-6-5.92-3.69-10.11-11.36-16.66-20.7-21.43-2.34-1.19-4.91-1.93-7.26-3.1a6.17,6.17,0,0,1-2.43-2.4,73.19,73.19,0,0,1-9.41-43.89c.76-7.93,1.34-15.91,2.64-23.76C199.83,75.54,201.81,70.32,203.29,65.05Zm12,45.31a12.08,12.08,0,0,0,12.25,12.54c6.37.06,11.53-5.31,11.63-12.1s-4.91-12.47-11-12.56C220.92,98.14,215.38,103.34,215.3,110.36Zm43.3.15c0,6.31,4.17,10.67,10.19,10.72,6.73.06,12.48-5.15,12.51-11.28,0-7.18-6.41-10.83-12.46-10.91C263,99,258.58,104.06,258.6,110.51Zm-8.94,31c6.74,0,11.6-2.57,15-7.76a8.46,8.46,0,0,0,1.25-4,2.9,2.9,0,0,0-1.64-2.14c-.57-.22-1.58.53-2.32,1-.33.2-.45.74-.68,1.11a13,13,0,0,1-20.55,2.22,10.86,10.86,0,0,0-2.17-2.07,2.5,2.5,0,0,0-2.19-.21,2.66,2.66,0,0,0-.83,2.23,8.8,8.8,0,0,0,1.62,3.35A15.32,15.32,0,0,0,249.67,141.5ZM224.44,91.27c2.13-.33,4.2-.53,6.2-1a3.3,3.3,0,0,0,2.75-3.18,3.23,3.23,0,0,0-2.2-3.39,16.7,16.7,0,0,0-4.34-1.12c-3-.3-6-.33-8.7,1.52-1.19.83-2.11,1.74-1.83,3.39a3.56,3.56,0,0,0,2.78,3A49.1,49.1,0,0,0,224.44,91.27ZM272.08,84l-.09.47a25,25,0,0,0-3.39,0,12,12,0,0,0-3.25.91c-2.45,1.11-2.69,3.12-.43,4.56a16.35,16.35,0,0,0,13,1.95,3.39,3.39,0,0,0,2.79-3.18,3.13,3.13,0,0,0-2.34-3.29A62,62,0,0,0,272.08,84Z"/><path class="cls-1" d="M227.79,67.51c3.64-5.58,8-9.61,12.36-13.71s8.53-8,12.8-12l-.42-.55a15.69,15.69,0,0,0-1.77.84,98.13,98.13,0,0,0-22.82,20.13,22.37,22.37,0,0,0-1.43,2c-1.7,2.57-1.74,2.71-4.57,1.79-4.89-1.59-9.72-3.4-14.59-5.06-1.42-.48-1.43-1.12-.79-2.36,8.21-16.06,21.63-25.4,38.67-30.08,12.31-3.38,24.86-3.23,37.44-2.4a68.57,68.57,0,0,1,38.65,14.81c1.09.85,2.17,1.72,3.17,2.67.78.75,1.37.88,2.22.08a8.24,8.24,0,0,1,2.37-1.51c.5-.21,1.43-.25,1.69.05a2.28,2.28,0,0,1,.33,1.85,19.11,19.11,0,0,1-1.48,3,29.22,29.22,0,0,1,4,0,20,20,0,0,1,4.66,1.19,2.39,2.39,0,0,1,1,2,2.25,2.25,0,0,1-1.45,1.47,43.75,43.75,0,0,1-4.84.75c.42.63.69,1.09,1,1.52A91.68,91.68,0,0,1,348,81.2c.29.92.62,1.71-.54,2.4-5.21,3.11-10.54,6.08-16.64,6.77a44.1,44.1,0,0,1-12-.19A16,16,0,0,1,305.93,75.6c-.27-3.68-.06-7.4-.07-11.1,0-.54,0-1.09,0-2a318.92,318.92,0,0,1-40.5,6.23,4.43,4.43,0,0,0,0-1.18,1.4,1.4,0,0,0-.59-.79.85.85,0,0,0-.76.36c-.81,2.47-2.92,1.89-4.7,2-.84.06-1.69,0-3,0,.65-1.62,1.21-2.79,1.58-4a4.48,4.48,0,0,0-.18-1.67c-.53.2-1.31.25-1.55.64-.71,1.17-1.1,2.54-1.84,3.69A2.9,2.9,0,0,1,252.49,69c-2.44.13-4.9,0-7.35,0-.16,0-.32-.17-.67-.36.46-.69.88-1.37,1.35-2l15.92-21.75c.07-.1.2-.19.23-.3.14-.59.25-1.19.37-1.79-.61.18-1.38.19-1.79.58A36.75,36.75,0,0,0,256.32,48c-4.77,6.55-9.41,13.19-14.13,19.79-.29.41-.81,1-1.18,1C236.77,68.39,232.54,68,227.79,67.51Zm105.56,3.13c-.47-.26-.82-.62-1.13-.59a3.56,3.56,0,0,0-1.37.58c-5.7,3.42-10.14,8.17-14.11,13.41a2.36,2.36,0,0,0-.53,1,5.78,5.78,0,0,0,.12,1.37,4,4,0,0,0,1.33-.3,8.56,8.56,0,0,0,1.18-1.2L332.3,71.75C332.6,71.46,332.89,71.14,333.35,70.65Zm-.49,8.56c-1-.11-1.82-.44-2.1-.19-2.63,2.39-5.21,4.85-7.68,7.4-.35.36-.07,1.32-.08,2a5.5,5.5,0,0,0,1.71-.76c2.34-2.27,4.6-4.62,6.89-6.95C331.9,80.41,332.15,80.06,332.86,79.2ZM283.07,56l.42.46a18,18,0,0,0,2.07-1.16c3.28-2.43,6.55-4.87,9.78-7.38.44-.34.57-1.07.85-1.61-.62.07-1.42-.09-1.85.23-3.39,2.59-6.72,5.25-10,7.93A9,9,0,0,0,283.07,56ZM330,87.15l.51.51a10.93,10.93,0,0,0,1.83-1.07c1.6-1.4,3.17-2.83,4.66-4.34.35-.35.33-1.07.48-1.62-.61.09-1.39,0-1.79.3a50.82,50.82,0,0,0-4.24,4A13.44,13.44,0,0,0,330,87.15ZM321.27,67.6a5.06,5.06,0,0,0-1.69.14,2.42,2.42,0,0,0-1,1.12c-.09.2.26.61.41.92a5.31,5.31,0,0,0,1.17-.67A10.72,10.72,0,0,0,321.27,67.6Z"/><path class="cls-1" d="M232.66,110.27c0,3.24-1.84,5-5.25,5s-5.51-2.24-5.5-5.79a5.42,5.42,0,0,1,5.73-5.45C230.73,104,232.66,106.42,232.66,110.27Zm-5.11-2.49c-.89-.9-1.65-1.94-1.87-1.83a3.83,3.83,0,0,0-1.8,1.75c-.12.28.86,1.46,1.39,1.5S226.54,108.46,227.55,107.79Z"/><path class="cls-1" d="M275.35,109.67c0,3-1.88,5.12-4.72,5.15-3.14,0-5-1.9-5-5.21a5,5,0,0,1,5-5.37C273.37,104.21,275.33,106.47,275.35,109.67Zm-5.68-4.52c-.85,1.28-1.67,2-1.74,2.78,0,.52,1,1.13,1.53,1.7.63-.66,1.54-1.22,1.78-2C271.39,107.16,270.48,106.37,269.67,105.15Z"/><path class="cls-1" d="M219,86.8c3.49-2.26,9.77-2.23,11.6.05C228.66,89,220.51,89,219,86.8Z"/><path class="cls-1" d="M266.57,87.88c2.34-1.4,4.82-1.34,7.3-1.06a16,16,0,0,1,3.61.88,1.72,1.72,0,0,1,.87,1.26c0,.29-.59.7-1,1a2,2,0,0,1-1.07.3A20.74,20.74,0,0,1,266.57,87.88Z"/><path class="cls-2" d="M179.7,49.56c-4.28-1.41-6.47-4.95-9.63-8.16a49.7,49.7,0,0,1-.06,6.29,12.94,12.94,0,0,1-1.54,4.4,3.28,3.28,0,0,1-2.25,1.25,41,41,0,0,1-4.87.06c.76,1.7,3.24,2.64,6.13,2.32a3.87,3.87,0,0,0,3.45-3.27,45.63,45.63,0,0,0,.62-5.31c.75.69,1.28,1.27,1.89,1.74a29,29,0,0,0,3.71,2.56c2.65,1.39,3.66,1.1,5.84-1.12-.35,2.3-.36,4.72-1.13,6.88-2,5.65-.57,4.89-6.85,5.1-7.14.24-13.83-1.22-18.75-7a26.85,26.85,0,0,1-6.49-16.36c0-.7-.18-1.39-.35-2.69-.84,1-1.34,1.52-1.74,2.1-6,8.54-12.15,17-20.39,23.62-11,8.85-23,15.69-36.8,18.73a56.66,56.66,0,0,1-24-.25,3.07,3.07,0,0,0-1.29-.21,2.82,2.82,0,0,0-1.59.91c-.15.25.35,1.27.76,1.44a44.79,44.79,0,0,0,5.5,1.86c1,.27,1.36.65,1.18,1.68-1.65,9.28-1.77,18.67-1.42,28,.67,18.34,1.74,36.67,2.72,55a22.3,22.3,0,0,0,1.1,3.9,4.33,4.33,0,0,1,.08,1.81c-.72,3.71-3.23,6-6.37,7.72a4.28,4.28,0,0,1-2.36.29,94.68,94.68,0,0,1-24.21-6.25C29,172,19.06,165.08,11.55,154.91A62.62,62.62,0,0,1,.69,131.85c-1-4.14-.68-8.62-.55-12.94a206.44,206.44,0,0,1,5-41.49c2-8.56,3.9-17.22,8.32-25,4.08-7.14,7.86-14.57,14-20.29A112.63,112.63,0,0,1,51.9,14.65a9.74,9.74,0,0,1,1-.35,9.93,9.93,0,0,1-.56.87c-4.78,5.49-9.59,11-14.31,16.51-.49.58-.4,1.65-.59,2.49.92.06,2,.48,2.74.11,4.48-2.41,8.88-5,13.28-7.54,2.59-1.51,5.12-3.1,7.82-4.47-1.69,2.37-3.55,4.64-5,7.14-1.84,3.07-3.38,6.31-5,9.49a3.2,3.2,0,0,0-.49,1.41c0,1.12-.18,2.82.42,3.21a3.85,3.85,0,0,0,3.39-.1c3.24-1.91,6.33-4.1,9.45-6.22,3.59-2.44,7.15-4.91,10.73-7.36a6.76,6.76,0,0,1,.88-.46c-2.78,2.9-5.68,5.92-8.58,9a36.54,36.54,0,0,0-3.67,4c-.56.8-.52,2-.75,3.06,1.05.17,2.19.68,3.13.43a33.71,33.71,0,0,0,5.42-2.14c5.08-2.32,10.12-4.71,15.41-6.8l-1,1.13q-4.6,5.11-9.2,10.24A4.56,4.56,0,0,0,75.18,50c-.22.88-.46,2.06,0,2.7s1.7.62,2.48.42a16.11,16.11,0,0,0,3.58-1.64c5.88-3.26,11.74-6.56,17.62-9.83a4.94,4.94,0,0,1,2.49-.68c-.29.57-.57,1.15-.87,1.72-2,3.71-4.09,7.41-4.51,11.7-.1,1,.37,2.62,1.09,3a3.37,3.37,0,0,0,3.18-.57c2.35-2.59,4.41-5.44,6.55-8.22a5.34,5.34,0,0,1,1.21-1.4c0,.68,0,1.36,0,2,0,2.38-.05,4.78.17,7.15a2.72,2.72,0,0,0,1.52,2,2.88,2.88,0,0,0,2.33-1,35.77,35.77,0,0,0,2.47-4.22c.4-.69.82-1.37,1.56-2.59,1,3.45.54,7.23,4.12,8.63l.63-.29q-.93-2.5-1.87-5A47.84,47.84,0,0,1,117.08,49c-.42-1.65-1.28-1.44-2.11-.63a23.62,23.62,0,0,0-2.54,3.25,8.55,8.55,0,0,1-1.8,2.17c0-1.18,0-2.36,0-3.53,0-2.2.09-4.4,0-6.59,0-.63-.61-1.67-1-1.73a2.53,2.53,0,0,0-2,.9c-1.89,2.66-3.58,5.47-5.44,8.16-.94,1.36-2.11,2.55-3.18,3.82l-.56-.32a36.35,36.35,0,0,1,1.31-4.38c1.18-2.71,2.56-5.32,3.81-8,.56-1.2,1.79-2.49.63-3.8s-2.78-.39-4,.22c-5.92,3-11.79,6.2-17.66,9.34-1.27.68-2.51,1.41-4.23,2.39A15.39,15.39,0,0,1,79,48.78,92.29,92.29,0,0,1,93,34.24a6.63,6.63,0,0,0,1.14-2.09c-.84-.06-1.82-.43-2.51-.13C84.05,35.28,76.54,38.65,69,42a8.82,8.82,0,0,1-3.19.93c.4-.49.77-1,1.2-1.46,3.7-3.94,7.46-7.83,11.09-11.83a10,10,0,0,0,1.26-2.86c-1,.15-2.17,0-3,.48C70.52,30.76,64.69,34.36,58.87,38c-1.9,1.17-3.73,2.43-5.6,3.65l-.55-.45a66.33,66.33,0,0,1,3.62-7.52c2.6-4.07,5.52-7.93,8.32-11.87a10.7,10.7,0,0,0,1.08-1.3,26.31,26.31,0,0,0,1-2.6,8.26,8.26,0,0,0-2.54.44c-6.71,3.59-13.37,7.26-20,10.91-.37.2-.75.37-1.59.79a15.9,15.9,0,0,1,1-1.57c3.94-4.39,7.77-8.9,11.91-13.1,2.36-2.4,5-4.6,8.69-4.91.27,0,.77-.31.75-.43-.23-1.89,1.42-1.82,2.42-2.24a96.44,96.44,0,0,1,27.4-6.6C100,.61,105.25.26,110.52.05c11.12-.43,21.89,1.77,32.5,4.8,9.4,2.68,18.15,6.74,25.65,13.15,5.73,4.9,10.05,10.89,11.79,18.24.75,3.17,0,6.69-.12,10.05A22.61,22.61,0,0,1,179.7,49.56Z"/><path class="cls-2" d="M147,45.87a31,31,0,0,0,5.39,11.29c4.72,6,11,8.84,18.46,9.15A71,71,0,0,0,179,66c1-.08,1.63.12,2,1.17,3,9.25,6.37,18.44,7.43,28.19,1.77,16.29-.85,31.83-8.58,46.39q-2.39,4.49-5.11,8.8a6.83,6.83,0,0,1-2.49,2.14c-6.65,3.63-13.53,7.13-17.42,14-2.85,5-7.55,6.89-12.34,8.89-2.43,1-4.92,1.88-7.43,2.69a26,26,0,0,1-4.93,1.12c-.46.05-1.19-.74-1.52-1.31-3-5.23-6.51-10-11.57-13.48a13.16,13.16,0,0,0-8.82-2.69c-4.11.39-7.09,2.79-7.9,6.9a93.39,93.39,0,0,0-.94,9.87c0,.42,0,.85-.09,1.61a34.43,34.43,0,0,1-5.41-1c-4.84-1.72-9.61-3.65-14.41-5.5L76,172.37a.87.87,0,0,1-.11-.41c-.76-21.87-1.6-43.73-2.2-65.6-.18-6.46.39-12.94.52-19.41,0-1.55.66-1.88,2-1.87,3.71,0,7.41,0,11.12-.07,5.76-.07,11.13-1.82,16.39-4,2.26-.92,4.46-2,6.8-3,1,2.33,3.24,2.57,5.25,2.6a20.11,20.11,0,0,0,14.89-6.17,7.11,7.11,0,0,0,1.38-2c1.22-2.62.13-4.64-2.72-5.09-.43-.07-.87-.08-1.55-.14,3.61-3.41,7.29-6.49,10.47-10S144.12,49.71,147,45.87Zm-22.55,70a31.59,31.59,0,0,0,5.71-1.66c8.68-4.37,9.24-13.48,6-19.63-3.62-6.92-11.86-8.7-18.17-4.09-5.22,3.81-6.31,9.18-5.41,15.09C113.61,111.92,118,115.48,124.49,115.89Zm57.74-20.31a39.31,39.31,0,0,0-1.53-5.76A9,9,0,0,0,167,86.4c-5.3,4.32-6.51,12.87-2.27,18.31a8.52,8.52,0,0,0,12.49,1.52C180.54,103.54,182,99.93,182.24,95.58Zm-30.59,36.53c1.42-.28,4.1-.63,6.68-1.33a17.68,17.68,0,0,0,9.64-5.9,13.24,13.24,0,0,0,2.21-5.41c.29-1.44-.76-1.85-2-1a5.58,5.58,0,0,0-1,.86c-6.44,7.17-14.49,9-23.62,7-2.12-.47-4.12-1.49-6.2-2.14a5.73,5.73,0,0,0-1.9.07,5,5,0,0,0,.2,2,7.8,7.8,0,0,0,1.94,2C141.35,131.25,145.8,131.86,151.65,132.11Zm12.85-57,.11.31c3-.77,5.93-1.47,8.86-2.35,1.43-.43,2.7-1.34,2.53-3.09a2.93,2.93,0,0,0-3-2.6,38.93,38.93,0,0,0-8.55.34,9.43,9.43,0,0,0-4.56,2.72c-1.75,1.77-.95,3.78,1.48,4.3A31.9,31.9,0,0,0,164.5,75.08Z"/><path class="cls-2" d="M113.23,76.83c5.26-2.7,9.27-7.18,15.57-6.24C128.48,74.43,117.93,79,113.23,76.83Z"/><path class="cls-2" d="M124.3,107.72c-3.31,0-5.53-2-5.56-5a5.36,5.36,0,0,1,5.41-5.75,5.59,5.59,0,0,1,5.84,5.59C130,105.56,127.7,107.68,124.3,107.72Zm-1.41-4.25c.9-1.34,1.76-2.1,1.83-2.92,0-.5-1.12-1.47-1.83-1.55a1.68,1.68,0,0,0-1.91,2C121.09,101.69,121.94,102.29,122.89,103.47Z"/><path class="cls-2" d="M174.6,97.65a4.48,4.48,0,0,1-4.24,4.65c-2.34,0-4.21-2.09-4.27-4.83A4.46,4.46,0,0,1,170.46,93C172.79,92.94,174.59,95,174.6,97.65Zm-2.88-1.35c-1.18-.77-2-1.6-2.33-1.44a3.49,3.49,0,0,0-1.63,1.84c-.12.31.95,1.5,1.17,1.42A14.1,14.1,0,0,0,171.73,96.3Z"/><path class="cls-2" d="M172.22,70.83l-9.29,1.61c1.26-2.42,5.3-3.11,9.2-2.12Z"/><path class="cls-3" d="M268.69,176.2c-2.66,5.08-3.31,9.6-.15,14a3,3,0,0,0,3.82,1.34c-2.91-4.28-4-8.74-1.21-13.37,1.16-1.94,1.93-2.23,4.82-2.61a12.66,12.66,0,0,0-2.56,8.55,11.2,11.2,0,0,0,4.51,8.94,5,5,0,0,0,6.21.44,3.94,3.94,0,0,0-.88-.58c-6.68-2-8.42-9.5-6.14-15,1.32-3.19,1.67-3.34,5.62-2.81a11.82,11.82,0,0,0-2.14,8.77,10.85,10.85,0,0,0,4.69,8.44c4.13,2.75,10,.85,11.16-3.57a5.7,5.7,0,0,0-2.41-6.25c-2-1.4-5.84-1.75-7.3-.31a4.69,4.69,0,0,0-1.35,3.41c.13,1,1.34,2,2.27,2.69.33.26,1.23-.18,1.87-.3-.17-.48-.33-1-.5-1.45s-.4-1.11-.6-1.66a6.24,6.24,0,0,1,1.89-.39c2.08.23,3.22,1.45,3.1,3.1s-1.55,2.66-3.47,2.8a4.73,4.73,0,0,1-4.63-2.28,11.15,11.15,0,0,1-1.07-10.62c.63-1.63,1.69-2.61,3.76-2.24a43.13,43.13,0,0,1,26.73,16c7.56,9.42,11.84,20.1,11.23,32.38-.8,16.08-8.29,28.16-22.06,36.36a44.91,44.91,0,0,1-35,5.27c-11.75-2.94-20.69-10-27.53-19.8-12.7-18.28-8.74-41.18,4-56.49,4.58-5.5,9.85-10.09,17-11.85C264.27,176.63,266.28,176.53,268.69,176.2Zm-15.82,34.44.22,0c0,.63,0,1.26,0,1.88.43,7.52,8.27,12.68,15.17,10,5.93-2.31,9.46-10.23,7.18-16.36-2.42-6.5-9-9-15.65-7.1a8.3,8.3,0,0,0-6,6.21C253.35,207,253.18,208.86,252.88,210.64Zm30.3,3.55c0,8.72,5,13.15,13.09,12.11a12.5,12.5,0,0,0,9.79-8.84,12.87,12.87,0,0,0-11.24-15.84c-2.84-.31-5.61,0-7.58,2.34C284.67,207.08,282.86,210.54,283.18,214.19Zm-7.68,25.87A14.34,14.34,0,0,0,279.2,239a3.27,3.27,0,0,0,1.45-2.5c-.17-1.38-1.56-1.12-2.62-.95a9.87,9.87,0,0,1-6.74-1,2.94,2.94,0,0,0-2.63-.12c-1,.93-.27,2.1.49,3C270.8,239.31,273,239.85,275.5,240.06Z"/><path class="cls-3" d="M269.4,210.68a4.91,4.91,0,0,1-4.82,5.17,5.51,5.51,0,0,1-5.23-5.18,5.19,5.19,0,0,1,5.21-5.1A4.81,4.81,0,0,1,269.4,210.68ZM265,209c-1.08-.91-1.93-1.95-2.24-1.81a4.66,4.66,0,0,0-2,2c-.11.2,1.06,1.57,1.57,1.53C263.12,210.62,263.82,209.79,265,209Z"/><path class="cls-3" d="M299.53,214.26a5.6,5.6,0,0,1-11.2-.25,5.61,5.61,0,0,1,5.61-5.42A5.67,5.67,0,0,1,299.53,214.26Zm-5-2.23c-1.1-.77-1.79-1.63-2.37-1.56s-1.13,1-1.68,1.6c.57.55,1.11,1.47,1.73,1.54S293.49,212.81,294.56,212Z"/><path class="cls-4" d="M125.11,184.52c-2.45-1.74-4.76-3.47-7.17-5.05a9.16,9.16,0,0,0-3.39-1.52,2.83,2.83,0,0,0-3.49,3.92,22.47,22.47,0,0,0,3.33,4.21,8.71,8.71,0,0,0,1.36,1c-.71.08-1.08.09-1.45.17s-.87.24-1.3.36c.35.45.61,1.11,1.06,1.3a20.82,20.82,0,0,0,3.18.76l-2.67,1.48.14.25c3.22-.32,6.43-.79,9.66-.94,8.13-.38,16.11.54,23.51,4.15,2.06,1,3.75,2.8,5.55,4.3,11.3,9.4,16.93,21.4,15.81,36.13-.77,10.15-3.82,19.61-10.87,27.34-7.36,8.05-16.61,12.62-27.27,14.51-11.12,2-21.33-.28-30.24-7.17a41.76,41.76,0,0,1-16.2-28.24c-2-14.77,2.24-27.84,12.56-38.77a1.73,1.73,0,0,1,1.38-.55c5.67,1.83,11.09.3,16.43-1.36,3.09-1,6-2.46,9.14-3.77,3.81,7.39,10.76,9.29,18.25,9.84,3.94.29,8,0,11.77-2.5-4,.11-7.69.46-11.33.26-6.94-.38-13.23-2.37-17.44-8.5-.91-1.32-2.22-1-3.4-.57-2.53.94-5,2.11-7.52,3a33.62,33.62,0,0,1-12.58,2,17.38,17.38,0,0,1-1.87-.2c-.15,0-.29-.2-.51-.37,2.22-3.37,5.58-5.35,8.77-7.38-1.07-2.15-2.23-4.09-3-6.16a22.47,22.47,0,0,1-.07-15.7c2-5.91,7-7.3,11.89-3.47,4.43,3.45,7.19,8.18,9.57,13.14a2.14,2.14,0,0,1-.12,1.54A26.93,26.93,0,0,1,125.11,184.52Zm-5.08,44c.13-6.86-3.1-10.64-9.9-11.57-5.31-.72-9.39,1.47-11.45,6.46a26,26,0,0,0-1.55,6.17,10.71,10.71,0,0,0,14,11.93C116.62,239.83,119.91,235,120,228.49Zm28.36,4.28c-.16-3.93-1.42-7.59-5.52-9.29s-7.92-1.27-11.2,1.85c-3.07,2.91-4,6.77-4.19,10.79-.18,3.84,2.91,7.81,6.86,9.25,4.15,1.51,7.81.61,10.57-2.64A15.49,15.49,0,0,0,148.4,232.77Zm-28.74,26c2.15-.84,4.22-1.52,6.16-2.48.46-.23.48-1.36.7-2.07-.71-.16-1.5-.59-2.12-.42a39.07,39.07,0,0,0-5.3,1.92c-.64.28-1.09,1-1.63,1.5Z"/><path class="cls-4" d="M137.33,185.66c-1.16-3.48-1.15-3.46,1.88-5.05a28.13,28.13,0,0,1,16.17-3.32,9.49,9.49,0,0,1,4.33,1.58c2,1.42,2.4,4.46.54,6.78a101.79,101.79,0,0,1-7.92,8.24,1.7,1.7,0,0,1-1.49.14c-3-1.22-6-2.53-9.05-3.84l3.81-1.29-1.17-1.47a2.46,2.46,0,0,1,.39-.36c1.62-1,3.3-1.83,4.84-2.9.52-.36.7-1.19,1-1.81-.66-.22-1.41-.76-2-.6-3.19.89-6.33,1.92-9.48,2.95A14.93,14.93,0,0,0,137.33,185.66Z"/><path class="cls-4" d="M112.95,180.15c2.88-.13,11,5.35,12.18,8.13-1.53.54-2.79,1.07-4.27-.52-1.2-1.29-3-2-4.49-3a17.46,17.46,0,0,1-2.83-2.71A5.38,5.38,0,0,1,112.95,180.15Z"/><path class="cls-4" d="M130.72,188.7c-1-.38-3.14.87-3.12-1.74,0-2.89,1.35-4.49,3.47-4.38a3.71,3.71,0,0,1,3.44,4.12C134.38,188.39,133.56,188.85,130.72,188.7Z"/><path class="cls-4" d="M143.08,185.33c-3.85,3-3.85,3-3.64,4.49l-3-.4C138.25,186.91,140.72,186.2,143.08,185.33Z"/><path class="cls-4" d="M103.07,228.71a4.74,4.74,0,0,1,4.62-4.9,4.57,4.57,0,0,1,4.23,4.47,4.45,4.45,0,1,1-8.85.44Zm5.36-1.73a11.56,11.56,0,0,0-2-1.19c-.13,0-.85.85-.76,1.1a6.47,6.47,0,0,0,1.21,1.56Z"/><path class="cls-4" d="M141.53,235a5.44,5.44,0,0,1-5.43,5.35,4.32,4.32,0,0,1-4.16-4.46,5.53,5.53,0,0,1,5.48-5.55A4.25,4.25,0,0,1,141.53,235Zm-2.8-2.06c-1-.6-1.53-1.24-2.08-1.21s-1.26,1-1.17,1.27a2.24,2.24,0,0,0,1.42,1.32C137.28,234.35,137.84,233.59,138.73,232.89Z"/><path class="cls-5" d="M177.27,155.6a19.06,19.06,0,0,1,3.24-1.1,2.06,2.06,0,0,1,1.57.86c1.68,2.43,3.25,4.93,4.87,7.4a8,8,0,0,0,1.24,1.64c.88.78,2,.34,2-.82a5.5,5.5,0,0,0-.75-2.65c-1.49-2.45-3.12-4.82-4.89-7.52,2.18-.23,4.14-.53,6.12-.59.5,0,1.22.62,1.51,1.14,1.69,3,3.29,6.07,4.9,9.13.48.92.72,2.3,2.15,1.83s1.51-1.93,1.06-3c-1-2.55-2.33-5-3.52-7.49-.21-.44-.44-.87-1-1.94,3.29.47,6.2.52,8.87,1.34,12.64,3.87,21.47,12.14,27,24.07a46.44,46.44,0,0,1,4,14.48,6.79,6.79,0,0,1-.47,3.45,58.59,58.59,0,0,0-5.34,25.61,5.79,5.79,0,0,1-1.07,3.09c-11.05,16-31.43,19.84-47.69,12.83-1.9-.82-3.69-1.89-5.56-2.77a2.92,2.92,0,0,1-1.79-3c-.21-8.31-2.06-16.18-6.67-23.24a42.7,42.7,0,0,0-12.08-12c-.41-.28-.8-.57-1.36-1,2.24-1.69,4.44-3.22,6.5-4.92a47.46,47.46,0,0,0,5.55-5.08c3.75-4.26,2-9.54-3.48-10.83-1.69-.4-3.44-.54-5.39-.83a38.09,38.09,0,0,1,10-12.14c.95,2,1.77,3.78,2.67,5.55.79,1.56,1.62,3.12,2.54,4.61.24.39.86.54,1.3.8a4.57,4.57,0,0,0,.44-1.46,20.71,20.71,0,0,0-3.65-10c-.73-1.15-.6-1.75.59-2.33s2.3-1.26,3.7-2c.59,1,1.19,2,1.67,2.95,1.4,2.88,2.7,5.81,4.18,8.65.33.64,1.19,1,1.8,1.49.35-.8,1.14-1.72,1-2.37a35.85,35.85,0,0,0-2.32-5.94C179.64,159.53,178.46,157.69,177.27,155.6Zm49.55,37.86a52.68,52.68,0,0,0-1.59-6.52c-3-8-13.21-7.8-17.38-3.4-3.38,3.57-4,7.82-2.59,12.25a12.05,12.05,0,0,0,9.25,8.51,11.77,11.77,0,0,0,5.73-.34C224.55,202.62,226.69,198.81,226.82,193.46Zm-32.05.73a12.27,12.27,0,0,0-11.84-13c-5.56-.08-10.25,5.33-10.25,11.78a11.65,11.65,0,0,0,11.79,11.83C190.54,204.76,194.76,200.41,194.77,194.19ZM200,221.47a14.48,14.48,0,0,0,3.28-.36,9.49,9.49,0,0,0,3.32-1.88,1.31,1.31,0,0,0-.9-2.32c-2.87.22-5.74.59-8.58,1.05-.5.08-1.27,1-1.22,1.4a2.32,2.32,0,0,0,1.25,1.6A12.56,12.56,0,0,0,200,221.47Z"/><path class="cls-5" d="M218.41,198.56c-3.27-.09-5.68-2.38-5.62-5.33.07-3.25,2-5,5.57-4.85a5.28,5.28,0,0,1,5.2,5.32A4.93,4.93,0,0,1,218.41,198.56Zm1.38-9.36c-.6,1.07-1.27,1.72-1.15,2.19s.95.93,1.47,1.39c.43-.51,1.19-1,1.19-1.53S220.56,190.19,219.78,189.2Z"/><path class="cls-5" d="M180.42,193.14c.07-3.22,2.15-5.36,5.14-5.27s5.36,2.69,5.31,6.13a5.1,5.1,0,0,1-5.19,5.29C182.62,199.23,180.35,196.58,180.42,193.14Zm7.18,1.23c.74-1,1.54-1.75,1.41-2.06a3.39,3.39,0,0,0-1.64-1.61c-.27-.12-1.42.81-1.36,1A14.68,14.68,0,0,0,187.61,194.38Z"/></g></g></svg>