<svg xmlns="http://www.w3.org/2000/svg" viewBox="0 0 173.19 199.1"><defs><style>.cls-1{fill:#cdfbff;}.cls-2{fill:#7ddde6;}</style></defs><title>handicapped</title><g id="Layer_2" data-name="Layer 2"><g id="Layer_1-2" data-name="Layer 1"><path class="cls-1" d="M106.28,117.87c-2.54,9.93-11.54,19.25-21.91,17.07-7.78-1.63-13-9.42-10.7-17.19a18,18,0,0,1,3.52-6.3c-1.77-.15-3.54-.28-5.31-.35C34.5,109.6,0,129.1,0,154.6s24,44.5,69,44.5c40.5,0,74.5-14,76-40C146,141.38,129,126.21,106.28,117.87Z"/><path class="cls-2" d="M77.51,32.37c.8,0,4,.37,2.55-.78a1,1,0,0,1-.55.16c-2.36,0-5.24-.2-7.65.57A54.33,54.33,0,0,0,77.51,32.37Z"/><path class="cls-2" d="M23,28.07c4.4-4.18,7.37-9,10.16-14.31h0c-.4-1.6,1.91-2.65,2.7-1.14C46.19,32.3,74,22.31,87.87,12c0-.27,0-.55-.07-.82a1.53,1.53,0,0,1,3-.41C92.71,18.2,95.31,24.84,101,30.27a31.62,31.62,0,0,0,13,7.3C108.7,19.87,94,3.29,68.28.25,61.45-.56,52.83.62,44.4,4,47.46,6,53,5.4,55.95,5c1.38-.2,2,1.73.59,2.14-3.91,1.12-11.43,1.57-14.61-2q-1.62.75-3.22,1.62c6.12,7.45,18.78,5.28,27,3.26a1.1,1.1,0,0,1,.58,2.12c-8.47,3.08-24,4.8-29.68-4.18a49.33,49.33,0,0,0-21.53,26A45.51,45.51,0,0,0,23,28.07Z"/><path class="cls-2" d="M37.88,31.67c1.25-.23,4.59-2.07,4.19-2.18-2-.53-4.29.57-6,1.6a12,12,0,0,0-1,.68q-.8.23,0,.15A7.08,7.08,0,0,0,37.88,31.67Z"/><path class="cls-2" d="M79.25,48.87a4.66,4.66,0,0,0-.48-.21,4.8,4.8,0,0,0-1.85,0,3,3,0,0,0-.72.25,4.86,4.86,0,0,0-1.06.79,3.65,3.65,0,0,0-.45,2.91,2.79,2.79,0,0,0,4,2.05,3.29,3.29,0,0,0,2-2.65A3,3,0,0,0,79.25,48.87ZM78,51.65c0,.06-.07.11-.1.16s-.16.36-.23.55a1.24,1.24,0,0,1-1.14.87,1.2,1.2,0,0,1-1.14-.87A1.94,1.94,0,0,1,76.71,50a1.19,1.19,0,0,1,1.21.41A1.14,1.14,0,0,1,78,51.69Z"/><path class="cls-2" d="M43.71,47.87a4.66,4.66,0,0,0-.48-.21H41.38a3,3,0,0,0-.72.25,4.86,4.86,0,0,0-1.06.79,3.65,3.65,0,0,0-.45,2.91,2.79,2.79,0,0,0,4,2.05,4.3,4.3,0,0,0,2-2.65A3.74,3.74,0,0,0,43.71,47.87Zm-1.25,2.78c0,.06-.07.11-.1.16s-.16.36-.23.55a1.24,1.24,0,0,1-1.14.87,1.2,1.2,0,0,1-1.14-.87A1.94,1.94,0,0,1,41.17,49a1.19,1.19,0,0,1,1.21.41,1.14,1.14,0,0,1,.08,1.32Z"/><path class="cls-2" d="M107.57,67.5a33.5,33.5,0,0,1,6.3-10q1.13-1.44,2.46-2.88a52.39,52.39,0,0,0-1.11-12.51c-12.77-2.65-24-13.66-26.83-26.35-8,7.29-20.44,11.11-31,11.81C49,28.14,38.67,25,34.5,17.25A44.17,44.17,0,0,1,13.6,38.87a58.4,58.4,0,0,0-1.59,14c.09,39.81,34.25,48.5,50.5,49.25,12.4.57,32.14-5.08,44.08-20.59C106.06,76.8,105.88,72,107.57,67.5ZM68.44,30.71c2.21-1.42,8.79-1.91,9.08-1.94,1.93-.19,4.2,0,5.44,1.7,1.08,1.48.82,3.5-1,4.19-2.77,1-6.83.89-9.71.52-2.06-.26-4.38-.85-4.55-3.2A1.48,1.48,0,0,1,68.44,30.71Zm-36-.32a11.63,11.63,0,0,1,7.85-3.46c2.63-.47,6.67-.35,6.29,2.8s-7.12,4.48-9.52,4.76c-1.47.17-3.76.51-4.9-.75a2.42,2.42,0,0,1,.26-3.36Zm10,29.71c-6.44.77-9.9-5.27-9.37-11,.37-4,3.55-9,7.6-9.33a5,5,0,0,1,1.51-.12,8.18,8.18,0,0,1,3.26.4c2.88.74,5.23,3.21,5.76,7.06.76,5.87-2.48,12.22-8.82,13Zm27.32,14c-1.12,4.09-5.9,6.53-9.9,6.54-3.75,0-8.73-2.19-8.75-6.51a1.28,1.28,0,0,1,2.37-.64c1.91,2.63,4.22,4.14,7.62,3.56,3-.51,4.21-2.4,6.11-4.42a1.53,1.53,0,0,1,2.5,1.43ZM84.63,51.52c-.53,5-4,10.09-9.6,9.45s-8.72-6-7.66-11.26A10.61,10.61,0,0,1,77.7,41.18c5,.09,7.34,5.94,6.88,10.3Z"/><path class="cls-2" d="M172.87,50.66c-1.5-5.64-7.35-10.64-11.76-14-3.64-2.75-26-18-26-5.24a1.5,1.5,0,0,0,.27.86,1.36,1.36,0,0,0,.09.39,16.84,16.84,0,0,0,1.11,2.2c-4.47,2.78-8,7.38-11.31,11.4a113.55,113.55,0,0,0-9.6,13.39c-2.51,4.19-4.62,8.73-5.14,13.63a35.45,35.45,0,0,0,.35,7.27,18.14,18.14,0,0,1-1.53,9.39,179.52,179.52,0,0,0-12.84,14c-1.8,2.12-3.23,3.74-3.44,5.31a9.72,9.72,0,0,0-3.4-.89.91.91,0,0,0-1,.54,3.81,3.81,0,0,0-1,.65c-1.07.83-2.11,1.72-3.12,2.62-1.86,1.65-4.15,3.43-5.44,5.57a1.16,1.16,0,0,0-.15.44c-.92,1-.82,2.81-.64,4.07a10.25,10.25,0,0,0,2.52,5.47c2.55,2.81,7.93,4.05,10.88,1.14a1.22,1.22,0,0,0,.34-.67A30.57,30.57,0,0,0,96,124a20.85,20.85,0,0,0,3.64-5.47,1,1,0,0,0,.06-.43.93.93,0,0,0,0-.26,9.32,9.32,0,0,0-1.73-4.44,1.58,1.58,0,0,0,.65-.44c5.22-5.75,10.55-11.78,15.44-18h0c.87-.68,1.7-1.4,2.53-2.12a75.11,75.11,0,0,1,11-3.47c4.8-1.05,9.51-2.29,13.62-5.09s7.68-6.84,11.16-10.56c4.66-5,9.24-10,13.64-15.25l.65.39a2.31,2.31,0,0,0,1.14.33,2.5,2.5,0,0,0,1,.2A3.16,3.16,0,0,0,171,58.35a4.59,4.59,0,0,0,.56-.77C173.24,56,173.51,52.93,172.87,50.66Zm-33.48,26.4L138,78.39c-4.15,2-8.15,3.72-13.16,4.1a20.7,20.7,0,0,0-5.62,1.22,20.2,20.2,0,0,0,.16-2.61c0-6.13-.76-10.88,2.26-16.59a62,62,0,0,1,6.1-9.23c2.87,7.19,9.25,15.08,17.22,16.1C143.16,73.31,141.31,75.21,139.39,77.06Zm5-21.1a.68.68,0,0,0,0,.17,7.57,7.57,0,0,0,1.6,3,5,5,0,0,0,2.19,1.78,11.87,11.87,0,0,1,.83,3,12.27,12.27,0,0,0-1.79-2.3,8.82,8.82,0,0,1-2.6-3,15.41,15.41,0,0,0-.93-2,26.88,26.88,0,0,0-5.54-5.74,40.82,40.82,0,0,1,5,3.85c.36.4.81.82,1.23,1.24Zm-15-1.8c2.78.86,3.56,3,4.66,5.63a22.69,22.69,0,0,0,3,4.9l.24.32C134,62,131.51,57.87,129.39,54.16ZM147,69.25a1.16,1.16,0,0,0-.34-.08,2.47,2.47,0,0,1-.61-.05,5.12,5.12,0,0,0-2.46-2c-1.34-.63-2.72-.71-3.93-1.73a16,16,0,0,1-2.88-3.93c-2.07-3.42-2.46-8.1-6.94-8.7l.87-1c3.34-.24,4.37,4.48,6.36,6.16a5.58,5.58,0,0,0,1.45.95,2.62,2.62,0,0,1,.65,3.11,7.13,7.13,0,0,0,.15,1.56c.73,2.25,2.69,2.28,4.54,3a4,4,0,0,1,2.8,1.69q.17.42.38.82l.08.05Zm1.3-1.41c-.91-1.46-.54-2.24-3-2.89-1.82-.49-3.75-1-4.16-3.4a8.54,8.54,0,0,0,.34-1.52,2.5,2.5,0,0,0-.89-1.94c-1.13-1.13-2.48-1.51-3.51-2.91a33.41,33.41,0,0,0-2.22-3.4,4.78,4.78,0,0,0-2.81-1.6l.78-.88A46.25,46.25,0,0,1,139.44,55a24.83,24.83,0,0,1,2.24,2.37c1,1.32.94,2.49,1.69,3.79,1,1.64,2.84,2.26,4,3.76a8.56,8.56,0,0,0,1.75,2.06Zm3.17-3.48a9.89,9.89,0,0,0-1-4.52A23.79,23.79,0,0,0,146,54.37a36.76,36.76,0,0,0-10.85-7.63c2-2.15,4-4.28,5.92-6.43a80.54,80.54,0,0,0,6.26,5.12c4.23,3.24,8.48,6.44,12.9,9.41-3,3.11-5.92,6.31-8.81,9.51Zm5.61-26A46.83,46.83,0,0,1,164,44.25c.73.76,1.45,1.57,2.13,2.4l0,.25c-.23.1-.45.21-.65.32h0a26,26,0,0,0-5.34-4.89,105.6,105.6,0,0,0-14.69-8.46c-2.09-1.15-4.19-2.2-6.24-3.18,3.64-1.51,16.41,6.71,17.8,7.68ZM93.51,122.57c-1.22,1.44-2.62,2.76-3.76,4.27-2.35.69-4.51.85-6.5-1.08A6.53,6.53,0,0,1,82,123.92a19.5,19.5,0,0,0,5,2.1,1.34,1.34,0,0,0,1.29-2.22,44.43,44.43,0,0,0-5.9-5.45c1.16-1.12,2.21-2.41,3.34-3.53q1.2-1.19,2.43-2.35a14.5,14.5,0,0,0,1.75-1.66,13.65,13.65,0,0,1,4.56,2.8,16.94,16.94,0,0,1,2.89,4.31C95.93,119.32,94.8,121.07,93.51,122.57Z"/><path d="M35.41,145.81H38v12.8H35.41v-8.5l-5.12,8.5H27.65v-12.8h2.64v8.52Z"/><path d="M48.42,158.6H45.87v-3.65H42.71v3.65H40.17v-9.51h2.54v3.78h3.16v-3.81h2.55Z"/><path d="M50.51,158.6v-9.51h4a5.4,5.4,0,0,1,3,.69,2.22,2.22,0,0,1,1,2,1.8,1.8,0,0,1-.44,1.18,2.74,2.74,0,0,1-1.27.8,3.07,3.07,0,0,1,1.6.76,1.87,1.87,0,0,1,.58,1.39,2.31,2.31,0,0,1-1,2,5,5,0,0,1-2.89.69ZM53,152.95h1.57q1.34,0,1.34-.86a.79.79,0,0,0-.37-.73,2.21,2.21,0,0,0-1.11-.22H53Zm0,1.71v1.9h2q1.34,0,1.35-.93t-1.28-1Z"/><path d="M66.09,158.6a2.82,2.82,0,0,1-.26-.85,3.07,3.07,0,0,1-2.4,1,3.38,3.38,0,0,1-2.32-.81,2.6,2.6,0,0,1-.92-2,2.69,2.69,0,0,1,1.12-2.32,5.53,5.53,0,0,1,3.24-.82h1.17v-.54a1.57,1.57,0,0,0-.34-1.05,1.33,1.33,0,0,0-1.07-.4,1.51,1.51,0,0,0-1,.31,1,1,0,0,0-.37.84H60.41a2.55,2.55,0,0,1,.51-1.53,3.37,3.37,0,0,1,1.44-1.1,5.25,5.25,0,0,1,2.09-.4,4.16,4.16,0,0,1,2.79.88,3.09,3.09,0,0,1,1,2.48v4.12a4.54,4.54,0,0,0,.38,2v.15ZM64,156.83a2.18,2.18,0,0,0,1-.25,1.64,1.64,0,0,0,.7-.67v-1.63h-1q-1.91,0-2,1.32v.15a1,1,0,0,0,.33.78,1.3,1.3,0,0,0,.92.34Z"/><path d="M78.51,149.09v9.51H76v-7.46H73.73l-.16,2.94a6.69,6.69,0,0,1-.92,3.42,2.72,2.72,0,0,1-2.3,1.1h-.84v-2h.32a1.16,1.16,0,0,0,1-.81,8.34,8.34,0,0,0,.39-2.58l.18-4Z"/><path d="M86.19,149.09h2.54v9.51H86.19v-5.87L83,158.6H80.46v-9.51H83v5.86Z"/><path d="M90.8,156.56A5.12,5.12,0,0,0,92,154.75a8.75,8.75,0,0,0,.34-2.54l.07-3.11h7v7.46h1.37v4.9H98.21V158.6H92.58v2.86H90v-4.9Zm3,0h3V151.2h-2v1.14A8.54,8.54,0,0,1,93.8,156.56Z"/><path d="M104.75,151.87h1.82a5.29,5.29,0,0,1,2.16.41,3.19,3.19,0,0,1,1.43,1.18,3.24,3.24,0,0,1,.5,1.79,3,3,0,0,1-1.11,2.42,4.61,4.61,0,0,1-3,.92h-4.32v-9.51h2.55Zm0,2v2.63h1.76a1.73,1.73,0,0,0,1.16-.35,1.19,1.19,0,0,0,.4-.95,1.25,1.25,0,0,0-.4-1,1.67,1.67,0,0,0-1.17-.36Zm10,4.68h-2.54V149h2.54Z"/></g></g></svg>