<svg xmlns="http://www.w3.org/2000/svg" viewBox="0 0 767.17 191.47"><defs><style>.cls-1{fill:#ffab31;}.cls-2{fill:#35dcf3;}.cls-3{fill:#ed8ce8;}.cls-4{fill:#ff5878;}.cls-5{fill:#dcd9d1;}</style></defs><title>logistic</title><g id="Layer_2" data-name="Layer 2"><g id="Layer_1-2" data-name="Layer 1"><path class="cls-1" d="M54.54,44.25a20.26,20.26,0,0,1,.81,4,2,2,0,0,1-2.56,1.95c-1.85-.45-2.59-3.51-3.05-6l-9.13-.3A26.12,26.12,0,0,1,38.41,49c-1.12,1.89-3.53.5-3.27-1.38a22,22,0,0,1,.92-3.81c-3.53-.06-7.06-.05-10.57.12a2.1,2.1,0,0,1-.37,0c-3.5,1.38-1.32,5.58-.62,8.24q1.22,4.62,2.68,9.16c.8,2.51,1.35,6.29,4,7.56,2,.94,5.38.43,7.49.45,5,0,10,0,15-.12,5.47-.16,6.17-3.25,7.45-7.81.76-2.68,1.47-5.37,2.2-8.06.45-1.68,1.75-4.2,1.61-5.91C64.7,43.75,58.49,44.09,54.54,44.25ZM31.19,57.51a1.56,1.56,0,0,1,0-1.55l0,0c.53-1,1.44-1,2.42-1.1a12,12,0,0,1,2.13,0,1.94,1.94,0,0,1,0,3.88,12,12,0,0,1-2.13,0C32.63,58.52,31.71,58.46,31.19,57.51ZM37.1,64.8A8.36,8.36,0,0,1,33,64.06a1.6,1.6,0,0,1,.38-2.88,16.34,16.34,0,0,1,3.76-.29,2,2,0,1,1,0,3.91Zm9.63-.36a4.22,4.22,0,0,1-1.74.11,13.82,13.82,0,0,1-1.72-.2,1.67,1.67,0,0,1-1.18-1.18l0-.05a1.6,1.6,0,0,1,0-.84,1.67,1.67,0,0,1,1.18-1.18,13.84,13.84,0,0,1,1.72-.2,4.24,4.24,0,0,1,1.74.11A1.8,1.8,0,0,1,46.72,64.44Zm1.78-7.05c-1.09,1-2.34.71-3.69.65s-2.57.12-3.59-.78a1.46,1.46,0,0,1,0-2.05c1-.93,2.34-.8,3.59-.83s2.71-.24,3.69.77A1.61,1.61,0,0,1,48.5,57.38Zm6.16,7.41a6.44,6.44,0,0,1-2.78-.17,1.73,1.73,0,0,1,0-3.3,6.25,6.25,0,0,1,1.51-.26l.33,0,.94-.12a2,2,0,0,1,1.95,1.95A2,2,0,0,1,54.66,64.79Zm2.18-6.58a23.62,23.62,0,0,1-2.5-.22,3.4,3.4,0,0,1-2.19-.88,1.4,1.4,0,0,1,0-2c1.1-1,3.09-.94,4.55-.9A2,2,0,0,1,58.78,56,2,2,0,0,1,56.84,58.22Z"/><path class="cls-1" d="M33.26,58.09l.07,0h0Z"/><path class="cls-1" d="M43,8.09c-17,0-43,12-43,44s28,44.23,41,45c17,1,39.41-8.29,45-34C91,40.09,83.11,8.09,43,8.09Zm23.14,51c-1,3.52-1.53,8.3-4,11.16C59.29,73.61,55,73.43,51,73.52a159.13,159.13,0,0,1-17.93-.16c-4.59-.41-7-2.54-8.56-6.74a91.76,91.76,0,0,1-5-17.85c-.69-4.33.43-7.36,4.86-8.31a1.92,1.92,0,0,1,1.09-.39c4-.22,8-.29,12.08-.28.43-1.06.86-2.11,1.24-3.14C40,33.43,41.06,29.94,42.95,27a1.47,1.47,0,0,1,2.67,1.12c-.53,3.76-2.21,7.43-3.46,11l-.22.65q3.44,0,6.88.13c-1.08-4-2.3-8.07-2.49-12.15-.07-1.48,2.24-2.19,2.89-.78,1.62,3.54,2.39,7.46,3.42,11.2.17.6.36,1.22.56,1.84l6.15.14c3.73.07,8.53-.21,9.83,4.27C70.37,48.61,67.23,55.13,66.14,59.1Z"/><path class="cls-2" d="M183.36,45.78V46c0,1.25-.06,2.49-.12,3.74a1.53,1.53,0,0,1-1.51,1.51l-3.2-.32a4.26,4.26,0,0,1-2.45-.59c-.69-.59-.6-1.39-.54-2.2s.09-1.48.15-2.21c-1,.06-2,.1-3,.07,0,4.51-.12,9-.2,13.54,4.29-.23,8.6-.34,12.91-.37A112.11,112.11,0,0,0,185,46.08,12.51,12.51,0,0,0,183.36,45.78Z"/><path class="cls-2" d="M208.18,78.31q.05-2.6.13-5.21c-10.07-.3-21,.3-31-1.37.22,2.36.35,4.72.43,7.09a1.18,1.18,0,0,1,.61-.26A137.73,137.73,0,0,1,208.18,78.31Z"/><path class="cls-2" d="M226.45,32.27a94.39,94.39,0,0,1-9.93.23c.11,2.21.21,4.42.34,6.62a1.53,1.53,0,0,1-1.5,1.5,53.46,53.46,0,0,1-10.22.07,1.47,1.47,0,0,1-1.44-1.44c.05-2.41,0-4.85.22-7.26-3-.11-6.08-.14-9.12,0,.34,9.06.36,18.15.43,27.22,4.8,0,9.59.12,14.33.13q8.5,0,17,.13C226.43,50.47,225.92,41.24,226.45,32.27Z"/><path class="cls-2" d="M179.33,48.06l.94.07c0-.36,0-.72,0-1.09s.1-.9.13-1.38c-.8,0-1.6.06-2.41.11,0,.73,0,1.49.1,2.21Z"/><path class="cls-2" d="M213.8,37.73q-.1-2.66-.21-5.32c-2.42-.09-4.83-.21-7.25-.32.17,1.91.19,3.85.21,5.78C209,37.94,211.38,37.89,213.8,37.73Z"/><path class="cls-2" d="M211.55,5.5c-32.17-3.17-51,25-52.17,45.5-.8,14,4.07,28.92,14.51,39.19.09-1.1.18-2.11.17-2.87-.05-5.59-.27-11.2,0-16.79a1.68,1.68,0,0,1,1.36-2.09c10.83-1.42,22.71.28,33.61.72a1.88,1.88,0,0,1,1.67,1,1.48,1.48,0,0,1,.63,1.14c.06.79.12,1.58.17,2.37,7.78-1.13,16.1-.94,23.92-.69A1.62,1.62,0,0,1,237,74.27a1.31,1.31,0,0,1,.23.69c.24,5.91.9,12.49,0,18.34a1.29,1.29,0,0,1-2.46,0c-1-5.29-.6-11.34-.24-16.83l-6.54.19v0c.05,1.45-.14,2.92-.23,4.37-.06,1,0,2-1.07,2.5s-2.63.26-3.76.27c-1.38,0-2.75,0-4.13-.06a1.45,1.45,0,0,1-1.43-1.43c.05-1.86,0-3.77.16-5.64-2-.06-3.93-.18-5.86-.37a227.82,227.82,0,0,1,0,23.38c-.12,2.44-3.86,2.47-3.82,0,.1-6.21.18-12.42.3-18.63-9.87.09-19.9,0-29.75-.32a1.17,1.17,0,0,1-.55-.15c.11,4.4.11,8.8.23,13.19A46.48,46.48,0,0,0,202.55,103c36.81,3.27,53.51-18.91,55.83-44.67C260.38,36.17,243.72,8.67,211.55,5.5ZM255,63.68c-15.15-.33-30.29-.7-45.44-.78s-30.39.9-45.44,0a1.38,1.38,0,0,1,0-2.75c1.72-.18,3.44-.32,5.18-.44-.26-4.94-.68-10.17-.07-15a1.28,1.28,0,0,1,1.3-1.06,1.2,1.2,0,0,1,.51-.22,65,65,0,0,1,8.26-.73c2.6-.14,5.2-.48,7.69.43a1.7,1.7,0,0,1,1.19,1.19,64.91,64.91,0,0,1,.63,14.83h2.93c0-9.27-.09-18.56.19-27.83v0a1.55,1.55,0,0,1,.89-2.37c5.09-.92,10.26-.6,15.41-.51,6.16.11,12.57-.22,18.68.59a1.78,1.78,0,0,1,1.19.64,1,1,0,0,1,1.05.94c.4,2.83.65,5.72.82,8.62,5.32-.69,10.9-.06,16.17.6a1.88,1.88,0,0,1,1.83,1.83c.07,6.05.15,12.2-.38,18.24,2.48.07,5,.14,7.43.23C257.28,60.2,257.3,63.73,255,63.68Z"/><path class="cls-2" d="M231.29,42.23l0-.06h-.06Z"/><path class="cls-2" d="M224.76,80.74c.23-1.21.19-2.54.35-3.76a1.49,1.49,0,0,1,0-.24c-1.69,0-3.39,0-5.08,0,.1,1.36.12,2.73.14,4.09l2.14-.09C223.06,80.74,223.95,80.81,224.76,80.74Z"/><path class="cls-2" d="M239.91,43.54l-.09-.08a19.41,19.41,0,0,0-4.11-.14c-.89.11-2.15.18-2.07,1.4a1.61,1.61,0,0,0,1.27,1.43c1.2.43,3,.11,4.24.1.88,0,.92.15,1.37-.4a1.41,1.41,0,0,0,.17-.47,1.61,1.61,0,0,1-.12-.43A1.66,1.66,0,0,0,239.91,43.54Z"/><path class="cls-3" d="M392.14,49l4.77-.13q.06-2.23.11-4.46c-1,1-2,1.92-3,2.84C393.42,47.85,392.78,48.44,392.14,49Z"/><path class="cls-3" d="M385.08,49.14q2,0,4,0c1.22-1.22,2.6-2.3,3.86-3.45s2.73-2.51,4.12-3.74q0-2.6.06-5.2c-2.19,2.39-4.41,4.75-6.68,7.05A66,66,0,0,1,385.08,49.14Z"/><path class="cls-3" d="M382,76.37c4.14,0,8.26.12,12.39.4-1.71-4.4-4-8.65-5.91-13C386.1,67.84,384.09,72.19,382,76.37Z"/><path class="cls-3" d="M394,32.54c-4.86,4.24-9,9.73-14.07,13.69,0,.94,0,1.89.05,2.83l1.84,0c5.6-4.42,10.53-10,15.33-15.3q0-.57,0-1.13C396.08,32.63,395,32.58,394,32.54Z"/><path class="cls-3" d="M379.62,32.64q.1,2.22.16,4.44c1.79-1.65,3.73-3.16,5.66-4.61Q382.53,32.51,379.62,32.64Z"/><path class="cls-3" d="M388.34,32.45l0,.06c-2.95,2.37-5.62,5.09-8.46,7.57,0,1,0,2,0,2.94,3.71-3.59,7.26-7.48,11.36-10.52C390.27,32.47,389.31,32.45,388.34,32.45Z"/><path class="cls-3" d="M420.79,32.57a11.84,11.84,0,0,0-1.69-.09,9.55,9.55,0,0,0-3.15.73c-2.94,1.53-5.13,3.45-5,7.91s3.15,8.16,7.91,7.86a8.16,8.16,0,0,0,7.9-7.44A10.2,10.2,0,0,0,425.32,36,7.67,7.67,0,0,0,420.79,32.57Z"/><path class="cls-3" d="M407.7,5.59c-23.34-1.64-56.5,16.49-56.5,50s30.3,49.37,49.5,50.8c23.5,1.75,48.75-13.25,53-46C457.5,31.16,434,7.43,407.7,5.59Zm-10,76.11a160,160,0,0,0-19.63-.62,2.37,2.37,0,0,1-2-3.53c2-3.69,4.13-7.33,6.21-11,1.64-2.89,3.1-6.12,5.3-8.64,1.1-1.26,3-.31,3.3,1a2,2,0,0,1,.3.4c2,3.51,3.59,7.33,5.24,11A61.85,61.85,0,0,1,400,78.74C400.34,80.07,399.26,81.87,397.73,81.69Zm3.58-30.62a2.27,2.27,0,0,1-2.23,2.23c-7,.12-14.19.49-21.22,0a2.2,2.2,0,0,1-2.15-2.15c-.05-6.38-.11-12.79.35-19.15a2,2,0,0,1,.14-.59,2.25,2.25,0,0,1,2-3c7.06-.37,14.09-.15,21.15,0a2.23,2.23,0,0,1,2.19,2.19C401.76,37.41,401.51,44.26,401.3,51.07Zm28.55,21.44A31.77,31.77,0,0,1,422,80c-2.25,1.59-3.95,2.29-6.33.65-3.11-2.16-7.09-5.83-8.91-9.19-2.07-3.83,2.63-8.55,6.82-11.56a13.58,13.58,0,0,1,2.94-2.31c4.07-2.72,10.2,5,12.53,8C430.78,67.86,431.53,70,429.85,72.51Zm-10.75-19c-16.58.38-15.72-25.72-.95-25.64l.15,0c7.6-1.17,13.06,6.46,13.15,13.41S425.75,53.37,419.1,53.52Z"/><path class="cls-4" d="M608,40a9.05,9.05,0,0,0,.09-1.76c.61-3.68,2.69-6,5.52-6.82a3.16,3.16,0,0,0-.71-1.43c-2.91-.65-6.4.45-7.41,3.26a7.88,7.88,0,0,0,0,5.19C605.82,39.37,607.44,41,608,40Z"/><path class="cls-4" d="M598.43,54.05c2.49-7.85,18.64-1.73,23.57.69a1.18,1.18,0,0,1,.74,1.11,1.07,1.07,0,0,1,.18.42c.86,4.5-3.52,6.22-7.33,5.68-1-.14-3.72-1.27-4.6-.83.54-.27,4.07,1.17,4.84,1.31a30.43,30.43,0,0,0,7.74.33,5.54,5.54,0,0,1-.23-2.79,1.4,1.4,0,0,1,.32-.73,1.74,1.74,0,0,1,1.14-1.44c6.76-2.57,18.45-6.18,23.52-.32,6.7-2.65,13.36-5.2,19.79-8.47,4.7-2.39,9.17-5.14,13.69-7.84a45.94,45.94,0,0,0,.71-14.85c-2.71-22.81-34.66-38.2-57.07-12.73-17-22.4-55.51-16-58.48,11.08a55.8,55.8,0,0,0,2.35,22.94C579.06,48.91,588.72,52.17,598.43,54.05ZM604,26.34c5.88-3.32,15.87-.67,19.27,5.56,4.16-6.57,15.63-7.4,21-2.12a12.28,12.28,0,0,1,2.92,13c-.94,2.75-3.06,6.84-5.79,8.27a1.65,1.65,0,0,1-1.31.1,53.3,53.3,0,0,0-13.29,3.31,1.09,1.09,0,0,1-1.1-.16h0c-3.28-1.17-6.11-3.22-9.37-4.44A30.74,30.74,0,0,0,604,48.31a1.05,1.05,0,0,1-.95-.52,1.24,1.24,0,0,1-.27-.1c-2.89-1.6-4.4-6.7-4.82-9.69C597.25,33,599.67,28.8,604,26.34Z"/><path class="cls-4" d="M653.5,59.52a1.53,1.53,0,0,1,.24.41c1.27,3.16,2,7.18,1.22,10.57a87.35,87.35,0,0,0,11-5.23c2.65-1.57,5.22-3.25,7.92-4.72a67,67,0,0,0,6.35-13.65A103.52,103.52,0,0,1,653.5,59.52Z"/><path class="cls-4" d="M652,70.48c-.15-3.39,0-6.48-.85-9.84a1.57,1.57,0,0,1,0-.42l-1.11.3a12.89,12.89,0,0,1,.51,2c.24,1.38-1.63,2.38-2.38,1-1.35-2.48-2.33-4.84-5.37-5.72-2.27-.66-4.83,0-7,.51-3,.73-6.29,1.48-9.23,2.51.87,2.92,6.51,1.12,8.73,1.84a4.65,4.65,0,0,1,3,5.19,1.17,1.17,0,0,1,0,1.73c-6.33,5.06-20.81-2.2-24.42,5.12,6.31.39,12.5,1.66,18.86,1.51C640,76.06,645.39,73.47,652,70.48Z"/><path class="cls-4" d="M654,73.71a1.59,1.59,0,0,1-.72-.06c-6.08,2.81-11.5,5.17-18.32,5.89a61.93,61.93,0,0,1-22.83-2.17,1.31,1.31,0,0,1-.92-1,1.29,1.29,0,0,1-.33-.22c-6.15.49-12.31-1.3-18.2-2.88q-6-1.61-11.88-3.52c13.16,17.93,32.24,30.72,42.7,35.54,10.86-5,31.85-19.09,45.71-37.82C664.49,70.45,659.47,72.94,654,73.71Z"/><path class="cls-4" d="M617.5,68.3c5.86-.66,11.69.75,17.47-.41-.11-.79-.18-1.66-.93-2-.48-.24-1.52.06-2,.11a13.53,13.53,0,0,1-4.65-.18,7.93,7.93,0,0,1-1.15-.39,30.18,30.18,0,0,1-10.62.1c-2.07-.35-7.68-1.08-8.91-3.12-1-1.64.47-3.51,2-4.16,3.1-1.32,9.69,2.72,11.41-1-5.56-1.35-16.76-7.63-19.64-.48a1.33,1.33,0,0,1-1.23.83,1.51,1.51,0,0,1-.6.07c-.5,0-1-.11-1.53-.16-1.07,4.21-1.7,9-3.41,12.93a104.35,104.35,0,0,0,17,3.16C611.52,70.49,614.06,68.69,617.5,68.3Z"/><path class="cls-4" d="M594.95,57.27a99.25,99.25,0,0,1-24.57-6.45A75.57,75.57,0,0,0,578.16,66c4.52,1.31,9,2.69,13.57,3.93C591.85,65.77,593.57,61.21,594.95,57.27Z"/><path class="cls-5" d="M556,52.79h-4a1.5,1.5,0,0,0,0,3h4a1.5,1.5,0,0,0,0-3Z"/><path class="cls-5" d="M498.95,52.79h-8.84a1.5,1.5,0,0,0,0,3h8.84a1.5,1.5,0,0,0,0-3Z"/><path class="cls-5" d="M529.89,52.79h-8.84a1.5,1.5,0,0,0,0,3h8.84a1.5,1.5,0,0,0,0-3Z"/><path class="cls-5" d="M468,52.79h-4a1.5,1.5,0,0,0,0,3h4a1.5,1.5,0,0,0,0-3Z"/><path class="cls-5" d="M340.5,52.79h-4a1.5,1.5,0,0,0,0,3h4a1.5,1.5,0,0,0,0-3Z"/><path class="cls-5" d="M295.76,52.79H289a1.5,1.5,0,0,0,0,3h6.79a1.5,1.5,0,0,0,0-3Z"/><path class="cls-5" d="M319.53,52.79h-6.79a1.5,1.5,0,0,0,0,3h6.79a1.5,1.5,0,0,0,0-3Z"/><path class="cls-5" d="M272,52.79h-4a1.5,1.5,0,0,0,0,3h4a1.5,1.5,0,0,0,0-3Z"/><path class="cls-5" d="M147,55.46h-4a1.5,1.5,0,0,0,0,3h4a1.5,1.5,0,0,0,0-3Z"/><path class="cls-5" d="M126.33,55.46h-6.67a1.5,1.5,0,1,0,0,3h6.67a1.5,1.5,0,1,0,0-3Z"/><path class="cls-5" d="M103,55.46H99a1.5,1.5,0,0,0,0,3h4a1.5,1.5,0,0,0,0-3Z"/><path d="M12.7,139.2H10.23V127H4V139.2H1.51V125H12.7Z"/><path d="M15,133.82a6.23,6.23,0,0,1,.62-2.8,4.5,4.5,0,0,1,1.73-1.91,4.87,4.87,0,0,1,2.56-.67,4.62,4.62,0,0,1,3.47,1.38,5.41,5.41,0,0,1,1.44,3.65V134a6.29,6.29,0,0,1-.6,2.79,4.44,4.44,0,0,1-1.72,1.9,4.91,4.91,0,0,1-2.58.67,4.58,4.58,0,0,1-3.58-1.49,5.7,5.7,0,0,1-1.34-4Zm2.37.21a4.26,4.26,0,0,0,.67,2.55,2.19,2.19,0,0,0,1.88.92,2.17,2.17,0,0,0,1.87-.94,4.7,4.7,0,0,0,.67-2.74,4.2,4.2,0,0,0-.69-2.54,2.32,2.32,0,0,0-3.72,0A4.61,4.61,0,0,0,17.37,134Z"/><path d="M30.59,135h-1.2v4.18H27V128.63h2.37v4.22h1l2.92-4.22h2.93l-3.82,5.06,4.14,5.51H33.52Z"/><path d="M41.6,135.8l2.15-7.17h2.53l-4.2,12.17q-1,2.67-3.28,2.67a4.22,4.22,0,0,1-1.14-.18v-1.84l.45,0a2.31,2.31,0,0,0,1.35-.33,2.17,2.17,0,0,0,.72-1.1l.34-.91-3.71-10.51h2.56Z"/><path d="M56.6,139.2H54.23v-8.65H50.11v8.65H47.73V128.63H56.6Z"/><path d="M62.88,135h-1.2v4.18H59.31V128.63h2.37v4.22h1l2.92-4.22h2.93l-3.82,5.06,4.14,5.51H65.81Z"/><path d="M76.51,139.2a3.65,3.65,0,0,1-.27-1,4,4,0,0,1-5.37.27,2.91,2.91,0,0,1-1-2.25,3,3,0,0,1,1.25-2.59,6.08,6.08,0,0,1,3.59-.9h1.46v-.69a1.85,1.85,0,0,0-.46-1.31,1.82,1.82,0,0,0-1.4-.49,2.09,2.09,0,0,0-1.33.41,1.26,1.26,0,0,0-.52,1H70.09a2.64,2.64,0,0,1,.58-1.63,3.83,3.83,0,0,1,1.57-1.19,5.51,5.51,0,0,1,2.21-.43,4.43,4.43,0,0,1,3,.93A3.33,3.33,0,0,1,78.54,132v4.77a5.41,5.41,0,0,0,.4,2.28v.17Zm-2.61-1.71a2.7,2.7,0,0,0,1.32-.34,2.28,2.28,0,0,0,.93-.92v-2H74.88a3.5,3.5,0,0,0-2,.46,1.49,1.49,0,0,0-.66,1.3,1.39,1.39,0,0,0,.45,1.09A1.76,1.76,0,0,0,73.91,137.49Z"/><path d="M10.18,163.2H7.8v-8.65H3.68v8.65H1.31V152.63h8.87Z"/><path d="M22,158a6.29,6.29,0,0,1-1.11,3.91,3.56,3.56,0,0,1-3,1.46,3.59,3.59,0,0,1-2.78-1.14v5H12.7V152.63h2.19l.1,1.07a3.48,3.48,0,0,1,2.84-1.27,3.6,3.6,0,0,1,3,1.44,6.46,6.46,0,0,1,1.1,4Zm-2.36-.21a4.41,4.41,0,0,0-.63-2.51,2,2,0,0,0-1.8-.93,2.18,2.18,0,0,0-2.09,1.2v4.69a2.2,2.2,0,0,0,2.11,1.23,2,2,0,0,0,1.77-.91A4.85,4.85,0,0,0,19.59,157.82Z"/><path d="M23.52,157.82a6.23,6.23,0,0,1,.62-2.8,4.5,4.5,0,0,1,1.73-1.91,4.87,4.87,0,0,1,2.56-.67,4.62,4.62,0,0,1,3.47,1.38,5.41,5.41,0,0,1,1.44,3.65V158a6.29,6.29,0,0,1-.6,2.79,4.44,4.44,0,0,1-1.72,1.9,4.91,4.91,0,0,1-2.58.67,4.58,4.58,0,0,1-3.58-1.49,5.7,5.7,0,0,1-1.34-4Zm2.37.21a4.26,4.26,0,0,0,.67,2.55,2.19,2.19,0,0,0,1.88.92,2.17,2.17,0,0,0,1.87-.94,4.7,4.7,0,0,0,.67-2.74,4.2,4.2,0,0,0-.69-2.54,2.32,2.32,0,0,0-3.72,0A4.61,4.61,0,0,0,25.89,158Z"/><path d="M34.69,161.31A6.29,6.29,0,0,0,36,159.21a9.32,9.32,0,0,0,.41-2.53l.14-4h7.33v8.67h1.46v5H43V163.2H36.21v3.14h-2.4v-5Zm2.78,0h4.05v-6.63H38.86l-.07,2A8.68,8.68,0,0,1,37.47,161.31Z"/><path d="M50.74,159.8l2.15-7.17h2.53l-4.2,12.17q-1,2.67-3.28,2.67a4.22,4.22,0,0,1-1.14-.18v-1.84l.45,0a2.31,2.31,0,0,0,1.35-.33,2.17,2.17,0,0,0,.72-1.1l.34-.91-3.71-10.51h2.56Z"/><path d="M60.54,159h-1.2v4.18H57V152.63h2.37v4.22h1l2.92-4.22h2.93l-3.82,5.06,4.14,5.51H63.47Z"/><path d="M76.17,154.52H72.74v8.68H70.37v-8.68H67v-1.88h9.19Z"/><path d="M77,157.82a6.23,6.23,0,0,1,.62-2.8,4.5,4.5,0,0,1,1.73-1.91,4.87,4.87,0,0,1,2.56-.67,4.62,4.62,0,0,1,3.47,1.38,5.41,5.41,0,0,1,1.44,3.65V158a6.29,6.29,0,0,1-.6,2.79,4.44,4.44,0,0,1-1.72,1.9,4.91,4.91,0,0,1-2.58.67,4.58,4.58,0,0,1-3.58-1.49,5.7,5.7,0,0,1-1.34-4Zm2.37.21a4.26,4.26,0,0,0,.67,2.55,2.19,2.19,0,0,0,1.88.92,2.17,2.17,0,0,0,1.87-.94,4.7,4.7,0,0,0,.67-2.74,4.2,4.2,0,0,0-.69-2.54,2.32,2.32,0,0,0-3.72,0A4.61,4.61,0,0,0,79.38,158Z"/><path d="M89,163.2V152.63h4.29a6,6,0,0,1,3.3.76,2.46,2.46,0,0,1,1.13,2.17,2.08,2.08,0,0,1-.45,1.31,2.84,2.84,0,0,1-1.34.89,3,3,0,0,1,1.64.87,2.2,2.2,0,0,1,.61,1.54,2.58,2.58,0,0,1-1.09,2.25,5.37,5.37,0,0,1-3.13.77ZM91.4,157h2q2,0,2-1.19t-1.91-1.29H91.4Zm0,1.7v2.63H94q1.83,0,1.83-1.31T94,158.7Z"/><path d="M173.82,142.7h-2.34v-3.5h-9.37v3.5h-2.38l-.08-5.49h1.14a5.69,5.69,0,0,0,1.36-2.38,15.08,15.08,0,0,0,.65-3.54l.37-6.3h9v12.23h1.81Zm-10.23-5.49h6.09V127h-4.15l-.23,4A13.06,13.06,0,0,1,163.59,137.21Z"/><path d="M175.13,133.82a6.23,6.23,0,0,1,.62-2.8,4.5,4.5,0,0,1,1.73-1.91,4.87,4.87,0,0,1,2.56-.67,4.62,4.62,0,0,1,3.47,1.38,5.41,5.41,0,0,1,1.44,3.65V134a6.29,6.29,0,0,1-.6,2.79,4.44,4.44,0,0,1-1.72,1.9,4.91,4.91,0,0,1-2.58.67,4.58,4.58,0,0,1-3.58-1.49,5.7,5.7,0,0,1-1.34-4Zm2.37.21a4.26,4.26,0,0,0,.67,2.55,2.19,2.19,0,0,0,1.88.92,2.17,2.17,0,0,0,1.87-.94,4.7,4.7,0,0,0,.67-2.74,4.2,4.2,0,0,0-.69-2.54,2.32,2.32,0,0,0-3.72,0A4.61,4.61,0,0,0,177.5,134Z"/><path d="M191.3,137.5a2.15,2.15,0,0,0,1.47-.52,1.77,1.77,0,0,0,.63-1.28h2.24a3.49,3.49,0,0,1-.62,1.84,4,4,0,0,1-1.56,1.35,4.66,4.66,0,0,1-2.13.5,4.51,4.51,0,0,1-3.52-1.44,5.69,5.69,0,0,1-1.3-4v-.24a5.6,5.6,0,0,1,1.29-3.86,4.46,4.46,0,0,1,3.52-1.45,4.34,4.34,0,0,1,3.07,1.1,3.94,3.94,0,0,1,1.25,2.89H193.4a2.17,2.17,0,0,0-.62-1.49,2,2,0,0,0-1.48-.59,2.09,2.09,0,0,0-1.78.83,4.26,4.26,0,0,0-.63,2.53v.38a4.33,4.33,0,0,0,.62,2.56A2.09,2.09,0,0,0,191.3,137.5Z"/><path d="M205.74,130.52h-3.43v8.68h-2.37v-8.68h-3.39v-1.88h9.19Z"/><path d="M213.48,139.2a3.65,3.65,0,0,1-.27-1,4,4,0,0,1-5.37.27,2.91,2.91,0,0,1-1-2.25,3,3,0,0,1,1.25-2.59,6.08,6.08,0,0,1,3.59-.9h1.46v-.69a1.85,1.85,0,0,0-.46-1.31,1.82,1.82,0,0,0-1.4-.49,2.09,2.09,0,0,0-1.33.41,1.26,1.26,0,0,0-.52,1h-2.37a2.64,2.64,0,0,1,.58-1.63,3.83,3.83,0,0,1,1.57-1.19,5.51,5.51,0,0,1,2.21-.43,4.43,4.43,0,0,1,3,.93A3.33,3.33,0,0,1,215.5,132v4.77a5.41,5.41,0,0,0,.4,2.28v.17Zm-2.61-1.71a2.7,2.7,0,0,0,1.32-.34,2.28,2.28,0,0,0,.93-.92v-2h-1.28a3.5,3.5,0,0,0-2,.46,1.49,1.49,0,0,0-.66,1.3,1.39,1.39,0,0,0,.45,1.09A1.76,1.76,0,0,0,210.87,137.49Z"/><path d="M218.17,139.2V128.63h4.29a6,6,0,0,1,3.3.76,2.46,2.46,0,0,1,1.13,2.17,2.08,2.08,0,0,1-.45,1.31,2.84,2.84,0,0,1-1.34.89,3,3,0,0,1,1.64.87,2.2,2.2,0,0,1,.61,1.54,2.58,2.58,0,0,1-1.09,2.25,5.37,5.37,0,0,1-3.13.77Zm2.37-6.2h2q2,0,2-1.19t-1.91-1.29h-2.06Zm0,1.7v2.63h2.6q1.83,0,1.83-1.31t-1.86-1.32Z"/><path d="M233.14,135h-1.2v4.18h-2.37V128.63h2.37v4.22h1l2.92-4.22h2.93L235,133.69l4.14,5.51h-3.09Z"/><path d="M246.77,139.2a3.65,3.65,0,0,1-.27-1,4,4,0,0,1-5.37.27,2.91,2.91,0,0,1-1-2.25,3,3,0,0,1,1.25-2.59,6.08,6.08,0,0,1,3.59-.9h1.46v-.69a1.85,1.85,0,0,0-.46-1.31,1.82,1.82,0,0,0-1.4-.49,2.09,2.09,0,0,0-1.33.41,1.26,1.26,0,0,0-.52,1h-2.37a2.64,2.64,0,0,1,.58-1.63,3.83,3.83,0,0,1,1.57-1.19,5.51,5.51,0,0,1,2.21-.43,4.43,4.43,0,0,1,3,.93,3.33,3.33,0,0,1,1.13,2.62v4.77a5.41,5.41,0,0,0,.4,2.28v.17Zm-2.61-1.71a2.7,2.7,0,0,0,1.32-.34,2.28,2.28,0,0,0,.93-.92v-2h-1.28a3.5,3.5,0,0,0-2,.46,1.49,1.49,0,0,0-.66,1.3,1.39,1.39,0,0,0,.45,1.09A1.76,1.76,0,0,0,244.16,137.49Z"/><path d="M169.46,163.2h-2.37v-4.27H163v4.27h-2.37V152.63H163V157h4.11v-4.4h2.37Z"/><path d="M178.3,163.2a3.65,3.65,0,0,1-.27-1,4,4,0,0,1-5.37.27,2.91,2.91,0,0,1-1-2.25,3,3,0,0,1,1.25-2.59,6.08,6.08,0,0,1,3.59-.9H178v-.69a1.85,1.85,0,0,0-.46-1.31,1.82,1.82,0,0,0-1.4-.49,2.09,2.09,0,0,0-1.33.41,1.26,1.26,0,0,0-.52,1h-2.37a2.64,2.64,0,0,1,.58-1.63,3.83,3.83,0,0,1,1.57-1.19,5.51,5.51,0,0,1,2.21-.43,4.43,4.43,0,0,1,3,.93,3.33,3.33,0,0,1,1.13,2.62v4.77a5.41,5.41,0,0,0,.4,2.28v.17Zm-2.61-1.71a2.7,2.7,0,0,0,1.32-.34,2.28,2.28,0,0,0,.93-.92v-2h-1.28a3.5,3.5,0,0,0-2,.46A1.49,1.49,0,0,0,174,160a1.39,1.39,0,0,0,.45,1.09A1.76,1.76,0,0,0,175.7,161.49Z"/><path d="M196.74,163.2h-2.37v-4.27h-4.11v4.27h-2.37V152.63h2.37V157h4.11v-4.4h2.37Z"/><path d="M205.58,163.2a3.65,3.65,0,0,1-.27-1,4,4,0,0,1-5.37.27,2.91,2.91,0,0,1-1-2.25,3,3,0,0,1,1.25-2.59,6.08,6.08,0,0,1,3.59-.9h1.46v-.69a1.85,1.85,0,0,0-.46-1.31,1.82,1.82,0,0,0-1.4-.49,2.09,2.09,0,0,0-1.33.41,1.26,1.26,0,0,0-.52,1h-2.37a2.64,2.64,0,0,1,.58-1.63,3.83,3.83,0,0,1,1.57-1.19,5.51,5.51,0,0,1,2.21-.43,4.43,4.43,0,0,1,3,.93A3.33,3.33,0,0,1,207.6,156v4.77A5.41,5.41,0,0,0,208,163v.17ZM203,161.49a2.7,2.7,0,0,0,1.32-.34,2.28,2.28,0,0,0,.93-.92v-2h-1.28a3.5,3.5,0,0,0-2,.46,1.49,1.49,0,0,0-.66,1.3,1.39,1.39,0,0,0,.45,1.09A1.76,1.76,0,0,0,203,161.49Z"/><path d="M212.55,152.63v8.67h3.3v-8.67h2.37v8.67h3.31v-8.67h2.36V163.2H210.18V152.63Z"/><path d="M235.79,161.5a2.15,2.15,0,0,0,1.47-.52,1.77,1.77,0,0,0,.63-1.28h2.24a3.49,3.49,0,0,1-.62,1.84A4,4,0,0,1,238,162.9a4.66,4.66,0,0,1-2.13.5,4.51,4.51,0,0,1-3.52-1.44,5.69,5.69,0,0,1-1.3-4v-.24a5.6,5.6,0,0,1,1.29-3.86,4.46,4.46,0,0,1,3.52-1.45,4.34,4.34,0,0,1,3.07,1.1,3.94,3.94,0,0,1,1.25,2.89h-2.24a2.17,2.17,0,0,0-.62-1.49,2,2,0,0,0-1.48-.59,2.09,2.09,0,0,0-1.78.83,4.26,4.26,0,0,0-.63,2.53v.38a4.33,4.33,0,0,0,.62,2.56A2.09,2.09,0,0,0,235.79,161.5Z"/><path d="M245.68,159h-1.2v4.18H242.1V152.63h2.37v4.22h1l2.92-4.22h2.93l-3.82,5.06,4.14,5.51h-3.09Z"/><path d="M262,152.63V163.2H259.6v-8.65h-3l-.2,3.68a7.61,7.61,0,0,1-1,3.81,2.94,2.94,0,0,1-2.55,1.16h-.73v-2l.49,0a1.41,1.41,0,0,0,1.14-1,10.11,10.11,0,0,0,.45-3.07l.2-4.5Z"/><path d="M270.81,163.2a3.65,3.65,0,0,1-.27-1,4,4,0,0,1-5.37.27,2.91,2.91,0,0,1-1-2.25,3,3,0,0,1,1.25-2.59,6.08,6.08,0,0,1,3.59-.9h1.46v-.69a1.85,1.85,0,0,0-.46-1.31,1.82,1.82,0,0,0-1.4-.49,2.09,2.09,0,0,0-1.33.41,1.26,1.26,0,0,0-.52,1h-2.37a2.64,2.64,0,0,1,.58-1.63,3.83,3.83,0,0,1,1.57-1.19,5.51,5.51,0,0,1,2.21-.43,4.43,4.43,0,0,1,3,.93,3.33,3.33,0,0,1,1.13,2.62v4.77a5.41,5.41,0,0,0,.4,2.28v.17Zm-2.61-1.71a2.7,2.7,0,0,0,1.32-.34,2.28,2.28,0,0,0,.93-.92v-2h-1.28a3.5,3.5,0,0,0-2,.46,1.49,1.49,0,0,0-.66,1.3,1.39,1.39,0,0,0,.45,1.09A1.76,1.76,0,0,0,268.21,161.49Z"/><path d="M275.36,161.31a6.29,6.29,0,0,0,1.32-2.09,9.32,9.32,0,0,0,.41-2.53l.14-4h7.33v8.67H286v5h-2.36V163.2h-6.78v3.14h-2.4v-5Zm2.78,0h4.05v-6.63h-2.67l-.07,2A8.68,8.68,0,0,1,278.15,161.31Z"/><path d="M360.4,126.33a6.53,6.53,0,0,1,3.18.74,5.26,5.26,0,0,1,2.1,2.07,6,6,0,0,1,.75,3,6,6,0,0,1-.75,3,5.24,5.24,0,0,1-2.1,2.06,6.57,6.57,0,0,1-3.19.74v1.86H358v-1.86h-.22a6.26,6.26,0,0,1-3-.74,5.2,5.2,0,0,1-2.09-2,5.94,5.94,0,0,1-.74-3,6.07,6.07,0,0,1,.75-3,5.25,5.25,0,0,1,2.1-2.08,6.58,6.58,0,0,1,3.2-.74V124.4h2.37Zm-2.55,2a3.39,3.39,0,0,0-2.6,1,4,4,0,0,0-.94,2.84,3.93,3.93,0,0,0,.91,2.75,3.38,3.38,0,0,0,2.58,1H358v-7.62Zm2.55,0v7.62h.17a3.37,3.37,0,0,0,2.6-1,3.94,3.94,0,0,0,.93-2.78,4,4,0,0,0-.93-2.82,3.39,3.39,0,0,0-2.62-1Z"/><path d="M367.9,133.82a6.23,6.23,0,0,1,.62-2.8,4.5,4.5,0,0,1,1.73-1.91,4.87,4.87,0,0,1,2.56-.67,4.62,4.62,0,0,1,3.47,1.38,5.41,5.41,0,0,1,1.44,3.65V134a6.29,6.29,0,0,1-.6,2.79,4.44,4.44,0,0,1-1.72,1.9,4.91,4.91,0,0,1-2.58.67,4.58,4.58,0,0,1-3.58-1.49,5.7,5.7,0,0,1-1.34-4Zm2.37.21a4.26,4.26,0,0,0,.67,2.55,2.19,2.19,0,0,0,1.88.92,2.17,2.17,0,0,0,1.87-.94,4.7,4.7,0,0,0,.67-2.74,4.2,4.2,0,0,0-.69-2.54,2.32,2.32,0,0,0-3.72,0A4.61,4.61,0,0,0,370.27,134Z"/><path d="M389,134a6.29,6.29,0,0,1-1.11,3.91,3.87,3.87,0,0,1-5.77.32v5h-2.37V128.63h2.19l.1,1.07a3.48,3.48,0,0,1,2.84-1.27,3.6,3.6,0,0,1,3,1.44,6.46,6.46,0,0,1,1.1,4Zm-2.36-.21a4.41,4.41,0,0,0-.63-2.51,2,2,0,0,0-1.8-.93,2.18,2.18,0,0,0-2.09,1.2v4.69a2.2,2.2,0,0,0,2.11,1.23,2,2,0,0,0,1.77-.91A4.85,4.85,0,0,0,386.62,133.82Z"/><path d="M397.27,136.28l3.13-7.65h3V139.2H401v-7l-2.91,7h-1.61l-2.92-7v7h-2.37V128.63h3Z"/><path d="M412.62,128.63H415V139.2h-2.36v-7.05l-4.14,7.05h-2.36V128.63h2.36v7.05Z"/><path d="M426.76,134a6.29,6.29,0,0,1-1.11,3.91,3.87,3.87,0,0,1-5.77.32v5H417.5V128.63h2.19l.1,1.07a3.48,3.48,0,0,1,2.84-1.27,3.6,3.6,0,0,1,3,1.44,6.46,6.46,0,0,1,1.1,4Zm-2.36-.21a4.41,4.41,0,0,0-.63-2.51,2,2,0,0,0-1.8-.93,2.18,2.18,0,0,0-2.09,1.2v4.69A2.2,2.2,0,0,0,422,137.5a2,2,0,0,0,1.77-.91A4.85,4.85,0,0,0,424.4,133.82Z"/><path d="M428.32,133.82a6.23,6.23,0,0,1,.62-2.8,4.5,4.5,0,0,1,1.73-1.91,4.87,4.87,0,0,1,2.56-.67,4.62,4.62,0,0,1,3.47,1.38,5.41,5.41,0,0,1,1.44,3.65V134a6.29,6.29,0,0,1-.6,2.79,4.44,4.44,0,0,1-1.72,1.9,4.91,4.91,0,0,1-2.58.67,4.58,4.58,0,0,1-3.58-1.49,5.7,5.7,0,0,1-1.34-4Zm2.37.21a4.26,4.26,0,0,0,.67,2.55,2.19,2.19,0,0,0,1.88.92,2.17,2.17,0,0,0,1.87-.94,4.7,4.7,0,0,0,.67-2.74,4.2,4.2,0,0,0-.69-2.54,2.32,2.32,0,0,0-3.72,0A4.61,4.61,0,0,0,430.69,134Z"/><path d="M440.33,139.2V128.63h4.29a6,6,0,0,1,3.3.76,2.46,2.46,0,0,1,1.13,2.17,2.08,2.08,0,0,1-.45,1.31,2.84,2.84,0,0,1-1.34.89,3,3,0,0,1,1.64.87,2.2,2.2,0,0,1,.61,1.54,2.58,2.58,0,0,1-1.09,2.25,5.37,5.37,0,0,1-3.13.77Zm2.37-6.2h2q2,0,2-1.19t-1.91-1.29h-2.06Zm0,1.7v2.63h2.6q1.83,0,1.83-1.31t-1.86-1.32Z"/><path d="M457.86,139.2a3.65,3.65,0,0,1-.27-1,4,4,0,0,1-5.37.27,2.91,2.91,0,0,1-1-2.25,3,3,0,0,1,1.25-2.59,6.08,6.08,0,0,1,3.59-.9h1.46v-.69a1.85,1.85,0,0,0-.46-1.31,1.82,1.82,0,0,0-1.4-.49,2.09,2.09,0,0,0-1.33.41,1.26,1.26,0,0,0-.52,1h-2.37a2.64,2.64,0,0,1,.58-1.63,3.83,3.83,0,0,1,1.57-1.19,5.51,5.51,0,0,1,2.21-.43,4.43,4.43,0,0,1,3,.93,3.33,3.33,0,0,1,1.13,2.62v4.77a5.41,5.41,0,0,0,.4,2.28v.17Zm-2.61-1.71a2.7,2.7,0,0,0,1.32-.34,2.28,2.28,0,0,0,.93-.92v-2h-1.28a3.5,3.5,0,0,0-2,.46,1.49,1.49,0,0,0-.66,1.3,1.39,1.39,0,0,0,.45,1.09A1.76,1.76,0,0,0,455.25,137.49Z"/><path d="M471.32,139.2h-2.37v-4.27h-4.11v4.27h-2.37V128.63h2.37V133h4.11v-4.4h2.37Z"/><path d="M480.44,128.63h2.36V139.2h-2.36v-7.05l-4.14,7.05h-2.36V128.63h2.36v7.05Z"/><path d="M490,139.4a4.91,4.91,0,0,1-3.66-1.42,5.15,5.15,0,0,1-1.4-3.78v-.29a6.34,6.34,0,0,1,.61-2.83,4.65,4.65,0,0,1,1.71-1.94,4.53,4.53,0,0,1,2.46-.69,4.15,4.15,0,0,1,3.33,1.38,5.82,5.82,0,0,1,1.18,3.9v1h-6.9a3.17,3.17,0,0,0,.87,2.07,2.62,2.62,0,0,0,1.93.76,3.21,3.21,0,0,0,2.66-1.32l1.28,1.22a4.27,4.27,0,0,1-1.69,1.47A5.3,5.3,0,0,1,490,139.4Zm-.28-9.05a2,2,0,0,0-1.58.68,3.54,3.54,0,0,0-.77,1.9h4.52v-.18a2.88,2.88,0,0,0-.63-1.8A2,2,0,0,0,489.7,130.34Z"/><path d="M361.37,163.2H359v-4.27h-4.11v4.27h-2.37V152.63h2.37V157H359v-4.4h2.37Z"/><path d="M370.21,163.2a3.65,3.65,0,0,1-.27-1,4,4,0,0,1-5.37.27,2.91,2.91,0,0,1-1-2.25,3,3,0,0,1,1.25-2.59,6.08,6.08,0,0,1,3.59-.9h1.46v-.69a1.85,1.85,0,0,0-.46-1.31,1.82,1.82,0,0,0-1.4-.49,2.09,2.09,0,0,0-1.33.41,1.26,1.26,0,0,0-.52,1h-2.37a2.64,2.64,0,0,1,.58-1.63,3.83,3.83,0,0,1,1.57-1.19,5.51,5.51,0,0,1,2.21-.43,4.43,4.43,0,0,1,3,.93,3.33,3.33,0,0,1,1.13,2.62v4.77a5.41,5.41,0,0,0,.4,2.28v.17Zm-2.61-1.71a2.7,2.7,0,0,0,1.32-.34,2.28,2.28,0,0,0,.93-.92v-2h-1.28a3.5,3.5,0,0,0-2,.46,1.49,1.49,0,0,0-.66,1.3,1.39,1.39,0,0,0,.45,1.09A1.76,1.76,0,0,0,367.6,161.49Z"/><path d="M379.69,153.22a4.09,4.09,0,0,1,3.19,1.33,5.2,5.2,0,0,1,1.2,3.62v.12a5.25,5.25,0,0,1-1.3,3.7,5.06,5.06,0,0,1-7.06,0,5.58,5.58,0,0,1-1.34-3.95v-.68a10.37,10.37,0,0,1,1.21-5.41,5.29,5.29,0,0,1,3.61-2.49,4.82,4.82,0,0,0,1.74-.58,1,1,0,0,0,.4-.83h1.91a3.45,3.45,0,0,1-.32,1.6,2.49,2.49,0,0,1-1,1,8.39,8.39,0,0,1-2.29.73,4.29,4.29,0,0,0-2.26,1.11,4.2,4.2,0,0,0-1,2.22A4.49,4.49,0,0,1,379.69,153.22Zm-.47,1.9a2.24,2.24,0,0,0-1.81.78,3.65,3.65,0,0,0-.65,2.39,3.85,3.85,0,0,0,.64,2.37,2.4,2.4,0,0,0,3.67,0,4.23,4.23,0,0,0,.65-2.57,3.32,3.32,0,0,0-.65-2.16A2.25,2.25,0,0,0,379.22,155.12Z"/><path d="M385.49,157.82a6.23,6.23,0,0,1,.62-2.8,4.5,4.5,0,0,1,1.73-1.91,4.87,4.87,0,0,1,2.56-.67,4.62,4.62,0,0,1,3.47,1.38,5.41,5.41,0,0,1,1.44,3.65V158a6.29,6.29,0,0,1-.6,2.79,4.44,4.44,0,0,1-1.72,1.9,4.91,4.91,0,0,1-2.58.67,4.58,4.58,0,0,1-3.58-1.49,5.7,5.7,0,0,1-1.34-4Zm2.37.21a4.26,4.26,0,0,0,.67,2.55,2.19,2.19,0,0,0,1.88.92,2.17,2.17,0,0,0,1.87-.94,4.7,4.7,0,0,0,.67-2.74,4.2,4.2,0,0,0-.69-2.54,2.32,2.32,0,0,0-3.72,0A4.61,4.61,0,0,0,387.86,158Z"/><path d="M406.57,158a6.29,6.29,0,0,1-1.11,3.91,3.87,3.87,0,0,1-5.77.32v5h-2.37V152.63h2.19l.1,1.07a3.48,3.48,0,0,1,2.84-1.27,3.6,3.6,0,0,1,3,1.44,6.46,6.46,0,0,1,1.1,4Zm-2.36-.21a4.41,4.41,0,0,0-.63-2.51,2,2,0,0,0-1.8-.93,2.18,2.18,0,0,0-2.09,1.2v4.69a2.2,2.2,0,0,0,2.11,1.23,2,2,0,0,0,1.77-.91A4.85,4.85,0,0,0,404.21,157.82Z"/><path d="M408.14,157.82a6.23,6.23,0,0,1,.62-2.8,4.5,4.5,0,0,1,1.73-1.91,4.87,4.87,0,0,1,2.56-.67,4.62,4.62,0,0,1,3.47,1.38,5.41,5.41,0,0,1,1.44,3.65V158a6.29,6.29,0,0,1-.6,2.79,4.44,4.44,0,0,1-1.72,1.9,4.91,4.91,0,0,1-2.58.67,4.58,4.58,0,0,1-3.58-1.49,5.7,5.7,0,0,1-1.34-4Zm2.37.21a4.26,4.26,0,0,0,.67,2.55,2.19,2.19,0,0,0,1.88.92,2.17,2.17,0,0,0,1.87-.94,4.7,4.7,0,0,0,.67-2.74,4.2,4.2,0,0,0-.69-2.54,2.32,2.32,0,0,0-3.72,0A4.61,4.61,0,0,0,410.51,158Z"/><path d="M420.15,163.2V152.63h4.29a6,6,0,0,1,3.3.76,2.46,2.46,0,0,1,1.13,2.17,2.08,2.08,0,0,1-.45,1.31,2.84,2.84,0,0,1-1.34.89,3,3,0,0,1,1.64.87,2.2,2.2,0,0,1,.61,1.54,2.58,2.58,0,0,1-1.09,2.25,5.37,5.37,0,0,1-3.13.77Zm2.37-6.2h2q2,0,2-1.19t-1.91-1.29h-2.06Zm0,1.7v2.63h2.6q1.83,0,1.83-1.31t-1.86-1.32Z"/><path d="M575.3,139.2h-2.46V127h-6.26V139.2h-2.46V125H575.3Z"/><path d="M582.71,139.4A4.91,4.91,0,0,1,579,138a5.15,5.15,0,0,1-1.4-3.78v-.29a6.34,6.34,0,0,1,.61-2.83,4.65,4.65,0,0,1,1.71-1.94,4.53,4.53,0,0,1,2.46-.69,4.15,4.15,0,0,1,3.33,1.38,5.82,5.82,0,0,1,1.18,3.9v1H580a3.17,3.17,0,0,0,.87,2.07,2.62,2.62,0,0,0,1.93.76,3.21,3.21,0,0,0,2.66-1.32l1.28,1.22a4.27,4.27,0,0,1-1.69,1.47A5.3,5.3,0,0,1,582.71,139.4Zm-.28-9.05a2,2,0,0,0-1.58.68,3.54,3.54,0,0,0-.77,1.9h4.52v-.18A2.88,2.88,0,0,0,584,131,2,2,0,0,0,582.42,130.34Z"/><path d="M598,134a6.29,6.29,0,0,1-1.11,3.91,3.87,3.87,0,0,1-5.77.32v5h-2.37V128.63H591l.1,1.07a3.48,3.48,0,0,1,2.84-1.27,3.6,3.6,0,0,1,3,1.44,6.46,6.46,0,0,1,1.1,4Zm-2.36-.21a4.41,4.41,0,0,0-.63-2.51,2,2,0,0,0-1.8-.93,2.18,2.18,0,0,0-2.09,1.2v4.69a2.2,2.2,0,0,0,2.11,1.23,2,2,0,0,0,1.77-.91A4.85,4.85,0,0,0,595.68,133.82Z"/><path d="M604.7,139.4A4.91,4.91,0,0,1,601,138a5.15,5.15,0,0,1-1.4-3.78v-.29a6.34,6.34,0,0,1,.61-2.83,4.65,4.65,0,0,1,1.71-1.94,4.53,4.53,0,0,1,2.46-.69,4.15,4.15,0,0,1,3.33,1.38,5.82,5.82,0,0,1,1.18,3.9v1H602a3.17,3.17,0,0,0,.87,2.07,2.62,2.62,0,0,0,1.93.76,3.21,3.21,0,0,0,2.66-1.32l1.28,1.22a4.27,4.27,0,0,1-1.69,1.47A5.3,5.3,0,0,1,604.7,139.4Zm-.28-9.05a2,2,0,0,0-1.58.68,3.54,3.54,0,0,0-.77,1.9h4.52v-.18A2.88,2.88,0,0,0,606,131,2,2,0,0,0,604.42,130.34Z"/><path d="M610.82,137.31a6.29,6.29,0,0,0,1.32-2.09,9.32,9.32,0,0,0,.41-2.53l.14-4H620v8.67h1.46v5h-2.36V139.2h-6.78v3.14h-2.4v-5Zm2.78,0h4.05v-6.63H615l-.07,2A8.68,8.68,0,0,1,613.61,137.31Z"/><path d="M629.49,139.2a3.65,3.65,0,0,1-.27-1,4,4,0,0,1-5.37.27,2.91,2.91,0,0,1-1-2.25,3,3,0,0,1,1.25-2.59,6.08,6.08,0,0,1,3.59-.9h1.46v-.69a1.85,1.85,0,0,0-.46-1.31,1.82,1.82,0,0,0-1.4-.49,2.09,2.09,0,0,0-1.33.41,1.26,1.26,0,0,0-.52,1h-2.37a2.64,2.64,0,0,1,.58-1.63,3.83,3.83,0,0,1,1.57-1.19,5.51,5.51,0,0,1,2.21-.43,4.43,4.43,0,0,1,3,.93,3.33,3.33,0,0,1,1.13,2.62v4.77a5.41,5.41,0,0,0,.4,2.28v.17Zm-2.61-1.71a2.7,2.7,0,0,0,1.32-.34,2.28,2.28,0,0,0,.93-.92v-2h-1.28a3.5,3.5,0,0,0-2,.46,1.49,1.49,0,0,0-.66,1.3,1.39,1.39,0,0,0,.45,1.09A1.76,1.76,0,0,0,626.89,137.49Z"/><path d="M642.47,139.2H640.1v-3.53a8.45,8.45,0,0,1-1.93.21,4.76,4.76,0,0,1-3.31-1,3.83,3.83,0,0,1-1.14-3v-3.24h2.37v3.24a2.16,2.16,0,0,0,.51,1.63,2.23,2.23,0,0,0,1.57.48,8.63,8.63,0,0,0,1.93-.22v-5.12h2.37Z"/><path d="M651.31,139.2a3.65,3.65,0,0,1-.27-1,4,4,0,0,1-5.37.27,2.91,2.91,0,0,1-1-2.25,3,3,0,0,1,1.25-2.59,6.08,6.08,0,0,1,3.59-.9H651v-.69a1.85,1.85,0,0,0-.46-1.31,1.82,1.82,0,0,0-1.4-.49,2.09,2.09,0,0,0-1.33.41,1.26,1.26,0,0,0-.52,1h-2.37a2.64,2.64,0,0,1,.58-1.63,3.83,3.83,0,0,1,1.57-1.19,5.51,5.51,0,0,1,2.21-.43,4.43,4.43,0,0,1,3,.93,3.33,3.33,0,0,1,1.13,2.62v4.77a5.41,5.41,0,0,0,.4,2.28v.17Zm-2.61-1.71a2.7,2.7,0,0,0,1.32-.34,2.28,2.28,0,0,0,.93-.92v-2h-1.28a3.5,3.5,0,0,0-2,.46A1.49,1.49,0,0,0,647,136a1.39,1.39,0,0,0,.45,1.09A1.76,1.76,0,0,0,648.7,137.49Z"/><path d="M669.76,139.2h-2.37v-8.65h-4.12v8.65h-2.37V128.63h8.87Z"/><path d="M681.54,134a6.29,6.29,0,0,1-1.11,3.91,3.87,3.87,0,0,1-5.77.32v5h-2.37V128.63h2.19l.1,1.07a3.48,3.48,0,0,1,2.84-1.27,3.6,3.6,0,0,1,3,1.44,6.46,6.46,0,0,1,1.1,4Zm-2.36-.21a4.41,4.41,0,0,0-.63-2.51,2,2,0,0,0-1.8-.93,2.18,2.18,0,0,0-2.09,1.2v4.69a2.2,2.2,0,0,0,2.11,1.23,2,2,0,0,0,1.77-.91A4.85,4.85,0,0,0,679.17,133.82Z"/><path d="M683.1,133.82a6.23,6.23,0,0,1,.62-2.8,4.5,4.5,0,0,1,1.73-1.91,4.87,4.87,0,0,1,2.56-.67,4.62,4.62,0,0,1,3.47,1.38,5.41,5.41,0,0,1,1.44,3.65V134a6.29,6.29,0,0,1-.6,2.79,4.44,4.44,0,0,1-1.72,1.9,4.91,4.91,0,0,1-2.58.67,4.58,4.58,0,0,1-3.58-1.49,5.7,5.7,0,0,1-1.34-4Zm2.37.21a4.26,4.26,0,0,0,.67,2.55,2.19,2.19,0,0,0,1.88.92,2.17,2.17,0,0,0,1.87-.94,4.7,4.7,0,0,0,.67-2.74,4.2,4.2,0,0,0-.69-2.54,2.32,2.32,0,0,0-3.72,0A4.61,4.61,0,0,0,685.47,134Z"/><path d="M694.27,137.31a6.29,6.29,0,0,0,1.32-2.09,9.32,9.32,0,0,0,.41-2.53l.14-4h7.33v8.67h1.46v5h-2.36V139.2h-6.78v3.14h-2.4v-5Zm2.78,0h4.05v-6.63h-2.67l-.07,2A8.68,8.68,0,0,1,697.05,137.31Z"/><path d="M710.32,135.8l2.15-7.17H715l-4.2,12.17q-1,2.67-3.28,2.67a4.22,4.22,0,0,1-1.14-.18v-1.84l.45,0a2.31,2.31,0,0,0,1.35-.33,2.17,2.17,0,0,0,.72-1.1l.34-.91-3.71-10.51h2.56Z"/><path d="M720.12,135h-1.2v4.18h-2.37V128.63h2.37v4.22h1l2.92-4.22h2.93L722,133.69l4.14,5.51H723Z"/><path d="M735.75,130.52h-3.43v8.68H730v-8.68h-3.39v-1.88h9.19Z"/><path d="M736.59,133.82a6.23,6.23,0,0,1,.62-2.8,4.5,4.5,0,0,1,1.73-1.91,4.87,4.87,0,0,1,2.56-.67,4.62,4.62,0,0,1,3.47,1.38,5.41,5.41,0,0,1,1.44,3.65V134a6.29,6.29,0,0,1-.6,2.79,4.44,4.44,0,0,1-1.72,1.9,4.91,4.91,0,0,1-2.58.67,4.58,4.58,0,0,1-3.58-1.49,5.7,5.7,0,0,1-1.34-4ZM739,134a4.26,4.26,0,0,0,.67,2.55,2.19,2.19,0,0,0,1.88.92,2.17,2.17,0,0,0,1.87-.94,4.7,4.7,0,0,0,.67-2.74,4.2,4.2,0,0,0-.69-2.54,2.32,2.32,0,0,0-3.72,0A4.61,4.61,0,0,0,739,134Z"/><path d="M748.61,139.2V128.63h4.29a6,6,0,0,1,3.3.76,2.46,2.46,0,0,1,1.13,2.17,2.08,2.08,0,0,1-.45,1.31,2.84,2.84,0,0,1-1.34.89,3,3,0,0,1,1.64.87,2.2,2.2,0,0,1,.61,1.54,2.58,2.58,0,0,1-1.09,2.25,5.37,5.37,0,0,1-3.13.77ZM751,133h2q2,0,2-1.19T753,130.52H751Zm0,1.7v2.63h2.6q1.83,0,1.83-1.31t-1.86-1.32Z"/><path d="M572.78,163.2H570.4v-4.27h-4.11v4.27h-2.37V152.63h2.37V157h4.11v-4.4h2.37Z"/><path d="M579,159.8l2.15-7.17h2.53l-4.2,12.17q-1,2.67-3.28,2.67a4.22,4.22,0,0,1-1.14-.18v-1.84l.45,0a2.31,2.31,0,0,0,1.35-.33,2.17,2.17,0,0,0,.72-1.1l.34-.91-3.71-10.51h2.56Z"/><path d="M594.34,159h-1.26v4.25h-2.37V159h-1.25L587,163.2h-2.91l3.51-5.5-3.32-5.07h2.9l2.39,4.15h1.11v-4.15h2.37v4.15h1.12l2.4-4.15h2.9l-3.31,5,3.53,5.53h-2.95Z"/><path d="M601.23,161.31a6.29,6.29,0,0,0,1.32-2.09,9.32,9.32,0,0,0,.41-2.53l.14-4h7.33v8.67h1.46v5h-2.36V163.2h-6.78v3.14h-2.4v-5Zm2.78,0h4.05v-6.63H605.4l-.07,2A8.68,8.68,0,0,1,604,161.31Z"/><path d="M619.9,163.2a3.65,3.65,0,0,1-.27-1,4,4,0,0,1-5.37.27,2.91,2.91,0,0,1-1-2.25,3,3,0,0,1,1.25-2.59,6.08,6.08,0,0,1,3.59-.9h1.46v-.69a1.85,1.85,0,0,0-.46-1.31,1.82,1.82,0,0,0-1.4-.49,2.09,2.09,0,0,0-1.33.41,1.26,1.26,0,0,0-.52,1h-2.37a2.64,2.64,0,0,1,.58-1.63,3.83,3.83,0,0,1,1.57-1.19,5.51,5.51,0,0,1,2.21-.43,4.43,4.43,0,0,1,3,.93,3.33,3.33,0,0,1,1.13,2.62v4.77a5.41,5.41,0,0,0,.4,2.28v.17Zm-2.61-1.71a2.7,2.7,0,0,0,1.32-.34,2.28,2.28,0,0,0,.93-.92v-2h-1.28a3.5,3.5,0,0,0-2,.46,1.49,1.49,0,0,0-.66,1.3,1.39,1.39,0,0,0,.45,1.09A1.76,1.76,0,0,0,617.3,161.49Z"/><path d="M627,156.88h2a5.17,5.17,0,0,1,1.56-3.23,5.06,5.06,0,0,1,6.75.17,5.41,5.41,0,0,1,1.44,3.65V158a6.29,6.29,0,0,1-.6,2.79,4.44,4.44,0,0,1-1.72,1.9,4.91,4.91,0,0,1-2.58.67,4.64,4.64,0,0,1-3.36-1.27,5.18,5.18,0,0,1-1.52-3.34h-2v4.41h-2.37V152.63H627Zm4.31,1.14a4.26,4.26,0,0,0,.67,2.55,2.19,2.19,0,0,0,1.88.92,2.15,2.15,0,0,0,1.87-.94,4.73,4.73,0,0,0,.66-2.74,4.19,4.19,0,0,0-.69-2.55,2.32,2.32,0,0,0-3.71,0A4.61,4.61,0,0,0,631.29,158Z"/><path d="M643.09,152.63v8.67h3.3v-8.67h2.37v8.67h3.31v-8.67h2.36v8.67h1.81l-.2,5h-2.16V163.2H640.71V152.63Z"/><path d="M664.6,152.63H667V163.2H664.6v-7.05l-4.14,7.05H658.1V152.63h2.36v7.05Z"/><path d="M675.76,160.28l3.13-7.65h3V163.2h-2.37v-7l-2.91,7H675l-2.92-7v7h-2.37V152.63h3Z"/><path d="M688.86,161.5a2.15,2.15,0,0,0,1.47-.52,1.77,1.77,0,0,0,.63-1.28h2.24a3.49,3.49,0,0,1-.62,1.84A4,4,0,0,1,691,162.9a4.66,4.66,0,0,1-2.13.5,4.51,4.51,0,0,1-3.52-1.44,5.69,5.69,0,0,1-1.3-4v-.24a5.6,5.6,0,0,1,1.29-3.86,4.46,4.46,0,0,1,3.52-1.45,4.34,4.34,0,0,1,3.07,1.1,3.94,3.94,0,0,1,1.25,2.89H691a2.17,2.17,0,0,0-.62-1.49,2,2,0,0,0-1.48-.59,2.09,2.09,0,0,0-1.78.83,4.26,4.26,0,0,0-.63,2.53v.38a4.33,4.33,0,0,0,.62,2.56A2.09,2.09,0,0,0,688.86,161.5Z"/><path d="M703.45,152.63V163.2h-2.36v-3.88h-2.22l-2.26,3.88h-2.46l2.49-4.27a3.32,3.32,0,0,1-1.5-1.17,3.16,3.16,0,0,1,.62-4.17,4.75,4.75,0,0,1,3.07-1ZM697,156.07a1.34,1.34,0,0,0,.49,1.08,1.9,1.9,0,0,0,1.26.42h2.33v-3H698.9a2.07,2.07,0,0,0-1.39.44A1.4,1.4,0,0,0,697,156.07Z"/><path d="M720,152.63V163.2h-2.37v-8.65h-3l-.2,3.68a7.61,7.61,0,0,1-1,3.81,2.94,2.94,0,0,1-2.55,1.16h-.73v-2l.49,0a1.41,1.41,0,0,0,1.14-1,10.11,10.11,0,0,0,.45-3.07l.2-4.5Z"/><path d="M729.16,152.63h2.36V163.2h-2.36v-7.05L725,163.2h-2.36V152.63H725v7.05Z"/><path d="M742.52,163.2h-2.37v-3.53a8.45,8.45,0,0,1-1.93.21,4.76,4.76,0,0,1-3.31-1,3.83,3.83,0,0,1-1.14-3v-3.24h2.37v3.24a2.16,2.16,0,0,0,.51,1.63,2.23,2.23,0,0,0,1.57.48,8.63,8.63,0,0,0,1.93-.22v-5.12h2.37Z"/><path d="M754,163.2h-2.37v-4.27h-4.11v4.27h-2.37V152.63h2.37V157h4.11v-4.4H754Z"/><path d="M756.08,157.82a6.23,6.23,0,0,1,.62-2.8,4.5,4.5,0,0,1,1.73-1.91,4.87,4.87,0,0,1,2.56-.67,4.62,4.62,0,0,1,3.47,1.38,5.41,5.41,0,0,1,1.44,3.65V158a6.29,6.29,0,0,1-.6,2.79,4.44,4.44,0,0,1-1.72,1.9,4.91,4.91,0,0,1-2.58.67,4.58,4.58,0,0,1-3.58-1.49,5.7,5.7,0,0,1-1.34-4Zm2.37.21a4.26,4.26,0,0,0,.67,2.55,2.19,2.19,0,0,0,1.88.92,2.17,2.17,0,0,0,1.87-.94,4.7,4.7,0,0,0,.67-2.74,4.2,4.2,0,0,0-.69-2.54,2.32,2.32,0,0,0-3.72,0A4.61,4.61,0,0,0,758.45,158Z"/><path d="M564,187.2V176.63h4.29a6,6,0,0,1,3.3.76,2.46,2.46,0,0,1,1.13,2.17,2.08,2.08,0,0,1-.45,1.31,2.84,2.84,0,0,1-1.34.89,3,3,0,0,1,1.64.87,2.2,2.2,0,0,1,.61,1.54,2.58,2.58,0,0,1-1.09,2.25,5.37,5.37,0,0,1-3.13.77Zm2.37-6.2h2q2,0,2-1.19t-1.91-1.29h-2.06Zm0,1.7v2.63H569q1.83,0,1.83-1.31t-1.86-1.32Z"/><path d="M589.46,182a6.29,6.29,0,0,1-1.11,3.91,3.87,3.87,0,0,1-5.77.32v5H580.2V176.63h2.19l.1,1.07a3.48,3.48,0,0,1,2.84-1.27,3.6,3.6,0,0,1,3,1.44,6.46,6.46,0,0,1,1.1,4Zm-2.36-.21a4.41,4.41,0,0,0-.63-2.51,2,2,0,0,0-1.8-.93,2.18,2.18,0,0,0-2.09,1.2v4.69a2.2,2.2,0,0,0,2.11,1.23,2,2,0,0,0,1.77-.91A4.85,4.85,0,0,0,587.09,181.82Z"/><path d="M595.05,183.8l2.15-7.17h2.53l-4.2,12.17q-1,2.67-3.28,2.67a4.22,4.22,0,0,1-1.14-.18v-1.84l.45,0a2.31,2.31,0,0,0,1.35-.33,2.17,2.17,0,0,0,.72-1.1l.34-.91-3.71-10.51h2.56Z"/><path d="M604.85,183h-1.2v4.18h-2.37V176.63h2.37v4.22h1l2.92-4.22h2.93l-3.82,5.06,4.14,5.51h-3.09Z"/><path d="M618.76,176.63h2.36V187.2h-2.36v-7.05l-4.14,7.05h-2.36V176.63h2.36v7.05Z"/><path d="M638,187.2h-9.56v-1.63l4.74-5.17a11.83,11.83,0,0,0,1.46-1.91,3.09,3.09,0,0,0,.43-1.54,2.34,2.34,0,0,0-.57-1.64,2,2,0,0,0-1.54-.62,2.28,2.28,0,0,0-1.79.7,2.77,2.77,0,0,0-.63,1.92h-2.37a4.65,4.65,0,0,1,.59-2.34,4.06,4.06,0,0,1,1.69-1.62,5.38,5.38,0,0,1,2.53-.58,4.81,4.81,0,0,1,3.27,1,3.61,3.61,0,0,1,1.2,2.88,4.88,4.88,0,0,1-.6,2.23,12.68,12.68,0,0,1-2,2.65l-3.48,3.72H638Z"/><path d="M654.23,182a6.29,6.29,0,0,1-1.11,3.91,3.87,3.87,0,0,1-5.77.32v5H645V176.63h2.19l.1,1.07a3.48,3.48,0,0,1,2.84-1.27,3.6,3.6,0,0,1,3,1.44,6.46,6.46,0,0,1,1.1,4Zm-2.36-.21a4.41,4.41,0,0,0-.63-2.51,2,2,0,0,0-1.8-.93,2.18,2.18,0,0,0-2.09,1.2v4.69a2.2,2.2,0,0,0,2.11,1.23,2,2,0,0,0,1.77-.91A4.85,4.85,0,0,0,651.87,181.82Z"/><path d="M662.55,187.2a3.65,3.65,0,0,1-.27-1,4,4,0,0,1-5.37.27,2.91,2.91,0,0,1-1-2.25,3,3,0,0,1,1.25-2.59,6.08,6.08,0,0,1,3.59-.9h1.46v-.69a1.85,1.85,0,0,0-.46-1.31,1.82,1.82,0,0,0-1.4-.49,2.09,2.09,0,0,0-1.33.41,1.26,1.26,0,0,0-.52,1h-2.37a2.64,2.64,0,0,1,.58-1.63,3.83,3.83,0,0,1,1.57-1.19,5.51,5.51,0,0,1,2.21-.43,4.43,4.43,0,0,1,3,.93,3.33,3.33,0,0,1,1.13,2.62v4.77A5.41,5.41,0,0,0,665,187v.17Zm-2.61-1.71a2.7,2.7,0,0,0,1.32-.34,2.28,2.28,0,0,0,.93-.92v-2h-1.28a3.5,3.5,0,0,0-2,.46,1.49,1.49,0,0,0-.66,1.3,1.39,1.39,0,0,0,.45,1.09A1.76,1.76,0,0,0,659.94,185.49Z"/><path d="M675.06,179.52a2.17,2.17,0,0,1-.42,1.29,2.93,2.93,0,0,1-1.2.94,2.42,2.42,0,0,1,1.82,2.45,2.73,2.73,0,0,1-1.18,2.32,5.25,5.25,0,0,1-3.16.86,5.8,5.8,0,0,1-2.21-.41,3.55,3.55,0,0,1-1.55-1.15,2.88,2.88,0,0,1-.56-1.77H669a1.31,1.31,0,0,0,.58,1.08,2.35,2.35,0,0,0,1.46.43,2.17,2.17,0,0,0,1.38-.41,1.29,1.29,0,0,0,.51-1.06,1.31,1.31,0,0,0-.45-1.11,2.29,2.29,0,0,0-1.39-.34h-1.7v-1.71h1.76q1.59,0,1.59-1.31a1.21,1.21,0,0,0-.46-1,2,2,0,0,0-1.26-.36,2.2,2.2,0,0,0-1.32.39,1.16,1.16,0,0,0-.54,1h-2.36a2.76,2.76,0,0,1,1.17-2.29,4.77,4.77,0,0,1,3-.89,5.09,5.09,0,0,1,3.06.8A2.65,2.65,0,0,1,675.06,179.52Z"/><path d="M683.59,187.2a3.65,3.65,0,0,1-.27-1,4,4,0,0,1-5.37.27,2.91,2.91,0,0,1-1-2.25,3,3,0,0,1,1.25-2.59,6.08,6.08,0,0,1,3.59-.9h1.46v-.69a1.85,1.85,0,0,0-.46-1.31,1.82,1.82,0,0,0-1.4-.49,2.09,2.09,0,0,0-1.33.41,1.26,1.26,0,0,0-.52,1h-2.37a2.64,2.64,0,0,1,.58-1.63,3.83,3.83,0,0,1,1.57-1.19,5.51,5.51,0,0,1,2.21-.43,4.43,4.43,0,0,1,3,.93,3.33,3.33,0,0,1,1.13,2.62v4.77A5.41,5.41,0,0,0,686,187v.17ZM681,185.49a2.7,2.7,0,0,0,1.32-.34,2.28,2.28,0,0,0,.93-.92v-2H682a3.5,3.5,0,0,0-2,.46,1.49,1.49,0,0,0-.66,1.3,1.39,1.39,0,0,0,.45,1.09A1.76,1.76,0,0,0,681,185.49Z"/><path d="M693.25,187.2V176.63h4.29a6,6,0,0,1,3.3.76,2.46,2.46,0,0,1,1.13,2.17,2.08,2.08,0,0,1-.45,1.31,2.84,2.84,0,0,1-1.34.89,3,3,0,0,1,1.64.87,2.2,2.2,0,0,1,.61,1.54,2.58,2.58,0,0,1-1.09,2.25,5.37,5.37,0,0,1-3.13.77Zm2.37-6.2h2q2,0,2-1.19t-1.91-1.29h-2.06Zm0,1.7v2.63h2.6q1.83,0,1.83-1.31t-1.86-1.32Z"/><path d="M715.72,184.28l3.13-7.65h3V187.2h-2.37v-7l-2.91,7h-1.61l-2.92-7v7h-2.37V176.63h3Z"/><path d="M729.13,187.4a4.91,4.91,0,0,1-3.66-1.42,5.15,5.15,0,0,1-1.4-3.78v-.29a6.34,6.34,0,0,1,.61-2.83,4.65,4.65,0,0,1,1.71-1.94,4.53,4.53,0,0,1,2.46-.69,4.15,4.15,0,0,1,3.33,1.38,5.82,5.82,0,0,1,1.18,3.9v1h-6.9a3.17,3.17,0,0,0,.87,2.07,2.62,2.62,0,0,0,1.93.76,3.21,3.21,0,0,0,2.66-1.32l1.28,1.22a4.27,4.27,0,0,1-1.69,1.47A5.3,5.3,0,0,1,729.13,187.4Zm-.28-9.05a2,2,0,0,0-1.58.68,3.54,3.54,0,0,0-.77,1.9H731v-.18a2.88,2.88,0,0,0-.63-1.8A2,2,0,0,0,728.85,178.34Z"/><path d="M739.55,185.5A2.15,2.15,0,0,0,741,185a1.77,1.77,0,0,0,.63-1.28h2.24a3.49,3.49,0,0,1-.62,1.84,4,4,0,0,1-1.56,1.35,4.66,4.66,0,0,1-2.13.5,4.51,4.51,0,0,1-3.52-1.44,5.69,5.69,0,0,1-1.3-4v-.24a5.6,5.6,0,0,1,1.29-3.86,4.46,4.46,0,0,1,3.52-1.45,4.34,4.34,0,0,1,3.07,1.1,3.94,3.94,0,0,1,1.25,2.89h-2.24a2.17,2.17,0,0,0-.62-1.49,2,2,0,0,0-1.48-.59,2.09,2.09,0,0,0-1.78.83,4.26,4.26,0,0,0-.63,2.53v.38a4.33,4.33,0,0,0,.62,2.56A2.09,2.09,0,0,0,739.55,185.5Z"/><path d="M754.14,176.63V187.2h-2.36v-3.88h-2.22l-2.26,3.88h-2.46l2.49-4.27a3.32,3.32,0,0,1-1.5-1.17,3.16,3.16,0,0,1,.62-4.17,4.75,4.75,0,0,1,3.07-1Zm-6.46,3.44a1.34,1.34,0,0,0,.49,1.08,1.9,1.9,0,0,0,1.26.42h2.33v-3h-2.19a2.07,2.07,0,0,0-1.39.44A1.4,1.4,0,0,0,747.69,180.07Z"/><path d="M756.87,176.63h2.37v8.67h4.12v-8.67h2.37v8.67h1.44l-.2,5h-2.16V187.2h-7.95Z"/></g></g></svg>