<?xml version="1.0" encoding="utf-8"?>
<!-- Generator: Adobe Illustrator 21.0.2, SVG Export Plug-In . SVG Version: 6.00 Build 0)  -->
<svg version="1.1" id="Layer_1" xmlns="http://www.w3.org/2000/svg" xmlns:xlink="http://www.w3.org/1999/xlink" x="0px" y="0px"
	 viewBox="0 0 78 57" style="enable-background:new 0 0 78 57;" xml:space="preserve">
<style type="text/css">
	.st0{fill:#FFFFFF;}
</style>
<title>basket</title>
<g id="Layer_2">
	<g id="Layer_1-2">
		<path class="st0" d="M74.2,0.3c-5.3-0.4-10.7-0.4-16,0c-1.3,0.1-2.8,0.4-3.9,2.2S50,10.1,48.6,13C34,12.4,18.3,12.4,3.7,12.4
			c-3.1,0.1-4.5,3.9-3.3,7.1c3,7.5,6.4,14.8,10.3,21.9c0.8,1.4,2.3,2.3,3.9,2.4c8.4,0.1,16.4,0.1,24.5,0.1c2.4,0,4.5-1.3,5.6-3.4
			c5-9.4,11.6-23.1,16-32.8c4.5-0.2,8.9-0.1,13.4,0.2C79.3,8.1,79.3,0.6,74.2,0.3z M18.5,46.5h-0.2c-1.4,0-2.7,0.5-3.6,1.5l-0.1,0.1
			c-0.2,0.2-0.4,0.4-0.6,0.7c-0.2,0.2-0.3,0.5-0.4,0.8c-0.1,0.1-0.1,0.3-0.2,0.4c-0.2,0.6-0.2,1.2-0.2,1.7c0,0.1,0,0.1,0,0.2
			s0,0.3,0.1,0.4c0,0.2,0,0.4,0.1,0.6c0.2,0.8,0.7,1.5,1.3,2.1c1,1,2.3,1.5,3.7,1.4c0.8,0,1.7-0.2,2.4-0.6c2.4-1.2,3.4-4.1,2.3-6.6
			c0,0,0,0,0-0.1L22.9,49C21.9,47.5,20.3,46.6,18.5,46.5z M38.8,47L38.8,47c-0.9-0.3-1.8-0.3-2.7-0.1c-1,0.2-1.9,0.7-2.5,1.5
			c-0.3,0.2-0.5,0.5-0.7,0.8c-0.5,0.6-0.8,1.4-0.9,2.2c0,0.1,0,0.1-0.1,0.2c-0.5,2.5,1.1,4.8,3.5,5.3c0.2,0.1,0.5,0.1,0.8,0.1
			c1.7,0.3,3.5-0.2,4.8-1.4c0.6-0.6,1.1-1.4,1.3-2.3c0.2-0.5,0.3-0.9,0.3-1.5C42.5,49.5,40.9,47.6,38.8,47z"/>
	</g>
</g>
</svg>
