<svg xmlns="http://www.w3.org/2000/svg" viewBox="0 0 215 227.33"><defs><style>.cls-1{fill:#fffcc3;}.cls-2{fill:#f2b26d;}.cls-3{fill:#f4d069;}.cls-4{fill:#f29b96;}.cls-5{fill:#a1d7e1;}.cls-6{fill:#daacd0;}</style></defs><title>large families</title><g id="Layer_2" data-name="Layer 2"><g id="Layer_1-2" data-name="Layer 1"><path class="cls-1" d="M188.72,144.41c-5.63,7-15,10.65-24.23,10.37-13.63-.42-23.69-9.56-27-22.41a28.13,28.13,0,0,1-18.55,6.51c-4.89,0-10-.34-14.11-2.71-2.71,13.07-14.33,24.75-28.31,23.56C68,159,58.54,154.58,54.13,147c-1.84-3.18-4-8.87-3.51-13.39C19.89,143,.18,159.56,0,178.23c-.16,17,6.94,47.09,105,49,85.43,1.67,110-18,110-43.5C215,170.43,206.36,155.73,188.72,144.41Z"/><path class="cls-2" d="M120.73,37c3,1.09,5.66,2.18,8.38,3,7,2.11,14.2,2.31,21.44,2.14a89,89,0,0,0,20.09-3c1.73-.44,3.41-1.06,5.11-1.59a7.54,7.54,0,0,1,.77-.14,14.35,14.35,0,0,1-.1,1.51,15.3,15.3,0,0,0,1,8.49c2.19,4.51,5.86,6.72,10.78,7.11a24.31,24.31,0,0,0,14.69-3.78l1.18-.68c.27,1.24.57,2.34.74,3.45,1.39,9.22,1.35,18.35-1.72,27.3s-9.21,15.25-17.46,19.71c-2.2,1.19-3.84,1.36-6.16,0a31.19,31.19,0,0,0-17.12-4.6,27.85,27.85,0,0,0-3.27.45c-1.65.24-3.33.37-5,.77a19.37,19.37,0,0,0-9.42,5.65,1.31,1.31,0,0,1-1.81.39l0,0h-.1a4.69,4.69,0,0,1-3.4-3.36c-2.09-5.74-6.45-9.46-11.76-12.17-1.33-.68-2.79-1.1-4.12-1.76A3.5,3.5,0,0,1,122,84.5a41.58,41.58,0,0,1-5.35-24.93c.43-4.51.76-9,1.5-13.49A85.06,85.06,0,0,1,120.73,37Zm6.83,25.74a6.86,6.86,0,0,0,6.59,7.12h.41A6.73,6.73,0,0,0,141.17,63v0c.05-3.82-2.79-7.08-6.22-7.13a6.94,6.94,0,0,0-7.39,6.46q0,.18,0,.37Zm24.6.08c0,3.58,2.37,6.06,5.79,6.09,3.82,0,7.09-2.93,7.11-6.41,0-4.08-3.64-6.15-7.08-6.2s-5.84,2.81-5.83,6.47Zm-5.08,17.6a9.4,9.4,0,0,0,8.5-4.41,4.8,4.8,0,0,0,.71-2.29,1.65,1.65,0,0,0-.93-1.22c-.32-.12-.9.3-1.32.56-.19.12-.26.42-.38.63A7.37,7.37,0,0,1,142,74.91a6.17,6.17,0,0,0-1.23-1.17,1.42,1.42,0,0,0-1.24-.12,1.51,1.51,0,0,0-.47,1.27,5,5,0,0,0,.92,1.9,8.7,8.7,0,0,0,7.09,3.59ZM132.74,51.85c1.21-.19,2.38-.3,3.52-.57a1.88,1.88,0,0,0,1.56-1.81,1.83,1.83,0,0,0-1.25-1.93,9.49,9.49,0,0,0-2.46-.64,7,7,0,0,0-4.94.87,1.84,1.84,0,0,0-1,1.93,2,2,0,0,0,1.58,1.7A27.89,27.89,0,0,0,132.74,51.85Zm27.06-4.12-.05.26a14.22,14.22,0,0,0-1.92,0,6.8,6.8,0,0,0-1.84.52c-1.39.63-1.53,1.77-.25,2.59a9.29,9.29,0,0,0,7.4,1.11,1.93,1.93,0,0,0,1.58-1.8,1.78,1.78,0,0,0-1.33-1.87,35.21,35.21,0,0,0-3.58-.81Z"/><path class="cls-2" d="M134.65,38.35a43,43,0,0,1,7-7.79c2.41-2.28,4.84-4.53,7.27-6.79l-.24-.31a8.91,8.91,0,0,0-1,.48,55.74,55.74,0,0,0-13,11.43,12.71,12.71,0,0,0-.82,1.13c-1,1.46-1,1.54-2.6,1-2.78-.9-5.52-1.93-8.29-2.87-.8-.27-.81-.63-.45-1.34,4.66-9.12,12.28-14.43,22-17.09,7-1.92,14.12-1.84,21.27-1.36a39,39,0,0,1,22,8.41c.62.48,1.24,1,1.8,1.52s.78.5,1.26,0a4.68,4.68,0,0,1,1.34-.86,1.33,1.33,0,0,1,1,0,1.29,1.29,0,0,1,.19,1,10.86,10.86,0,0,1-.84,1.69,16.6,16.6,0,0,1,2.29,0,11.34,11.34,0,0,1,2.65.68,1.36,1.36,0,0,1,.56,1.13,1.28,1.28,0,0,1-.82.83,24.85,24.85,0,0,1-2.75.43c.24.36.39.62.57.86A52.08,52.08,0,0,1,203,46c.16.52.35,1-.31,1.37-3,1.77-6,3.46-9.45,3.84a25,25,0,0,1-6.81-.11A9.08,9.08,0,0,1,179,42.94c-.15-2.09,0-4.2,0-6.3V35.48A181.16,181.16,0,0,1,156,39a2.52,2.52,0,0,0,0-.67.8.8,0,0,0-.34-.45.48.48,0,0,0-.43.2c-.46,1.41-1.66,1.07-2.67,1.14h-1.68c.37-.92.69-1.59.9-2.29a2.55,2.55,0,0,0-.1-1c-.3.12-.75.14-.88.36-.4.66-.63,1.44-1,2.1a1.65,1.65,0,0,1-1.06.75c-1.39.08-2.78,0-4.17,0-.09,0-.18-.1-.38-.21.26-.39.5-.78.77-1.14l9-12.35c0-.06.11-.11.13-.17.08-.34.14-.68.21-1-.34.1-.79.11-1,.33a20.88,20.88,0,0,0-2.4,2.59c-2.71,3.72-5.35,7.49-8,11.24-.17.23-.46.56-.67.55C139.75,38.85,137.34,38.6,134.65,38.35Zm60,1.78c-.27-.15-.47-.35-.64-.33a2,2,0,0,0-.78.33,28.83,28.83,0,0,0-8,7.62,1.34,1.34,0,0,0-.3.56,3.28,3.28,0,0,0,.07.78,2.27,2.27,0,0,0,.76-.17,4.86,4.86,0,0,0,.67-.68L194,40.76c.19-.17.35-.35.61-.63ZM194.33,45c-.57-.06-1-.25-1.19-.11-1.49,1.36-3,2.75-4.36,4.2-.2.2,0,.75,0,1.14a3.12,3.12,0,0,0,1-.43c1.33-1.29,2.62-2.62,3.91-4A6.46,6.46,0,0,1,194.33,45ZM166,31.79l.24.26a10.24,10.24,0,0,0,1.17-.66c1.86-1.38,3.72-2.77,5.55-4.19.25-.19.33-.61.48-.92-.35,0-.81,0-1,.13-1.93,1.47-3.82,3-5.7,4.51A5.09,5.09,0,0,0,166,31.79Zm26.67,17.72.29.29a6.21,6.21,0,0,0,1-.61c.91-.79,1.8-1.61,2.65-2.47.2-.2.19-.61.27-.92a1.82,1.82,0,0,0-1,.17,28.87,28.87,0,0,0-2.41,2.25,7.64,7.64,0,0,0-.75,1.29Zm-5-11.11a2.87,2.87,0,0,0-1,.08,1.38,1.38,0,0,0-.55.63c-.05.11.15.34.23.52a3,3,0,0,0,.66-.38,6.09,6.09,0,0,0,.74-.85Z"/><path class="cls-2" d="M137.42,62.64c0,1.84-1,2.83-3,2.83a3,3,0,0,1-3.12-3.29,3.08,3.08,0,0,1,3.05-3.11h.21C136.32,59.08,137.41,60.45,137.42,62.64Zm-2.9-1.41c-.5-.51-.94-1.1-1.06-1a2.18,2.18,0,0,0-1,1c-.07.16.49.83.79.85s.69-.47,1.26-.85Z"/><path class="cls-2" d="M161.66,62.29a2.78,2.78,0,1,1-5.54,0,2.84,2.84,0,0,1,2.59-3.07H159C160.54,59.2,161.65,60.48,161.66,62.29Zm-3.23-2.57c-.48.72-.95,1.13-1,1.58,0,.29.56.64.87,1,.36-.37.87-.69,1-1.14.11-.29-.4-.74-.87-1.43Z"/><path class="cls-2" d="M129.66,49.3c2-1.28,5.55-1.27,6.59,0C135.14,50.55,130.51,50.53,129.66,49.3Z"/><path class="cls-2" d="M156.68,49.92a6.32,6.32,0,0,1,4.14-.6,9.09,9.09,0,0,1,2.05.5,1,1,0,0,1,.49.71c0,.16-.34.4-.56.54a1.16,1.16,0,0,1-.61.17A11.78,11.78,0,0,1,156.68,49.92Z"/><path class="cls-3" d="M107.33,28.15c-2.43-.8-3.67-2.81-5.47-4.64a28.23,28.23,0,0,1,0,3.57,7.35,7.35,0,0,1-.88,2.5,1.86,1.86,0,0,1-1.28.71,23.27,23.27,0,0,1-2.77,0c.43,1,1.84,1.5,3.48,1.32a2.2,2.2,0,0,0,2-1.86,25.92,25.92,0,0,0,.35-3c.42.39.72.72,1.08,1A16.5,16.5,0,0,0,106,29.2c1.51.79,2.08.63,3.32-.64a21.38,21.38,0,0,1-.64,3.91c-1.14,3.21-.32,2.78-3.89,2.9-4.06.14-7.86-.69-10.65-4a15.25,15.25,0,0,1-3.69-9.29,14,14,0,0,0-.2-1.53c-.48.57-.76.87-1,1.19-3.42,4.85-6.9,9.64-11.58,13.42-6.23,5-13,8.91-20.91,10.64a32.18,32.18,0,0,1-13.61-.14,1.75,1.75,0,0,0-.73-.12,1.6,1.6,0,0,0-.9.52c-.09.14.2.72.43.82A25.44,25.44,0,0,0,45,48c.57.15.77.37.67,1a74.87,74.87,0,0,0-.81,15.91c.38,10.42,1,20.83,1.54,31.24a12.67,12.67,0,0,0,.6,2.13,2.46,2.46,0,0,1,0,1,6.36,6.36,0,0,1-3.62,4.39,2.43,2.43,0,0,1-1.34.16,53.78,53.78,0,0,1-13.75-3.55A36.46,36.46,0,0,1,11.81,88,35.57,35.57,0,0,1,5.65,74.9a29,29,0,0,1-.31-7.35A117.27,117.27,0,0,1,8.19,44c1.15-4.86,2.22-9.78,4.73-14.18,2.32-4,4.47-8.28,7.92-11.52a64,64,0,0,1,13.89-10,5.53,5.53,0,0,1,.55-.2,5.64,5.64,0,0,1-.32.49c-2.72,3.12-5.45,6.23-8.13,9.38-.28.33-.23.94-.33,1.41.52,0,1.16.27,1.56.06,2.55-1.37,5-2.83,7.54-4.28,1.47-.86,2.91-1.76,4.44-2.54-1,1.35-2,2.64-2.87,4.05-1,1.74-1.92,3.59-2.85,5.39a1.82,1.82,0,0,0-.28.8c0,.64-.1,1.6.24,1.83a2.19,2.19,0,0,0,1.93-.06c1.84-1.09,3.59-2.33,5.37-3.53l6.1-4.18a3.84,3.84,0,0,1,.5-.26l-4.87,5.09a20.76,20.76,0,0,0-2.08,2.3,5,5,0,0,0-.43,1.74,4.82,4.82,0,0,0,1.78.25,19.15,19.15,0,0,0,3.08-1.21c2.88-1.32,5.75-2.67,8.75-3.86l-.58.64q-2.62,2.9-5.22,5.81a2.59,2.59,0,0,0-.65,1A2.24,2.24,0,0,0,48,30c.18.28,1,.35,1.41.24a9.15,9.15,0,0,0,2-.93c3.34-1.85,6.67-3.72,10-5.58a2.81,2.81,0,0,1,1.42-.39c-.17.33-.32.66-.5,1C61.15,26.4,60,28.5,59.73,30.94a2.08,2.08,0,0,0,.62,1.71,1.91,1.91,0,0,0,1.8-.32c1.33-1.47,2.5-3.09,3.72-4.67a3,3,0,0,1,.69-.79V28c0,1.35,0,2.72.1,4.06a1.55,1.55,0,0,0,.87,1.14,1.64,1.64,0,0,0,1.32-.6,20.32,20.32,0,0,0,1.4-2.4c.23-.39.47-.78.89-1.47.58,2,.31,4.11,2.34,4.9l.36-.16-1.06-2.84a27.17,27.17,0,0,1-1-2.8c-.24-.94-.73-.82-1.2-.36a13.42,13.42,0,0,0-1.44,1.84,4.85,4.85,0,0,1-1,1.23v-2c0-1.25.05-2.5,0-3.74,0-.36-.34-1-.59-1a1.44,1.44,0,0,0-1.15.51c-1.07,1.51-2,3.11-3.09,4.63-.54.77-1.2,1.45-1.81,2.17L61.18,31a20.65,20.65,0,0,1,.74-2.49c.67-1.54,1.46-3,2.16-4.54.32-.68,1-1.41.36-2.16s-1.58-.22-2.26.13c-3.36,1.73-6.7,3.52-10,5.3-.72.38-1.42.8-2.4,1.36a8.74,8.74,0,0,1,.47-.82,52.42,52.42,0,0,1,7.92-8.26,3.77,3.77,0,0,0,.65-1.19c-.48,0-1-.24-1.43-.07C53,20,48.73,22,44.46,23.86a5,5,0,0,1-1.81.53c.23-.28.44-.57.68-.83,2.1-2.24,4.24-4.45,6.3-6.72a5.66,5.66,0,0,0,.72-1.62,4.83,4.83,0,0,0-1.69.27c-3.35,2-6.66,4-10,6.07-1.08.66-2.12,1.38-3.18,2.07l-.31-.26a37.68,37.68,0,0,1,2-4.27c1.47-2.31,3.13-4.5,4.72-6.74a6.08,6.08,0,0,0,.61-.74,14.94,14.94,0,0,0,.55-1.48,4.69,4.69,0,0,0-1.44.25c-3.81,2-7.59,4.13-11.38,6.2l-.9.45a9,9,0,0,1,.59-.89c2.24-2.49,4.42-5.05,6.76-7.44a8,8,0,0,1,5-2.79c.16,0,.44-.18.43-.24-.13-1.07.8-1,1.37-1.27A54.78,54.78,0,0,1,59.06.65c3-.31,6-.51,9-.62A57.82,57.82,0,0,1,86.5,2.76a38.06,38.06,0,0,1,14.57,7.47,19.57,19.57,0,0,1,6.7,10.36c.43,1.8,0,3.8-.07,5.71A12.84,12.84,0,0,1,107.33,28.15Z"/><path class="cls-3" d="M88.78,26.06a17.63,17.63,0,0,0,3.06,6.41,13.42,13.42,0,0,0,10.48,5.2,40.32,40.32,0,0,0,4.6-.19c.59,0,.92.07,1.12.66,1.73,5.25,3.62,10.47,4.22,16A44.68,44.68,0,0,1,107.4,80.5q-1.36,2.55-2.9,5a3.88,3.88,0,0,1-1.41,1.21c-3.78,2.06-7.69,4-9.89,7.94-1.62,2.86-4.29,3.91-7,5-1.38.58-2.8,1.07-4.22,1.53a14.79,14.79,0,0,1-2.8.64c-.26,0-.68-.42-.86-.74a22.34,22.34,0,0,0-6.57-7.66,7.47,7.47,0,0,0-5-1.53,4.71,4.71,0,0,0-4.49,3.92,53,53,0,0,0-.53,5.61,7.05,7.05,0,0,1,0,.92,19.56,19.56,0,0,1-3.07-.57c-2.75-1-5.46-2.07-8.19-3.12l-2-.76a.49.49,0,0,1-.06-.23c-.43-12.42-.91-24.84-1.25-37.26-.1-3.67.22-7.35.3-11,0-.88.37-1.07,1.16-1.06h6.32A25.48,25.48,0,0,0,64.19,46c1.28-.52,2.54-1.13,3.86-1.72.59,1.33,1.84,1.46,3,1.48a11.43,11.43,0,0,0,8.46-3.5,4,4,0,0,0,.78-1.14,1.86,1.86,0,0,0-1.54-2.89,3.88,3.88,0,0,1-.88-.08c2-1.94,4.14-3.69,5.95-5.69S87.12,28.24,88.78,26.06ZM76,65.83a18,18,0,0,0,3.24-.94c4.93-2.48,5.25-7.66,3.43-11.15a6.81,6.81,0,0,0-10.32-2.32c-3,2.16-3.58,5.21-3.07,8.57C69.79,63.58,72.28,65.6,76,65.83Zm32.8-11.54a22.33,22.33,0,0,0-.9-3.29,5.09,5.09,0,0,0-7.81-1.94,7.74,7.74,0,0,0-1.29,10.4,4.84,4.84,0,0,0,6.75,1.14l.35-.27a7.82,7.82,0,0,0,2.87-6ZM91.4,75c.81-.16,2.33-.36,3.8-.76a10,10,0,0,0,5.48-3.35,7.52,7.52,0,0,0,1.25-3.07c.16-.82-.43-1.05-1.14-.56a3.17,3.17,0,0,0-.56.49c-3.66,4.07-8.23,5.13-13.42,4-1.2-.27-2.34-.85-3.52-1.22a3.26,3.26,0,0,0-1.08,0,2.85,2.85,0,0,0,.12,1.15,4.43,4.43,0,0,0,1.1,1.14C85.54,74.55,88.07,74.9,91.4,75Zm7.3-32.39.06.17c1.68-.44,3.37-.83,5-1.33.81-.24,1.53-.76,1.44-1.75a1.66,1.66,0,0,0-1.73-1.48,22.12,22.12,0,0,0-4.86.19A5.36,5.36,0,0,0,96.06,40c-1,1-.54,2.15.84,2.44a18.12,18.12,0,0,0,1.8.21Z"/><path class="cls-3" d="M69.57,43.64c3-1.54,5.27-4.08,8.85-3.55C78.23,42.28,72.24,44.85,69.57,43.64Z"/><path class="cls-3" d="M75.86,61.19a2.85,2.85,0,0,1-3.16-2.87,3,3,0,0,1,2.73-3.25h.35a3.17,3.17,0,0,1,3.32,3q0,.08,0,.16a3,3,0,0,1-3,3Zm-.8-2.42c.51-.76,1-1.19,1-1.66,0-.28-.64-.84-1-.88A1,1,0,0,0,74,57.36C74,57.77,74.52,58.1,75.06,58.77Z"/><path class="cls-3" d="M104.44,55.47A2.55,2.55,0,0,1,102,58.11a2.6,2.6,0,0,1-2.43-2.74,2.53,2.53,0,0,1,2.48-2.56,2.49,2.49,0,0,1,2.39,2.58Zm-1.63-.77c-.67-.44-1.13-.91-1.32-.82a2,2,0,0,0-.92,1c-.07.18.54.85.67.81a8,8,0,0,0,1.56-1Z"/><path class="cls-3" d="M103.08,40.23l-5.27.92c.72-1.38,3-1.77,5.22-1.21Z"/><path class="cls-4" d="M157.88,100.09c-1.51,2.88-1.88,5.45-.09,8a1.72,1.72,0,0,0,2.17.76c-1.66-2.43-2.26-5-.69-7.6.66-1.1,1.09-1.27,2.74-1.48a7.19,7.19,0,0,0-1.45,4.86,6.36,6.36,0,0,0,2.56,5.08,2.86,2.86,0,0,0,3.53.25,2.24,2.24,0,0,0-.5-.33c-3.79-1.13-4.78-5.4-3.49-8.52.75-1.81.95-1.9,3.19-1.6a6.72,6.72,0,0,0-1.21,5,6.16,6.16,0,0,0,2.66,4.79c2.34,1.56,5.67.48,6.34-2a3.24,3.24,0,0,0-1.37-3.55c-1.15-.79-3.32-1-4.14-.18a2.66,2.66,0,0,0-.77,1.94c.07.57.76,1.11,1.29,1.53.19.15.7-.1,1.06-.17l-.28-.83-.34-.94a3.54,3.54,0,0,1,1.07-.22c1.18.13,1.83.82,1.76,1.76a1.91,1.91,0,0,1-2,1.59,2.69,2.69,0,0,1-2.63-1.3,6.33,6.33,0,0,1-.61-6,1.73,1.73,0,0,1,2.08-1.28h.06a24.5,24.5,0,0,1,15.18,9c4.29,5.35,6.73,11.42,6.38,18.4-.45,9.13-4.71,16-12.53,20.65a25.51,25.51,0,0,1-19.9,3c-6.67-1.67-11.75-5.65-15.64-11.25-7.21-10.38-5-23.39,2.28-32.09,2.6-3.13,5.6-5.73,9.67-6.73C155.37,100.33,156.51,100.28,157.88,100.09Zm-9,19.56H149v1.07a6.45,6.45,0,0,0,8.62,5.67,7.64,7.64,0,0,0,4.08-9.29c-1.37-3.69-5.12-5.1-8.89-4a4.71,4.71,0,0,0-3.4,3.53c-.24,1-.34,2-.51,3Zm17.21,2c0,5,2.86,7.47,7.43,6.88a7.1,7.1,0,0,0,5.56-5,7.31,7.31,0,0,0-6.38-9c-1.61-.17-3.19,0-4.3,1.33-1.4,1.77-2.47,3.74-2.29,5.81Zm-4.36,14.7a8.15,8.15,0,0,0,2.1-.63,1.86,1.86,0,0,0,.83-1.42c-.09-.79-.88-.63-1.49-.54a5.61,5.61,0,0,1-3.83-.54,1.67,1.67,0,0,0-1.49-.07c-.59.53-.15,1.19.28,1.69a5,5,0,0,0,3.62,1.52Z"/><path class="cls-4" d="M158.28,119.67a2.79,2.79,0,0,1-2.64,2.94h-.1a3.13,3.13,0,0,1-3-2.94,3,3,0,0,1,3-2.89,2.73,2.73,0,0,1,2.74,2.72Q158.29,119.58,158.28,119.67Zm-2.49-1c-.62-.51-1.09-1.11-1.27-1a2.65,2.65,0,0,0-1.14,1.13c-.06.11.6.89.89.87a5.89,5.89,0,0,0,1.52-1Z"/><path class="cls-4" d="M175.4,121.71a3.18,3.18,0,1,1-3.17-3.22A3.22,3.22,0,0,1,175.4,121.71Zm-2.82-1.27c-.62-.44-1-.92-1.34-.88s-.64.58-1,.91c.33.31.63.84,1,.87s.76-.46,1.33-.9Z"/><path class="cls-5" d="M76.32,104.81c-1.39-1-2.71-2-4.07-2.87a5.21,5.21,0,0,0-1.93-.86,1.61,1.61,0,0,0-2,2.23,12.76,12.76,0,0,0,1.89,2.39,5,5,0,0,0,.77.56,3.58,3.58,0,0,0-.82.09c-.2,0-.49.13-.74.2.2.25.34.63.6.74a11.82,11.82,0,0,0,1.81.43l-1.52.84.08.14c1.83-.18,3.65-.45,5.48-.54a27,27,0,0,1,13.35,2.36A17.11,17.11,0,0,1,92.4,113c6.42,5.34,9.62,12.16,9,20.53-.44,5.77-2.17,11.14-6.18,15.53a26.6,26.6,0,0,1-15.49,8.24,21,21,0,0,1-17.18-4.07,23.72,23.72,0,0,1-9.2-16,25.78,25.78,0,0,1,7.13-22,1,1,0,0,1,.78-.31c3.22,1,6.3.17,9.33-.77,1.76-.55,3.42-1.4,5.19-2.14,2.16,4.2,6.11,5.28,10.37,5.59a10.27,10.27,0,0,0,6.69-1.42c-2.29.06-4.37.26-6.44.15-3.94-.22-7.52-1.34-9.91-4.83-.52-.75-1.26-.57-1.93-.32-1.44.54-2.83,1.2-4.27,1.7A19.1,19.1,0,0,1,63.15,114a9.88,9.88,0,0,1-1.06-.12c-.09,0-.16-.11-.29-.21,1.26-1.91,3.17-3,5-4.19-.61-1.22-1.26-2.32-1.72-3.5A12.77,12.77,0,0,1,65,97c1.14-3.36,4-4.15,6.76-2a19.93,19.93,0,0,1,5.43,7.47,1.22,1.22,0,0,1-.07.88A15.3,15.3,0,0,1,76.32,104.81Zm-2.88,25c.08-3.9-1.76-6-5.62-6.57a5.68,5.68,0,0,0-6.5,3.67,14.8,14.8,0,0,0-.88,3.51,6.08,6.08,0,0,0,7.94,6.78c3.12-1,5-3.69,5.06-7.41Zm16.11,2.43c-.09-2.23-.81-4.31-3.13-5.28a5.57,5.57,0,0,0-6.37,1,8.54,8.54,0,0,0-2.38,6.13,5.79,5.79,0,0,0,3.9,5.26,5.06,5.06,0,0,0,6-1.5,8.8,8.8,0,0,0,2-5.67ZM73.22,147c1.22-.47,2.4-.86,3.5-1.41.26-.13.27-.77.4-1.18-.4-.09-.85-.33-1.21-.24a22.19,22.19,0,0,0-3,1.09c-.36.16-.62.56-.93.85Z"/><path class="cls-5" d="M83.26,105.46c-.66-2-.65-2,1.07-2.87a16,16,0,0,1,9.19-1.88,5.39,5.39,0,0,1,2.46.9,2.63,2.63,0,0,1,.44,3.69l-.13.16a57.82,57.82,0,0,1-4.5,4.68,1,1,0,0,1-.84.08c-1.71-.7-3.4-1.44-5.14-2.18L88,107.3l-.67-.84a1.4,1.4,0,0,1,.22-.2,29.86,29.86,0,0,0,2.75-1.65c.29-.2.4-.68.59-1-.37-.12-.8-.43-1.11-.34-1.81.5-3.6,1.09-5.38,1.68A8.48,8.48,0,0,0,83.26,105.46Z"/><path class="cls-5" d="M69.41,102.33c1.63-.07,6.24,3,6.92,4.62-.87.31-1.59.61-2.43-.3a17.84,17.84,0,0,0-2.55-1.73,9.92,9.92,0,0,1-1.61-1.54A3.06,3.06,0,0,1,69.41,102.33Z"/><path class="cls-5" d="M79.51,107.19c-.57-.21-1.78.5-1.77-1s.76-2.55,2-2.49a2.11,2.11,0,0,1,2,2.2s0,.09,0,.14C81.58,107,81.12,107.27,79.51,107.19Z"/><path class="cls-5" d="M86.53,105.27c-2.19,1.68-2.19,1.68-2.07,2.55l-1.71-.23A7.08,7.08,0,0,1,86.53,105.27Z"/><path class="cls-5" d="M63.8,129.92a2.69,2.69,0,0,1,2.59-2.79h0a2.6,2.6,0,0,1,2.4,2.54,2.53,2.53,0,1,1-5,.25Zm3-1a6.57,6.57,0,0,0-1.15-.68c-.07,0-.48.48-.43.62a3.67,3.67,0,0,0,.69.89Z"/><path class="cls-5" d="M85.65,133.46a3.09,3.09,0,0,1-3.08,3A2.45,2.45,0,0,1,80.2,134a3.14,3.14,0,0,1,3.11-3.15,2.42,2.42,0,0,1,2.35,2.49S85.66,133.42,85.65,133.46Zm-1.59-1.17c-.55-.34-.87-.7-1.18-.69s-.72.55-.66.72a1.27,1.27,0,0,0,.8.75c.22,0,.53-.38,1-.78Z"/><path class="cls-6" d="M106,88.39a10.83,10.83,0,0,1,1.84-.63,1.17,1.17,0,0,1,.89.49c1,1.38,1.84,2.8,2.77,4.2a4.54,4.54,0,0,0,.71.93c.5.44,1.13.19,1.12-.47a3.13,3.13,0,0,0-.43-1.51c-.85-1.39-1.77-2.74-2.78-4.27,1.24-.13,2.35-.3,3.48-.34a1.32,1.32,0,0,1,.86.65c1,1.71,1.87,3.45,2.78,5.18.27.52.41,1.3,1.22,1A1.19,1.19,0,0,0,119,92l0,0c-.59-1.45-1.32-2.84-2-4.25-.12-.25-.25-.49-.56-1.1a35.08,35.08,0,0,1,5,.76A24.12,24.12,0,0,1,136.81,101a26.38,26.38,0,0,1,2.25,8.23,3.86,3.86,0,0,1-.27,2,33.28,33.28,0,0,0-3,14.55,3.29,3.29,0,0,1-.61,1.75c-6.28,9.11-17.85,11.27-27.09,7.29-1.08-.46-2.1-1.07-3.16-1.57a1.66,1.66,0,0,1-1-1.68,24.66,24.66,0,0,0-3.79-13.2,24.26,24.26,0,0,0-6.86-6.83l-.77-.55c1.27-1,2.52-1.83,3.69-2.8a27,27,0,0,0,3.15-2.89c2.13-2.42,1.15-5.42-2-6.15-1-.23-2-.31-3.06-.47a21.64,21.64,0,0,1,5.69-6.9c.54,1.12,1,2.15,1.52,3.15s.92,1.77,1.44,2.62c.13.22.49.31.74.45a2.59,2.59,0,0,0,.25-.83,11.76,11.76,0,0,0-2.07-5.66c-.42-.65-.34-1,.33-1.32s1.31-.72,2.1-1.16c.34.59.68,1.12,1,1.68.8,1.63,1.54,3.3,2.37,4.91.19.36.68.57,1,.85.2-.45.64-1,.54-1.35a20.36,20.36,0,0,0-1.32-3.37C107.29,90.62,106.62,89.57,106,88.39Zm28.15,21.51a29.92,29.92,0,0,0-.9-3.7c-1.71-4.53-7.51-4.43-9.87-1.93a6.62,6.62,0,0,0-1.47,7,6.85,6.85,0,0,0,5.26,4.83,6.69,6.69,0,0,0,3.25-.19c2.39-.82,3.58-3,3.68-6Zm-18.21.42a7,7,0,0,0-6.59-7.38h-.14c-3.16,0-5.82,3-5.82,6.69a6.62,6.62,0,0,0,6.52,6.72h.18a5.7,5.7,0,0,0,5.81-5.59q0-.22,0-.44Zm3,15.5a8.23,8.23,0,0,0,1.86-.21,5.39,5.39,0,0,0,1.89-1.07.75.75,0,0,0-.51-1.32c-1.63.12-3.26.33-4.87.6-.29,0-.72.54-.7.79a1.32,1.32,0,0,0,.71.91,7.14,7.14,0,0,0,1.53.29Z"/><path class="cls-6" d="M129.32,112.79a3.06,3.06,0,0,1-3.19-2.93v-.07c0-1.85,1.16-2.82,3.16-2.75a3,3,0,0,1,3,3,2.8,2.8,0,0,1-2.84,2.75Zm.78-5.32c-.34.61-.72,1-.66,1.25s.54.53.83.79c.24-.29.68-.58.68-.87S130.54,108,130.1,107.47Z"/><path class="cls-6" d="M107.74,109.71a2.8,2.8,0,0,1,2.59-3h.33a3.2,3.2,0,0,1,3,3.38v.1a2.9,2.9,0,0,1-2.8,3h-.15a3.19,3.19,0,0,1-3-3.39Zm4.08.7c.42-.59.87-1,.8-1.17a1.92,1.92,0,0,0-.93-.91c-.15-.07-.81.46-.77.56A8.34,8.34,0,0,0,111.82,110.41Z"/><path d="M24.09,170.94l3.29,9.28,3.27-9.28h3.46v12.8H31.46v-3.5l.26-6-3.45,9.54H26.46L23,174.21l.26,6v3.5H20.65v-12.8Z"/><path d="M44.49,183.73H41.94v-3.65H38.79v3.65H36.25v-9.51h2.54V178H42v-3.81H44.5Z"/><path d="M46.06,178.89a5.64,5.64,0,0,1,.54-2.52,4,4,0,0,1,1.57-1.71,4.58,4.58,0,0,1,2.38-.61,4.33,4.33,0,0,1,3.14,1.18,4.73,4.73,0,0,1,1.36,3.2v.65a5,5,0,0,1-1.22,3.51,4.74,4.74,0,0,1-6.56,0A5,5,0,0,1,46.06,179Zm2.54.18a3.55,3.55,0,0,0,.51,2.07,1.83,1.83,0,0,0,2.9,0,3.89,3.89,0,0,0,.52-2.27,3.52,3.52,0,0,0-.52-2.06,1.68,1.68,0,0,0-1.46-.73,1.66,1.66,0,0,0-1.44.73,4,4,0,0,0-.51,2.26Z"/><path d="M63.11,176.27H59.18v7.46H56.64v-9.51h6.48Z"/><path d="M63.61,178.89a5.64,5.64,0,0,1,.54-2.52,4,4,0,0,1,1.57-1.71A4.58,4.58,0,0,1,68.1,174a4.33,4.33,0,0,1,3.14,1.18,4.73,4.73,0,0,1,1.36,3.2V179a5,5,0,0,1-1.22,3.51,4.74,4.74,0,0,1-6.56,0A5.05,5.05,0,0,1,63.61,179Zm2.54.18a3.55,3.55,0,0,0,.51,2.07,1.83,1.83,0,0,0,2.9,0,3.89,3.89,0,0,0,.52-2.27,3.52,3.52,0,0,0-.52-2.06,1.68,1.68,0,0,0-1.46-.73,1.66,1.66,0,0,0-1.44.73,4,4,0,0,0-.51,2.26Z"/><path d="M73.68,181.69a5.13,5.13,0,0,0,1.17-1.81,8.76,8.76,0,0,0,.34-2.54l.07-3.11h7v7.46h1.37v4.9H81.09v-2.86H75.45v2.86H72.86v-4.9Zm3,0h3v-5.36h-2v1.14A8.54,8.54,0,0,1,76.68,181.69Z"/><path d="M89.29,183.91a4.67,4.67,0,0,1-3.41-1.28,4.56,4.56,0,0,1-1.31-3.42V179a5.74,5.74,0,0,1,.55-2.56,4.06,4.06,0,0,1,1.57-1.74A4.4,4.4,0,0,1,89,174a3.94,3.94,0,0,1,3.07,1.23,5,5,0,0,1,1.12,3.49v1H87.14a2.36,2.36,0,0,0,.74,1.49,2.24,2.24,0,0,0,1.57.56,2.74,2.74,0,0,0,2.29-1.06L93,182.2a3.8,3.8,0,0,1-1.55,1.26A5.08,5.08,0,0,1,89.29,183.91ZM89,176.1a1.59,1.59,0,0,0-1.23.51,2.65,2.65,0,0,0-.6,1.47H90.7v-.2a1.89,1.89,0,0,0-.46-1.31A1.64,1.64,0,0,0,89,176.1Z"/><path d="M102.44,176.27h-3v7.46h-2.6v-7.46h-3v-2h8.6Z"/><path d="M112,183.73h-2.55v-3.65h-3.16v3.65h-2.54v-9.51h2.54V178h3.16v-3.81H112Z"/><path d="M116.64,177h1.82a5.29,5.29,0,0,1,2.16.41A3.19,3.19,0,0,1,122,178.6a3.24,3.24,0,0,1,.5,1.79,3,3,0,0,1-1.11,2.42,4.62,4.62,0,0,1-3,.92h-4.32v-9.51h2.55Zm0,2v2.63h1.8a1.73,1.73,0,0,0,1.16-.35,1.19,1.19,0,0,0,.4-.95,1.25,1.25,0,0,0-.4-1,1.68,1.68,0,0,0-1.17-.36Zm9.95,4.68H124v-9.51h2.54Z"/><path d="M133.2,183.91a4.67,4.67,0,0,1-3.41-1.28,4.56,4.56,0,0,1-1.31-3.42V179a5.74,5.74,0,0,1,.55-2.56,4.06,4.06,0,0,1,1.57-1.74,4.4,4.4,0,0,1,2.32-.61,3.94,3.94,0,0,1,3.07,1.23,5,5,0,0,1,1.12,3.49v1h-6.06a2.36,2.36,0,0,0,.74,1.49,2.24,2.24,0,0,0,1.57.56,2.74,2.74,0,0,0,2.29-1.06l1.25,1.4a3.8,3.8,0,0,1-1.55,1.26A5.08,5.08,0,0,1,133.2,183.91Zm-.29-7.81a1.59,1.59,0,0,0-1.23.51,2.65,2.65,0,0,0-.6,1.47h3.53v-.2a1.89,1.89,0,0,0-.46-1.31A1.64,1.64,0,0,0,132.91,176.1Z"/><path d="M147,181.86a1.67,1.67,0,0,0,1.14-.39,1.35,1.35,0,0,0,.46-1H151a3.26,3.26,0,0,1-.53,1.77,3.49,3.49,0,0,1-1.42,1.25,4.45,4.45,0,0,1-2,.44,4.13,4.13,0,0,1-3.22-1.3,5.13,5.13,0,0,1-1.18-3.58v-.17a5.07,5.07,0,0,1,1.17-3.51A4.08,4.08,0,0,1,147,174a4,4,0,0,1,2.86,1,3.58,3.58,0,0,1,1.09,2.7h-2.38a1.73,1.73,0,0,0-.46-1.2,1.7,1.7,0,0,0-2.4.07l-.1.11a3.75,3.75,0,0,0-.45,2.1V179a3.8,3.8,0,0,0,.45,2.11A1.55,1.55,0,0,0,147,181.86Z"/><path d="M156.8,183.91a4.67,4.67,0,0,1-3.41-1.28,4.56,4.56,0,0,1-1.31-3.42V179a5.74,5.74,0,0,1,.55-2.56,4.06,4.06,0,0,1,1.57-1.74,4.4,4.4,0,0,1,2.32-.61,3.94,3.94,0,0,1,3.07,1.23,5,5,0,0,1,1.12,3.49v1h-6.06a2.36,2.36,0,0,0,.74,1.49,2.24,2.24,0,0,0,1.57.56,2.74,2.74,0,0,0,2.29-1.06l1.25,1.4a3.8,3.8,0,0,1-1.55,1.26A5.08,5.08,0,0,1,156.8,183.91Zm-.29-7.81a1.59,1.59,0,0,0-1.23.51,2.65,2.65,0,0,0-.6,1.47h3.53v-.2a1.89,1.89,0,0,0-.46-1.31,1.64,1.64,0,0,0-1.24-.47Z"/><path d="M167.94,180.74l2.49-6.51h3.18v9.51h-2.54V177.9l-2.28,5.84h-1.71L164.86,178v5.74h-2.54v-9.51h3.16Z"/><path d="M178.53,177h1.82a5.29,5.29,0,0,1,2.16.41,3.19,3.19,0,0,1,1.43,1.18,3.24,3.24,0,0,1,.5,1.79,3,3,0,0,1-1.11,2.42,4.62,4.62,0,0,1-3,.92H176v-9.51h2.55Zm0,2v2.63h1.8a1.73,1.73,0,0,0,1.16-.35,1.19,1.19,0,0,0,.4-.95,1.25,1.25,0,0,0-.4-1,1.68,1.68,0,0,0-1.17-.36Z"/><path d="M191.59,174.22h2.54v9.51h-2.54v-5.87l-3.18,5.87h-2.55v-9.51h2.55v5.86Z"/></g></g></svg>