<svg xmlns="http://www.w3.org/2000/svg" viewBox="0 0 207.65 214.11"><defs><style>.cls-1{fill:#ffeaea;}.cls-2{fill:#fe8e8e;}.cls-3{fill:#ffb95a;}</style></defs><title>single mothers</title><g id="Layer_2" data-name="Layer 2"><g id="Layer_1-2" data-name="Layer 1"><path class="cls-1" d="M207.52,162.3c-1.11-14-12.72-24.1-30-30.88a49.68,49.68,0,0,1-25.37,11.67c-15.55,2.07-34.47-6.36-39-22.44-6-.14-12.09-.12-18.15.09C40.75,122.61.5,139.29,0,168s38.5,46.46,109,46.15C173.61,213.84,210,193.8,207.52,162.3Z"/><path class="cls-2" d="M23.38,76c-.84-15.54,5-29.25,12-42.55C44.21,16.88,58.25,7.22,76,1.49,89.34-2.83,109.69,3.36,115.62,6c21,9.55,32.21,26.47,37.78,48a74.82,74.82,0,0,1,1.44,8.34c.26,1.83.45,3.6.58,5.17a15.2,15.2,0,0,1-9.19-2.16c-2.06-1.52-4-2.77-5.2-5.65-3.4,4.26-5,8.25-4.69,14-2-7.78-3.21-14.38-6.68-20.3-1.68-2.86-3.35-3.85-6.52-3.53a26.66,26.66,0,0,1-20-5.89c-5.2-4.19-7.23-9.72-6.85-16.55-10.91,16.07-28,31.35-46.5,28.35a6.81,6.81,0,0,0,3.78,4C48.14,74,49,84.13,50,96.58c.1,1.28,1.2,2.86-.08,3.71-1.54,1-2.75-.47-3.8-1.52-1.3-1.3-2-2.5-4.27-.48C40,100,34.5,96,33.15,92.67,31.07,87.14,30.74,81.39,31.37,74c-2,5.78-1.71,13.53-.8,17.71C27.44,89.57,23.72,82.18,23.38,76ZM94,18.5C90.4,27.74,83.54,34.25,75.12,40.72,84,38,94.05,25.92,94,18.49Zm3.22-6.08c1.61,6.87,5.16,9.36,11.13,8.23a19.35,19.35,0,0,1-11.12-8.24ZM79.34,23.87c3.56-.44,9.91-5.49,11.16-10.62C87.34,16.73,80.86,22.31,79.34,23.87Z"/><path class="cls-2" d="M132.41,70.68c-1.06-5.39-2.1-10.77-5-15.59-1.32-2.19-2.55-3.18-5.53-2.77-11,1.51-23.52-6.6-27-17.23-.56.13-.77.11-.85.2-.63.76-1.23,1.56-1.86,2.32C81.87,51,68.17,58.39,56,60A82.5,82.5,0,0,0,52.3,93.74a16.57,16.57,0,0,0,7.7,12.7q21.75,14.58,47.17,8.25c3.88-1,5.59-2.68,5.51-7.21-.21-13.91,4.44-25.51,17.44-32.41C132.05,74,132.82,72.77,132.41,70.68ZM76.52,74.92c-4.87.06-8.53-3.2-8.62-7.69-.1-5,3.73-9.31,8.34-9.4a9.33,9.33,0,0,1,9.21,9.11C85.38,71.57,81.7,74.86,76.52,74.92Zm24,14.55c-4.06,5-13.28,1.66-16.31-2.81-.81-1.2,1-2.39,1.93-1.49,3.43,3.18,8.49,5,12.74,2.16C100.28,86.4,101.43,88.37,100.52,89.47Zm5.69-14.9c-4.3.05-8.4-3.74-8.25-7.64.18-4.7,4.8-9.07,9.57-9a7.75,7.75,0,0,1,7.79,7.45,9,9,0,0,1-8.81,9.19Z"/><path class="cls-2" d="M106.2,61.15a1.27,1.27,0,0,0-.7.43,2.76,2.76,0,0,0-.66.27,4.67,4.67,0,0,0-2.1,3,4.31,4.31,0,0,0,3.5,5.45,4.86,4.86,0,0,0,5.15-4.55q0-.12,0-.25a4.18,4.18,0,0,0-5.2-4.35Zm1.74,2.74a3.39,3.39,0,0,1-.15,1.45,1.67,1.67,0,0,1-.19.27,3.72,3.72,0,0,1-1.88.79l-.18.07a2.25,2.25,0,0,1,0-1.16c.25-.86,1-1.24,1.62-1.68a1.21,1.21,0,0,1,.78.27Z"/><path class="cls-2" d="M78.07,62.38a2.93,2.93,0,0,0-1.71,0,3.35,3.35,0,0,0-2.5.6,4.3,4.3,0,0,0-1.69,3.15,4.17,4.17,0,0,0,4.35,4.56c2.65-.17,4.13-3.13,3.74-5.54A3.33,3.33,0,0,0,78.07,62.38ZM74.7,66.13a2,2,0,0,1,.85-1.25,2.05,2.05,0,0,1,.54-.24h.09a1.45,1.45,0,0,1,.86,0c-.17,1.08-1.47,2-2.26,2.5l-.06.05a2.17,2.17,0,0,1,0-1.06Z"/><path class="cls-3" d="M134.52,88.84a9,9,0,0,0,1.73-.1,7.85,7.85,0,0,0,1.41-.36,2.19,2.19,0,0,0,.55-.23c.53-.15.51-.52,0-1.11a10.54,10.54,0,0,0-2.15.34c-.54.15-2.13.48-2.39,1S134.16,88.82,134.52,88.84Z"/><path class="cls-3" d="M160.52,89.87a.81.81,0,0,1-.5,0,8.78,8.78,0,0,0-3.12-.33,8.53,8.53,0,0,0-1.32.28c.19,0,.4.19.6.26a9.86,9.86,0,0,0,3.07.52c.24,0,1.29.06,1.47-.2S160.71,90,160.52,89.87Z"/><path class="cls-3" d="M164.84,76.87c-.53.87-1.11,2.31-2,2.77-.68-7.28-3.14-8.51-10.16-9.23-4.06-.42-9.06-2.22-11.56-5.41l-.09.19a.62.62,0,0,1,.35.94c-1.57,2.34-1.65,6.1-1.49,8.82.13,2.17.64,4.5,2.76,5.66,1.63.89,3.74.75,5.54.84.81,0,1.09,1.37.2,1.5-2.75.39-5.5.17-7.47-1.25-2.88-.47-4-1.72-6.55-5.69-12.13,5.92-19.19,15.52-19.4,29.06-.21,12.7,5.18,23,16.57,29.28,13.84,7.65,34.11,3.06,42.14-9.19C182.52,111.65,182.86,89,164.84,76.87Zm-14.75-5,.38.13c.89.3.52,1.7-.39,1.42l-.38-.12c-.92-.3-.51-1.73.39-1.44Zm-1.76,6.59a5.13,5.13,0,0,1-6.44-4.9.64.64,0,0,1,1.25-.17,4.68,4.68,0,0,0,5,3.68.71.71,0,0,1,.19,1.38Zm-1.75-4.3a.62.62,0,0,1,.85-.85A9.84,9.84,0,0,0,149,74a11.62,11.62,0,0,0,1.74.2.69.69,0,0,1,.34,1.27,3.56,3.56,0,0,1-4.54-1.33Zm-14.94,13a8.68,8.68,0,0,1,5.9-2,2.44,2.44,0,0,1,3.42,3c-.9,2.34-4.52,2.93-6.68,2.85a3.41,3.41,0,0,1-3.08-1.29,2.08,2.08,0,0,1,.43-2.54Zm3.16,23.17c-3.62-.34-5-2.89-5.08-6.24-.11-3.93,2.87-7.82,6.06-8,2.94-.15,5.62,2.84,5.68,6.33.06,4.15-3.28,8.25-6.67,7.93Zm15.26,11.36c-2.87,1.86-11.07,1.37-11.58-3a.73.73,0,0,1,1.09-.63c1.39.84,2.38,1.78,4,2.11a12.81,12.81,0,0,0,5.66-.32,1,1,0,1,1,.77,1.86Zm4.94-10.4c-3.78-.34-5.37-2.93-5.37-6.52,0-4.18,2.8-7.1,6.65-7.09s5.3,2.13,5.3,5.67c0,4.22-3.13,8.22-6.59,8Zm7.43-19.66c-1.39,1.86-4.74,1.42-6.66.89s-4.36-2.42-2.14-4.23a6,6,0,0,1,5.42-.66.87.87,0,0,1,.32-.05c2,.08,4.71,1.85,3.05,4.07Z"/><path class="cls-3" d="M137.83,99.82a.79.79,0,0,0-1.51,0,2.34,2.34,0,0,1-.5,1.19c-.46.44-.79,0-1.3,0a1.49,1.49,0,0,0-1.53.91,2.46,2.46,0,0,0,1.74,3.32C137.34,105.83,139.63,101.57,137.83,99.82Z"/><path class="cls-3" d="M156.58,100.57c-.39-.29-.86.13-.84.54a.85.85,0,0,0-.21.77c.14.75-.56,1.22-1.2,1.25s-1.15,0-1.59.47c-1,1.11.26,2.61,1.43,2.82a4.65,4.65,0,0,0,2.55-1,3.15,3.15,0,0,0,.85-1.85A2.7,2.7,0,0,0,156.58,100.57Z"/><path d="M33.19,157.51l3.29,9.28,3.27-9.28h3.46v12.8H40.52v-3.5l.26-6-3.46,9.54h-1.8l-3.45-9.53.26,6v3.5H29.69v-12.8Z"/><path d="M50.86,170.3a2.82,2.82,0,0,1-.25-.85,3.08,3.08,0,0,1-2.4,1,3.38,3.38,0,0,1-2.32-.81,2.6,2.6,0,0,1-.92-2,2.69,2.69,0,0,1,1.12-2.32,5.53,5.53,0,0,1,3.24-.82h1.19V164a1.56,1.56,0,0,0-.34-1.05,1.33,1.33,0,0,0-1.07-.4,1.52,1.52,0,0,0-1,.31,1,1,0,0,0-.36.84H45.21a2.55,2.55,0,0,1,.51-1.53,3.37,3.37,0,0,1,1.44-1.1,5.25,5.25,0,0,1,2.09-.4,4.16,4.16,0,0,1,2.79.88A3.1,3.1,0,0,1,53,164v4.12a4.55,4.55,0,0,0,.38,2v.15Zm-2.1-1.77a2.18,2.18,0,0,0,1-.25,1.64,1.64,0,0,0,.7-.67V166h-.94q-1.91,0-2,1.32v.15a1,1,0,0,0,.33.78,1.3,1.3,0,0,0,.91.34Z"/><path d="M62.75,162.84h-3v7.46H57.15v-7.46h-3v-2h8.6Z"/><path d="M67.84,170.48a4.66,4.66,0,0,1-3.4-1.28,4.56,4.56,0,0,1-1.31-3.42v-.21a5.74,5.74,0,0,1,.55-2.56,4.06,4.06,0,0,1,1.57-1.74,4.4,4.4,0,0,1,2.27-.7,4,4,0,0,1,3.07,1.23,5,5,0,0,1,1.12,3.49v1H65.65a2.36,2.36,0,0,0,.74,1.49,2.24,2.24,0,0,0,1.57.56,2.74,2.74,0,0,0,2.29-1.06l1.25,1.4A3.8,3.8,0,0,1,70,169.94,5.08,5.08,0,0,1,67.84,170.48Zm-.32-7.81a1.59,1.59,0,0,0-1.23.51,2.65,2.65,0,0,0-.6,1.47h3.53v-.2a1.89,1.89,0,0,0-.46-1.31A1.64,1.64,0,0,0,67.52,162.67Z"/><path d="M81.76,165.64a5.71,5.71,0,0,1-1,3.52,3.2,3.2,0,0,1-2.69,1.32,3,3,0,0,1-2.33-1V174H73.2V160.79h2.32l.09.93A3,3,0,0,1,78,160.61a3.22,3.22,0,0,1,2.73,1.3,5.86,5.86,0,0,1,1,3.59Zm-2.54-.19a3.76,3.76,0,0,0-.47-2.05,1.53,1.53,0,0,0-1.37-.72,1.66,1.66,0,0,0-1.64.92v3.91a1.69,1.69,0,0,0,1.66.94q1.82,0,1.81-3Z"/><path d="M89.06,160.79H91.6v9.51H89.06v-5.87l-3.18,5.87H83.33v-9.51h2.55v5.86Z"/><path d="M98.52,165.85h-5v-2h5Z"/><path d="M100.12,165.46a5.64,5.64,0,0,1,.54-2.52,4,4,0,0,1,1.57-1.71,4.57,4.57,0,0,1,2.38-.61,4.33,4.33,0,0,1,3.14,1.18,4.73,4.73,0,0,1,1.36,3.2v.65a5,5,0,0,1-1.22,3.51,4.74,4.74,0,0,1-6.56,0,5.05,5.05,0,0,1-1.21-3.59Zm2.54.18a3.55,3.55,0,0,0,.51,2.07,1.83,1.83,0,0,0,2.9,0,3.89,3.89,0,0,0,.52-2.27,3.52,3.52,0,0,0-.52-2.06,1.68,1.68,0,0,0-1.46-.73,1.66,1.66,0,0,0-1.44.73,4,4,0,0,0-.51,2.26Z"/><path d="M110.2,168.26a5.12,5.12,0,0,0,1.17-1.81,8.75,8.75,0,0,0,.34-2.54l.07-3.11h7v7.46h1.37v4.9h-2.54V170.3H112v2.86h-2.59v-4.9Zm3,0h3V162.9h-2V164a8.54,8.54,0,0,1-1.06,4.22Z"/><path d="M127,160.79h2.52v9.51H127v-5.87l-3.18,5.87h-2.55v-9.51h2.55v5.86Z"/><path d="M139.73,170.3h-2.55v-3.65H134v3.65h-2.5v-9.51h2.54v3.78h3.16v-3.81h2.55Z"/><path d="M141.3,165.46a5.64,5.64,0,0,1,.54-2.52,4,4,0,0,1,1.57-1.71,4.58,4.58,0,0,1,2.38-.61,4.33,4.33,0,0,1,3.14,1.18,4.72,4.72,0,0,1,1.36,3.2v.65a5,5,0,0,1-1.22,3.51,4.74,4.74,0,0,1-6.56,0,5,5,0,0,1-1.23-3.59Zm2.54.18a3.55,3.55,0,0,0,.51,2.07,1.83,1.83,0,0,0,2.9,0,3.89,3.89,0,0,0,.52-2.27,3.52,3.52,0,0,0-.52-2.06,1.68,1.68,0,0,0-1.46-.73,1.66,1.66,0,0,0-1.44.73,4,4,0,0,0-.51,2.26Z"/><path d="M159.89,170.3h-2.54v-3a7.3,7.3,0,0,1-1.33.13,5,5,0,0,1-3.24-.91,3.34,3.34,0,0,1-1.11-2.67v-3.07h2.54v3.07a1.55,1.55,0,0,0,.4,1.18,2.13,2.13,0,0,0,1.41.36,6.3,6.3,0,0,0,1.33-.15v-4.46h2.54Z"/><path d="M165.52,166.8h-1v3.51H162V160.8h2.54v3.58h.9l2.07-3.58h3.21l-3.11,4.53,3.4,5h-3.38Z"/><path d="M177.71,160.79h2.54v9.51h-2.54v-5.87l-3.19,5.87H172v-9.51h2.55v5.86Z"/></g></g></svg>