<svg xmlns="http://www.w3.org/2000/svg" viewBox="0 0 99.25 98.07"><defs><style>.cls-1{fill:#35dcf3;}</style></defs><title>logistic-storage</title><g id="Layer_2" data-name="Layer 2"><g id="Layer_1-2" data-name="Layer 1"><path class="cls-1" d="M24.06,40.53v.22c0,1.25-.06,2.49-.12,3.74A1.53,1.53,0,0,1,22.43,46l-3.2-.32a4.26,4.26,0,0,1-2.45-.59c-.69-.59-.6-1.39-.54-2.2s.09-1.48.15-2.21c-1,.06-2,.1-3,.07,0,4.51-.12,9-.2,13.54,4.29-.23,8.6-.34,12.91-.37a112.11,112.11,0,0,0-.4-13.09A12.51,12.51,0,0,0,24.06,40.53Z"/><path class="cls-1" d="M48.88,73.06q.05-2.6.13-5.21c-10.07-.3-21,.3-31-1.37.22,2.36.35,4.72.43,7.09a1.18,1.18,0,0,1,.61-.26A137.73,137.73,0,0,1,48.88,73.06Z"/><path class="cls-1" d="M67.15,27a94.39,94.39,0,0,1-9.93.23c.11,2.21.21,4.42.34,6.62a1.53,1.53,0,0,1-1.5,1.5,53.46,53.46,0,0,1-10.22.07A1.47,1.47,0,0,1,44.4,34c.05-2.41,0-4.85.22-7.26-3-.11-6.08-.14-9.12,0,.34,9.06.36,18.15.43,27.22,4.8,0,9.59.12,14.33.13q8.5,0,17,.13C67.13,45.22,66.62,36,67.15,27Z"/><path class="cls-1" d="M20,42.81l.94.07V41.79c0-.37.1-.9.13-1.38-.8,0-1.6.06-2.41.11a16.27,16.27,0,0,0,.1,2.21Z"/><path class="cls-1" d="M54.5,32.48q-.1-2.66-.21-5.32c-2.42-.09-4.83-.21-7.25-.32.17,1.91.19,3.85.21,5.78C49.7,32.69,52.08,32.64,54.5,32.48Z"/><path class="cls-1" d="M52.25.25c-32.17-3.17-51,25-52.17,45.5-.8,14,4.07,28.92,14.51,39.19.09-1.1.18-2.11.17-2.87-.05-5.59-.27-11.2,0-16.79A1.68,1.68,0,0,1,16,63.22l.17,0c10.83-1.42,22.71.28,33.61.72a1.88,1.88,0,0,1,1.67,1A1.48,1.48,0,0,1,52,66c.06.79.12,1.58.17,2.37,7.78-1.13,16.1-.94,23.92-.69A1.62,1.62,0,0,1,77.7,69a1.31,1.31,0,0,1,.23.69c.24,5.91.9,12.49,0,18.34a1.29,1.29,0,0,1-2.46,0c-1-5.29-.6-11.34-.24-16.83l-6.54.19h0c.05,1.45-.14,2.92-.23,4.37-.06,1,0,2-1.07,2.5s-2.63.26-3.76.27c-1.38,0-2.75,0-4.13-.06a1.45,1.45,0,0,1-1.43-1.43c.05-1.86,0-3.77.16-5.64-2-.06-3.93-.18-5.86-.37a227.82,227.82,0,0,1,0,23.38c-.12,2.44-3.86,2.47-3.82,0,.1-6.21.18-12.42.3-18.63-9.87.09-19.9,0-29.75-.32a1.17,1.17,0,0,1-.55-.15c.11,4.4.11,8.8.23,13.19a46.48,46.48,0,0,0,24.47,9.23C80.06,101,96.76,78.84,99.08,53.08,101.08,30.92,84.42,3.42,52.25.25ZM95.7,58.43c-15.15-.33-30.29-.7-45.44-.78s-30.39.9-45.44,0a1.38,1.38,0,0,1,0-2.75c1.72-.18,3.44-.32,5.18-.44-.26-4.94-.68-10.17-.07-15a1.28,1.28,0,0,1,1.3-1.06,1.2,1.2,0,0,1,.51-.22A65,65,0,0,1,20,37.45c2.6-.14,5.2-.48,7.69.43a1.7,1.7,0,0,1,1.19,1.19,64.91,64.91,0,0,1,.63,14.83h2.93c0-9.27-.09-18.56.19-27.83h0a1.55,1.55,0,0,1,.89-2.37c5.09-.92,10.26-.6,15.41-.51,6.16.11,12.57-.22,18.68.59a1.78,1.78,0,0,1,1.19.64,1,1,0,0,1,1.05.94c.4,2.83.65,5.72.82,8.62,5.32-.69,10.9-.06,16.17.6a1.88,1.88,0,0,1,1.83,1.83c.07,6,.15,12.2-.38,18.24,2.48.07,5,.14,7.43.23C98,54.95,98,58.48,95.7,58.43Z"/><path class="cls-1" d="M72,37v-.06h-.06Z"/><path class="cls-1" d="M65.46,75.49c.23-1.21.19-2.54.35-3.76a1.49,1.49,0,0,1,0-.24H60.73c.1,1.36.12,2.73.14,4.09L63,75.49C63.76,75.49,64.65,75.56,65.46,75.49Z"/><path class="cls-1" d="M80.61,38.29l-.09-.08a19.41,19.41,0,0,0-4.11-.14c-.89.11-2.15.18-2.07,1.4a1.61,1.61,0,0,0,1.27,1.43c1.2.43,3,.11,4.24.1.88,0,.92.15,1.37-.4a1.41,1.41,0,0,0,.17-.47,1.61,1.61,0,0,1-.12-.43A1.66,1.66,0,0,0,80.61,38.29Z"/></g></g></svg>