<svg xmlns="http://www.w3.org/2000/svg" viewBox="0 0 116.17 105.29"><defs><style>.cls-1{fill:#ff5878;}</style></defs><title>logistic-delivery</title><g id="Layer_2" data-name="Layer 2"><g id="Layer_1-2" data-name="Layer 1"><path class="cls-1" d="M41.35,40a9,9,0,0,0,.09-1.76c.61-3.68,2.69-6,5.52-6.82A3.16,3.16,0,0,0,46.25,30c-2.91-.65-6.4.45-7.41,3.26a7.88,7.88,0,0,0,0,5.19C39.17,39.37,40.79,41,41.35,40Z"/><path class="cls-1" d="M31.78,54c2.49-7.85,18.64-1.73,23.57.69a1.18,1.18,0,0,1,.74,1.11,1.07,1.07,0,0,1,.18.42c.86,4.5-3.52,6.22-7.33,5.68-1-.14-3.72-1.27-4.6-.83.54-.27,4.07,1.17,4.84,1.31a30.43,30.43,0,0,0,7.74.33A5.54,5.54,0,0,1,56.69,60a1.4,1.4,0,0,1,.32-.73,1.74,1.74,0,0,1,1.14-1.44c6.76-2.57,18.45-6.18,23.52-.32,6.7-2.65,13.36-5.2,19.79-8.47,4.7-2.39,9.17-5.14,13.69-7.84a45.94,45.94,0,0,0,.71-14.85C113.15,3.51,81.2-11.88,58.79,13.59,41.79-8.81,3.28-2.41.31,24.67A55.8,55.8,0,0,0,2.66,47.61C12.41,48.91,22.07,52.17,31.78,54Zm5.57-27.71c5.88-3.32,15.87-.67,19.27,5.56,4.16-6.57,15.63-7.4,21-2.12a12.28,12.28,0,0,1,2.92,13c-.94,2.75-3.06,6.84-5.79,8.27a1.65,1.65,0,0,1-1.31.1,53.3,53.3,0,0,0-13.29,3.31,1.09,1.09,0,0,1-1.1-.16h0c-3.28-1.17-6.11-3.22-9.37-4.44a30.74,30.74,0,0,0-12.33-1.55,1,1,0,0,1-1-.52,1.24,1.24,0,0,1-.27-.1c-2.89-1.6-4.4-6.7-4.82-9.69C30.6,33,33,28.8,37.35,26.34Z"/><path class="cls-1" d="M86.85,59.52a1.53,1.53,0,0,1,.24.41A18.68,18.68,0,0,1,88.31,70.5a87.35,87.35,0,0,0,11-5.23c2.65-1.57,5.22-3.25,7.92-4.72a67,67,0,0,0,6.35-13.65A103.52,103.52,0,0,1,86.85,59.52Z"/><path class="cls-1" d="M85.35,70.48c-.15-3.39,0-6.48-.85-9.84a1.57,1.57,0,0,1,0-.42l-1.11.3a12.89,12.89,0,0,1,.51,2c.24,1.38-1.63,2.38-2.38,1-1.35-2.48-2.33-4.84-5.37-5.72-2.27-.66-4.83,0-7,.51-3,.73-6.29,1.48-9.23,2.51.87,2.92,6.51,1.12,8.73,1.84a4.65,4.65,0,0,1,3,5.19,1.17,1.17,0,0,1,.08,1.65l-.08.08c-6.33,5.06-20.81-2.2-24.42,5.12,6.31.39,12.5,1.66,18.86,1.51C73.35,76.06,78.74,73.47,85.35,70.48Z"/><path class="cls-1" d="M87.35,73.71a1.59,1.59,0,0,1-.72-.06c-6.08,2.81-11.5,5.17-18.32,5.89a61.93,61.93,0,0,1-22.83-2.17,1.31,1.31,0,0,1-.92-1,1.29,1.29,0,0,1-.33-.22c-6.15.49-12.31-1.3-18.2-2.88q-6-1.61-11.88-3.52c13.16,17.93,32.24,30.72,42.7,35.54,10.86-5,31.85-19.09,45.71-37.82C97.84,70.45,92.82,72.94,87.35,73.71Z"/><path class="cls-1" d="M50.85,68.3c5.86-.66,11.69.75,17.47-.41-.11-.79-.18-1.66-.93-2-.48-.24-1.52.06-2,.11a13.53,13.53,0,0,1-4.65-.18,7.93,7.93,0,0,1-1.15-.39,30.18,30.18,0,0,1-10.62.1c-2.07-.35-7.68-1.08-8.91-3.12-1-1.64.47-3.51,2-4.16,3.1-1.32,9.69,2.72,11.41-1-5.56-1.35-16.76-7.63-19.64-.48a1.33,1.33,0,0,1-1.23.83,1.51,1.51,0,0,1-.6.07c-.5,0-1-.11-1.53-.16-1.07,4.21-1.7,9-3.41,12.93a104.35,104.35,0,0,0,17,3.16C44.87,70.49,47.41,68.69,50.85,68.3Z"/><path class="cls-1" d="M28.3,57.27A99.25,99.25,0,0,1,3.73,50.82,75.57,75.57,0,0,0,11.51,66c4.52,1.31,9,2.69,13.57,3.93C25.2,65.77,26.92,61.21,28.3,57.27Z"/></g></g></svg>