<svg xmlns="http://www.w3.org/2000/svg" viewBox="0 0 479.49 327.59"><defs><style>.cls-1{fill:#dce2f3;}.cls-2{fill:#f7d473;}.cls-3{fill:#aadae6;}.cls-4{fill:#e2b1a4;}.cls-5{fill:#f29db0;}.cls-6{fill:#f29db1;}.cls-7{fill:#9f908b;}.cls-8{fill:#a6daf4;}.cls-9{fill:#c7da8b;}</style></defs><title>collected_products</title><g id="Layer_2" data-name="Layer 2"><g id="Layer_1-2" data-name="Layer 1"><path class="cls-1" d="M70.18,311.08c-7.17-.45-14.31-1.45-21.44-2.36-3.93-.5-4.89-2.88-2.4-6,8.54-10.82,36.53-45.49,41.83-52.13a3.42,3.42,0,0,1,4.11-1.39c6,1.62,12,3.08,18,4.49a3.06,3.06,0,0,1,2.68,3c.5,4.26,1.22,8.5,1.7,12.77a5.33,5.33,0,0,1-.78,2.67c-.3.6-1,1-1.38,1.56-4,6.59-4,9.89,3.06,12.43a82.3,82.3,0,0,0,20.07,4.41,278.44,278.44,0,0,0,53.3.12,286,286,0,0,0,56.39-11,7,7,0,0,1,6.16.8c2.8,1.62,6,3.71,9,3.65,10.48-.21,19,4.55,27.71,9.32a70.48,70.48,0,0,0,7.91,4.26c3.95,1.55,8,3.19,12.15,3.78a44.76,44.76,0,0,1,14.88,5.2c2.29,1.21,4.49,2.65,6.88,3.63,7.07,2.92,13.69.09,15.55-7.3,1-4.12.56-8.66.52-13,0-1.82-.68-3.63-.46-5.85a11.87,11.87,0,0,1,2.42,1.87c2.42,3.15,5.65,3.95,9.35,3.38,10.07-1.54,20.19-2.86,30.19-4.77,8.32-1.59,16.54-3.81,24.75-5.95,2.13-.55,2.91.69,3.9,1.91,7.47,9.12,28,34.2,30.73,37.62,3,3.71,2.9,5.76-.38,9.34C446.31,327.85,84.64,312,70.18,311.08Z"/><path class="cls-2" d="M316,156.24c2.24.09,4.6-.3,4.2-2.71a5.34,5.34,0,0,0-.88-2.07Z"/><path class="cls-2" d="M346.25,165.51a1.6,1.6,0,0,0-.95-.05,1.86,1.86,0,0,1-.8,1.24,11.82,11.82,0,0,0-3.53,4.66,1.83,1.83,0,0,1,.88.8,4.45,4.45,0,0,0,4.56-2.43C347,168.7,347.85,166.11,346.25,165.51Z"/><path class="cls-2" d="M350,207.13c-.92,1.5-1.82,3-2.81,4.51a1.9,1.9,0,0,1,.39.72c.46,1.5,4.66,1.47,5.89,1C357,211.88,352.7,206.43,350,207.13Z"/><path class="cls-2" d="M450,96.77c-3.75-2-7.77-3.41-11.94-1.1-1.74,1-3.23,2.36-5,3.35a7.9,7.9,0,0,1-2.71.43c.33-.94.62-1.9,1-2.81a2.35,2.35,0,0,1,.85-.83c1.7-1.18,1.29-2.16.09-3.62A23.44,23.44,0,0,0,413,83.29c-4.23.08-7.52-1.11-10-4.8-2.87-4.32-7.21-6.17-12.32-6.26-3.1-.06-6.24.27-9.28-.14a15.7,15.7,0,0,1-5.82-2.4c-2-1.24-3.67-3.09-5.68-4.37-4-2.58-8.7-1.36-10.43,3.06A120.54,120.54,0,0,0,355,82.93c-.65,2.59-1.27,4.92-3.54,6.64a27.78,27.78,0,0,0-4.77,4.53q-26.4,32.48-50,67.05c-15.73,23.09-27.54,48.21-39.19,73.45-.72,1.56-.84,2.71.75,3.86,7.77,5.62,15.24,11.71,23.29,16.88,8.81,5.67,18.16,10.5,27.25,15.73,1.75,1,3.4,2.18,5.1,3.28l-.42.86a31.42,31.42,0,0,1-5-1.46c-8.29-3.94-16.94-7.35-24.68-12.19-9.71-6.07-18.64-13.39-28-20.06-1.06-.76-2.89-1.52-3.9-1.12a29.31,29.31,0,0,0-13.2,10,10,10,0,0,0-1.56,5.51c0,4.92,3.58,7.29,7.45,9.22,2.23,1.11,4.77,1.73,6.78,3.14s3.08,1,4.71-.24c4-3.17,8.08-6.21,12.2-9.21a6.35,6.35,0,0,1,2.39-.52c-.09.91.11,2-.33,2.69a13.86,13.86,0,0,1-2.86,3c-2.91,2.44-5.82,4.88-8.88,7.13-1.82,1.34-2,2.31-.38,4,3.79,3.85,8.12,6.57,13.63,6.71,11,.27,20.16,4.67,28.51,11.67,2.73,2.29,6.7,3.54,10.31,4.26,6.06,1.2,12.31,1.48,17.59,5.27a7.64,7.64,0,0,0,2.52.94c4.17,1.09,7-.6,7.57-4.85.51-3.55.66-7.15,1-10.73.23-2.44,0-4.28-3.21-4.53-.89-.07-1.66-1.76-2.49-2.7l3.25-1.24c1.08-.41,2.61-.48,3.17-1.26,7.42-10.41,15.16-20.64,21.94-31.47,17.45-27.87,34.5-56,51.64-84.06,7.81-12.8,15.46-25.69,23.19-38.54.87-1.45,1.68-2.63-.49-3.89C418.51,110.28,400,101.4,380,95.82a26.34,26.34,0,0,1-4.23-1.47c-.49-.23-1.08-1.27-.92-1.62a2.7,2.7,0,0,1,1.71-1.28,5,5,0,0,1,2.35.26c4.61,1.33,9.27,2.5,13.78,4.11a258,258,0,0,1,45.57,21.29c1.09.65,3,1.37,3.78.86a111.81,111.81,0,0,0,10.8-8.46c.91-.8,1.23-2.51,1.4-3.85C454.74,101.86,453.52,98.58,450,96.77ZM274.7,272.3a69.5,69.5,0,0,1-3.7,7.13c-2.34-2.83-.8-7.85,1.64-8.8C274.23,270,275.27,270.85,274.7,272.3Zm75.1-108.6c2,2.74.9,6.79-1.08,9.22-2.47,3-6,3.56-9.46,2.37a25.86,25.86,0,0,1-1.84,3.74,1.86,1.86,0,0,1-3.21-1.88c2.22-4.28,3.53-9.15,6.76-12.85C343.24,161.71,347.43,160.47,349.81,163.7Zm-17.15-7.19a5,5,0,0,1,3.37,4.14c.23,2.28-1.31,4.19-3,5.48-1.48,1.11-5.1,2.48-7.15,1.83a7.15,7.15,0,0,0-.28,2.66c.29,2.58,3.46,1.09,5.06.36,2.17-1,4.06,2.23,1.88,3.21-3.6,1.63-9.29,3-10.5-2.26-.81-3.49,1-7.61,2.82-10.49C326.41,159,329.29,155.54,332.65,156.51Zm-25.38,6.84a2.42,2.42,0,0,1,.48-1c.07-.13.15-.26.22-.39a1.56,1.56,0,0,1,.24-.78c2.51-4,5.25-7.78,7.92-11.64a1.91,1.91,0,0,1,.75-2c3.2-2.33,6.34,2.45,6.89,5a6,6,0,0,1-1.22,5.38,6.9,6.9,0,0,1-4.57,2,6.81,6.81,0,0,1-.4,4.18,6.35,6.35,0,0,1-3.63,3.68,4.84,4.84,0,0,1-4.15-.6,1.82,1.82,0,0,1-1.05-.51,4.56,4.56,0,0,1-1.12-1.7A2,2,0,0,1,307.28,163.35Zm-2.52,5.93c1.51-1.86,4.13.79,2.63,2.63-2.38,2.94-5.77,7.45-6.56,11.19-.35,1.67.59,3.16,2.05,4.46a16.9,16.9,0,0,1,3.87-7.78c1.55-1.84,4.16.81,2.63,2.63a11.76,11.76,0,0,0-3,6.68,1.93,1.93,0,0,1-.18.78c.92.52,1.84,1,2.68,1.42,1.68-3.81,3.29-7.65,4.74-11.55a1.85,1.85,0,0,1,.72-2.25l.75-.5a1.88,1.88,0,0,1,2.73,2.1c-1.91,5.33-4.13,10.53-6.44,15.69a1.88,1.88,0,0,1-2.55.67c-4-2.17-12.43-5.81-12.13-11.38C297,179.07,301.72,173,304.76,169.28Zm-18.94,68.18c4.63-11,11.45-20.26,21.26-27.25,2.5-1.78,4.51-1.51,6.8.56-12.27,7.57-20.32,18.39-25.33,31.72C285.82,241.74,284.61,240.34,285.82,237.46Zm9.93,9.52c-2-.62-2.83-1.87-2.27-4.12a39.08,39.08,0,0,1,9-16.38c3.79-4.3,8.35-7.93,12.67-11.76,2.43-2.16,4.71-1.57,6.53.75-4.49,4.1-9,7.83-13.07,12a48.32,48.32,0,0,0-10.39,17C297.81,245.58,298,247.69,295.75,247Zm11.82-1.13a19.78,19.78,0,0,0-1.11,2.45c-.51,1.45-.75,2.89-3,2s-2.22-2.15-1.51-4c3-7.72,8.17-13.93,13.95-19.64a87.76,87.76,0,0,1,7.88-6.42c2-1.56,3.83-1.44,5.48.9A68.64,68.64,0,0,0,307.57,245.85ZM329,200.7c-4,1.72-8.45,1.29-9.91-3.4a11.83,11.83,0,0,1-.13-5.51h0a1.67,1.67,0,0,1,.68-2.47c1.62-4.44,5.23-8,10-5.59,6.3,3.15-1.06,13.14-7.22,11,.17,2.4,1.47,4.13,4.68,2.75C329.31,196.55,331.2,199.76,329,200.7Zm7.77,8.4c1.17-3.9,2.83-7.69,3.87-11.62a52.59,52.59,0,0,0-7.26,7.68c-1.54,1.85-4.12-.79-2.63-2.63,3.56-4.28,6.51-9.82,12.07-11.73a1.72,1.72,0,0,1,2.26,1.87,1.43,1.43,0,0,1,.09.68c-.7,5.86-3.13,11.14-4.82,16.74C339.68,212.38,336.09,211.4,336.78,209.1Zm19.94,6.57c-3.13,2.77-11,2.3-12.61-2.11a2.07,2.07,0,0,1-.61-3,56.61,56.61,0,0,0,3.43-5.36,1.39,1.39,0,0,1,.57-1c.3-.5.58-1,.84-1.39,1.13-1.82,2.69-6.05,5-6.7a1.89,1.89,0,0,1,2.1.86,1.94,1.94,0,0,1,.28,1.12,1.8,1.8,0,0,1-.81,1.44,2.44,2.44,0,0,0-.53.66c-.39.69-.86,1.36-1.28,2l-.94,1.55C357.06,205.19,361.15,211.75,356.72,215.67Zm4.71-22.88c-1.22,2.06-4.44.19-3.21-1.88a71.32,71.32,0,0,0,5.54-11.73,52.21,52.21,0,0,0-6.61,5.74c-1.07,1.06-3.33.35-3.18-1.32.25-2.67.81-5.32.82-8-1.78,3.19-3.2,6.7-5.11,9.68a1.86,1.86,0,0,1-3.21-1.88c1.58-3.33,3.11-8.77,6.27-11.52a24.51,24.51,0,0,1,2.27-3.11c1.48-1.69,3.88.52,2.88,2.28a1.47,1.47,0,0,1,.23.54,23.88,23.88,0,0,1,.11,7.19,32.79,32.79,0,0,1,7.91-5.3,1.88,1.88,0,0,1,2.73,2.1A77.34,77.34,0,0,1,361.43,192.79Zm23.19-7.94a52.67,52.67,0,0,1-9,16.32c-1.52,1.86-4.14-.79-2.63-2.63a46.65,46.65,0,0,0,6.46-10.67,107.64,107.64,0,0,0-13,7.85c-1.69,1.15-3.26-1-2.55-2.55a168.8,168.8,0,0,1,8.5-15.5c1.23-2.05,4.45-.18,3.21,1.88-1.82,3-3.6,6.09-5.29,9.19a74.32,74.32,0,0,1,11.94-6.18A1.87,1.87,0,0,1,384.62,184.84Zm18.69-66.49c-1.79,1.24-3.27,2.36-4.85,3.34-7.44,4.57-12.14,10.84-13.86,19.66a58.24,58.24,0,0,1-9.69,22.42c-2.91,4.13-3.31,4.09-7.73,1.44,1.88-2.75,4.29-5.28,5.54-8.29a161.32,161.32,0,0,0,7.19-20.27c2.55-9.59,8.5-15.81,17.15-20C399.48,115.54,401.19,116.68,403.31,118.35Zm-15.77-6.1c1.53-.46,3.49.5,5.25.81l.21,1.12c-2.23,1.37-4.37,2.92-6.7,4.08a20,20,0,0,0-9.82,10.84c-3.6,8.76-7.16,17.54-10.84,26.26a27.18,27.18,0,0,1-2.81,4.58c-1.59,2.33-3.39,2.5-5.42.29,6.16-7.59,8-17.06,11.38-25.84a105.39,105.39,0,0,1,6-13.31C377.52,116.22,382.41,113.8,387.54,112.25Zm-7.7-4.42.1,1a5.69,5.69,0,0,1-1.28,1c-9.32,3.74-13.28,11.31-14.72,20.64a68.4,68.4,0,0,1-7,21.25,16.76,16.76,0,0,1-2.13,3.24c-2.45,2.83-3.32,2.83-6.57.12,6.14-7.12,8.14-15.76,10.14-24.44a94.26,94.26,0,0,1,3.86-12.86,17.18,17.18,0,0,1,10.27-9.94C374.66,107.07,377.38,107.8,379.84,107.83Z"/><path class="cls-2" d="M324.22,188.36a8.14,8.14,0,0,0-1.2,2.38c1.93,1.22,5.2-.12,5.39-2.67S325,187.31,324.22,188.36Z"/><path class="cls-2" d="M331.82,160.21c-.92-.73-3,1.95-3.68,3l-.46.73a1.75,1.75,0,0,1,.37.57c.17,0,.36-.06.47-.1a7.74,7.74,0,0,0,2.24-1.19C331.62,162.54,333.08,161.21,331.82,160.21Z"/><path class="cls-2" d="M314.41,160.54a.43.43,0,0,1,0-.08l-.09-.12-.05,0c-.18-.07,0-.07-.37-.12.22,0-.43,0-.55,0h0c-.25.37-.51.74-.75,1.11a10.44,10.44,0,0,1-1.23,2.38,2.42,2.42,0,0,0,1,.59l.22,0c.09,0,.5-.15.36-.1a2,2,0,0,0,.73-.63s.49-.77.55-.92A2.91,2.91,0,0,0,314.41,160.54Z"/><path class="cls-3" d="M375.41,252.79c.47,1.77,1,3.53,1.47,5.3a7.09,7.09,0,0,1,1.72-.43c-.38-.53-.76-1-1.09-1.57C376.8,255,376.13,253.89,375.41,252.79Z"/><path class="cls-3" d="M478,217.36q-15.28-18.88-30.56-37.76a4.75,4.75,0,0,0-5.32-1.66c-11.56,2.76-23.16,5.31-34.71,8.09a6.62,6.62,0,0,0-3.75,2.49c-7,11-13.79,22-20.64,33.06-.43.69-.73,1.47-1.31,2.64l27.2-3.8.32,1.3a17.39,17.39,0,0,1-3,1.27c-8.29,1.78-16.58,3.59-24.91,5.16a6.58,6.58,0,0,0-4.71,3.22c-3.47,5.49-7.08,10.89-10.47,16.43-.77,1.26-.89,2.92-1.37,4.58a17.56,17.56,0,0,0-2.7,1.94,6.76,6.76,0,0,0-1,1.3,2,2,0,0,1,.05.21c.3,2.23,1.28,5.09,3.29,6.34.61.38,1.84.93,2.31.3s.18-2.18.18-2.89c0-2.4,3.71-2.39,3.72,0v.12c.86,2,.19,5.72-1.3,7.09-1.89,1.74-4.32,1.54-6.61-.8-.41-.42-.8-.87-1.19-1.33a10,10,0,0,1-2.29-2.89c-.34-.43-.68-.88-1.06-1.35-2,3-3.66,5.7-5.41,8.33-4.43,6.63-4.42,6.6,1,12.55a5,5,0,0,0,5.07,1.71c6.66-1.32,13.35-2.49,20-3.74L449.41,266c2.53-.48,4.74-1.33,6.19-3.72,7.55-12.48,15.17-24.92,22.76-37.38C479.91,222.3,479.94,219.78,478,217.36Zm-93.69,48.12-.22,0a2,2,0,0,1-1.74-1.77,14.79,14.79,0,0,0-1.45-2.79,2.56,2.56,0,0,1-.94.31l-.65.08-.43.07c-.21,0-.42.13-.63.16a2.12,2.12,0,0,1-.39.28c.19.76.37,1.53.53,2.3a1.86,1.86,0,0,1-3.59,1c-2.21-5.91-4.5-11.78-5.07-18.12a1.53,1.53,0,0,1,1.31-1.75,1.55,1.55,0,0,1,2.11-.24c3.13,2.13,5.07,5.31,7.08,8.44s4.75,6.15,5.87,9.7A1.87,1.87,0,0,1,384.29,265.49ZM405,259c-.69-1.52-1.43-3-2.18-4.49a1.89,1.89,0,0,1-1,.29c-.47,0-.95,0-1.42.07a23.76,23.76,0,0,1,.53,3.82,1.77,1.77,0,0,1-2.61,1.61c.14,1.61-1.83,3.11-3.06,1.58-1-1.21-2-2.37-3.06-3.5.19,1.31.36,2.61.49,3.93.23,2.39-3.49,2.36-3.72,0-.27-2.85-.75-5.67-1.23-8.49a101.59,101.59,0,0,1-8.72-9.32c-1.47-1.86,1.15-4.51,2.63-2.63a70.34,70.34,0,0,0,5.11,5.7c-.06-.43-.12-.87-.17-1.31-.19-1.64-1-4.37-.13-5.92a1.88,1.88,0,0,1,3.21,0l.14.28a1.8,1.8,0,0,1,.12,1.49c.07.27,0,1,.07,1.33.34,2,.47,4.13.79,6.18.13.79.26,1.58.39,2.37,2,2,3.94,4,5.76,6.12a67.81,67.81,0,0,1-3.1-17,1.77,1.77,0,0,1,2.69-1.58,1.88,1.88,0,0,1,2,.39,25.07,25.07,0,0,1,4.94,7.57c1.55,3.24,3.24,6.41,4.73,9.68C409.17,259.32,406,261.21,405,259Zm7.38-1.12a10.43,10.43,0,0,1-1-1.5,2.06,2.06,0,0,1-.17-.36c-3.46-5.37-7.43-10.44-10.33-16.14a1.81,1.81,0,0,1-.11-1.5,1.6,1.6,0,0,1,.9-1.8c7.78-4.06,17.47,11.3,11.14,15.12,1,1.42,1.89,2.84,2.78,4.3C416.82,258.12,413.72,259.8,412.34,257.91Zm39.12,3a18.14,18.14,0,0,1-2.8-2.63c-.13-.16.64-1.06,1.44-2.31a39.82,39.82,0,0,1,2.49,3.74C452.67,259.91,451.5,261,451.46,260.94Zm1.86-49c-.12,2.1-1.38,2.64-3,3.06-8.1,2.1-16.19,4.23-25.14,6.57l24.42,32.69-.86,1.27c-1.19-.43-2.85-.5-3.48-1.35q-11.65-15.42-23-31.08c-1.88-2.61-1.24-3.86,1.86-4.73,7.29-2.06,14.58-4.15,21.93-6,2.75-.69,3.92-2,3.44-4.79q-1.23-7.22-2.41-14.46c-.37-2.27-.76-4.54-.92-6.82,0-.71.66-1.47,1-2.2.64.53,1.7,1,1.87,1.61C451.27,194.32,453.83,202.87,453.32,211.93Z"/><path class="cls-3" d="M410.69,248.68a2,2,0,0,1,.26-.13c-.07,0,0,0,.06-.33a3.51,3.51,0,0,0-.15-1.46,11.25,11.25,0,0,0-1.6-3.56c-.87-1.35-2.56-3.46-4.38-3.64C406.62,242.72,408.64,245.71,410.69,248.68Z"/><path class="cls-3" d="M398.68,246.29a37.26,37.26,0,0,0,.89,4.94c.51,0,1,0,1.53-.08l-.43-.87C400,248.94,399.41,247.58,398.68,246.29Z"/><path class="cls-4" d="M178,54.53c-1.94,5.09-5.18,7.88-10.28,6.4a14.91,14.91,0,0,1-6.6-4.3c-5.88-6.64-6.25-15-1.48-23A19.24,19.24,0,0,1,180,24.77,20.38,20.38,0,0,1,196.87,43.9a13.76,13.76,0,0,1-7.39,13.4C185.26,59.71,181.62,58,178,54.53Zm3.63-7.08C182.32,49,184,51,185.29,51s3.17-1.89,3.92-3.38c2.31-4.61-.6-11.85-5.45-13.92-.54-.23-2.05.58-2.3,1.14C179.05,40.18,180.79,45.53,181.65,47.46ZM166.4,41.54c-2.33-.95-3.15,0-3.36,2.09a11,11,0,0,0,3.28,8.71c1,1.08,3,2.38,4.22,1.89C175,52.43,172.3,42.86,166.4,41.54Zm7.3-2a19,19,0,0,1,1.61-8.1l-.64-.64a12.67,12.67,0,0,0-8.93,4.73A13.84,13.84,0,0,1,173.7,39.54Z"/><path class="cls-4" d="M216.63,21.34a14.49,14.49,0,0,1,4.45-17.25c3.31-2.71,8-5,13.11-3.7,5.37,1.42,9.4,4.48,11,10,1,3.51-.45,6.43-3,8.87-.55.53-1.53,1.15-1.49,1.68a6.38,6.38,0,0,1-3,6.11C229.9,32.18,219,27.17,216.63,21.34ZM229,5c-5.88.89-10.44,9.42-7.78,14.27l8.91-4.89Zm-5.27,17.57a10.45,10.45,0,0,0,10.17.8c.65-.29,1.62-1.19,1.53-1.56A3.31,3.31,0,0,0,233.83,20C231,18.58,226.76,19.65,223.76,22.56ZM235,5.89c-1.34,4.15-.3,7,2.82,8.53,1.51.71,2.22.31,2.45-1.31C240.65,10.16,238.72,7.41,235,5.89Z"/><path class="cls-2" d="M80.77,110.9a4.05,4.05,0,0,1-4.1-4.17c.13-2.16.72-4.28,3.37-4.51s5.34,2,5.38,4.12A5,5,0,0,1,80.77,110.9Z"/><path class="cls-5" d="M40.07,249.31c.21.63,1,2,.72,2.36a67.39,67.39,0,0,1-6.53,6.26c-.14.12-2-1.09-2.14-1.81C31.85,254.11,37.18,249.25,40.07,249.31Z"/><path class="cls-6" d="M52.38,108.85c-.57.76-.93,1.7-1.47,1.82a2.2,2.2,0,0,1-1.87-.92,40.41,40.41,0,0,1-2.82-6.22c-.24-.71.44-1.73.7-2.61.73.37,1.8.54,2.13,1.13C50.27,104.19,51.24,106.46,52.38,108.85Z"/><path class="cls-2" d="M183.39,85.31c-1.25.82-2.44,2.16-3.77,2.32a2.57,2.57,0,0,1-2.9-3.22c.29-1.18,1.92-2.78,3-2.82s2.46,1.47,3.69,2.31Z"/><path class="cls-2" d="M463.65,151.84c0,1.59-4.12,4-6.1,2.46a2.15,2.15,0,0,1-.48-2.72C457.94,149.88,463.65,150.25,463.65,151.84Z"/><path class="cls-2" d="M468.16,164.16c-.29.93-2.73,1.7-3.41.51A1.53,1.53,0,0,1,465,163C465.75,162.14,468.45,163.23,468.16,164.16Z"/><path class="cls-5" d="M51.15,256.06c-1.34,1.08-2.09,2.15-2.83,2.14s-2.07-1.15-2-1.71a3,3,0,0,1,1.82-2.14C48.77,254.19,49.7,255.19,51.15,256.06Z"/><path class="cls-7" d="M116.36,79.62c-4.36,5.21-1.26,9.75.48,14.25a41.3,41.3,0,0,0,4.87,9.57c1.88,2.56,4.71,4.42,7.37,6.82-3.34,3.38-1.36,7.28.09,11a61.87,61.87,0,0,0,5.42,11.32c1.55,2.39,4.23,4.07,6.48,6a17.83,17.83,0,0,0,3,1.6c-4.51,4.49-1.81,8.78-.12,13.08,1,2.41,2,4.78,3.05,7.17,1.94,4.51,4.93,8,9.72,9.6a6.75,6.75,0,0,1,1.33.8c.05.34.12.48.08.52-3.66,4.13-2.26,8.48-.51,12.8,1.31,3.23,2.72,6.43,4.2,9.59a13.51,13.51,0,0,0,8.18,7.51q9.39,3,19,5.21c4,.93,8.11,1.23,9.94-4.47l5.11,7.74c-1.71.1-3.14.06-4.53.28-12.49,2-23.8-2.92-35.35-6.22a6.07,6.07,0,0,1-3.21-3.18q-15.42-34.45-30.64-69-7.28-16.44-14.6-32.86a6.08,6.08,0,0,0-2-2.66c1,2.65,1.93,5.35,3.06,8q16.5,38.08,33.07,76.12c2.84,6.5,5.87,12.91,9,19.3a4.11,4.11,0,0,1-.22,4.67,51.3,51.3,0,0,0-3,5.73l.8.46a31.79,31.79,0,0,1,2.66-4.22c.65-.76,2-1.65,2.75-1.46a174.86,174.86,0,0,1,18.77,5.83c-.85.21-1.69.48-2.56.62-5.81,1-11.64,1.82-17.44,2.88s-7.13.59-9.36-4.66c-8.78-20.67-17.3-41.46-26.12-62.11-7.41-17.35-15.09-34.6-22.74-51.85a5.12,5.12,0,0,1,.27-5.3,81,81,0,0,0,4.91-8.93c1.22-2.71,2.75-3.68,5.55-2.35A20.74,20.74,0,0,0,116.36,79.62Z"/><path class="cls-7" d="M187.89,176.93l9.49,4.66-2.45,3.53-3-4.06-.38.21c1.49,2.9,3.32,5.69,4.37,8.74a36,36,0,0,1,2,10.1c.14,3.44-1.89,5.07-5.31,5a51.83,51.83,0,0,1-24.8-6.9c-2.78-1.54-4.85-5-6.38-8A73,73,0,0,1,157,177.88c-1.1-3.74,4.39-8.8,8.87-8.3a55,55,0,0,1,19,6.07c1,.49,2,.86,3,1.28ZM194.07,196l.25-.74a26.68,26.68,0,0,0-2.86-1.16c-4.52-1.26-9-2.9-13.6-3.55a7.93,7.93,0,0,1-6.74-4.94c-.81-1.72-1.69-3.4-2.58-5.07-.45-.84-1-1.64-1.5-2.45l-.6.41c1.69,3.38,3.29,6.8,5.09,10.12.75,1.38,1,2.42-.1,3.76a16.69,16.69,0,0,0-1.75,3.3l.81.45a10.72,10.72,0,0,0,1.56-2.29c.81-2.29,2.24-2.68,4.45-2.07,3,.82,6,1.33,9,2C188.4,194.47,191.23,195.24,194.07,196Z"/><path class="cls-7" d="M177.79,149.63c1.45,3.05,2.86,6.12,4.35,9.15,1.67,3.39,2.73,6.85,1.9,10.68-.67,3.08-1.6,3.4-4.54,2.52-4.56-1.38-9.22-2.43-13.85-3.55a4.47,4.47,0,0,0-2.06.12c-5.13,1.3-10.24,0-12.87-4.67a127.85,127.85,0,0,1-7.94-18c-1.12-3,4.1-7.9,7.91-7.74,6.82.28,13.09,2.7,19.07,5.69,2.94,1.47,5.41,3.88,8.09,5.87Zm2.49,15,.24-.74a8.65,8.65,0,0,0-1.52-.75c-5.29-1.44-10.56-3-15.89-4.2-2.48-.57-4.39-1.3-5.45-3.9-1.22-3-2.89-5.74-4.37-8.6l-.71.35c1.56,3.3,3,6.65,4.73,9.87.9,1.71,1.07,3-.32,4.57a10.33,10.33,0,0,0-1.31,2.77l.75.35a11.44,11.44,0,0,0,1.46-2.08c.88-2.12,2.2-2.72,4.48-2.07,3.35,1,6.81,1.52,10.2,2.34C175.16,163.13,177.71,163.89,180.28,164.59Z"/><path class="cls-7" d="M170.14,136.32a20.44,20.44,0,0,1-.24,2.38c-.44,2.06-1.14,3-3.71,2.07A106.19,106.19,0,0,0,153,137.23a8.21,8.21,0,0,0-4.71.3c-4.87,2.09-8.19-.57-11-3.68-4.75-5.24-6.73-12-8.52-18.61-.84-3.15,3.8-8.24,7.28-8,9.09.51,17.85,3,24.66,8.93C166.46,121.13,168.7,128.76,170.14,136.32Zm-28.63-3.09.65.38a9.21,9.21,0,0,0,1.45-2c.93-2.41,2.41-3,4.92-2.27,4.69,1.34,9.47,2.37,14.22,3.51,1,.25,2.09.42,3.14.62l.22-1.11c-5.72-1.52-11.4-3.3-17.19-4.46-2.75-.55-4.48-1.48-5.57-4.1-1.21-2.89-2.81-5.62-4.24-8.42l-.7.38c1.38,3,2.55,6,4.2,8.82,1.45,2.45,1.72,4.47-.32,6.64A5.89,5.89,0,0,0,141.51,133.23Z"/><path class="cls-7" d="M223,177.21a21.83,21.83,0,0,1-.15,2.39c-.62,3.65-1.4,3.84-4.91,2.81-4.57-1.33-9.27-2.19-13.94-3.17a4.12,4.12,0,0,0-2.37.16c-4.62,2-7.94-.53-10.86-3.36a15.94,15.94,0,0,1-5.33-10.7c-.18-2.74-2-5.35-2.8-8.09a5.55,5.55,0,0,1-.05-3.7c2.21-4.4,5.42-5.82,11.63-4.13A101,101,0,0,1,211,155.78c2.33,1.11,4.28,3.54,5.77,5.79a65.89,65.89,0,0,1,5.08,9.82,35.11,35.11,0,0,1,1.5,5.73Zm-29-1.72c1-.58,1.4-.67,1.47-.87,1.67-5.11,5.3-4.31,9.11-3.07.76.25,1.55.4,2.32.58l11.71,2.78.25-.94c-5.52-1.52-11-3.36-16.58-4.45-3.23-.63-5.17-1.92-6.4-4.92-1.07-2.62-2.6-5-3.93-7.56a26.13,26.13,0,0,0,3.07,8.19c1.65,2.82,2.48,5.37-.21,8C194.47,173.58,194.44,174.25,194,175.49Z"/><path class="cls-7" d="M208.93,146.71c-.1.89-.12,1.79-.31,2.67-.47,2.25-1.34,3.19-4,2.07a50.51,50.51,0,0,0-10.83-3.35c-2.53-.45-5.27.27-7.92.37-1.58.06-3.39.39-4.72-.22a16.16,16.16,0,0,1-9.78-13.3,23.74,23.74,0,0,0-2.69-7.53c-1.17-2.24-1.26-4.06.29-6.05s3.53-4.07,6.43-3.69a59.18,59.18,0,0,1,22.78,7.86c4.35,2.6,5.84,7.49,7.9,11.78a89.48,89.48,0,0,1,3.29,9.19Zm-5.11-2.81.24-1c-5.66-1.52-11.29-3.2-17-4.48-2.16-.48-3.65-1.22-4.6-3.24-1.43-3-3-6-4.55-9l-.74.34c1.28,2.74,2.39,5.58,3.89,8.19s2.14,5.06-.26,7.52a5.12,5.12,0,0,0-.7,1.75c.9-.1,1.63-.43,1.79-.93,1.32-4.27,4.22-3.52,7.43-2.65C194.11,141.72,199,142.75,203.82,143.9Z"/><path class="cls-7" d="M156.43,105.93a16.34,16.34,0,0,1,0,2.1c-.36,2.77-1.1,3-3.7,2.15-5.12-1.58-10.31-3-15.55-4.09a7.78,7.78,0,0,0-5,1.34,3.5,3.5,0,0,1-4.09,0c-4.89-2.66-7.28-7.29-9.43-12a60.33,60.33,0,0,1-2.53-7.67c-1.74-5.81,2.67-11.23,8.69-10.35a61.45,61.45,0,0,1,21.84,8,3.62,3.62,0,0,1,.92.76A38.66,38.66,0,0,1,156.43,105.93ZM128,103.55l.77.49a12.74,12.74,0,0,0,1.74-2.46c.93-2.31,2.35-2.76,4.7-2.1,4.7,1.32,9.48,2.37,14.22,3.51.84.2,1.69.36,2.54.53l.21-1c-5.55-1.49-11.06-3.18-16.67-4.39-2.7-.58-4.47-1.6-5.56-4.2-1.23-2.95-2.84-5.74-4.29-8.6l-.75.37c1.56,3.28,3,6.61,4.72,9.81,1,2,1.41,3.59-.26,5.39A11.13,11.13,0,0,0,128,103.55Z"/><path class="cls-7" d="M195.38,116.88c-.09.62-.22,1.61-.38,2.59-.32,2-1.27,2.42-3.14,1.49a35.7,35.7,0,0,0-16.09-4.09,9.23,9.23,0,0,0-4.55,1,4,4,0,0,1-4.69,0c-4.75-3-7.92-7-8.57-12.89a19.34,19.34,0,0,0-2.65-7.55c-1.6-2.68-.53-4.52.92-6.49s3.35-3.39,6.07-3a60.48,60.48,0,0,1,20.12,6.46,15.91,15.91,0,0,1,7.52,7.43C192.2,106.5,195.21,111,195.38,116.88Zm-28.9-2c1.1-.72,1.7-.88,1.81-1.21,1.53-4.7,4.95-3.87,8.42-2.93l1.45.37,13.2,3.19a5.1,5.1,0,0,0-2.72-1.72c-4.23-1.2-8.41-2.7-12.72-3.4-4.11-.66-6.64-2.58-8.1-6.39a60.77,60.77,0,0,0-3-5.94l-.71.35c1.27,2.65,2.4,5.38,3.86,7.93s2,4.7-.28,7C167.19,112.62,167.08,113.45,166.48,114.89Z"/><path class="cls-7" d="M222.73,210.12c-4,0-8,.11-12,0-4.91-.17-10.53-6.07-11.19-10.94a33.1,33.1,0,0,0-2.58-9.36c-1.14-2.47-1-4.27.58-6.25s3.66-3.88,6.54-3.46A54,54,0,0,1,226.2,188a17.27,17.27,0,0,1,5.41,6.58,105.1,105.1,0,0,1,5.23,12.93c.75,2.13-.13,3.29-2.75,3.12-3.78-.24-7.58-.06-11.37-.06Zm-14.3-3.74.67.36c.43-.51,1.07-.94,1.27-1.53,1.16-3.38,3.41-3.41,6.39-2.59,4.94,1.37,10,2.39,15,3.56l.25-.94c-5.64-1.51-11.32-2.9-16.9-4.6a7.93,7.93,0,0,1-4.06-2.83c-1.95-2.9-3.43-6.12-5.1-9.21l-.66.34c1.36,2.84,2.52,5.78,4.12,8.48,1.46,2.46,2.17,4.6-.07,6.94A6.37,6.37,0,0,0,208.43,206.38Z"/><path class="cls-7" d="M187.89,176.93h-.06c-.78-.61-1.52-1.29-2.35-1.82-1.88-1.21-1.87-2.54.28-4.85Z"/><path class="cls-7" d="M177.85,149.72c1.84-2.37,2.88.48,4.33.66l-1.12,3.38-3.27-4.12Z"/><path class="cls-7" d="M174,144.23c-4-1-4.34-1.57-2.85-4.5Z"/><path class="cls-8" d="M215,146.75c-.79-1.47-1.61-2.93-2.37-4.42-2.87-5.57-5.6-11.21-8.62-16.7-1.83-3.31-4.27-6.29-6.1-9.6a7.42,7.42,0,0,1-.79-4.78c3.5-15.57,7.19-31.1,10.77-46.65a6.21,6.21,0,0,1,3.42-4.51c8.34-4.47,16.55-9.19,24.86-13.72a7.12,7.12,0,0,1,4-.94c11.78,1.47,23.57,2.89,35.29,4.74s23.19,4,34.74,6.29c5,1,9.81,2.57,14.75,3.75,2.12.5,4.32.65,6.49,1,1.65.23,2.06,1.09,1.78,2.73-2.86,16.51-5.58,33-8.54,49.53a21,21,0,0,1-3,7.3c-2.77,4.36-5.92,8.47-8.91,12.69-2.67-3.62-6.5-5-11.22-3.22-3.8,1.39-7.37,3.42-11,5.17-.61.29-1.2.61-2.37,1.21l10.62-54.79.85-.13c.52.88,1,1.79,1.56,2.63a115.93,115.93,0,0,0,6.7,9.51c2.25,2.66,4.21,2.44,6.52-.21a66.64,66.64,0,0,0,11.45-19.54c.73-1.84,1.34-3.72,2-5.58l-1.1-.57a21.77,21.77,0,0,0-2,2.55C321.39,76.18,318.26,82,315,87.67a59.57,59.57,0,0,1-4.15,5.46c-2-2.56-3.61-4.69-5.27-6.8a60,60,0,0,0-5.05-6.19c-2.12-2.05-3.14-1.7-3.76,1.17-3.1,14.34-6.35,28.66-9.08,43.07-3.27,17.26-6.14,34.6-9,51.93-2,12.05-3.76,17.47-8.89,23.33l5.95-31.16-.55-.51c-3.32,2.74-6.73,5.37-9.93,8.24-5,4.5-9.71,9.36-11.72,16a19,19,0,0,0-.82,8.45c.9,5.12,6.17,7.72,11.12,6.06l3-1,.6.56c-1.36,2.69-2.63,5.44-4.18,8-.32.53-1.75.76-2.54.58-6.13-1.4-12.23-2.87-18.3-4.49a3.34,3.34,0,0,1-2-2.1,52,52,0,0,0-10-21.58c-1.88-2.43-2.3-10.64-1.22-13.08-1.68-3.2-3-6-4.57-8.67-1.19-2.07-.83-3.31,1.48-4a18.42,18.42,0,0,0,2.73-1.42c-1.36-2-2.54-3.52-5.11-2.08-1.5.84-2.5.08-3.32-1.42-1.72-3.15-3.65-6.18-5.49-9.25,4.6,1.7,6.91-.89,8.65-4.59.68-1.44,1.39-2.88,2.15-4.28s1.53-2.62,2.3-3.92A83.42,83.42,0,0,1,230.56,147c.44,3.33.61,3.49,4.56,2.51-.83-5.65-1.6-11.37-2.54-17.05-.18-1.08-1-2.8-1.64-2.9-1.94-.28-4.23-1.77-5.87,1C221.78,136,218.33,141.35,215,146.75Zm77-68.12.24-1.2c-1.55-.45-3.08-1-4.67-1.34-11.35-2.12-22.68-4.35-34.07-6.22-8.15-1.33-16.39-2.13-24.59-3.23a16.83,16.83,0,0,1-3.37-1c-2.88-1-5.7-2.3-8.64-3.13-2.37-.67-4.25,0-4.9,2.88-1,4.47-2.26,8.88-3.34,13.33-.49,2-.85,4.07-1.26,6.11,2.24-3.26,5.56-3.64,8.79-4.34,3.77-.81,7.55-1.66,11.22-2.81a4.4,4.4,0,0,0,3.1-5.21,33.68,33.68,0,0,0-2-5.49l37.13,7.07c-.44,1-.63,1.46-.83,1.9-1,2.24-2.81,4.57-1,7s4.86,1.78,7.52,1.41a6.79,6.79,0,0,0,2.26-.77c2.7-1.48,5.31-3.16,8.08-4.49a12.59,12.59,0,0,1,4.91-1.22A29.15,29.15,0,0,1,291.94,78.64Zm27.67-16.7-.14-.75a2.72,2.72,0,0,0-.73-.4c-14.38-2.64-28.78-5.17-43.12-8-3.52-.69-5.76.74-7.82,3s-1.62,4.66,1.58,5.15c2.59.4,5.32-.09,8-.22,1.67-.08,3.33-.25,5-.37l.17.86C278.4,64.06,273.21,65.44,270,70c5.55,1,10.7,2.13,15.9,2.87A6,6,0,0,0,290,71.56,33.59,33.59,0,0,1,310,64C313.24,63.76,316.41,62.64,319.61,61.94Zm-80.93,62,3.52-22.49c-3.75-1.25-3.88-1.24-5.73,1.82-1.08,1.79-2,3.69-3,5.5-.61,1.06-1.35,2-2.46,3.69-.55-4.45-.84-8.09-1.54-11.64a3.93,3.93,0,0,0-2.5-2.51c-.74-.17-2.41,1-2.65,1.87-1.5,5.46-2.74,11-4,16.53-.61,2.61.36,3.91,3.14,3.66l2.53-12.1a76.67,76.67,0,0,1,1.94,10c.17,1,1.18,1.79,1.81,2.68.87-.67,2-1.16,2.56-2,1.3-2.11,2.32-4.4,3.45-6.62l.82.27-1.12,10.89ZM324,90.13c-3.84,2.7-7.15,4.71-10.07,7.17-4.18,3.51-7.47,7.75-8.62,13.3-.69,3.29.91,5.8,4.11,6.38,5.93,1.09,10.76-2.47,11.39-8.38.09-.89.31-1.76.47-2.65Zm-80,68.43c-5.11-.15-9.22,4.6-9.28,10.74-.06,5.93,4.25,11,9.49,11.18,5.74.18,11-5.31,11.09-11.53C255.26,163.23,250.4,158.75,243.91,158.56Zm5.3-26c-8,.56-11.63,6.53-11.07,14.12.44,5.88,5.38,8.71,11,6.84a12.91,12.91,0,0,0,7.84-7.35C260,139.38,256,132.47,249.21,132.54ZM245,118.35a8.06,8.06,0,0,0,10.3,8.15c8.06-2.06,11.89-13.06,6.84-19.65-2.41-3.15-8.3-4.42-11-2C247.7,107.84,245,111.44,245,118.35Zm35.73,27.71c-6.2,7.48-8.88,14.15-3.81,16.87Zm25.43-69.89.58,1.26,8.24-3.9-.44-1Z"/><path class="cls-8" d="M334.34,31.36c-2.64,3.93-5.14,7.8-7.85,11.51a2.68,2.68,0,0,1-2.61,0,2.79,2.79,0,0,1-.52-2.62q2.86-5.75,6.15-11.27a2.69,2.69,0,0,1,2.46-.9C332.83,28.62,333.28,29.82,334.34,31.36Z"/><path class="cls-8" d="M239.56,169.32c0-3.45,1.77-6.67,3.75-6.67,3.62,0,7.14,3.06,7.2,6.29s-2.87,6.65-5.66,6.77S239.61,173,239.56,169.32Z"/><path class="cls-8" d="M242,144.72c.11-4.64,3.43-8.62,7.09-8.5,2.74.09,4.48,2,4.44,5-.07,4.48-4,8.9-7.8,8.75C243.52,149.83,242,147.69,242,144.72Z"/><path class="cls-8" d="M260.53,114.78a9.17,9.17,0,0,1-5.75,7.65c-2.43,1-4.1.08-5.2-2-1.81-3.49-.21-9.73,3.25-11.75a6,6,0,0,1,4.64-.57C259.84,109.09,260.73,111.44,260.53,114.78Z"/><path class="cls-6" d="M122.37,212.87c-1,3.62-1.85,7.26-3,10.83-.25.8-1.32,1.49-2.16,1.94-8.29,4.41-11.32,11.32-9.78,20.84a44,44,0,0,1-4.65-.42c-20.18-4-40.36-7.92-60.51-12-6-1.21-11.82-2.87-17.74-4.26-2.4-.56-2.82-1.59-2.07-4.06,5.7-18.84,11.2-37.74,16.77-56.62.08-.29.15-.58.23-.87,1.48-5.26,1.46-5.16,6.74-4q41.93,8.87,83.9,17.59a8.19,8.19,0,0,1,6.47,4.87c4.33,8.78,9,17.37,13.56,26a13.64,13.64,0,0,1,.61,1.58l-26.1,8.4a19.25,19.25,0,0,1,.19-2.31c1.1-5.07,2.29-10.13,3.32-15.22a8.57,8.57,0,0,0-.44-2.86c-1.1.25-2.49.16-3.24.81a60.73,60.73,0,0,0-5.15,5.42c-2.57,2.86-5.1,5.75-7.64,8.63l-.79-.36c.43-2.45.83-4.91,1.31-7.35.58-2.94,1.33-5.85,1.79-8.8.12-.79-.57-1.7-.88-2.55-.93.5-2.42.81-2.69,1.55a61.49,61.49,0,0,0-2,7.82c-1.07,5-2.13,10-3.06,15a13.34,13.34,0,0,0,.24,3.41c1.64-.31,3.83-.05,4.82-1,3.07-3,5.67-6.43,8.47-9.69.81-.94,1.66-1.83,2.5-2.74Zm-25.85,8.6c.59,3.2,1,3.59,3.23,3.5,2.46-.09,1.82-2,1.9-3.32.29-4.47.5-9,.55-13.44a75,75,0,0,0-.5-9.83,3.74,3.74,0,0,0-2.11-2.72,5.13,5.13,0,0,0-3.64,1.19,8.9,8.9,0,0,0-2.38,3.39c-2.32,5.29-4.53,10.64-6.75,16-.95,2.27-1.82,4.58-3,7.63,2.1,0,4.54.54,4.88-.09C90.63,220.19,93.7,221.91,96.51,221.46ZM73,191.58c-2.41-1.06-3.81-.61-4.55,1.6s-1.77,4.46-2.32,6.77c-1.8,7.6,3.9,12.89,10,10.8,1.83-.63,2.34.29,1.88,2.06-.54,2.12-1,4.28-1.42,6.41-.31,1.39-.32,2.87,1.51,2.81a3.14,3.14,0,0,0,2.13-2c2-8.43,3.87-16.9,5.67-25.38.14-.64-.5-1.45-.78-2.19-.63.49-1.58.87-1.82,1.51-.89,2.32-1.59,4.72-2.28,7.12-.87,3-5.23,6-8,5.44-2.36-.49-3.45-3.81-2.43-7.73.43-1.63,1.1-3.2,1.65-4.81C72.52,193.24,72.74,192.49,73,191.58Zm47.73-.63-1.93,7.82.81.31,8.92-6.54Z"/><path class="cls-6" d="M19.43,116.45c.59,1.54,1.14,3.09,1.76,4.62,4.52,11.09,8.95,22.22,13.63,33.24a20.08,20.08,0,0,1,.66,15.19c-5.71,17.35-10.63,35-15.86,52.47l-1,3.48A17.61,17.61,0,0,1,16.68,223c-5.4-11.34-10.87-22.66-16-34.11a11.11,11.11,0,0,1-.29-6.65C3.15,170.58,6.06,159,9.19,147.4c2.5-9.25,5.37-18.39,8.1-27.58.34-1.13.84-2.2,1.26-3.3Z"/><path class="cls-6" d="M94.32,136.85c3.49,5.36,7,10.08,9.75,15.16s4.92,10.51,7.33,15.79l1.16-.49c-2.07-5.08-4.07-10.2-6.26-15.23a47.5,47.5,0,0,0-3.3-5.71c-1.84-3-1.7-4.26,1.06-7.35,9.69,9,12.46,22.07,18.66,33.09l1.06-.53q-4.38-10.24-8.77-20.47a11.27,11.27,0,0,0-1.46-2.62c-2-2.46-1.53-4.72.88-7.67,1.81,2.53,3.91,4.68,5.08,7.24,3.69,8.09,7,16.33,10.5,24.52.6,1.42,1.16,2.87,2,4.86-2.05-.24-3.52-.29-4.94-.59-13.17-2.8-26.26-6.14-39.54-8.23-5.48-.86-6.55-3.5-8-7.88-2.14-6.61-5.23-12.92-8.15-19.26-1.56-3.39-1.25-5.72,2.23-8.7,7.71,10.11,11,21.95,13.66,34l.87-.1c-.28-2.52-.2-5.15-.91-7.53-1.69-5.63-3.64-11.2-5.71-16.7-1.05-2.8.81-4.17,2.36-6.53,7.32,10,10.27,21.59,15.35,32.33a19.84,19.84,0,0,0-.57-3.47c-2-5.84-4.08-11.69-6.32-17.45C90.76,143.25,90.79,142,94.32,136.85Z"/><path class="cls-6" d="M83.82,133.07l-3.65,5.86c-1.45-2.09-2.63-3.85-3.88-5.56-2.85-3.92-3.45-3.87-5.78.35-.47.84-1,1.68-1.63,2.87l-6.65-7.35-4.16,8.66-6.76-10.22-1,.38L46.74,136l-6-10.88-3.59,8.79-7-12.45-3.39,6-4.57-11.27c5,.81,9.23,1.44,13.41,2.17q23.59,4.13,47.16,8.32,14.72,2.64,29.38,5.53a4.32,4.32,0,0,1,2.68,1.93,35.76,35.76,0,0,1,2.3,6.59c-4.81-4.68-4.61.85-6.49,2.91-1.4-1.66-2.62-3.15-3.88-4.59-2.79-3.19-3.62-3.06-5.29.73-.27.6-.66,1.15-1.26,2.18-1.45-1.78-2.64-3.3-3.9-4.76-2.37-2.73-3.31-2.59-4.68.65L90,141.59Z"/><path class="cls-6" d="M57.15,160.17a48.77,48.77,0,0,0-1.8-7.15,61,61,0,0,0-5.51-11.28c-2.92-4.27-.71-7.4,1-11,3.86,2.76,14.68,27.47,14.54,33.32-3.13-.46-6.24-.87-9.34-1.38-4.13-.68-8.26-1.38-12.36-2.23a4.32,4.32,0,0,1-2.82-1.67c-4.09-8.77-8-17.64-12-26.43-1.16-2.51-.66-4.54,1.48-7.31L47.65,159c-.08-1.15.14-2.35-.27-3.27q-3.77-8.47-7.8-16.83c-1.49-3.08-1.16-5.84,1.74-9.13,5.33,10.18,11.84,19.54,14.69,30.78Z"/><path class="cls-6" d="M62.66,131.81c8.63,10.73,13.57,22.36,17.45,35.35-4.5-.88-8.46-1.55-12.36-2.51-.63-.15-1.1-1.51-1.39-2.39-2-6.05-3.59-12.25-5.94-18.15-1.17-2.95-1.76-5.33.13-8A35.87,35.87,0,0,0,62.66,131.81Z"/><path class="cls-6" d="M97.36,203c0,4.8.12,8.89-.17,13,0,.45-2.47.87-3.81.95a3.26,3.26,0,0,1-.88-2.43c.9-3,2-6,3.19-9A15.93,15.93,0,0,1,97.36,203Z"/><path class="cls-9" d="M117.56,247a329.48,329.48,0,0,0,60.65,3.59c20-.63,39.61-3.55,59.29-7.59-2,3.53-4.84,6.6-5.52,10.08s.76,7.44,1.36,11.84c-2.76.79-6.42,1.93-10.12,2.89a227,227,0,0,1-53.9,7,214.74,214.74,0,0,1-41.67-3.11l-1.18-.2c-6.82-1-6.74-1-7.27-7.8C118.79,258.41,118.17,253.08,117.56,247Z"/><path class="cls-9" d="M209.31,211.73c14.31-.68,28.22,1.72,41.91,5.59a36.42,36.42,0,0,1,6.93,2.77,2.93,2.93,0,0,1,.85,2.73c-1.34,3.22-2.95,6.33-4.57,9.42a5.6,5.6,0,0,1-2,2.19,59.39,59.39,0,0,1-22.81,7.6c-6.53.81-13,2.24-19.49,3.12a326,326,0,0,1-72.27,1.31c-6.83-.6-13.62-1.64-20.42-2.52a5.15,5.15,0,0,1-3.75-7.14c1-2.33,2.7-4.89,4.81-6.15,8.3-5,17.54-7.85,26.94-9.68,16.42-3.21,33-5.86,49.5-8.48C199.68,211.75,204.53,212,209.31,211.73Zm-2.44,5.51c-4.79,0-9.6-.32-14.35.07-7.65.64-15.26,1.73-22.88,2.68a191.65,191.65,0,0,0-42.81,10.87,4.28,4.28,0,0,0-3.07,4.54c.12,1.38,1.34,3.41,2.53,3.83,4.93,1.75,10,3.78,15.11,4.25a225.77,225.77,0,0,0,26.54.67c18.47-.47,36.93-1.47,55.11-5,8.69-1.67,17.26-4,25.78-6.42,2.9-.82,6.46-1.94,6.49-6,0-2.91-2.81-5.13-7.68-5.93C234.14,218.6,220.63,216.43,206.88,217.24Z"/><path class="cls-9" d="M244.91,274c-3.6,1.08-7.18,2.22-10.79,3.23A229.24,229.24,0,0,1,187,285.33c-12.32.79-24.72,1.07-37.07.7-9.43-.28-18.85-1.8-28.23-3-3.85-.51-5.69-3-5.76-6.53,0-2.24.69-3.22,3.22-2.82,8.27,1.32,16.54,2.76,24.87,3.55a230.08,230.08,0,0,0,42.14-.2,222,222,0,0,0,42.26-8c.76-.22,1.7,0,2.35-.35,6.38-3.52,9.63,2.26,14.14,4.28Z"/><path class="cls-9" d="M204.51,218.81c15-.44,29.68,1.46,44.37,3.86a9.4,9.4,0,0,1,3.28,1.39c2.46,1.52,2.62,4.29,0,5.72a33.42,33.42,0,0,1-10,3.75c-14.45,2.37-28.93,4.63-43.46,6.4a247,247,0,0,1-26.85,1.63c-10.73.12-21.49-.19-32.21-.8-3.9-.22-7.74-1.77-11.55-2.91-.87-.26-2.21-1.51-2.09-2A4.49,4.49,0,0,1,128,233a69.83,69.83,0,0,1,10.55-3.32c14.9-3.17,29.8-6.42,44.8-9.09C190.3,219.36,197.46,219.37,204.51,218.81Zm40,9.21c-1.7-3.08-4.56-3.86-7.41-4.18-9-1-18-2.26-27.07-2.49-17.9-.45-35.68,1-53.05,5.7-6.23,1.67-12.4,3.62-18.51,5.7-1.09.37-1.76,2-2.62,3,1.23.8,2.43,2.25,3.69,2.29,9.26.34,18.54.81,27.79.46q20.91-.81,41.76-2.73a239.56,239.56,0,0,0,25.09-4C237.64,231.07,241.69,231.46,244.5,228Z"/><path class="cls-9" d="M243.4,228.08c-8.25,6-96.46,11.46-104,6.38a9.58,9.58,0,0,1,2.51-1.5c13.75-2.87,27.42-6.3,41.29-8.3a151.62,151.62,0,0,1,38.18-1c5.14.57,10.32.82,15.47,1.31C239.28,225.23,241.85,225.37,243.4,228.08Zm-81.28,4.38.18,1c2.94,0,5.87-.08,8.81,0,14.35.43,28.42-2.22,42.57-4,.56-.07,1-.64,1.57-1-.54-.45-1.07-.93-1.63-1.35-.13-.1-.39,0-.59,0-16.65-1-33.05.86-49.31,4.34A5.61,5.61,0,0,0,162.12,232.47Z"/><path class="cls-9" d="M203.28,229.83,173,232.57l-.14-1.44c10.07-1.48,20.21-2.15,30.37-2.72Z"/></g></g></svg>