<svg xmlns="http://www.w3.org/2000/svg" viewBox="0 0 155.18 215.81"><defs><style>.cls-1{fill:#eee9fb;}.cls-2{fill:#a08ce3;}</style></defs><title>pensioners</title><g id="Layer_2" data-name="Layer 2"><g id="Layer_1-2" data-name="Layer 1"><path class="cls-1" d="M107.47,123.82c-6.37,7.34-20.07,9-27.38,2.49-3.38,4.64-7.6,8.6-12.92,10.29a16.54,16.54,0,0,1-7.46,1.87,4.34,4.34,0,0,1-4.15-3.16,53.29,53.29,0,0,1-1.08-9.54,15.9,15.9,0,0,1-.17-2.25C27.48,129.12,1.23,142.27,0,168.08c-.73,15.65,17.89,45.33,71.35,47.6,56.65,2.4,82.08-29.56,83.65-45.6C157.41,145.62,133.2,130.21,107.47,123.82Z"/><path class="cls-2" d="M96,78c5,1.14,8.61-1.91,9-6.86.31-4.42-1.58-9-6.71-8.44a1.05,1.05,0,0,1-1-.35c-3.28.64-6.1,2.32-7.27,5.94C88.5,73,91.46,77,96,78Zm-1.39-6.69a2.35,2.35,0,0,1,1.47-1.92l.2-.09a2.49,2.49,0,0,1,2.83,1.19,2.34,2.34,0,0,1-.52,2.87,2.62,2.62,0,0,1-1.19.59,1.65,1.65,0,0,1-1.8,0,2.15,2.15,0,0,1-1-2.37,2.35,2.35,0,0,1,0-.26Z"/><path class="cls-2" d="M41.22,54.62Q36.61,57.24,32,59.76q-.1,1.38-.12,2.76a57.2,57.2,0,0,0,29.83-8.16l-3.2-.09c-1.17,0-1.54-2-.29-2.13a31.9,31.9,0,0,1,7.37-.3c1.33-.94,2.63-1.92,3.89-3A71.39,71.39,0,0,0,82.17,35c2.22-3.16,4.15-6.22,3.71-10.25-.38-3.47-2.47-6.71-4.3-9.67-.15,6.46-3,12.6-6.81,17.82-4.07,5.64-9.14,11.91-15.53,15-1.22.58-2.29-1.21-1.07-1.83,5.93-3,10.83-8.94,14.65-14.27A33.2,33.2,0,0,0,79.41,13q-2.25-.06-4.51.09a.81.81,0,0,1-.1.72c-7.55,12-17.37,23.09-29.3,30.92-.93.61-2.07-.86-1.19-1.55C55.46,34.49,65.17,25.06,73,13.23a46.75,46.75,0,0,0-17.5,5.49C42.36,25.91,34,41.64,32.18,57.25q4-2.21,8-4.36A1,1,0,0,1,41.22,54.62Z"/><path class="cls-2" d="M81.54,13.05v.39a.76.76,0,0,1,1.07.08l0,0c4.08,5.09,7.55,11,4.77,17.56-.2.46-.41.92-.64,1.38.47,7,4.18,12.76,9.5,16.92a14.66,14.66,0,0,1,6,1c1.2.53.42,2.1-.6,2.2h-.52c6.35,3.42,16.58,7.12,23.1,4.11a1.4,1.4,0,0,1,.82-.13,51.84,51.84,0,0,0-4.51-17.64,1.08,1.08,0,0,1-.37.18c-7.16,2-14.83-2.52-18.72-8.31-.73-1.09,1-2,1.72-1,4.19,5.52,9.93,6.94,16.45,7.24a39.46,39.46,0,0,0-4.71-7,47.63,47.63,0,0,0-7-6.77A9.06,9.06,0,0,0,109.71,26a1,1,0,0,1-1.47,1.47,8.41,8.41,0,0,1-2.82-6.14,48.38,48.38,0,0,0-12.58-6.13C88.7,26.91,95.07,36.5,103,44.76a1.14,1.14,0,0,1-1.61,1.61c-8.34-7.8-16.52-20.23-10.54-31.73A48.59,48.59,0,0,0,81.54,13.05Z"/><path class="cls-2" d="M76.06,114.77A1.1,1.1,0,1,1,78,113.66a9.05,9.05,0,0,1,.45.8h0c1.09-.43,4.26-1.15,3.07-3.06-.35-.55-1.55-.81-2.13-1a13.45,13.45,0,0,0-3.4-.72,5.35,5.35,0,0,0-2.61.41q-1.71.7-1.16,2.75a1,1,0,0,1,0,1.72c-1.6,1-2.58-.12-2.9-1.5-6.21-.18-16.09,7.36-9.09,22.2a20.34,20.34,0,0,0,15.72-10.09C77.06,121.74,77.78,118.27,76.06,114.77Zm-1.83.73A51.84,51.84,0,0,1,69,120.27c-1,.82-2.38-.49-1.44-1.44a31,31,0,0,1,5.66-4.67c.84-.53,1.66.64,1,1.33Z"/><path class="cls-2" d="M73.14,0C54.71,0,38.72,14.1,32,27.5c-16.75,33.2-7.24,56.75,4,70,9.64,11.36,22.91,15.75,24.36,16.21a13,13,0,0,1,6.17-2.6C56.81,107.54,47,103.11,40.4,95A50.9,50.9,0,0,1,29.49,68.21C28.42,56.5,32,45,37.32,34.68A42.77,42.77,0,0,1,60.93,13.5c21-8.12,46.13-.42,58.88,18.34,9.69,14.25,10.43,35.23,4.42,51-6.23,16.32-20.61,25.87-37.18,28.92a24.25,24.25,0,0,1,6.69,2.3c6.31-1.48,39.4-11,41.21-48.53C135.81,47.91,126.71,0,73.14,0Z"/><path class="cls-2" d="M44.61,95.87c6.86,7,16.39,10.49,25.33,13.94,1.56-2.3,4.68-2.83,7.3-2.42,2,.32,5.16.86,6.46,2.76,19.81-3,36.09-14.83,40.31-35.18a65.45,65.45,0,0,0,1.29-15.92c-3.66,2.58-8.24,1.69-12.38.73a51.26,51.26,0,0,1-14.35-5.39,32.44,32.44,0,0,1-3-2,34.42,34.42,0,0,0-3.87.4c-1.28.2-2.35-1.65-1-2.28a11.1,11.1,0,0,1,1.89-.62A24.58,24.58,0,0,1,85,35.59,68.77,68.77,0,0,1,74.21,48a65.77,65.77,0,0,1-5.44,4.58,1.14,1.14,0,0,1-.56,2.12,13.08,13.08,0,0,1-2.32-.07A59.29,59.29,0,0,1,31.8,65.09a45.72,45.72,0,0,0,1.29,9.6A46.67,46.67,0,0,0,44.61,95.87ZM88.47,91c-2.6,3.41-10.17,4.87-13.21,1.32-.58-.67,0-2,1-1.64a9.63,9.63,0,0,0,6,.6c1.87-.47,3.4-1.75,5.31-1.93A1.1,1.1,0,0,1,88.46,91ZM41.58,69.27c2.71-3,7-2.58,10.53-1.87a1.17,1.17,0,0,1,.54.25,10.89,10.89,0,0,1,2.42-4c.46-1,1.48-2.11,2.63-2a1.1,1.1,0,0,1,.89-1.07c6-1.65,12.72.48,15,6.29,3.37-3.19,10.65-3.29,14.12-.72,2.1-4.42,6.89-7.4,11.81-6.42,4.36-.67,7.31,3.16,8.18,7.8,2.71-.78,5.63-1.13,8.11.51,1.88,1.24,3.68,4.74,1.62,6.57a1.08,1.08,0,0,1-1.82-.75c-.11-.89.17-1.69-.25-2.54a3.59,3.59,0,0,0-2.42-1.8,10.13,10.13,0,0,0-5,.3c.24,6.09-3,12.49-11.2,11.55-6.26-.72-11-5.67-10-12.09l-.2-.1-.19-.13a1.49,1.49,0,0,1-.54-.76c-1.88-1.39-5.24-1.48-7.34-1a6.19,6.19,0,0,0-4.12,3.06c.41,5.34-2.37,10.13-8,11.5a11.68,11.68,0,0,1-14-8.27,10.26,10.26,0,0,1-.2-3.87,1.27,1.27,0,0,1-.71.08c-2.17-.37-4.61-.94-6.69.07a3.22,3.22,0,0,0-1,5.41c.82.9-.3,2.56-1.36,1.77a5.16,5.16,0,0,1-.77-7.77Z"/><path class="cls-2" d="M89.5,115.15c-1.83-.61-3.75-.9-5.59-1.41a4.58,4.58,0,0,1-1.69,1.74A19.89,19.89,0,0,1,89,118.93c.89.71-.27,2.16-1.21,1.56a31.65,31.65,0,0,0-7.08-3.59.85.85,0,0,1-.55-.53,7.62,7.62,0,0,1-.92.21,13.33,13.33,0,0,1,0,6.37c5.91,4.42,12.71,5.72,21,1.8C100,122.4,95.46,117.13,89.5,115.15Z"/><path class="cls-2" d="M64.63,79.12c5.3-.52,7.84-5.28,6.64-10.19C70,63.84,65,62.5,60.43,62.88c-3.45,1.77-6.13,5-5.51,9.07A8.73,8.73,0,0,0,64.63,79.12Zm-4.9-8a6.9,6.9,0,0,1,2-2,2.39,2.39,0,0,1,3.17,1c1.3,2.22-1.25,4.71-3.49,3.79a2.53,2.53,0,0,1-1.65-2.84Z"/><path d="M36.78,171H34.13V160.34H29V171H26.37V158.2H36.78Z"/><path d="M43.3,171.18a4.67,4.67,0,0,1-3.41-1.28,4.56,4.56,0,0,1-1.31-3.42v-.21a5.74,5.74,0,0,1,.55-2.56A4.06,4.06,0,0,1,40.7,162a4.4,4.4,0,0,1,2.32-.61,3.94,3.94,0,0,1,3.07,1.23,5,5,0,0,1,1.12,3.49v1H41.15a2.36,2.36,0,0,0,.74,1.49,2.24,2.24,0,0,0,1.57.56,2.74,2.74,0,0,0,2.29-1.06l1.25,1.4a3.8,3.8,0,0,1-1.55,1.26A5.08,5.08,0,0,1,43.3,171.18ZM43,163.37a1.59,1.59,0,0,0-1.23.51,2.65,2.65,0,0,0-.6,1.47h3.53v-.2a1.89,1.89,0,0,0-.46-1.31A1.64,1.64,0,0,0,43,163.37Z"/><path d="M56.9,171H54.35v-3.65H51.19V171H48.65v-9.51h2.54v3.78h3.16v-3.81H56.9Z"/><path d="M62.82,169.13a1.67,1.67,0,0,0,1.14-.39,1.35,1.35,0,0,0,.46-1H66.8a3.26,3.26,0,0,1-.53,1.77,3.49,3.49,0,0,1-1.42,1.25,4.45,4.45,0,0,1-2,.44,4.13,4.13,0,0,1-3.22-1.3,5.13,5.13,0,0,1-1.18-3.58v-.17a5.07,5.07,0,0,1,1.17-3.51,4.08,4.08,0,0,1,3.21-1.31,4,4,0,0,1,2.86,1,3.58,3.58,0,0,1,1.09,2.7H64.4a1.73,1.73,0,0,0-.46-1.2,1.7,1.7,0,0,0-2.4.07l-.1.11a3.75,3.75,0,0,0-.45,2.1v.26a3.8,3.8,0,0,0,.45,2.11A1.55,1.55,0,0,0,62.82,169.13Z"/><path d="M74,161.49h2.54V171H74v-5.87L70.8,171H68.25v-9.51H70.8v5.86Z"/><path d="M78.07,166.16a5.64,5.64,0,0,1,.54-2.52,4,4,0,0,1,1.57-1.71,4.58,4.58,0,0,1,2.38-.61,4.33,4.33,0,0,1,3.14,1.18,4.73,4.73,0,0,1,1.36,3.2v.65a5,5,0,0,1-1.22,3.51,4.74,4.74,0,0,1-6.56,0,5.05,5.05,0,0,1-1.23-3.59Zm2.54.18a3.55,3.55,0,0,0,.51,2.07,1.83,1.83,0,0,0,2.9,0,3.89,3.89,0,0,0,.52-2.27,3.52,3.52,0,0,0-.52-2.06,1.68,1.68,0,0,0-1.46-.73,1.66,1.66,0,0,0-1.44.73,4,4,0,0,0-.51,2.26Z"/><path d="M96.89,171H94.34v-3.65H91.18V171H88.64v-9.51h2.54v3.78h3.16v-3.81h2.55Z"/><path d="M103.23,171.18a4.67,4.67,0,0,1-3.41-1.28,4.56,4.56,0,0,1-1.31-3.42v-.21a5.74,5.74,0,0,1,.55-2.56,4.06,4.06,0,0,1,1.57-1.74,4.4,4.4,0,0,1,2.32-.61,3.94,3.94,0,0,1,3.07,1.23,5,5,0,0,1,1.12,3.49v1h-6.06a2.36,2.36,0,0,0,.74,1.49,2.24,2.24,0,0,0,1.57.56,2.74,2.74,0,0,0,2.32-1.06l1.25,1.4a3.8,3.8,0,0,1-1.55,1.26A5.08,5.08,0,0,1,103.23,171.18Zm-.29-7.81a1.59,1.59,0,0,0-1.23.51,2.65,2.65,0,0,0-.6,1.47h3.53v-.2a1.89,1.89,0,0,0-.46-1.31,1.64,1.64,0,0,0-1.24-.47Z"/><path d="M117.15,166.34a5.71,5.71,0,0,1-1,3.52,3.2,3.2,0,0,1-2.69,1.32,3,3,0,0,1-2.33-1v4.48h-2.54V161.49H111l.09.93a3,3,0,0,1,2.41-1.11,3.22,3.22,0,0,1,2.73,1.3,5.86,5.86,0,0,1,1,3.59Zm-2.54-.19a3.77,3.77,0,0,0-.47-2.05,1.53,1.53,0,0,0-1.37-.72,1.66,1.66,0,0,0-1.64.92v3.91a1.69,1.69,0,0,0,1.66.94q1.82,0,1.82-3Z"/><path d="M121.44,164.27h1.82a5.29,5.29,0,0,1,2.16.41,3.19,3.19,0,0,1,1.43,1.18,3.24,3.24,0,0,1,.5,1.79,3,3,0,0,1-1.11,2.42,4.62,4.62,0,0,1-3,.92h-4.32v-9.51h2.55Zm0,2v2.63h1.8a1.73,1.73,0,0,0,1.16-.35,1.19,1.19,0,0,0,.4-.95,1.25,1.25,0,0,0-.4-1,1.68,1.68,0,0,0-1.17-.36Zm10,4.68h-2.54v-9.51h2.54Z"/></g></g></svg>