<svg xmlns="http://www.w3.org/2000/svg" width="132.969" height="56.938" viewBox="0 0 132.969 56.938">
  <metadata><?xpacket begin="﻿" id="W5M0MpCehiHzreSzNTczkc9d"?>
<x:xmpmeta xmlns:x="adobe:ns:meta/" x:xmptk="Adobe XMP Core 5.6-c138 79.159824, 2016/09/14-01:09:01        ">
   <rdf:RDF xmlns:rdf="http://www.w3.org/1999/02/22-rdf-syntax-ns#">
      <rdf:Description rdf:about=""/>
   </rdf:RDF>
</x:xmpmeta>
                                                                                                    
                                                                                                    
                                                                                                    
                                                                                                    
                                                                                                    
                                                                                                    
                                                                                                    
                                                                                                    
                                                                                                    
                                                                                                    
                                                                                                    
                                                                                                    
                                                                                                    
                                                                                                    
                                                                                                    
                                                                                                    
                                                                                                    
                                                                                                    
                                                                                                    
                                                                                                    
                           
<?xpacket end="w"?></metadata>
<defs>
    <style>
      .cls-1, .cls-2 {
        fill: #fff;
      }

      .cls-2 {
        fill-rule: evenodd;
      }
    </style>
  </defs>
  <rect id="Rounded_Rectangle_2" data-name="Rounded Rectangle 2" class="cls-1" x="17.688" y="9" width="8.625" height="45" rx="4.313" ry="4.313"/>
  <rect id="Rounded_Rectangle_2_copy" data-name="Rounded Rectangle 2 copy" class="cls-1" y="27" width="45" height="9" rx="4.313" ry="4.313"/>
  <path class="cls-2" d="M182.119,18.262a120.274,120.274,0,0,0-16.034-.015c-1.285.084-2.887,0.63-3.443,1.865-1.335,2.96-4.755,7.938-6.137,10.877-14.529-.618-30.3-0.621-44.842-0.579-3.138.1-4.527,3.932-3.273,7.072a200.68,200.68,0,0,0,10.288,21.871,4.791,4.791,0,0,0,3.941,2.37c8.377,0.119,16.354.119,24.531,0.119a6.076,6.076,0,0,0,5.557-3.424c5.038-9.4,11.624-23.089,16.025-32.769a120.183,120.183,0,0,1,13.387.145C187.241,26.14,187.218,18.606,182.119,18.262Zm-64.455,25.26-0.049-.086a3.838,3.838,0,0,1,.656-4.8l0.05-.039a4.5,4.5,0,0,1,5.935,0,3.932,3.932,0,0,1,.784,4.624h0a3.108,3.108,0,0,1-.319.5,4.438,4.438,0,0,1-1.313,1.224A4.379,4.379,0,0,1,117.664,43.523Zm10.471,12.508c-5.41,0-5.4-7.926,0-7.926S133.536,56.031,128.135,56.031Zm3.049-14.383V41.585a4.2,4.2,0,0,1,8.394,0v0.063A4.2,4.2,0,0,1,131.184,41.648Zm14.493,11.725a4.082,4.082,0,0,1-1.929,2.369,4.86,4.86,0,0,1-3.234.4l-0.058-.008a3.913,3.913,0,0,1-2.931-2.768l-0.009-.055a4.419,4.419,0,0,1,.423-3.054,4.223,4.223,0,0,1,2.508-1.821,4.425,4.425,0,0,1,2.807.218,2.933,2.933,0,0,1,.4.168c0.01,0.005.023,0.008,0.033,0.014,0.034,0.019.072,0.053,0.108,0.075a3.956,3.956,0,0,1,.5.344c0.038,0.031.071,0.07,0.109,0.1a5.161,5.161,0,0,1,.43.42c0.073,0.081.131,0.165,0.2,0.251s0.164,0.2.23,0.292c0.027,0.039.039,0.085,0.064,0.125s0.052,0.1.078,0.155A3.936,3.936,0,0,1,145.677,53.372Zm7.453-10.718c0,0.016,0,.031-0.008.047a2.957,2.957,0,0,1-.918,1.63c-0.034.038-.06,0.083-0.095,0.119a3.855,3.855,0,0,1-3.137,1.1,4.646,4.646,0,0,1-1.013-.086,4.254,4.254,0,0,1-2.508-1.821,4.09,4.09,0,0,1-.423-3.054c0-.016,0-0.031.008-0.047a4.017,4.017,0,0,1,2.931-2.768,4.516,4.516,0,0,1,4.084,1.019l0.058,0.047a3.492,3.492,0,0,1,1.021,3.809h0ZM126.4,64.5c-0.075-.006-0.148-0.032-0.222-0.035a4.838,4.838,0,0,0-3.623,1.457c-0.04.035-.075,0.074-0.113,0.11a8.249,8.249,0,0,0-.616.681,2.256,2.256,0,0,0-.368.762,4.207,4.207,0,0,0-.2.426,4.616,4.616,0,0,0-.187,1.744c0,0.07.009,0.141,0.011,0.212,0.016,0.144.025,0.287,0.055,0.429a3.955,3.955,0,0,0,.075.588,4.214,4.214,0,0,0,1.337,2.075,4.387,4.387,0,0,0,3.74,1.366,5.231,5.231,0,0,0,2.424-.576A4.9,4.9,0,0,0,130.805,67,5.5,5.5,0,0,0,126.4,64.5Zm20.289,0.45c-0.032-.01-0.065-0.011-0.1-0.02a5,5,0,0,0-2.587-.144,4.816,4.816,0,0,0-2.545,1.49,6.028,6.028,0,0,0-.705.771,4.8,4.8,0,0,0-.884,2.191c-0.018.061-.047,0.118-0.062,0.18a4.527,4.527,0,0,0,4.283,5.44,5.471,5.471,0,0,0,4.766-1.382,4.873,4.873,0,0,0,1.274-2.313,3.578,3.578,0,0,0,.321-1.447A5.052,5.052,0,0,0,146.69,64.95Z" transform="translate(-53 -18)"/>
</svg>
