<svg xmlns="http://www.w3.org/2000/svg" viewBox="0 0 183.12 47"><title>logo-small</title><g data-name="Layer 1"><path d="M15.87 38.86a17.3 17.3 0 0 0-2.16-.1 84.23 84.23 0 0 0-.53-10c-.17-1.74-.4-3.47-.65-5.2-.21-1.46-.09-3.16-1.38-4.09a1.29 1.29 0 0 0-1.58.2c-2.43 2.63-3.36 6.3-4.22 9.69a83.13 83.13 0 0 0-2.1 10.5c-.7.14-1.38.3-2.06.51a1.28 1.28 0 0 0-.73.26.75.75 0 0 0-.32.37 1 1 0 0 0-.06.19 3.89 3.89 0 0 0 .43 2.57 4 4 0 0 0 1.58 2.07c.37.17 1 .07 1-.43a5.17 5.17 0 0 0-.45-2.26A8.88 8.88 0 0 1 2.32 42a58.08 58.08 0 0 0 6 0 55.67 55.67 0 0 0 6.47-.41 20.66 20.66 0 0 1-.18 3.24c-.09.78 1.12 1.06 1.46.39a10.11 10.11 0 0 0 1.07-5.1 1.27 1.27 0 0 0-1.27-1.26zm-7.57.31c-1 .08-1.94.17-2.92.3a58.29 58.29 0 0 0 2.3-8.17 36 36 0 0 1 2.39-7.79c.32 2.18.32 4.53.45 6.59.19 2.94.18 5.89.26 8.83zM29.67 38.85c-.13-.91-.25-1.82-.41-2.73-.35-2-.61-4.08-1.13-6.09a42.18 42.18 0 0 0-3.68-9.73 1.17 1.17 0 0 0-1.83-.24 11.67 11.67 0 0 0-1.92 4.23c-.61 1.94-1.15 3.9-1.61 5.88-.88 3.8-1.7 8-1.17 11.88.11.78 1.38.73 1.53 0 .44-2.15.73-4.32 1.07-6.49a15.66 15.66 0 0 0 2.88 0 8.23 8.23 0 0 0 3.15-.43c.15.54.3 1.08.43 1.62.41 1.75 1.14 3.53 1.43 5.28.16.93 1.57.53 1.41-.39s-.03-1.87-.15-2.79zm-6-5.79c-.9.16-1.84.25-2.75.44.13-.68.26-1.36.41-2 .4-1.76.88-3.5 1.36-5.24.25-.89.46-1.84.78-2.75a52.85 52.85 0 0 1 2.13 8c.11.46.22.91.35 1.36a8.9 8.9 0 0 0-2.33.19zM34.69 20.21c-.05-.34-.12-.68-.2-1-.28-1.12-1.3-.61-1.61 0-1.25 3.49-.88 7.79-.76 11.43 0 1.26.11 2.51.21 3.76a1.46 1.46 0 0 0 .23 2.6 21.59 21.59 0 0 0 .74 5.27 1.29 1.29 0 0 0 1.87.76c1-.73.53-2.25.44-3.32s-.16-2.32-.22-3.48c4.26-1.77 8.55-5.07 8.38-9.94a6.58 6.58 0 0 0-9.08-6.08zm.55 13.05v-.52c-.14-2.34-.18-4.67-.26-7 0-1.06 0-2.14-.05-3.22a6.82 6.82 0 0 1 3.78.7c1.53.87 1.73 2.72 1.79 4.3.06 2.55-2.69 4.53-5.26 5.74zM55.19 20.14v.44c-1.34 3.55-2.36 7.24-3.71 10.8-.67 1.77-1.39 3.52-2.23 5.23a13.85 13.85 0 0 1-.87 1.39c0-.34-.05-.68-.08-1-.14-2.12-.21-4.25-.32-6.37-.19-3.78.18-7.85-.55-11.56-.24-.64-1.34-1-1.63 0-1.08 3.59-.85 7.84-.9 11.56 0 1.89 0 3.78.14 5.66s0 4.18.73 6a1.45 1.45 0 0 0 2 .74 1.24 1.24 0 0 0 .35-.17c2.9-2.06 4.25-6.46 5.37-9.69.33-.94.67-1.92 1-2.92q0 .6-.06 1.19c-.11 1.89-.24 3.77-.31 5.66-.06 1.7-.42 3.63.22 5.24.31.8 1.53 1.2 2 .26.74-1.49.64-3.16.71-4.8.07-1.89.09-3.77.11-5.66 0-4 .15-8-.18-12a.9.9 0 0 0-1.79 0zM93.86 20.88c-.76 0-1 .51-1-.47a6.73 6.73 0 0 0-.18-1.41 7.32 7.32 0 0 0-1.42-2.89 16.25 16.25 0 0 0-5-4c-1.51-.88-3.75-1.65-5.4-.61a32.72 32.72 0 0 0-5.05 4.64 52.91 52.91 0 0 0-9.5 11.81 24.24 24.24 0 0 0-2.23 6.58c-.44 2-1 4.28-.56 6.34.39 1.89 1.39 3.52 3.35 4 2.12.5 5.12-.25 7.21-.76 4.74-1.16 8.46-4.26 11.91-7.54a70.72 70.72 0 0 0 8.76-10.15 3.65 3.65 0 0 0 1.85-3c.15-1.67-1.34-2.5-2.74-2.54zM81.37 13.5a11.15 11.15 0 0 1 3.23 7.31c0 .41-.92-.5-1.11-.63L81.76 19c-1.19-.82-2.39-1.62-3.62-2.38a20.32 20.32 0 0 1 3.23-3.12zm-7.61 7.67l.18-.2a13.2 13.2 0 0 1 3.11 3 11.62 11.62 0 0 1 1.5 3.7 23.65 23.65 0 0 1-3.72-2.72A11.34 11.34 0 0 0 72 23.23c.57-.71 1.17-1.4 1.76-2.06zm19.51 4.76a.45.45 0 0 0-.06.14c-1.95 2.09-3.94 4.14-6 6.13-2.77 2.69-5.58 5.81-8.83 7.92A19.5 19.5 0 0 1 73 42.43c-1.83.52-5.44 1.51-6.81-.34-1.19-1.62-.65-4-.31-5.83a37.56 37.56 0 0 1 1.36-5.39 23.57 23.57 0 0 1 3.94-6.7c1.11.93 2.42 1.69 3.53 2.6s2.57 2.33 4.08 2.7a.82.82 0 0 0 .79-.21c1.21-1.27 0-4-.63-5.3a9.09 9.09 0 0 0-4-4.18c.83-.87 1.67-1.73 2.53-2.58 1.8 1.6 3.69 3.08 5.57 4.59 1 .78 2.3 1.62 3 .09.8-1.69-.32-4.1-.94-5.65a10.62 10.62 0 0 0-1.89-3.29c1.64.24 3.46 2 4.52 2.83a6.79 6.79 0 0 1 3 5.23 1.63 1.63 0 0 0 1.5 1.77c.58.06 2.42-.37 2.55.62.12.83-1.06 1.89-1.52 2.54zM91.4 9.78a.92.92 0 0 0 1.34-.55v-.16a.77.77 0 0 0 .26-.55 1.1 1.1 0 0 0-1.88-.73A1.22 1.22 0 0 0 90.77 9a1.36 1.36 0 0 0 .63.78zm.58-1s.02.02.02.04zM100 10.7a1 1 0 0 0 .29.62 1.09 1.09 0 0 0 1 .27 1.74 1.74 0 0 0 1.28-1.17 1.18 1.18 0 0 0-1.14-1.61 1.14 1.14 0 0 0-.88.32 2 2 0 0 0-.47.73 1 1 0 0 0-.08.84zM99.14 2.52h.2l.26-.11.15-.06a1.06 1.06 0 0 0 .5-1.13 1.44 1.44 0 0 0-.33-.92 1 1 0 0 0-1.24-.16 1.4 1.4 0 0 0-.51 2 1 1 0 0 0 .53.41.94.94 0 0 0 .44-.03zM122.12 20.28a39.09 39.09 0 0 0-6-7 1.07 1.07 0 0 0-.4-.38c-.92-1.41-3.15-2.13-4.72-2.09-2.64.07-4.62 2.6-6.2 4.39a32.85 32.85 0 0 0-5.21 7.62c-.95 2-2.26 5 .05 6.48.9 1.93 3.06 3.57 4.48 5a77.85 77.85 0 0 0 6.66 6.29 31.1 31.1 0 0 0 7.05 3.76c1.77.75 4.47 1.56 6.53 1a.72.72 0 0 0 .71.07c2.54-1 3-3.9 3.48-6.32.63-3.25-.36-6.69-1.47-9.73a35.47 35.47 0 0 0-4.96-9.09zm3.38 9.92c-1.77.86-3.49 1.82-5.21 2.77a11.83 11.83 0 0 1 1.44-2.32 14.79 14.79 0 0 1 2.68-2.75q.59 1.1 1.08 2.3zm-4.41-7.75a13.22 13.22 0 0 0-2.91 1.94c-1.1.93-2.25 2.41-3.62 3.07a18.5 18.5 0 0 1 2-4 16.9 16.9 0 0 1 3-3.36q.75 1.18 1.52 2.35zm-21.4 4.68c0-1.71 1.57-4.11 2.15-5.1a35.54 35.54 0 0 1 3.35-4.75 34.81 34.81 0 0 1 3.51-3.8 3.62 3.62 0 0 1 3.95-.9 7.57 7.57 0 0 1 1.65 1 19.6 19.6 0 0 1-4 3.49 5 5 0 0 0-2.3 3.79c-.14 1.61-.56 2.58-2.24 2.9a10.34 10.34 0 0 0-2.4.77 10.47 10.47 0 0 0-3.68 2.61zm24.65 16.55c-4.57.82-9.87-2.74-13.11-5.61-1.93-1.71-3.79-3.52-5.68-5.27-1.63-1.51-3.43-2.86-5-4.46a15.8 15.8 0 0 1 4.58-2.48c1.72-.54 3.33-.47 4.25-2.24a5.28 5.28 0 0 0 .39-2.13c.11-1.85.84-2.56 2.28-3.51a14.5 14.5 0 0 0 3.71-3.47c1 1.51 2 3 3 4.5a14.43 14.43 0 0 0-3.87 4.14c-.88 1.36-2.17 3.61-1.76 5.28s2.58-.1 3.17-.56c1.84-1.44 3.44-3.17 5.58-4.18q.91 1.42 1.76 2.88l-.1.06c-2.36 1.8-5.68 4.91-5.21 8.17a.89.89 0 0 0 1.3.53c2.12-1.25 4.31-2.38 6.44-3.59a31.57 31.57 0 0 1 1 3.42c.62 2.45-.27 7.3-2.73 8.53zM144.73 40c-1.12 0-2.23.14-3.35.18a19.2 19.2 0 0 1-3.27 0c-.18-1.34 0-2.87-.11-4.16s-.13-2.33-.18-3.5a26.57 26.57 0 0 0 6.12.21 1.27 1.27 0 0 0 0-2.55 28.64 28.64 0 0 0-6.2 0c-.06-2.52 0-5.07-.23-7.58A14 14 0 0 0 144 22a.84.84 0 0 0 0-1.62 13.1 13.1 0 0 0-7.92 0 .7.7 0 0 0-.31.18 1 1 0 0 0-.33 1c-1 5.09-.72 10.73-.32 15.85.13 1.68-.13 4.62 1.86 5.17a14.77 14.77 0 0 0 3.69.14 31.28 31.28 0 0 0 4.35-.3c1.44-.15 1.09-2.42-.29-2.42zM162.27 38.05c-.65.05-1.29.12-1.94.19 0-2.94-.89-6.05-1.58-8.81-.44-1.74-.94-3.45-1.55-5.13a9.21 9.21 0 0 0-2.13-4 .9.9 0 0 0-1.27 0 9.1 9.1 0 0 0-1.55 3.81c-.48 1.84-.93 3.68-1.39 5.52a80.16 80.16 0 0 0-1.9 9.43 15.87 15.87 0 0 0-1.63.23.94.94 0 0 0-.23.08.7.7 0 0 0-.7.74 12.17 12.17 0 0 0 .79 3.39 5.88 5.88 0 0 0 1.46 2.69c1.21 1.1 3-.69 1.8-1.8a7.77 7.77 0 0 1-1.72-3 23.54 23.54 0 0 0 5.85.16A63.88 63.88 0 0 0 161 41a9.74 9.74 0 0 1-1.78 4.32c-.72 1.13.88 2.27 1.8 1.39 2-1.92 2.6-4.6 2.59-7.29a1.35 1.35 0 0 0-1.34-1.37zm-7.69.82c-1.13.08-2.29.09-3.45.12a35.3 35.3 0 0 0 1.17-4.49c.52-2.07.94-4.18 1.35-6.27l.69-3.5c.09-.45.11-1 .19-1.59.3 1 .44 2.25.64 3.13.36 1.52.76 3 1.09 4.56.54 2.49.71 5.26 1.45 7.74-1.05.11-2.09.22-3.13.3zM173.23 19.88c-.93 3.71-1.9 7.41-3 11.08l-.31 1-.52-.81c-.8-1.27-1.57-2.56-2.33-3.85a76.38 76.38 0 0 1-3.56-7.47c-.46-1-1.86-.25-1.68.71a34.06 34.06 0 0 0 3 8c1 2.15 2.16 5.12 4 6.73a41.26 41.26 0 0 1-2.73 6.76c-.49.91.32 2.24 1.43 1.86 1.63-.57 1.94-2.5 2.5-4 .8-2.1 1.45-4.25 2.08-6.41a132.63 132.63 0 0 0 3-13.17c.33-1.17-1.55-1.73-1.88-.43zM182.51 35.06a9.86 9.86 0 0 0 .31-3.83v-4.21a50.68 50.68 0 0 0 0-8c-.14-1-1.77-.8-1.8.12a35.36 35.36 0 0 0-.9 7.83c-.09 1.4-.16 2.81-.22 4.21a9.05 9.05 0 0 0 .25 3.83 1.2 1.2 0 0 0 2.36.05zM182.51 39.74a1.5 1.5 0 0 0-1.49-.39 2.6 2.6 0 0 0-.81.45 1.63 1.63 0 0 0-.23.2 2.21 2.21 0 0 0-.34.5l-.07.15a2.32 2.32 0 0 0-.09 1.45 1.51 1.51 0 0 0 1.86 1.05l.33-.15a1.57 1.57 0 0 0 .54-.19 1.84 1.84 0 0 0 .9-1.53v-.15a1.91 1.91 0 0 0-.6-1.39z"/></g></svg>