<svg xmlns="http://www.w3.org/2000/svg" viewBox="0 0 93.32 113.24"><defs><style>.cls-1{fill:#ff93a7;}</style></defs><title>beef</title><g id="Layer_2" data-name="Layer 2"><g id="Layer_1-2" data-name="Layer 1"><g id="vrhD0g"><path class="cls-1" d="M5.75,30.52c23.12-1.95,44.93-9.06,66.08-19.2.4,1.54.87,3.28,1.31,5q8.48,33.6,17,67.2a1.18,1.18,0,0,1-.67,1.58,103.87,103.87,0,0,1-16.31,7.54,141.73,141.73,0,0,1-24.5,7,136.26,136.26,0,0,1-18.91,2.44c-1.12.06-2.23,0-3.35,0-.84,0-1.68.14-2.58.21C21.73,97,5.91,34.08,5.75,30.52ZM30.3,46.84c-.5.33-1,.6-1.41.94a2.66,2.66,0,0,0-.43,3.57,7.26,7.26,0,0,1,1.4,2.18,3.75,3.75,0,0,1,.31,2.38,2,2,0,0,0,0,1.28,4,4,0,0,1,.47,2.86c-.15,1.11-.23,2.23-.44,3.33a8.9,8.9,0,0,1-.74,2.44,20.49,20.49,0,0,1-2,3c-1.56,2-1.67,3.07-.47,5.21a11,11,0,0,1,.7,1.68c.61,1.71,1.51,3.15,3.49,3.21a13.36,13.36,0,0,0,4.28-.26,25.58,25.58,0,0,0,4.55-2.32c2.55-1.41,5.06-2.9,7.64-4.24a2.05,2.05,0,0,1,1.9,0c1.48,1.65,3.29,1.89,5.32,1.63a1.35,1.35,0,0,1,1.07.43c.79,1,1.43,2.17,2.24,3.17,1,1.2,2.07,2.29,3.1,3.45.49.56.91,1.19,1.42,1.73a1.73,1.73,0,0,0,2.61.07,14.8,14.8,0,0,0,2.86-4A76.81,76.81,0,0,0,71,69.32,15,15,0,0,0,71.18,62a39.08,39.08,0,0,1-.87-4.84,17.69,17.69,0,0,0-2-6.4c-.39-.71-.71-1.45-1-2.19-.93-2.09-1.79-4.22-2.8-6.27a2.13,2.13,0,0,0-1.43-1.07,11.36,11.36,0,0,0-3.06.2c-1.39.23-2.76.68-4.15.86-2,.25-4,.34-5.93.5a11.92,11.92,0,0,0,.07-2,9.67,9.67,0,0,0-3.64-6.11,2.15,2.15,0,0,0-.68-.36.82.82,0,0,0-1.18.83,14.39,14.39,0,0,0,.12,1.85c.12,1.06.26,2.12.4,3.18-.11,0-.15,0-.17,0a.54.54,0,0,1-.21-.12,2.44,2.44,0,0,0-3.1-.66c-.18.07-.43.15-.57.08-1.27-.65-2.39-.19-3.47.57a.56.56,0,0,1-.32.11,3.67,3.67,0,0,0-3.5,2,9.4,9.4,0,0,1-4.37-2.32c-.51-.49-.9-.41-1.34.17a2.79,2.79,0,0,0-.34,2.53A8.32,8.32,0,0,0,30.3,46.84Z"/><path class="cls-1" d="M24.87,112.6a4.7,4.7,0,0,1-1.93-7.2,1.44,1.44,0,0,1,1-.57,132.92,132.92,0,0,0,19.81-1.61,139.13,139.13,0,0,0,37.42-10.8c3.43-1.5,6.68-3.46,10-5.28a1,1,0,0,1,1.56.35A4.23,4.23,0,0,1,92,92.75a13.53,13.53,0,0,1-2.67,2,99.82,99.82,0,0,1-15.45,7.14,221.24,221.24,0,0,1-36.33,10.46,31.86,31.86,0,0,1-10.95.67c-.39-.06-.79-.12-1.18-.22A4.13,4.13,0,0,1,24.87,112.6Z"/><path class="cls-1" d="M.6,21.93a10,10,0,0,1,4-4.75A77.86,77.86,0,0,1,13,12.49,151.78,151.78,0,0,1,43.26,2,77.69,77.69,0,0,1,67.81.34,7.77,7.77,0,0,1,71.6,1.53a4.4,4.4,0,0,1-.4,7.53c-2.1,1.19-4.31,2.19-6.52,3.17A210.25,210.25,0,0,1,35.28,23,176.18,176.18,0,0,1,6.2,28.73a10.19,10.19,0,0,1-2.39,0c-3-.42-4.53-3.11-3.47-6.11C.41,22.36.51,22.15.6,21.93ZM68.7,5.61c-.35-.31-.55-.6-.81-.71A18.27,18.27,0,0,0,64,3.44a38.45,38.45,0,0,0-11.82.11A119.83,119.83,0,0,0,17.36,14.1a34.3,34.3,0,0,0-8.82,6.18A6.52,6.52,0,0,0,7.4,21.75a2.68,2.68,0,0,0,1,3.86,5.54,5.54,0,0,0,3.65.83c1.27-.24,2.59-.23,3.84-.54,3.78-.94,7.56-1.92,11.31-3A199.35,199.35,0,0,0,54.75,12.69,106.42,106.42,0,0,0,68.7,5.61Z"/><path class="cls-1" d="M45.18,71.12a2.43,2.43,0,0,0,.32-.36c.8-1.41,1.61-2.82,2.39-4.24a3.85,3.85,0,0,0,.56-2.89A2.2,2.2,0,0,0,46,61.84c-.76,0-1.15-.2-1.3-1s-.42-1.27-1.24-1.16-1,.82-1.09,1.52c-.26,2-2.88,4.06-4.82,3.67a.73.73,0,0,1-.41-.58,9.24,9.24,0,0,1,.26-1.48c.37-1.82.11-2.18-1.66-2.11a15.56,15.56,0,0,1,.55-1.85A7.46,7.46,0,0,0,36.72,55c0-.35-.08-.7-.1-1.05a2.43,2.43,0,0,1,1.86-2.74c.69-.22,1.41-.32,2.1-.53s.94,0,1.19.61c.14.35.54.79.84.8a1.48,1.48,0,0,0,1.09-.64,15.68,15.68,0,0,0,.91-2.31c1-.23,2.44-.44,1.64-2.4a5.28,5.28,0,0,0,2.67-2.3,1,1,0,0,1,.83-.31,22.26,22.26,0,0,0,10.19-.91,9.35,9.35,0,0,0,1.21-.49,1.3,1.3,0,0,1,2,.62,4.14,4.14,0,0,1,.27.55,54.8,54.8,0,0,0,3.2,7.45,17.47,17.47,0,0,1,1.91,7.06,20,20,0,0,0,.8,4,10.17,10.17,0,0,1,.19,5A52.5,52.5,0,0,1,65.4,79.55,9,9,0,0,1,64.33,81l-1.1-1.33L59,74.49c-.38-.47-.76-.94-1.17-1.38a4,4,0,0,0-3.51-1.41,4.7,4.7,0,0,1-3.9-1.1,2.39,2.39,0,0,0-1.86-.28,18.58,18.58,0,0,0-2.84,1,3.28,3.28,0,0,1-1.16.35l.75-1.82.2.08L45.06,71Zm7.18-24.07,0,.33c-3.07,2.18-3.52,2.66-3.44,3.74l.53-.62,1.67,1.44.23-.28c-.45-.46-.91-.9-1.33-1.39-.09-.1,0-.34,0-.52a1.11,1.11,0,0,1,.45.05c.22.13.38.34.59.49s.72.45,1.08.67l.14-.25-1.73-1.38.13-.22,1.51.62.12-.2-1-.86c.57-.34,1.09-.61,1.57-.94a1.31,1.31,0,0,1,1.8.21,2.11,2.11,0,0,1,.42,1.57,2.78,2.78,0,0,1-.85,1.5c-1.49,1.33-3.05,2.51-5.19,1.66A1.2,1.2,0,0,0,48,53a.87.87,0,0,0,.27,1.3,3,3,0,0,0,2.68.52A21,21,0,0,0,54,53.46a5.53,5.53,0,0,0,2.71-3.57,2.89,2.89,0,0,0-1.68-3.65,12,12,0,0,0-4-.68,4.4,4.4,0,0,0-4.21,3.27c-.08.33.21.75.32,1.12a8.76,8.76,0,0,0,.74-.72c.42-.51.72-1.31,1.23-1.51A17.84,17.84,0,0,1,52.36,47.05ZM41.76,55a4.43,4.43,0,0,0,.91.36,6.52,6.52,0,0,0,1.06,0,4.72,4.72,0,0,0-.28-1.17,1.16,1.16,0,0,0-.71-.41,4.13,4.13,0,0,0-3.72.89,1.39,1.39,0,0,0-.41,1.89l.84-.7c.27.61.42,1.46,1.35,1.2S41.87,56,41.76,55Zm8.85,8.86c-1,.76-3.88,5.76-3.77,6.82ZM53,71.4c.71-.47,2.71-4.4,2.6-5.11C55,66.61,52.92,70.62,53,71.4Zm1.82-.69.39.26,3-4.63-.39-.27A46.84,46.84,0,0,0,54.79,70.71Zm-3.71-5.1-.26-.15C50,66,48.33,69.14,48.65,70Zm7.3,7,2.76-4.42C60.16,68.35,58.19,71.47,58.38,72.56Zm1.83-5.93c-1.31.73-3.51,3.93-3.49,5.16ZM62,71.72l-.46-.25-1.63,2.81.4.24Zm-9.94-4.84-.34-.2-1.8,3.1.39.23Zm9,3.67a2.51,2.51,0,0,0-1.35,2.62Zm-7.41-3.4L53.39,67l-1.51,3.08.32.16Zm8.53,5.93a12.69,12.69,0,0,0-.7,1.2c0,.06.22.25.34.38C62.14,74.26,62.6,73.93,62.21,73.07Z"/><path class="cls-1" d="M36.05,62.33a15.18,15.18,0,0,0-.3,1.82c-.07,1.5.59,2.13,2,2.14a7.44,7.44,0,0,0,5-2.29,6.06,6.06,0,0,0,.91-1.62,1.62,1.62,0,0,0,2,1.08c1.24-.14,1.81.8,1.16,2A11.35,11.35,0,0,1,44.85,68a5,5,0,0,0-1.67,4.51c-1.92,1.22-3.8,2.46-5.72,3.63a6.65,6.65,0,0,1-1.86.7c-.27.07-.6-.14-.9-.23l0-.35c-.72.19-1.44.4-2.16.58-2,.49-2.67.11-3.39-1.86a13.36,13.36,0,0,0-1-2c-.63-1.09-.57-1.21.13-2.28A45.93,45.93,0,0,0,31,66.19a9.48,9.48,0,0,0,.68-2.64c.25-1.49.41-3,.63-4.48a2.88,2.88,0,0,0-.35-2,4.68,4.68,0,0,1-.32-1.48,14.3,14.3,0,0,0-.48-2.45,1.72,1.72,0,0,1,.49-2.26,14.42,14.42,0,0,1,1.62-1,1.22,1.22,0,0,0,.68-1.6c-.15-.48-.4-1.14.55-1.22a1,1,0,0,0,.13-.74c-.27-.59-.44-1.07.28-1.51.15-.1.18-.55.15-.82-.16-1.29.18-1.9,1.31-2.22.11,0,.26-.11.33-.06,1,.62,1.62.14,2.34-.6.51-.53,1.23-.24,1.87.61.29.38.47.45.75,0,.66-1,1.15-1.08,1.86-.12l.38.51-.76.42c.61.66,1.55.29,3.14-1.19l.62,1.27.38-.14-1.35-5.86c1.41,1.8,2.5,3.74,2.26,6.17A3.22,3.22,0,0,1,45,45.47c-.37-.05-.67-.5-1-.72a3,3,0,0,0-.74-.22c0,.29,0,.66.11.86.45.62,1,1.14,1.87.73,0,1.29-.07,1.33-1.21,1.66-.88.25-1.14.91-1.17,1.8a9.43,9.43,0,0,0-4.78.6,3.47,3.47,0,0,0-2.69,3.75,5.46,5.46,0,0,0,.06,1,9.43,9.43,0,0,1-.79,5.1c-.6,1.71-.51,1.88,1.2,2.22A1.8,1.8,0,0,1,36.05,62.33Zm-3.94,9.6c.08,1,.13,1.83.22,2.63a1.84,1.84,0,0,0,.22.51c.17-.13.48-.26.48-.38a17.75,17.75,0,0,0-.24-2.36C32.76,72.18,32.39,72.09,32.11,71.94Zm.1,2.39c-.35-.61-.49-1.1-.82-1.33-.16-.11-.65.27-1,.43A4.35,4.35,0,0,0,31,74.6C31.15,74.72,31.63,74.47,32.22,74.33Z"/><path class="cls-1" d="M29.25,42.2,33.58,44l-.77,1.87C31.37,44.83,29.64,44.15,29.25,42.2Z"/><path class="cls-1" d="M32.06,49.22c-.48.34-.89.61-1.28.9s-.69.63-.89.11a1.47,1.47,0,0,1,.22-1.3C30.73,48.35,31.41,48.62,32.06,49.22Z"/><path class="cls-1" d="M67.39,5.68C61.15,8.41,55,11.32,48.66,13.8c-7,2.75-14.1,5.21-21.21,7.59a84.69,84.69,0,0,1-10.57,2.69,37.73,37.73,0,0,1-6.59.4c-1.46,0-2.08-1.29-1.31-2.6a8.11,8.11,0,0,1,1-1.35A23.29,23.29,0,0,1,17.53,15c2.14-1,4.44-1.55,6.64-2.38A143.07,143.07,0,0,1,50.41,5.08a76.63,76.63,0,0,1,10.1-1,29.16,29.16,0,0,1,5.64.78,6,6,0,0,1,1.24.49Zm-53,15.42a7.22,7.22,0,0,0,4.12.18c3-.59,6.12-1,9-2.48A178.76,178.76,0,0,0,59.57,7.4,2,2,0,0,0,60.26,7a1,1,0,0,0,.22-.71c0-.11-.34-.22-.54-.26a2.4,2.4,0,0,0-.6,0,118.18,118.18,0,0,0-31,6.7c-3.12,1.1-6.23,2.24-9.27,3.55a28.83,28.83,0,0,0-4.9,2.86C13.2,19.92,13.39,20.69,14.37,21.1Z"/><path class="cls-1" d="M15.39,19.73a16.29,16.29,0,0,1,2.51-1.63c2-.83,4-1.46,6-2.23A157,157,0,0,1,56.23,7.42a7.16,7.16,0,0,1,1.82-.14c-.26.12-.51.26-.77.37a226.23,226.23,0,0,1-34,11.09c-2.1.52-4.21.95-6.33,1.37a7,7,0,0,1-1.46,0Zm30.13-8.49v-.45a3.77,3.77,0,0,0-.93,0q-8.67,2.32-17.32,4.68c-.11,0-.25,0-.32.12s-.26.32-.22.42a.62.62,0,0,0,.4.35,1.37,1.37,0,0,0,.59-.09c4.28-1.11,8.56-2.18,12.83-3.35C42.21,12.48,43.85,11.82,45.52,11.25Z"/></g></g></g></svg>