<?xml version="1.0" encoding="utf-8"?>
<!-- Generator: Adobe Illustrator 21.0.2, SVG Export Plug-In . SVG Version: 6.00 Build 0)  -->
<svg version="1.1" id="Layer_1" xmlns="http://www.w3.org/2000/svg" xmlns:xlink="http://www.w3.org/1999/xlink" x="0px" y="0px"
	 viewBox="0 0 102.5 118.1" style="enable-background:new 0 0 102.5 118.1;" xml:space="preserve">
<style type="text/css">
	.st0{fill:#CC9B7E;}
</style>
<title>buckwheat</title>
<g id="Layer_2">
	<g id="Layer_1-2">
		<g id="Etkman">
			<path class="st0" d="M16.1,14.4c4.4-2.4,9.1-4.1,14-5.1c7.1-1.7,14.3-3.2,21.4-4.8C55.3,3.7,59.2,2.7,63,2
				c2.4-0.4,4.8-0.5,7.3-0.7C71.6,1.1,73,1,74.4,0.9s2.2,0.5,2.1,2s-0.2,2.7-0.4,4.1c-0.1,0.7-0.1,1.4,0.2,2
				c0.8,2.2,1.5,4.5,2.2,6.7c1.4,4.6,2.9,9.3,4.2,14c0.5,1.8,0.6,3.6,1.1,5.4c0.4,1.4,0.9,2.9,1.4,4.3c2.9,7.6,4.9,15.4,6.2,23.4
				c1.1,6.8,1.6,13.8,1.5,20.7c0,3-0.4,6-1.1,8.9c-0.4,1.7-0.6,3.4-0.8,5.1c-0.1,0.9-0.6,1.7-1.3,2.1c-0.9,0.6-1.8,1.1-2.6,1.8
				c-3.5,2.9-7.3,5.2-11.5,6.9c-2.6,1-5.2,2-7.9,2.7c-4,1.2-8,2.5-12.1,3.5c-6.1,1.6-12.3,2.4-18.6,2.3c-2.1-0.2-4.2-0.8-6.1-1.7
				c-0.4-0.2-0.8-0.2-1.3-0.2c-2.7,0.7-5.4-1-6-3.6c0-0.1,0-0.2-0.1-0.2c-0.4-1.8-0.6-3.7-1-5.6c-0.2-0.8-0.5-1.6-0.8-2.4
				c-1.4-3.8-2.5-7.7-3.3-11.7c-1.8-8-2.8-16.1-4-24.1c-0.7-4.8-1.4-9.6-2.1-14.4c-0.3-1.6-0.3-3.2-0.2-4.8c0-0.5-0.1-1-0.2-1.5
				c-0.5-3.9-0.6-7.8-0.4-11.6c0.1-3.1,0.5-6.3,0.7-9.4c0-0.3-0.1-0.5-0.3-0.7c-1.2-0.6-1.4-1.7-1.9-2.7c-0.1-0.2-0.1-0.4-0.2-0.6
				c-0.5-1-0.5-2.2,0.1-3.2c0.4-0.6,0.9-1.1,1.5-1.5C13,15.8,14.5,15.1,16.1,14.4z M19.7,44.4c0.8-1.2,1.8-2.2,2.9-3
				c0.3-0.2,0.6-0.3,0.8,0.1c0.4,0.7,0.7,1.5,1,2.3c0.1,0.2,0.2,0.5,0.3,0.9l0.4-0.8c1-1.7,2.2-2.1,3.8-0.9c0.5,0.3,0.9,0.8,1.4,1.2
				c0.1-0.6,0.2-1.1,0.3-1.6c0.3-1.7,1.4-2.3,3-1.7c0.3,0.1,0.6,0.3,0.9,0.5l0.8-1.8c0.3-0.9,1.3-1.4,2.2-1.1
				c0.2,0.1,0.4,0.1,0.5,0.3c0.5,0.3,1,0.8,1.6,1.1c1.8-2.6,2.6-2.9,4.3-1.4c0.6-0.6,1.1-1.2,1.7-1.7c0.4-0.5,1.2-0.6,1.8-0.2
				c0.2,0.1,0.3,0.3,0.4,0.6c0.2,0.4,0.4,0.8,0.6,1.2c0.6-0.4,1.3-0.7,1.9-1c0.9-0.3,1.2,0.6,1.6,1.2c0.9-0.6,1.7-1.6,2.8-1.4
				s1.5,1.4,2.1,2.4c0.1-0.2,0.3-0.4,0.4-0.6c0.6-0.8,1.3-1.6,2-2.2c1.4-1.1,2-1.8,3.8-0.6c0.1-0.7,0.3-1.3,1.1-1.2
				c0.5,0.1,1,0.3,1.5,0.6c0.6-0.6,1.3-1.2,2.1-1.8c0.6-0.4,1.4-0.3,1.8,0.3c0.1,0.1,0.1,0.1,0.1,0.2c0.1,0.2,0.2,0.3,0.3,0.6
				c0.4-0.8,1.2-1.3,2-1.3c-0.1-0.5-0.1-1-0.1-1.5c0-0.7,0.5-1.3,1.2-1.3c0.3,0,0.5,0,0.7,0.2c0.4,0.2,0.8,0.2,1.2,0.1
				c0.6-0.2,1.3,0,1.7,0.5c0.2,0.2,0.3,0.4,0.5,0.5l0.2,0l0.4-2.1l2.5,1.2l0.2-0.2l-6.1-19.2c-1.1-0.1-2.1-0.3-3.2-0.5
				c-1.4-0.4-2.9-0.4-4.4-0.3c-1,0.1-2,0.2-3.2,0.3l2.1,2.2c-0.6-0.1-1.1-0.3-1.5-0.3c-0.8,0-1.6-0.2-2.4-0.4
				c-1.3-0.7-2.9-0.8-4.4-0.3c-0.4,0.1-0.8,0.2-1.3,0.3l-0.9,0.2c2.1,2.1,4.2,4,6.2,6.1s3.8,4.2,5.7,6.3l-0.2,0.2
				c-0.2-0.2-0.5-0.3-0.7-0.5c-4.5-3.4-8.7-7.2-12.7-11.2c-0.3-0.4-0.8-0.5-1.2-0.3c-2.1,0.6-4.3,1.1-6.4,1.6
				c-4.8,1.1-9.6,2.2-14.4,3.3c-0.3,0.1-0.6,0.3-0.7,0.6c-0.9,1.9-1.7,3.8-2.6,5.7c-0.5,1.2-1.1,2.3-1.7,3.4
				c-0.5,0.8-1.1,1.5-1.7,2.2l-0.2-0.1c1.2-3.8,2.6-7.4,4.3-11c-5.4,1.7-10.6,3.3-15,6.9c0,2.1,0,4.4-0.1,6.7
				c-0.2,4.5-0.1,9.1,0.2,13.6c0,0.2,0,0.4,0.1,0.5c0.2,0.2,0.6,0.5,0.8,0.4c0.4-0.3,0.7-0.6,0.9-1c0.1-0.1-0.2-0.4-0.2-0.6
				c0-0.2,0-0.3,0-0.5c0.2-0.6,0.4-1.2,0.6-1.7c0.1-0.7,0.8-1.2,1.5-1c0.4,0.1,0.7,0.3,0.9,0.7C19,43.2,19.4,43.8,19.7,44.4z
				 M77.5,45.8c-0.4,0.1-0.6,0.1-0.8,0.2c-3,1-6,2-9,3.1c-6.8,2.4-13.6,4.5-20.6,6.3c-2.4,0.6-4.8,1.3-7.2,2
				c-0.5,0.1-1.1,0.2-1.6,0.2c-0.7,0.1-1.4,0.1-2.1,0.2c-1.4,0.2-2.8,0.5-4.2,0.7c-2.3,0.3-4.6,0.6-6.9,0.9
				c-0.6,0.1-0.8,0.3-0.8,0.9c0,1-0.1,2.1,0,3.2c0.9,8.3,1.8,16.5,2.7,24.8c0.1,0.3,0.3,0.6,0.5,0.8c2.2,1.1,4.6,1.7,7,1.7
				c2.7-0.1,5.5-0.2,8.2-0.5c4.6-0.6,9.2-1.7,13.6-3.3c5.5-1.8,10.9-4.1,16.1-6.8c1.2-0.6,2.4-1.2,3.6-1.8l4.1-2.1
				c0.5-0.2,0.8-0.7,0.9-1.3c0.2-1.8,0.2-3.6,0-5.4c-0.6-7.2-1.8-14.3-3.1-21.4C77.9,47.4,77.7,46.7,77.5,45.8z M43.8,103.2
				c0.7-0.4,1-0.9,0.6-1.4c-0.8-1-1.7-1.9-2.6-2.8c-0.6-0.5-1.1-0.4-1.5,0.3c-0.4,0.7-0.7,1.4-0.9,2.1c-0.2,0.7,0.2,1.5,0.9,1.8
				C41.3,103.6,42.6,103.6,43.8,103.2z M39.1,48.7c-0.5-0.9-0.9-1.2-1.7-0.9c-1.1,0.4-1.9,1.3-2.2,2.4c-0.2,0.6,0,1.3,0.6,1.6
				c1.1,0.4,2.2,0.2,3.1-0.5C39.6,50.6,39.6,49.7,39.1,48.7z M16.1,62.2c0-0.3,0-0.5,0-0.8c0-1.7,0.1-3.4,0-5
				c-0.1-2.2-0.4-4.3-0.6-6.5c0-0.1,0-0.2-0.1-0.3c-0.2-0.2-0.4-0.4-0.6-0.4c-0.2,0.1-0.4,0.2-0.5,0.5c-0.1,0.4-0.1,0.7-0.1,1.1
				C14.5,54.6,15.1,58.4,16.1,62.2L16.1,62.2z M83.2,101.2l0.1-0.2c-3.8-3.3-8.6-5.9-10.3-5.9c0.7,0.5,1.3,1,1.9,1.4
				c2.2,1.4,4.5,2.8,6.7,4.1C82.1,100.9,82.7,101.1,83.2,101.2L83.2,101.2z M63,44.8c-0.3,0.1-0.6,0.3-0.9,0.6
				c-1,0.7-0.9,1.1,0.1,1.7c1.2,0.7,2.1,0.3,2.5-1c0.1-0.1,0.1-0.3,0.1-0.4c0-0.4-0.1-0.8-0.3-1.2c-0.1-0.1-0.7,0.1-1,0.2
				C63.3,44.7,63.2,44.7,63,44.8z M25.5,106.8l0.3,0.1c0.2-0.6,0.6-1.2,0.5-1.7c-0.3-1.4-0.6-2.7-1.1-4.1c-0.1-0.4-0.5-0.3-0.7,0
				c-0.1,0.2-0.1,0.4,0,0.6C24.8,103.4,25.1,105.1,25.5,106.8z"/>
			<path class="st0" d="M43.6,31.8c0,0.1,0.1,0.1,0.1,0.2c0.3,0.6,0.6,1.2,0.2,1.8c-0.5,0.5-1.2,0.8-1.9,0.6c-0.3,0-0.6-0.1-0.9-0.2
				c-1.2-0.5-1.4-1-0.7-2.1c0.3-0.5,0.7-0.9,1.1-1.3c0.7-0.6,1.4-0.4,1.9,0.4C43.4,31.5,43.5,31.7,43.6,31.8L43.6,31.8z"/>
			<path class="st0" d="M57.9,33.6c0.5,0.9,0.4,1.5-0.2,1.8c-0.7,0.4-1.7,0.1-1.9-0.4c-0.2-0.7,0.2-1.5,0.8-1.8
				C57.2,32.8,57.7,33,57.9,33.6z"/>
			<path class="st0" d="M75.2,29.3c-0.7,0.3-1.4,0.2-1.6-0.3c-0.1-0.7,0.1-1.4,0.7-1.8c0.5-0.2,1,0,1.2,0.5
				C75.9,28.6,75.8,29,75.2,29.3z"/>
			<path class="st0" d="M48.5,25.4c0.2,0.4,0.1,0.8-0.2,1.1c0,0-0.1,0-0.1,0.1c-0.4,0.3-1,0.2-1.3-0.2c0,0,0,0,0,0
				c-0.3-0.6-0.1-1.3,0.5-1.6C48.1,24.3,48.2,25,48.5,25.4z"/>
			<path class="st0" d="M55.3,30.8c-0.4-0.3-0.7-0.4-0.7-0.5c0-0.2,0.1-0.5,0.2-0.8c0.2,0.1,0.6,0.1,0.6,0.3
				C55.5,29.9,55.4,30.3,55.3,30.8z"/>
			<path class="st0" d="M76.5,47.8l3.6,26.3c-2.7,1.3-5.4,2.7-8,4c-1.5,0.8-3.1,1.4-4.7,2.1c-5.4,2.4-10.9,4.4-16.6,5.9
				c-7,2.1-14.4,2.8-21.7,2l-0.4-0.1l-3.1-26.6C43.3,59.9,60.1,54.8,76.5,47.8z M58.9,75c0.4-0.2,0.8-0.3,1.2-0.4
				c0.5-0.1,0.7-0.3,0.6-0.9c-0.1-1.1,0-2.2-0.1-3.4c0.2,0.3,0.4,0.5,0.7,0.7c1,0.9,2.1,1.8,3.2,2.6c0.2,0.1,0.5,0.1,0.7,0
				c0.4-0.5,0.8-1,1.1-1.5c-0.7-0.5-1.4-1-2-1.5c-0.6-0.6-1.3-1.2-1.8-1.8c-0.8-1-0.8-1-0.3-2.1c0.1-0.2,0.2-0.4,0.3-0.6l2-4.6
				c-0.3,0-0.5-0.1-0.8-0.1c-0.6-0.2-0.9,0-1.2,0.6c-0.6,1.3-1.3,2.5-2,3.7c-0.1,0.2-0.3,0.5-0.4,0.7l-0.2-0.1l-0.4-3.5
				c-2,0.2-1.7-0.3-1.8,1.7c0,0.3,0,0.6,0,0.9c0.3,3.1,0.6,6.1,0.9,9.2C58.8,74.7,58.8,74.9,58.9,75z M73.2,64.2l0.1-0.1
				c-0.7-1.3-1.3-2.7-2-4c-0.1-0.3-0.5-0.6-0.7-0.6c-0.5,0-1.1,0-1.3,0.8c-0.9,2.9-1.4,5.9-1.6,9c0,0.5,0,1,0,1.4
				c0.1,0.2,0.2,0.3,0.4,0.4c0.7,0.2,1.4-0.3,1.6-1c0-0.2,0-0.3,0-0.5c0-0.2,0.1-0.5,0.1-0.8c0-0.6,0.2-0.8,0.8-0.9
				c0.6,0,1-0.3,1.5-0.4c0.2,0,0.5,0.1,0.6,0.2c0.4,0.5,0.8,1.1,1.1,1.6c0.3,0.5,0.6,0.5,1.1,0.2c0.5-0.3,0.6-0.6,0.4-1.1
				C74.6,67.1,73.9,65.7,73.2,64.2L73.2,64.2z M42.4,68.7c-0.6-1.6-2.4-2.4-4-1.8c0,0-0.1,0-0.1,0.1c-1.4,0.5-1.6,0.8-1.6,2.3
				c0.1,2.8,0.6,5.6,1.3,8.3c0.4,1.4,0.4,1.4,1.8,1c0.6-0.1,0.6-0.4,0.5-0.9c-0.2-0.6-0.3-1.3-0.5-1.9c-0.1-0.4,0-0.6,0.4-0.8
				C42.7,74.1,43.5,70.5,42.4,68.7z M55.6,76c0.3-0.1,0.7-0.2,1-0.2c0.7-0.1,0.9-0.4,0.8-1.1c-0.5-3.2-1-6.4-1.5-9.6
				c0-0.3,0-0.7-0.5-0.7c-0.8,0-1.2,0.3-1.2,0.9c0,1.1,0,2.2,0.1,3.3c0,0.9-0.6,1.6-1.4,1.8c-0.1-0.5-0.2-0.9-0.3-1.4
				c-0.1-1-0.2-2-0.3-3c0-0.3,0.1-0.8-0.6-0.8c-1,0.1-1.1,0.2-1.1,0.9c0,1.1,0.2,2.2,0.3,3.2c0.1,0.7,0.2,1.3,0.5,2
				c0.2,0.8,1,1.3,1.8,1.1c0.1,0,0.2-0.1,0.3-0.1c0.4-0.1,0.8-0.3,1.2-0.5L55.6,76z M45.6,67.8c0.8-0.1,1.5-0.2,2.2-0.3
				c0.4-0.1,0.8-0.2,0.6-0.8c-0.1-0.5,0.1-1.2-0.8-1.2c-0.8,0-1.5,0.1-2.2,0.2c-0.7,0-1.2,0.5-1.3,1.1c0,0.1,0,0.2,0,0.2
				c0,3.5,0.5,6.9,1.5,10.2c0.1,0.5,0.5,0.7,1,0.6c1.1-0.3,2.3-0.6,3.4-0.8c0.4-0.1,0.5-0.3,0.5-0.7c0-0.6-0.4-0.7-0.9-0.6
				c-0.8,0.1-1.5,0.2-2.4,0.4l-0.6-2.8c0.4-0.1,0.7-0.1,1-0.1c0.3-0.1,0.6-0.2,0.9-0.3c0.6-0.3,0.7-0.7,0.4-1.6
				c-0.2-0.5-0.6-0.3-0.9-0.3c-0.5,0.1-1.1,0.2-1.7,0.3L45.6,67.8z M31.7,70.5c0.6-0.1,1.1-0.1,1.5-0.2c1.4-0.2,1.4-0.3,1.4-1.7
				c0-0.5-0.2-0.7-0.6-0.6c-1.1,0.2-2.2,0.3-3.3,0.6c-0.3,0.1-0.6,0.4-0.7,0.8c-0.1,0.8-0.2,1.6-0.1,2.4c0.3,2.2,0.7,4.5,1.1,6.7
				c0.2,1.4,0.3,1.4,1.6,1.2c0.5-0.1,0.7-0.2,0.6-0.7c-0.3-1.3-0.5-2.6-0.7-3.9L31.7,70.5z"/>
			<path class="st0" d="M70.3,63.2l1.3,2.5l-1.5,0.5L70.3,63.2z"/>
			<path class="st0" d="M39.3,73.3c-0.2-1.4-0.5-2.8-0.7-4.1c0-0.2,0.1-0.3,0.3-0.4c0.5-0.2,1.1,0,1.4,0.5
				C41.2,70.7,40.7,72.5,39.3,73.3C39.3,73.3,39.3,73.3,39.3,73.3z"/>
		</g>
	</g>
</g>
</svg>
