<?xml version="1.0" encoding="utf-8"?>
<!-- Generator: Adobe Illustrator 21.0.2, SVG Export Plug-In . SVG Version: 6.00 Build 0)  -->
<svg version="1.1" id="Layer_1" xmlns="http://www.w3.org/2000/svg" xmlns:xlink="http://www.w3.org/1999/xlink" x="0px" y="0px"
	 viewBox="0 0 116.8 85.5" style="enable-background:new 0 0 116.8 85.5;" xml:space="preserve">
<style type="text/css">
	.st0{fill:#B18A7A;}
</style>
<title>chocolate</title>
<g id="Layer_2">
	<g id="Layer_1-2">
		<g id="s8Kfi9">
			<path class="st0" d="M116.1,18c-1.7,1.9-3.5,3.9-5.3,5.8c-7.4,8.3-14.9,16.7-22.2,25.1c-6.4,7.4-12.5,15.1-18.9,22.6
				c-3.4,3.9-7,7.6-10.6,11.3c-0.5,0.4-1.1,0.7-1.7,0.7c-4-0.2-8.2-0.4-12.3-0.8c-8.9-0.9-17.9-1.8-26.8-2.9c-5-0.6-10-1.4-15-2.3
				c-2.1-0.4-1.8-0.2-1.9-2.2c-0.1-1-0.2-2.1-0.3-3.1c0-0.3,0-0.6,0.2-0.9c1.3-1.5,2.6-2.9,4.1-4.6c0.1,2.3,1.6,3,3.1,3.4
				c2.2,0.6,4.5,0.9,6.8,1.1c3,0.2,5.9,0.2,8.9,0c2.8-0.2,5.4-1.5,7.2-3.7c0.2-0.2,0.4-0.4,0.8-0.8c0,0.5,0.1,0.9,0,1.3
				c-0.2,1.1,0.4,2.2,1.5,2.6c1.4,0.6,2.8,1.1,4.3,1.3c3.4,0.4,6.8,0.6,10.2,0.7c4.2,0.3,8.2-1.5,10.7-4.8c1.7-2.1,3.4-4.2,5.2-6.3
				c1-1.2,1.3-2.9,0.6-4.4c-0.2-0.5-0.3-0.9-0.5-1.4c1.2-0.2,2.3-0.3,3.4-0.5c1.6-0.3,3-1,4.2-2c2.9-2.6,5.4-5.6,7.6-8.8
				c0.8-1.1,1-2.6,0.6-3.9c-0.1-0.4-0.3-0.9-0.4-1.4c1-0.1,1.9-0.3,2.8-0.4c1.8-0.2,3.4-1,4.7-2.2c2.9-2.7,5.4-5.6,7.6-8.8
				c0.8-1.1,1-2.4,0.6-3.7c-0.1-0.3-0.2-0.7-0.3-1.1l1.8-0.3c1.8-0.2,3.5-1,4.8-2.3c2.5-2.8,5-5.7,7.4-8.6c1-1.1,1.2-2.7,0.7-4.1
				c-0.1-0.2-0.1-0.5-0.2-0.9c1.5,0.1,2.8,0.1,4.2,0.3c0.2,0,0.4,0.4,0.4,0.7c0.6,3.2,1.2,6.4,1.9,9.6c0,0.1,0.1,0.2,0.2,0.3
				L116.1,18z M31.1,74.6l0,0.4l25,1.4c0.3,1.5,0.6,3,1,4.4c0.1,0.3,0.4,0.5,0.5,0.8l0.5-0.2c-0.3-1.8-0.6-3.7-1-5.6
				c-0.2-0.6,0-1.2,0.4-1.6c1.8-1.9,3.6-3.8,5.3-5.7c9.5-10.7,19.1-21.3,28.5-32c5.7-6.5,11.3-13.2,16.9-19.8
				c0.3-0.3,0.5-0.7,0.7-1.1l-0.3-0.2c-0.2,0.2-0.5,0.4-0.7,0.6c-1,1.1-2,2.1-3,3.2C88.7,37.6,72.2,55.9,55.8,74.3
				c-0.5,0.5-1.2,0.8-2,0.9c-1.2,0-2.4,0-3.6-0.1l-18.5-0.6C31.5,74.5,31.2,74.5,31.1,74.6L31.1,74.6z M5.3,72.1l-0.1,0.4
				c0.2,0.1,0.5,0.1,0.7,0.2c7.4,0.8,14.9,1.6,22.3,2.4c0.3,0.1,0.7-0.3,1-0.4c-0.3-0.2-0.6-0.5-0.9-0.5c-7.4-0.7-14.7-1.4-22.1-2.1
				C6,72.1,5.6,72.1,5.3,72.1z"/>
			<path class="st0" d="M71,1.7c2,0.2,4,0.4,5.9,0.6c4.3,0.3,4.8,3,5.2,5.7c0,0.3-0.3,0.7-0.5,1c-1.3,1.7-3.1,3.2-3.9,5.1
				c-1,2.2-2.7,4-4.9,5.1c-1.4,0.6-2.9,1-4.4,1.3c-0.4,0-0.7-0.2-1-0.5c-0.9-1.2-2.3-2.1-3.8-2.4c-3.9-0.9-8-1-12-0.2
				c-0.4-2.1,0.2-4.3,1.5-5.9c2.1-2.5,4.5-4.8,6.8-7.1c1.5-1.5,3.5-1.7,5.5-2c1.7-0.2,3.3-0.4,5-0.6L71,1.7z M57.9,12.3l0,0.1
				c-1,0-2.1,0.1-3.1,0.1c-0.2,0-0.5,0.3-0.7,0.4c0.2,0.1,0.5,0.3,0.7,0.4c0.1,0,0.2,0,0.3,0c4.3,0.4,8.6,0.8,12.8,1.1
				c0.6,0.1,0.9,0.2,1,0.9c0.1,0.9,0.3,1.7,0.6,2.5c0.1,0.3,0.5,0.4,0.7,0.7c0.1-0.3,0.4-0.7,0.3-1c-0.1-0.8-0.3-1.6-0.6-2.4
				c-0.2-0.5-0.1-1.1,0.3-1.4c1.9-1.9,3.7-3.8,5.5-5.8c0.2-0.3,0.4-0.7,0.6-1.1c-0.4,0.1-0.7,0.3-1,0.5c-1.8,1.8-3.5,3.5-5.4,5.3
				c-0.4,0.3-0.9,0.5-1.4,0.5C64.9,12.9,61.4,12.6,57.9,12.3z"/>
			<path class="st0" d="M51.6,52.6l8.1,0.9c2.2,0.2,3.2,1.7,3.7,3.6c0.2,0.7,0.3,1.5,0.4,2.2c0,0.3,0,0.5-0.2,0.7
				c-1.6,2.2-3.2,4.4-5,6.6c-2.5,3.3-6.5,5.1-10.6,4.8c-3.5-0.2-7,0-10.5-0.9c-1-0.2-1.8-0.6-2.8-0.9c-1.1-0.3-1.9-1.4-1.7-2.5
				c-0.1-1.8,0.5-3.6,1.6-5c2.2-2.4,4.5-4.8,6.8-7c1.7-1.7,4.1-1.7,6.4-2.1c1.2-0.2,2.5-0.3,3.7-0.4L51.6,52.6z M39.7,63.3l0,0.1
				c-1.1,0-2.3,0.1-3.4,0.1c-0.2,0-0.4,0.3-0.6,0.4c0.2,0.1,0.4,0.3,0.5,0.3c0.2,0,0.4,0,0.6,0c4.2,0.3,8.4,0.7,12.7,1
				c0.5,0,1,0.3,1,0.8c0,0.1,0,0.1,0,0.2c0.1,0.8,0.3,1.7,0.5,2.5c0.1,0.2,0.5,0.4,0.7,0.6c0.1-0.3,0.4-0.6,0.3-0.8
				c-0.1-0.9-0.3-1.7-0.6-2.6c-0.2-0.4-0.1-1,0.3-1.3c1.9-2,3.8-4,5.8-6.1c0.2-0.3,0.3-0.5,0.3-0.8c-0.3,0.1-0.6,0.2-0.8,0.4
				c-1.9,1.8-3.7,3.7-5.6,5.5c-0.4,0.3-0.8,0.5-1.3,0.5C46.6,63.8,43.1,63.5,39.7,63.3L39.7,63.3z"/>
			<path class="st0" d="M22.1,70.5c-3.7-0.4-7.5-0.7-11.2-1.1c-1-0.2-2.1-0.5-3-1c-0.9-0.3-1.5-1.1-1.4-2c-0.2-1.9,0.4-3.9,1.7-5.4
				c2.1-2.4,4.3-4.6,6.6-6.8c1.8-1.8,4.2-1.9,6.4-2.2c4-0.6,8.1-0.5,12,0.3c1.7,0.3,3.1,1.6,3.5,3.3c0.1,0.2,0.1,0.3,0.1,0.5
				c0.5,1.3,0.1,2.7-1,3.5c-1.9,1.4-3.2,3.4-3.8,5.7c-0.1,0.2-0.2,0.4-0.4,0.6c-2.6,2.8-5.6,4.7-9.6,4.5L22.1,70.5z M31.3,56.6
				L31,56.3c-0.3,0.2-0.6,0.4-0.8,0.7c-1.8,1.8-3.6,3.5-5.4,5.3c-0.4,0.4-1,0.6-1.5,0.5c-4.4-0.3-8.9-0.4-13.3-0.6
				c-0.4,0-0.7,0.1-1.1,0.2l0,0.4L23.6,64c0.3,1.3,0.5,2.4,0.8,3.5c0.1,0.2,0.4,0.4,0.7,0.6c0.1-0.3,0.4-0.6,0.4-0.8
				c-0.1-0.8-0.3-1.6-0.5-2.3c-0.3-0.7-0.1-1.4,0.5-1.9c1.8-1.9,3.6-3.8,5.4-5.7C31,57.2,31.2,56.9,31.3,56.6L31.3,56.6z"/>
			<path class="st0" d="M66.9,35.5c2.7,0.3,5.4,0.5,8.1,0.9c1.9,0.3,3.5,1.8,3.7,3.7c0.1,0.7,0.3,1.4,0.4,2.1c0,0.2,0,0.5-0.1,0.6
				c-1.9,2.4-3.6,4.9-5.6,7.3c-2.2,2.8-5.5,4.3-9.1,4.2c-0.6,0-1.1-0.2-1.5-0.6c-1.7-1.3-3.7-2-5.9-1.9c-2.5-0.2-4.9-0.1-7.4,0
				c-0.6,0-0.9-0.2-1-0.7c-0.4-2.1,0.1-4.2,1.4-5.8c2.2-2.6,4.7-4.9,7.1-7.3c1.5-1.4,3.5-1.5,5.4-1.8c1.5-0.3,3-0.4,4.5-0.5
				L66.9,35.5z M73.2,40.9l-0.3-0.2c-0.2,0.1-0.4,0.3-0.6,0.5c-1.9,1.8-3.7,3.7-5.6,5.5c-0.4,0.4-0.9,0.6-1.4,0.5
				c-4.3-0.3-8.6-0.5-12.9-0.6c-0.5,0.1-1,0.2-1.5,0.4c0.5,0.2,0.9,0.3,1.4,0.4c4.1,0.4,8.1,0.8,12.2,1c0.8,0.1,1.1,0.4,1.2,1.2
				c0.1,0.8,0.3,1.6,0.5,2.3c0.1,0.2,0.4,0.4,0.7,0.6c0.1-0.3,0.4-0.6,0.3-0.8c-0.1-0.9-0.3-1.7-0.6-2.5c-0.2-0.5-0.1-1.1,0.3-1.5
				c1.9-1.9,3.7-3.9,5.6-5.8C72.8,41.5,73,41.2,73.2,40.9z M73.9,39.6l0.4,0.4l0.9-1c-0.1-0.1-0.3-0.3-0.4-0.4
				C74.5,38.9,74.2,39.2,73.9,39.6L73.9,39.6z"/>
			<path class="st0" d="M37.9,53.5c-0.7-0.3-1.4-0.6-2.1-1c-1.6-1.1-3.5-1.7-5.4-1.7c-2.5-0.1-5.1-0.1-7.6,0c-0.9,0-1-0.5-1.1-1
				c-0.3-2,0.3-4.1,1.6-5.7c2.1-2.4,4.4-4.6,6.6-6.9c1.5-1.5,3.4-1.7,5.4-2c4.3-0.7,8.7-0.7,13,0.2c1.7,0.3,3.1,1.6,3.5,3.4
				c0.2,0.7,0.3,1.4,0.4,2.1c0,0.4-0.2,0.7-0.4,0.9c-0.9,1.1-2,2.1-2.9,3.2c-0.5,0.7-1,1.4-1.3,2.2c-1.4,3.5-4.3,5.1-7.7,6
				c-0.6,0.1-1.3,0.2-1.9,0.3L37.9,53.5z M27.7,44.9l0,0.2c-0.9,0-1.9,0-2.8,0.1c-0.2,0-0.4,0.2-0.6,0.3c0.2,0.2,0.4,0.3,0.6,0.4
				C25.4,46,26,46,26.5,46l11.7,1c0.4,0,0.8,0.3,0.8,0.7c0,0,0,0.1,0,0.1c0.1,0.9,0.3,1.8,0.6,2.6c0.1,0.3,0.4,0.4,0.7,0.6
				c0.1-0.3,0.4-0.6,0.4-0.9c-0.1-0.8-0.3-1.7-0.6-2.4c-0.2-0.5-0.1-1,0.3-1.4c1.9-2,3.8-4,5.7-6c0.2-0.3,0.3-0.6,0.4-0.9
				c-0.3,0.1-0.6,0.2-0.8,0.4c-1.7,1.7-3.5,3.4-5.2,5.2c-0.6,0.6-1.4,0.9-2.2,0.7C34.7,45.4,31.2,45.2,27.7,44.9z"/>
			<path class="st0" d="M63.6,35c-0.1-0.6-0.1-1.2-0.1-1.9c0.1-1.9,0.9-3.8,2.2-5.2c1.4-1.6,2.9-3.1,4.4-4.7
				c1.8-1.9,4.2-3.2,6.8-3.5C81.6,18.9,86.3,19,91,20c1.1,0.4,2,1.2,2.5,2.3c0.2,0.4,0.3,0.8,0.4,1.3c0.6,1.6,0.2,3.3-1,4.5
				c-1.8,2-3.2,4.2-5,6.1c-2.1,2.4-5.2,3.8-8.3,3.6c-0.5,0-0.9-0.2-1.3-0.6c-1.3-1.2-2.9-1.9-4.6-2.2C70.3,34.6,66.9,34.6,63.6,35z
				 M66.1,30.1l0,0.4c0.3,0.1,0.6,0.1,0.9,0.1c4.3,0.4,8.6,0.8,12.9,1.1c0.5,0,0.9,0.4,1,0.9c0,0,0,0,0,0.1c0.1,0.8,0.3,1.7,0.6,2.5
				c0.1,0.3,0.4,0.4,0.6,0.6c0.1-0.3,0.4-0.6,0.4-0.9c-0.1-0.8-0.3-1.6-0.6-2.4c-0.3-0.5-0.1-1.2,0.3-1.5c1.9-2,3.8-3.9,5.6-5.9
				c0.2-0.3,0.4-0.6,0.5-0.9l-0.3-0.2c-0.3,0.2-0.6,0.5-0.8,0.7c-1.7,1.7-3.5,3.3-5.1,5.1c-0.5,0.5-1.3,0.8-2,0.7
				c-4.3-0.2-8.6-0.4-13-0.6C66.8,29.9,66.5,30,66.1,30.1z M89.2,22.9l0.4,0.4c0.3-0.3,0.7-0.6,1-0.9c-0.1-0.1-0.2-0.3-0.3-0.4
				L89.2,22.9z"/>
			<path class="st0" d="M56.3,17.8c2.2,0.3,5.1,0.5,8.1,1c1.5,0.3,2.3,1.6,2.8,3.1c0.2,0.7,0.4,1.5,0.4,2.2c0,0.3-0.1,0.6-0.4,0.9
				c-0.8,0.9-1.7,1.6-2.3,2.5c-0.8,0.9-1.5,1.9-2,3c-1.4,3.6-6.6,6.6-10.4,6.1c-0.2,0-0.4-0.1-0.5-0.3c-1.3-1.4-3.1-2.3-5-2.5
				C44,33.3,41,33.3,38,33.6c-0.9,0.1-1.1-0.2-1.1-1c-0.1-1.9,0.5-3.8,1.7-5.3c2.1-2.4,4.4-4.6,6.6-6.9c1.3-1.4,3.2-1.7,5-2
				C52.1,18.1,53.7,18.1,56.3,17.8z M43.4,28.3l0,0.1c-1,0-2,0-3,0.1c-0.3,0-0.6,0.3-0.9,0.4c0.3,0.2,0.6,0.3,0.9,0.4
				c4.3,0.4,8.6,0.7,12.9,1.1c0.7,0.1,0.9,0.3,0.9,0.9c0.1,0.9,0.3,1.7,0.6,2.5c0.1,0.3,0.4,0.4,0.7,0.6c0.1-0.3,0.4-0.6,0.4-0.9
				c-0.1-0.8-0.3-1.6-0.6-2.4c-0.3-0.5-0.1-1.2,0.3-1.5c1.9-2,3.8-4,5.7-6c0.2-0.3,0.3-0.5,0.3-0.8c-0.3,0.1-0.6,0.2-0.8,0.4
				c-1.9,1.8-3.7,3.7-5.6,5.5c-0.4,0.3-0.9,0.5-1.3,0.5C50.4,28.9,46.9,28.6,43.4,28.3z"/>
			<path class="st0" d="M78.2,18.6c-0.4-2.1,0.2-4.2,1.5-5.8c2.3-2.6,4.7-5.1,7.3-7.4c0.9-0.7,2-1.2,3.2-1.4
				c5-1.1,10.1-1.2,15.1-0.1c2,0.4,2.8,1.8,3.3,3.6c0.2,0.7,0.3,1.5,0.3,2.2c0,0.3,0,0.5-0.2,0.7c-1.7,2.2-3.3,4.5-5.1,6.6
				c-1.7,2.2-4.1,3.8-6.7,4.5c-0.4,0.1-0.7,0.1-1.1,0.2c-0.8,0.2-1.5-0.1-2-0.8c-0.9-0.9-2-1.6-3.3-2C86.4,17.9,82.2,17.8,78.2,18.6
				z M103,8.1l-0.4-0.2c-2,2-4,3.9-5.9,5.9c-0.5,0.5-1.2,0.7-1.9,0.6c-4.3-0.3-8.6-0.5-12.9-0.6c-0.4,0.1-0.8,0.2-1.1,0.4
				c0.3,0.2,0.7,0.3,1.1,0.4c4.2,0.4,8.5,0.8,12.7,1.1c0.7,0.1,0.9,0.4,1,1c0.1,0.8,0.3,1.7,0.6,2.5c0.1,0.2,0.4,0.4,0.6,0.6
				c0.1-0.3,0.4-0.5,0.4-0.8c-0.1-0.9-0.3-1.7-0.6-2.5c-0.3-0.5-0.1-1.2,0.3-1.5c1.9-1.9,3.8-3.9,5.6-5.9
				C102.7,8.7,102.9,8.4,103,8.1z"/>
			<path class="st0" d="M38.2,57.2l-0.7-2.6c1.8-0.3,3.6-0.7,5.3-1.4c1.6-0.9,3.1-2,4.5-3.2l0.1,2.2C43.8,52.8,40.6,54.5,38.2,57.2z
				"/>
			<path class="st0" d="M56.5,37.3L53.4,40l-0.6-2.2L56.5,37.3z"/>
			<path class="st0" d="M62.6,35.2l-3,0.8l3.1-2.9L62.6,35.2z"/>
			<path class="st0" d="M71.3,21.2l-2.6,2.3l-0.4-1.7L71.3,21.2z"/>
			<path class="st0" d="M85.2,5.6l-2,1.8l-0.5-1.9L85.2,5.6z"/>
			<path class="st0" d="M77.1,17l0,1.8l-2.5,0.7L77.1,17z"/>
		</g>
	</g>
</g>
</svg>
