<?xml version="1.0" encoding="utf-8"?>
<!-- Generator: Adobe Illustrator 21.0.2, SVG Export Plug-In . SVG Version: 6.00 Build 0)  -->
<svg version="1.1" id="Layer_1" xmlns="http://www.w3.org/2000/svg" xmlns:xlink="http://www.w3.org/1999/xlink" x="0px" y="0px"
	 viewBox="0 0 135 97.7" style="enable-background:new 0 0 135 97.7;" xml:space="preserve">
<style type="text/css">
	.st0{fill:#F7B780;}
</style>
<title>cookies</title>
<g id="Layer_2">
	<g id="Layer_1-2">
		<g id="n4SXqZ">
			<path class="st0" d="M6.5,66.1c-0.6-1.5-1.2-3-1.7-4.6c-0.1-0.2,0.1-0.5,0.3-0.6c1.5-1.2,3.1-2.4,4.6-3.6c0.3-0.3,0.8-0.9,0.7-1
				c-0.4-0.6-0.9-0.1-1.3,0.1c-1.4,1-2.8,2-4.2,2.9l-0.8,0.5l-2.5-6.9l7.5-4.4c0.1-0.1,0.3-0.1,0.4-0.1c1.9,0.8,3.9,1.1,6,0.9
				c2,0.1,4.1,0,6-0.1c4.5,11.6,9.7,23.2,16.6,33.8l0.3-0.1c-0.4-1.6-0.9-3.2-1.5-4.8c-2.6-5.9-5.3-11.8-8-17.8
				c-1.4-3.2-2.8-6.4-4.1-9.7c-0.2-0.4-0.3-0.9-0.5-1.4c1.8-0.6,3.5-1,5.1-1.7c7.2-2.9,14.3-5.8,21.4-8.7c6.9-2.8,13.7-5.8,20.3-9.3
				c2.4-1.3,4.8-2.6,7.2-3.9c0.2-0.1,0.3-0.5,0.5-0.8c-0.3-0.1-0.6-0.2-0.9-0.1c-10.1,4.6-20.5,8.7-30.8,13
				c-7.6,3.2-15.3,6.3-23,9.4l-0.4,0.1c-0.2-0.4-0.4-0.7-0.5-1.1c-0.6-3-1.2-6-1.7-9c0-0.3,0-0.5-0.1-0.8c-0.2-0.3-0.4-0.5-0.6-0.7
				c-0.2,0.3-0.7,0.5-0.7,0.7c-0.1,1.1,0,2.2,0.1,3.3c0.2,1.3,0.3,2.3-1,3c-0.6,0.5-1,1-1.3,1.7c-0.1,0.2,0,0.6,0,0.9
				c0.3-0.1,0.6-0.1,0.9-0.2c0.7-0.6,1.3-1.2,2-1.9l0.8,3.5l-11.5,0.1c0-0.1,0.1-0.3,0.1-0.5c1.7-4,4-7.7,6.9-10.8
				c1.4-1.4,3-2.5,4.7-3.3c4.6-2.4,9.3-4.6,14.1-6.7C50.7,18.8,65.8,13.3,81,8c4.4-1.4,8.9-2.6,13.5-3.5c3.2-0.6,6.5-0.6,9.7,0
				l0.6,0.2L98.9,15c-0.1-0.4-0.2-0.6-0.2-0.7c-0.5-2.4-1.7-4.6-3.4-6.4C94.9,7.5,94.5,7.2,94,7c-0.3-0.1-0.7,0-0.9,0.3
				c-0.1,0.2-0.1,0.6,0,0.9c0.2,0.3,0.3,0.5,0.6,0.7c1.8,1.8,2.9,4.2,3.3,6.7c0.1,0.4-0.1,0.9-0.5,1.1c0,0,0,0-0.1,0
				c-2.7,1.3-5.3,2.5-7.9,3.9c-1.8,0.9-3.3,2.2-5,3.3c-0.1,0.1-0.3,0.3-0.4,0.4l0.1,0.2c0.4-0.2,0.8-0.4,1.2-0.6
				c2.3-0.9,4.7-1.6,7-2.6c2.5-1,5-2.2,7.4-3.4c0.6-0.4,1.2-0.9,1.5-1.5c1.9-3.4,3.8-6.8,5.7-10.1c0.4-0.7,0.9-1.3,1.6-1.6l5.8-2.8
				c0.9,1.5,1.8,2.9,2.6,4.4c1.6,2.7,3.1,5.5,4.7,8.2c0.3,0.4,0.3,1-0.1,1.3c-0.7,0.8-1.2,1.6-1.8,2.4l0.2,0.2l2.6-2.3l1.7,3.1
				c0.1,0.2,0.2,0.4,0.3,0.6c0.6,1,1.3,1.9,0.2,3.2l0.1,0l1.1-0.4l2.6,4.9c-0.4,1,0.6,1.2,0.9,1.8c1.1,2.1,2.1,4.3,3.2,6.4
				c0.4,0.9,0.8,1.8,1.3,2.8c-1.3,0.5-2.6,1-3.8,1.6c-2,0.9-4,1.8-6,2.6c-1.2,0.4-1.9,1.6-1.7,2.8c0,1.5,0,3,0,4.5
				c0.2,1-0.3,1.9-1.1,2.4c-3.6-7.6-8.6-14.4-12.8-21.6c-2-3.6-4.1-7.2-6.1-10.7c-0.4-0.6-0.5-1.4-0.9-2c-0.2-0.3-0.6-0.6-0.8-0.6
				c-0.3,0.2-0.6,0.5-0.7,0.8c0,0.5,0,1,0.3,1.5c1.5,2.9,2.9,6.1,4.7,8.9c3.1,5.2,6.6,10.2,9.7,15.4c2.5,3.8,4.1,8.1,4.9,12.6
				c0.1,1.5-0.6,3-1.8,4c-1.1,0.9-2.3,1.8-3.5,2.5c-6.3,3.5-12.5,7.1-18.9,10.4c-8.1,4.2-16.3,8.2-24.8,11.7c-4.9,2.2-9.9,4-15,5.4
				c-3.1,0.8-6.3,0.9-9.4,0.5c-1.2-0.2-2.3-1.2-3.4-1.8c-0.3-0.1-0.4-0.5-0.7-0.5c-0.3-0.1-0.9-0.2-1.1,0C39.9,89,39.9,89.5,40,90
				c0,0.4,0.3,0.5,0.6,1c-0.7-0.1-1.4-0.3-2.1-0.5c-1.5-0.5-3-1.1-4.5-1.7c-0.6-0.3-1.1-1-1.9-0.8c-0.3,0.1-0.8,0.2-1,0.5
				c-0.9,1.3-2.1,2.3-3.4,3.1c-2.3,1.6-4.6,3.1-7,4.6l-0.4,0.2l-0.5-1c-3.2-6.1-6.1-12.3-8.8-18.6c-0.2-0.5-0.3-0.8,0.1-1.3
				c0.4-0.5,0.1-1.2-0.7-1.3c-0.3,0-0.5-0.2-0.7-0.4c-0.7-1.7-1.5-3.5-2.2-5.3c-0.2-0.5,0-0.7,0.3-1c1.7-1.4,3.4-2.7,5.2-4.1
				c0.4-0.3,0.7-0.6,1-1c0.1-0.2,0.1-0.4,0.1-0.7c-0.2-0.1-0.5-0.2-0.7-0.1c-0.4,0.1-0.7,0.3-1.1,0.6C10.3,63.4,8.4,64.8,6.5,66.1z
				 M79.5,36.3c-2.3-1.1-3.8-0.3-6.1,3.2c-2.2-0.3-2.7-0.1-4.5,2.1c-1.9-0.5-3.9,0-5.2,1.4c-0.2,0.3-0.6,0.4-0.9,0.2
				c-1.4-0.4-2.9-0.1-4,0.8c-0.5,0.4-0.7,1.2-1.2,1.5s-1.4,0.1-1.9,0.4c-0.8,0.5-1.6,1.2-2.3,1.8c-0.8-0.4-1.8-0.3-2.4,0.3
				c-0.7,0.6-1.3,1.3-1.9,2.1c-2.6-0.7-3.4-0.8-5.1,1.2c-1.1,1.3-1.7,2.9-1.6,4.5c0,1.8,1.2,3.3,2.9,3.7l0.9,0.2
				c-0.5,1.1-0.5,2.4,0.1,3.5c0.6,1.1,1.8,1.7,3,1.8c0,2.1,0.4,3.9,2.7,4.4c-0.8,2.3-0.6,3.1,1.3,4.2c0,0.1-0.1,0.3-0.1,0.4
				c-0.5,1.9,0.3,4,1.9,5.2c1.7,1.5,4.2,1.5,5.8,0c1.6-1.3,2.5-3.2,2.5-5.3c2.1,1.3,4.8,0.7,6.1-1.4c0,0,0,0,0-0.1
				c0.2-0.4,0.6-0.6,1-0.6c1.4,0.1,2.8-0.5,3.7-1.5c0.2-0.2,0.5-0.2,0.7-0.2c1.4,0,2.7-0.5,3.7-1.4c0.4-0.3,0.8-0.5,1.3-0.4
				c1.5,0,2.7-0.3,3.3-1.9c0.1-0.1,0.1-0.2,0.2-0.3c0.7-0.5,1.4-0.8,2.1-1.3c1.6,2.1,3.9,1.5,5.5-1.5c2.6,1,5.6,0.1,7.2-2.1
				c1.1-1.1,1.2-2.9,0.1-4c-0.3-0.3-0.6-0.5-0.9-0.6c-0.1-0.1-0.2-0.1-0.2-0.2c1.1-2.6,0.2-4.2-1.9-4.3c0.8-2,0.1-4.2-1.6-5.4
				c0.9-1.9,0.6-4.1-1.8-5.1c-0.3-1-0.3-1.9-0.8-2.5c-0.6-0.5-1.4-0.9-2.2-1.1c0-0.8,0-1.5,0-2.3c-0.2-1.6-1.5-2.9-3.1-3.1
				c-1.6-0.2-3.2,0.3-4.4,1.3C80.8,34.7,80.1,35.5,79.5,36.3L79.5,36.3z"/>
			<path class="st0" d="M93,52.3c-0.2,0.6-0.4,1.1-0.3,1.4c0.3,0.3,0.8,0.5,1.2,0.5c1.8-0.1,2.2-0.2,1.6,1.8
				c-0.1,0.2-0.2,0.5-0.4,0.6c-0.6,0.5-0.5,1.1,0.2,1.5l0.2,0.1c1.2,0.6,1.3,1,0.3,1.9c-1.2,1.3-3.2,1.7-4.8,0.8
				c-1-0.5-1.6,0-1.9,1.1c-0.2,0.6-0.5,1.2-1,1.7c-0.4,0.5-0.9,0.3-1.3-0.2c-0.2-0.3-0.7-0.7-0.9-0.6c-0.2,0.1-0.5,0.6-0.9,1
				c-0.8,0.2-1.9,0.5-2.9,0.8c-0.3,0.1-0.4,0.4-0.5,0.7c-0.2,1-1.2,1.6-2.2,1.3c-0.1,0-0.3-0.1-0.4-0.1c-0.1,0-0.2-0.2-0.3-0.2
				c-0.5-0.1-1.1-0.3-1.4-0.1c-0.4,0.2-0.3,0.8-0.4,1.3c-0.9,0.8-2.1,1.1-3.2,0.8c-0.7-0.2-1.1,0.1-1.2,0.8
				c-0.1,0.2-0.2,0.5-0.4,0.6c-0.9,0.5-2,0.5-3,0.2c-1.1-0.3-1.6,0.1-1.4,1.3c0,0.2,0,0.3-0.1,0.5c-0.9,1.1-2.4,1.4-3.6,0.8
				c-0.9-0.3-1.9,0.1-2.2,1c0,0,0,0,0,0.1c-0.3,1.4-1,2.6-2,3.6c-0.8,1-2.2,1.2-3.2,0.4c-0.2-0.2-0.5-0.4-0.6-0.7
				c-0.4-0.8-0.7-1.6-0.9-2.5c0-0.4,0.1-0.8,0.3-1.1c0.4-0.6,0.3-1.1-0.4-1.4c-0.1-0.1-0.3-0.1-0.5-0.1c-1.2-0.2-1.5-0.9-1-2
				s0.2-2-1.2-2.3c-0.4-0.1-0.8-0.4-1-0.8c-0.4-0.9-0.3-2,0.3-2.8c0.1-0.2,0.3-0.3,0.4-0.5c0.3-0.5,0.4-1-0.1-1.3
				c-0.4-0.1-0.9,0.1-1.3,0.2c-0.1,0-0.2,0.3-0.4,0.3c-0.5,0.1-1,0.4-1.4,0.2c-0.4-0.2-0.8-0.6-0.9-1.1c0-0.7,0.2-1.3,0.6-1.9
				c0.3-0.5,0.6-1,0.9-1.4c0.5-0.7,0.2-1.2-0.6-1.2c-0.4,0-0.7,0-1.1,0.1c-2.6,0.3-3.5-0.9-2.6-3.3c0.3-0.9,0.9-1.6,1.8-1.9
				c0.4-0.1,0.9-0.1,1.3,0c0.4,0.1,0.7,0.2,1.1,0.3c0.8,0.2,1.1,0,1.3-0.9c0.1-0.7,0.5-1.4,1.1-1.8c0.5-0.4,0.9-0.3,1.1,0.3
				c0.1,0.2,0.1,0.4,0.2,0.4c0.3,0.2,0.6,0.6,0.9,0.5c0.4-0.1,0.6-0.4,0.8-0.8c0.2-0.5,0.2-1,0.4-1.5c0.2-0.7,0.9-1.2,1.6-1.3
				c0.4,0.1,0.8,0.2,1.2,0.3c0.3,0.1,0.8,0.3,1,0.2c0.3-0.2,0.5-0.6,0.5-1c0-1.5,0.4-2,1.9-2.1c0.5-0.1,1,0.1,1.2,0.6
				c0.2,0.3,0.5,0.5,0.9,0.5c0.4-0.1,0.7-0.4,0.8-0.8c0.5-1.4,1.9-2.3,3.4-2.2c0.3,0.1,0.5,0.4,0.6,0.7c0.2,0.6,0.5,1,1.2,0.9
				c0.5-0.1,0.8-0.6,0.7-1c0-0.1,0-0.2-0.1-0.2C70,42.8,70.4,42,71,41.7c0.6-0.5,1.5-0.5,2.1,0c0.7,0.6,1.6,0.1,2-0.8
				c0.3-0.8,0.7-1.6,1.3-2.3c0.5-0.7,1.6-0.9,2.3-0.4c0.1,0.1,0.2,0.1,0.2,0.2c0.4,0.3,0.8,0.5,1.2,0.6c0.7,0.2,0.8-0.4,0.9-0.9
				c0.4-2.1,2.4-3.5,4.5-3.2c0.8,0,1.5,0.7,1.5,1.5c0,0.9,0,1.8,0,2.7c-0.1,0.5,0.2,0.9,0.7,1c0.1,0,0.2,0,0.3,0c0.4,0,0.8,0,1.2,0
				c0.8,0.1,1,0.4,0.5,1.1c-0.2,0.3-0.5,0.6-0.8,0.9c-0.5,0.4-0.7,0.9-0.3,1.5c0.4,0.6,0.9,0.5,1.4,0.2c1-0.5,1.7-0.4,2.1,0.2
				c0.5,0.8,0.2,1.8-0.5,2.3l-0.1,0.1c-0.5,0.4-1,0.7-0.7,1.5c0.3,0.7,0.9,0.7,1.6,0.6c0.3,0,0.6,0.1,0.9,0.3
				c0.7,0.7,0.7,1.8,0.1,2.5C93,51.6,93,52.1,93,52.3z M67.1,60.7c0.8,0.1,1.7,0.3,2.4-0.5c0.2,0.5,0.4,0.9,0.6,1.3
				c0.2,0.5,0.6,0.9,1,1.3c0.3,0.2,0.7,0.2,1.1,0c0.2-0.1,0.2-0.6,0.2-1c0-0.3-0.2-0.4-0.3-0.6c-0.9-1.9-1.5-4-1.7-6.1
				c-0.1-0.7-0.2-1.3-0.4-2c-0.1-0.5-0.4-0.9-1-0.8c-0.5,0.1-0.9,0.5-0.8,1c0,0,0,0.1,0,0.1c0.1,1,0.2,1.9,0.3,2.9
				c0.2,0.9,0,1.8-0.4,2.6c-1.1-1.2-1.7-2.8-1.7-4.4c0-0.3-0.3-0.6-0.4-0.9c-0.4,0.2-0.7,0.4-1,0.7c-0.2,0.2-0.2,0.5-0.2,0.7
				c0,0.7,0.2,1.5,0.3,2.2C65.4,58.5,66.1,59.7,67.1,60.7c-0.7,0.6-1.4,1.3-2.1,1.9c-0.3,0.3-0.5,0.8-1.1,0.4
				c-0.6-0.3-0.8-1-0.5-1.6c0.7-1.4,1-3,0.7-4.6c-0.1-0.4-0.3-0.8-0.6-1c-0.9-0.8-2.1-0.4-2.6,0.9c-0.8,2.7-0.2,5.7,1.7,7.8
				c0.8,0.8,2.2,0.9,3,0c0.1-0.1,0.2-0.2,0.3-0.3C66.7,63.1,67.1,61.9,67.1,60.7z M84.1,51.1c-1.1-0.6-1.4-0.6-2.6,0.3
				c-0.2-0.5-0.3-1-0.6-1.5c-0.2-0.5-0.1-1.3-0.9-1.1c-0.8,0.2-0.5,1-0.3,1.5c0.7,2,1.4,3.9,2.1,5.8c0.2,0.3,0.5,0.5,0.8,0.6
				c1.7,0.2,2.5-0.5,2.9-2.4c0.2,0.2,0.4,0.4,0.6,0.6c0.7,0.7,1.7,1.1,2.6,1c0.9-0.1,1.5-0.9,1.4-1.8c0-0.1,0-0.1,0-0.2
				c-0.2-0.7-0.4-0.8-1-0.3c-0.4,0.4-1,0.4-1.4,0c0,0,0,0,0,0c-0.3-0.3-0.6-0.6-0.8-0.9c1.2-2.3,1.4-5,0.6-7.5
				c0-0.1-0.1-0.1-0.1-0.2c-0.3-0.7-1.2-1-1.9-0.7c-0.3,0.1-0.6,0.4-0.7,0.7c-0.4,0.8-0.6,1.6-0.7,2.4
				C83.9,48.7,84.1,49.9,84.1,51.1z M57.1,59.3c0.9,2.1,1.7,4.1,2.6,6.2c0.1,0.4,0.4,0.8,0.6,1.1c0.2,0.2,0.5,0.3,0.8,0.2
				c0.2,0,0.3-0.5,0.3-0.7c0-0.3-0.1-0.7-0.2-1c-0.9-2.3-1.9-4.7-2.8-7.1c-0.2-0.3-0.5-0.5-0.8-0.6c-1.3,0-2.4,0.7-3.1,1.7
				c-0.1,0.2-0.1,0.5,0,0.7c0.9,2.4,1.7,4.8,2.7,7.1c0.2,0.5,0.6,0.9,1.2,0.6c0.6-0.3,0.4-0.8,0.2-1.3c-0.7-1.7-1.5-3.4-2.3-5.2
				C55.7,59.8,55.7,59.8,57.1,59.3z M77.8,54.8c-0.5-1.4-1-2.8-1.5-4.1c-0.1-0.3-0.4-0.4-0.6-0.6c-0.2,0.2-0.6,0.5-0.6,0.7
				c-0.1,0.5,0,1,0.1,1.5c0.7,2.2,1.7,4.3,3,6.2c0.1,0.2,0.3,0.4,0.5,0.5c0.2,0.1,0.6,0.2,0.7,0.1c0.2-0.2,0.3-0.4,0.2-0.7
				c-0.2-0.5-0.4-1.1-0.6-1.6c-0.4-1-0.4-1,0.5-1.7c0.3,0.6,0.5,1.2,0.9,1.7c0.3,0.6,0.7,1.1,1.1,1.6c0.2,0.1,0.4,0.2,0.6,0.1
				c0.2-0.2,0.2-0.4,0.2-0.6c-0.1-0.4-0.3-0.9-0.4-1.3c-0.9-2.5-1.9-4.9-2.8-7.4c-0.1-0.3-0.5-0.7-0.8-0.7c-0.6,0-0.5,0.6-0.5,1
				c0.2,1,0.4,2,0.7,2.9C79,53.4,78.7,54.4,77.8,54.8C77.8,54.8,77.8,54.8,77.8,54.8z M71.3,54.7c0,1.9,0.4,3.8,1.3,5.5
				c0.3,0.8,1,1.2,1.8,1.2c0.8-0.1,1.4-0.7,1.4-1.5c0-0.2,0-0.5,0-0.7c-0.2,0-0.5,0-0.6,0.2c-0.5,0.4-0.9,0.3-1.1-0.3
				c-0.3-0.5-0.3-1,0-1.5c0.9-1.5,1.2-3.3,0.8-5c-0.1-0.8-0.7-1.5-1.6-1.6c-0.8,0-1.5,0.5-1.6,1.2C71.6,53.1,71.5,53.9,71.3,54.7
				L71.3,54.7z"/>
			<path class="st0" d="M83.2,55.2l-0.5-3.1c0.8,0.4,1.4,1.3,1.3,2.2c-0.1,0.4-0.3,0.7-0.5,1L83.2,55.2z"/>
			<path class="st0" d="M86.2,46.1l0.1,4.5l-0.3,0l0-4.5L86.2,46.1z"/>
			<path class="st0" d="M62.2,59.2l0.2-2.1l0.3,0l-0.2,2L62.2,59.2z"/>
			<path class="st0" d="M73.5,53l-0.1,2.1l-0.2-0.1l0.1-2.1L73.5,53z"/>
		</g>
	</g>
</g>
</svg>
