<svg xmlns="http://www.w3.org/2000/svg" viewBox="0 0 88.46 107.32"><defs><style>.cls-1{fill:#ffab69;}</style></defs><title>corn</title><g id="Layer_2" data-name="Layer 2"><g id="Layer_1-2" data-name="Layer 1"><g id="zHhKwL"><path class="cls-1" d="M2,26.29l2.77,1a57.77,57.77,0,0,0,23,2.68c12.63-.82,24.72-3.76,35.92-9.85,3.07-1.67,6.09-3.44,9.19-5.2.06.23.18.59.25,1q6.8,34.39,13.62,68.77c.19.93-.23,1.22-.89,1.49-5.05,2.06-10.08,4.2-15.17,6.16-6.47,2.49-13.27,3.72-20.06,5a103,103,0,0,1-21,2c-4-.1-8.09-.68-12.13-1a1,1,0,0,1-1-.93q-5-24.14-10-48.26C5,41.79,3.59,34.55,2.15,27.31,2.09,27,2.06,26.71,2,26.29Zm36.52,22c-1.59-.86-3.13-1.74-4.71-2.51-.33-.16-.85,0-1.28.09a3.56,3.56,0,0,0,.22,1.29c1.08,1.72,1.42,3.42.24,5.24-.45.7-.84,1.45-1.24,2.19-1.41,2.68-3,5.29-3.24,8.42a7.13,7.13,0,0,0,3,7,50.24,50.24,0,0,0,4.51,2.35c2.79,1.53,5.41,1.08,8-.45,4.16-2.43,7-6.11,9.56-10,1.4-2.14,2.86-4,5.8-3.93.56,0,1.14-1,1.71-1.55-.46-.44-.85-1.08-1.4-1.27-1.37-.48-2.81-.75-4.24-1.1A46.53,46.53,0,0,0,60.36,38a11.52,11.52,0,0,0-.29-3.88,2.09,2.09,0,0,0-2.83-1.65A14.53,14.53,0,0,0,54.1,33.6a38,38,0,0,0-11.2,9.19C41.3,44.61,39.87,46.58,38.52,48.28ZM76.83,79.64c.11.37.18.68.29,1,.28.84.66,1.63,1.75,1.37s1-1.08,1-1.91a4.62,4.62,0,0,0-.14-.82c-.71-2.57-1.38-5.14-2.16-7.69A8.52,8.52,0,0,0,76.26,69a1.54,1.54,0,0,0-2.83.38,22.43,22.43,0,0,0-1.23,5.29,75.45,75.45,0,0,0,.16,7.73,2.17,2.17,0,0,0,.43,1.32,2,2,0,0,0,1.38.64,1.56,1.56,0,0,0,1-1,5.38,5.38,0,0,0,.09-2C75.12,79.82,75.09,79.83,76.83,79.64Zm-39.92,6.3a22.53,22.53,0,0,0,2,1.75,8.11,8.11,0,0,0,2.58,1.38,2.32,2.32,0,0,0,2-.67c.51-.91-.62-1.13-1.19-1.56l-4.89-3.67a22.57,22.57,0,0,0,2-2.3,4.48,4.48,0,0,0,.33-1.58c-.55,0-1.21-.14-1.62.11a14.06,14.06,0,0,0-2,1.73,18.85,18.85,0,0,0-.59-2.57,1.25,1.25,0,0,0-1-.56c-.25,0-.59.48-.7.81a3.41,3.41,0,0,0-.15,1.41c.27,2.52.53,5,.91,7.55.12.78.46,1.79,1.58,1.58s.92-1.29.9-2.14C37.08,86.9,37,86.58,36.91,85.94Zm32.1-9,.15-.2c1.15-1.5,1.19-3.08.1-4.09a3.32,3.32,0,0,0-4.17.32c-.3.31-.25,1-.36,1.46a5.81,5.81,0,0,0,1.35.17,8,8,0,0,0,1.46-.42l.26.42c-.7.72-1.39,1.44-2.1,2.15-1.09,1.09-.82,2.26.65,2.71.46.14.94.2,1.4.32,1.74.48,2.13,1.79.9,3.12a4.82,4.82,0,0,1-1.26.86c-.71.39-1.15.9-.84,1.73s1,.95,1.77.78c2.54-.55,4.48-4.12,3.3-6.42A15.73,15.73,0,0,0,69,76.93ZM50.32,84.51c.11.52.3,1.46.51,2.39s.56,1.6,1.56,1.45,1.07-1.06,1-1.88a20.17,20.17,0,0,0-.47-2.59,1.07,1.07,0,0,1,.68-1.41,10.45,10.45,0,0,0,2.07-1.4,2.87,2.87,0,0,0-.65-5,4.72,4.72,0,0,0-3.82,0c-1.64.54-1.9.86-1.68,2.57S50,82.27,50.32,84.51ZM21.63,79.69c-.06-.23-.11-.42-.17-.61-.25-.77-.5-1.67-1.55-1.44s-.9,1.16-.8,2,.18,1.58.33,2.36q.63,3.34,1.31,6.67c.15.75.68,1.33,1.42,1.08.44-.15.71-.88,1-1.37.08-.12,0-.34,0-.57a7.91,7.91,0,0,0,2.14,1c.54.07,1.15-.4,1.73-.62a7.19,7.19,0,0,0-.73-1.57c-.27-.35-.8-.5-1.2-.76-2.18-1.41-2.53-2.7-1.42-5,.33-.69,1-1.5.08-2.12s-1.41.4-1.94,1C21.84,79.67,21.79,79.66,21.63,79.69Zm39.07-1.78a22.6,22.6,0,0,0-1.82-2.51,1.57,1.57,0,0,0-1.42-.4,1.64,1.64,0,0,0-.59,1.44,10.64,10.64,0,0,0,1.41,2.86c1.36,2,2.54,3.86,2.12,6.45-.25,1.57.3,2.29,1.2,2.33s1.35-.61,1.46-2.2c.23-3.17.47-6.34.63-9.52,0-.42-.32-1.16-.59-1.21a1.68,1.68,0,0,0-1.4.51A11.1,11.1,0,0,0,60.71,77.92ZM45.14,81.18c-.39-.49-.7-.83-1-1.22a23.85,23.85,0,0,0-1.47-2.32,1.46,1.46,0,0,0-1.28-.44,1.35,1.35,0,0,0-.56,1.21c.6,2,1.41,3.94,3.3,5.09a1.22,1.22,0,0,1,.66,1.34,30.53,30.53,0,0,0-.11,3.46,1.27,1.27,0,0,0,1.35,1.37c.83,0,1.16-.6,1.25-1.34,0-.32,0-.64.05-1,.39-3.27.81-6.54,1.14-9.82A1.5,1.5,0,0,0,48,76.31a1.48,1.48,0,0,0-1.32.35,4,4,0,0,0-.8,1.58C45.6,79.13,45.41,80.06,45.14,81.18Zm-15.64.87c-.69-1.48-1.21-2.63-1.76-3.76-.33-.67-.91-1.22-1.6-.77a1.75,1.75,0,0,0-.52,1.58,19.8,19.8,0,0,0,2.23,5.11,4.41,4.41,0,0,1,.81,3.71s0,.08,0,.12c-.08.93-.22,2,1.05,2.15s1.4-.92,1.56-1.85c0-.08,0-.16,0-.24.3-2.61.61-5.22.89-7.84a4.23,4.23,0,0,0,0-1.65c-.13-.41-.6-.71-.92-1.05-.32.35-.79.64-.92,1C30,79.61,29.81,80.67,29.5,82.05Z"/><path class="cls-1" d="M28.09,3c9.28-1.84,18.62-3.3,28.12-3C60.49.2,64.74,1,69,1.51a3.37,3.37,0,0,1,1.66.87A2.26,2.26,0,0,1,70.76,6c-3.14,3.28-7,5.46-11,7.61a70.77,70.77,0,0,1-24.47,7.78,87.13,87.13,0,0,1-20,.67c-4.43-.39-8.79-1.13-12.68-3.5a10,10,0,0,1-1.37-1c-1.72-1.5-1.66-2.5,0-4,3.6-3.22,8-4.9,12.43-6.49C18.4,5.39,23.24,4.16,28,2.74ZM24.42,7.37,24.33,7,16.15,8.7c-2.3.49-3.46,1.76-3.54,4.1a20.56,20.56,0,0,0,.29,3.8c.2,1.33.8,1.71,2.15,1.69a85.91,85.91,0,0,0,18.28-2.72,11.31,11.31,0,0,0,2.43-1,2,2,0,0,0,1.12-2.08c-.05-1,0-2-.14-3a10.07,10.07,0,0,0-.66-2.64c-.59-1.38-1.3-1.71-2.77-1.41C30.33,6.1,27.38,6.74,24.42,7.37Z"/><path class="cls-1" d="M88.46,89.13A4.87,4.87,0,0,1,87,92.31a27.54,27.54,0,0,1-4.06,3.1,71.26,71.26,0,0,1-21.67,8.31c-12.61,2.68-25.32,4.22-38.24,3.35a26.71,26.71,0,0,1-3.91-.52,3.26,3.26,0,0,1-2.67-4.1c.18-.59.43-1,1.19-.79,7.84,1.75,15.77,1.57,23.68.74,9.61-1,19.16-2.55,28.31-5.74C75.95,94.45,82.11,91.69,88.46,89.13Z"/><path class="cls-1" d="M1.15,21c6.39,3.79,13.4,4.22,20.44,4.35a89.55,89.55,0,0,0,25.17-3.26A69.63,69.63,0,0,0,68.55,11.72c1.07-.75,2.08-1.61,3.11-2.42,1,1.61.93,2.29-.6,3.28-8.19,5.27-16.84,9.54-26.36,11.87-8.36,2-16.8,3.39-25.44,2.93A50.3,50.3,0,0,1,3.15,24.26C1.27,23.52,1.11,23.26,1.15,21Z"/><path class="cls-1" d="M36.86,50.77A25.42,25.42,0,0,1,37,54.6c-.2,1.69-.66,3.36-1,5a2.21,2.21,0,0,0,.66,2.48c.63-.89,1.22-1.77,1.86-2.6,1.93-2.48,3.87-5,5.87-7.39a1.51,1.51,0,0,1,1.31-.39,1.3,1.3,0,0,1,.5,1.16,37.6,37.6,0,0,1-1.36,4.45c-.8,2.08-1.72,4.12-2.58,6.18-.1.25-.18.51-.27.77l.26.31a34.82,34.82,0,0,0,3.23-2.45c2-1.93,4.12-3.77,6.84-4.68.53-.17,1.06-.32,1.78-.53-3.55,4.59-6.29,9.63-11.32,12.64-1.81,1.08-3.7,1.71-5.62.56a27.49,27.49,0,0,1-4.76-3.51,4.38,4.38,0,0,1-.92-2.72c-.18-2.83,1.16-5.24,2.4-7.65.92-1.8,1.82-3.61,2.73-5.42Z"/><path class="cls-1" d="M51,46.65l-.9,1.61-2.5-2.17L48.72,45Z"/><path class="cls-1" d="M55.18,48.22l-.83,2.24-2.25-.89,1.14-2.11Z"/><path class="cls-1" d="M51.47,41.43,53,43.07l-.68,1.24-2-1.53Z"/><path class="cls-1" d="M50.88,51.82l2.42.76c-.17,1.43-.76,1.44-3,.34Z"/><path class="cls-1" d="M44.18,45.33c1.11,1.24-.25,1.74-.4,2.69l-1.08-.85Z"/><path class="cls-1" d="M39.69,52.73l1.12.9a2.81,2.81,0,0,1,.28.34l-1.65,2Z"/><path class="cls-1" d="M41.61,48.72c.7.9,1.14,1.73.28,2.68C40.76,50.27,40.71,49.86,41.61,48.72Z"/><path class="cls-1" d="M49,55.05l1.24.6-2,1.06-.2-.13Z"/><path class="cls-1" d="M54.5,44.87c.36,0,.78-.2,1.05-.06s.41.57.61.87l-.31.29-1.33-.6Z"/><path class="cls-1" d="M53.22,39.27c.32,0,.72-.11,1,0,.64.38.5.86-.06,1.39l-1-1Z"/><path class="cls-1" d="M75.23,74.32c1.21,2.36,1.19,2.58-.13,2.7Z"/><path class="cls-1" d="M52.35,80.55,52,78c1-.4,2.19-.34,2.43.55C54.72,79.72,53.28,79.83,52.35,80.55Z"/><path class="cls-1" d="M33.55,8.6c0,1.33,0,2.32-.1,3.3,0,.19-.33.47-.55.52-1.38.33-2.78.61-4.23.91-.14-.43-.29-.84-.4-1.25-.52-1.95-.17-2.44,1.78-2.75C31.14,9.16,32.22,8.88,33.55,8.6Z"/></g></g></g></svg>