<svg xmlns="http://www.w3.org/2000/svg" viewBox="0 0 97.05 58.8"><defs><style>.cls-1{fill:#b8d279;}</style></defs><title>fish</title><g id="Layer_2" data-name="Layer 2"><g id="Layer_1-2" data-name="Layer 1"><g id="ldWw5c"><path class="cls-1" d="M3.85,27.31c4.14,0,8.15.17,12.15.13a187.62,187.62,0,0,0,54.47-8.38c5.83-1.81,11.5-4.11,17.23-6.23.76-.28,1.14-.14,1.32.61q2.16,9.19,4.32,18.38a1.1,1.1,0,0,1-.69,1.41A146.82,146.82,0,0,1,28.12,51.47,153.46,153.46,0,0,1,9,51.08c-.69-.06-1-.27-1.1-1-1.06-6-2.16-12-3.23-18C4.33,30.57,4.11,29,3.85,27.31ZM58,32.56c-.45-.18-.62-.23-.78-.31-4.35-2.31-8.81-2.15-13.26-.46a12.12,12.12,0,0,0-6.61,5.61c-.79,1.47-.6,2.67.84,3.51a9.22,9.22,0,0,0,3.41,1.3c5.62.65,10.67-.69,14.78-4.78.66-.66,1.27-1.38,2-2.14l4.41,4.48.38-.33c-.23-2.51-2.15-4-3.67-5.86a7.57,7.57,0,0,0,.66-1.17c.57-1.61,1.15-3.22,1.61-4.86.08-.28-.4-.72-.62-1.08a4.47,4.47,0,0,0-.73.87C59.53,29.05,58.77,30.78,58,32.56Zm7.95-7L68.76,25c.74-.16,1.46-.46,1.22-1.37s-1-.74-1.67-.58c-1.06.25-2.11.54-3.17.8s-1.51.65-1.27,1.77c.91,4.26,1.88,8.51,2.88,12.76a1.42,1.42,0,0,0,1.95,1.11,11,11,0,0,0,3.18-1.55,4.12,4.12,0,0,0,1-5.42,4,4,0,0,0-4.69-2L67,30.81ZM79.68,31c.65,1.12,1.23,2.21,1.9,3.23.14.22.64.2,1,.3.09-.32.35-.73.24-1q-2.9-6.14-5.91-12.23c-.18-.37-.79-.53-1.2-.79-.2.45-.57.89-.58,1.34,0,3,0,6,.11,9,0,1.83.13,3.66.31,5.47,0,.39.57.72.88,1.08a8.19,8.19,0,0,0,.9-1.1c.12-.21,0-.55,0-.83,0-1.22-.07-2.45-.1-3.62ZM16.11,42.15h.09a14,14,0,0,0,.57,2.46,1.63,1.63,0,0,0,1.16.9c.74,0,.89-.68.77-1.34s-.27-1.52-.46-2.27c-.28-1.16-.25-2,1-2.77a4.39,4.39,0,0,0,2.31-3.7,3.44,3.44,0,0,0-1.74-3.28,4.67,4.67,0,0,0-4.07.07c-.27.1-.5.75-.47,1.13C15.51,36.28,15.82,39.21,16.11,42.15Zm8.43-4.83c-.2-1.65-.39-3.32-.61-5-.08-.56-.19-1.16-1-1.06s-.8.67-.75,1.26c.22,2.56.4,5.12.68,7.67a35.89,35.89,0,0,0,.73,4.26,1.68,1.68,0,0,0,.92,1.12,3.85,3.85,0,0,0,4.37-4.18C28.44,38.71,27.33,37.65,24.53,37.32Zm5.59,2.09.11,0c.36,1.69.68,3.38,1.09,5.05.17.69.5,1.46,1.42,1.16s.67-1,.5-1.7-.38-1.36-.5-2c-.57-3.33-1.11-6.66-1.67-10-.1-.61-.13-1.34-1-1.29s-.88.75-.81,1.39C29.51,34.46,29.82,36.94,30.12,39.42Z"/><path class="cls-1" d="M53.8,55.19a172.47,172.47,0,0,1-40.24,3.5,36.68,36.68,0,0,1-5.12-.55A3.59,3.59,0,0,1,6,53.5c.08-.2.6-.35.9-.32A141.94,141.94,0,0,0,26,53.82a142.55,142.55,0,0,0,67.79-19.7,1.77,1.77,0,0,1,2.82.78A3.18,3.18,0,0,1,95.6,39.1a83,83,0,0,1-8.16,4.78A151.17,151.17,0,0,1,53.8,55.19Z"/><path class="cls-1" d="M42.09,3A106.94,106.94,0,0,1,68.52,0,69.05,69.05,0,0,1,85.78,2.66c2.46.7,4.18,2.1,4.58,4.79a1.91,1.91,0,0,1-.62,2,18.31,18.31,0,0,1-3.48,2.3,170.67,170.67,0,0,1-25.58,8.12A195.68,195.68,0,0,1,7.07,25.15C5.71,25.1,4.34,25,3,25a3,3,0,0,1-3-3.1A5,5,0,0,1,2.22,17.4a62.05,62.05,0,0,1,7.51-4.21,140.28,140.28,0,0,1,23-7.77C35.83,4.59,39,3.8,42.09,3Zm14,15.76a154.39,154.39,0,0,0,18.2-4.82,38.08,38.08,0,0,0,9.2-4.39A2.82,2.82,0,0,0,83,4.42a7.08,7.08,0,0,0-2-.57,117.7,117.7,0,0,0-31,.31A138.27,138.27,0,0,0,7.59,16.6c-.49.24-1.18.49-1.35.9A4.91,4.91,0,0,0,5.86,20a2.93,2.93,0,0,0,1.26,1.66,6.44,6.44,0,0,0,2.43,1,72.11,72.11,0,0,0,7.19,1c4.44.31,8.82-.39,13.23-.86A261.24,261.24,0,0,0,56.06,18.75Z"/><path class="cls-1" d="M56.48,34.23a13.78,13.78,0,0,1-5.69,4.7,16.7,16.7,0,0,1-9.26,1.38,12.76,12.76,0,0,1-2.4-.74c-.55-.21-.66-.59-.34-1.17a9.85,9.85,0,0,1,4.38-4.13,14,14,0,0,1,12.49-.58,5.39,5.39,0,0,1,.56.29A1.75,1.75,0,0,1,56.48,34.23ZM48,37.07l.1-.06A18.51,18.51,0,0,0,47,34.94c-.15-.21-.66-.17-1-.24a3.32,3.32,0,0,0-.07,1c.17.78.46,1.53.62,2.31.1.51-.05,1.16.74,1.12s.88-.67.88-1.3A5.89,5.89,0,0,0,48,37.07Zm-6.09.29c.75.3,1.22.66,1.56.56s.8-.83.71-1A2,2,0,0,0,43,36C42.82,36,42.46,36.68,41.93,37.36Z"/><path class="cls-1" d="M68.58,37.62l-1.07-5.06c2.37-.64,3.51-.26,4,1.34S71,36.93,68.58,37.62Z"/><path class="cls-1" d="M78.76,29.2,77.15,30,77,26.18l.22-.07Z"/><path class="cls-1" d="M17.62,37.75l-.48-3.94c1.27-.3,1.91-.06,2.26.81C19.82,35.65,19.2,36.81,17.62,37.75Z"/><path class="cls-1" d="M25.35,43.48l-.65-4.21c1.35-.09,2.09.72,2.3,2.34C27.14,42.59,26.62,43.22,25.35,43.48Z"/><path class="cls-1" d="M55.92,17.41c-7.4,1.06-14.79,2.3-22.22,3.12-6.24.68-12.49,1.62-18.79,1.2a47.85,47.85,0,0,1-6.23-1c-.51-.1-1.37-.82-1.31-1A2.94,2.94,0,0,1,8.58,18q5.45-2.27,11-4.28A154.45,154.45,0,0,1,48.33,6,127.38,127.38,0,0,1,79.13,4.81a14.24,14.24,0,0,1,3.21.49A2.7,2.7,0,0,1,83.7,6.7a1.48,1.48,0,0,1-.67,2,30.66,30.66,0,0,1-2.95,1.61C72.68,13.48,64.84,15.19,57,16.9l-1.13.24ZM78.09,8.84c.5-.34.44-.69.07-1.12a5.09,5.09,0,0,0-3.69-1.57C72,6,69.56,5.82,67.1,5.79a120.44,120.44,0,0,0-46.74,8.6A60.4,60.4,0,0,0,14,17.49a1.89,1.89,0,0,0-.82,1.6c.26.75.63,1.67,1.89,1.53,1.81-.2,3.65-.18,5.47-.3A241.27,241.27,0,0,0,76.69,9.91c.53-.17.94-.72,1.41-1.1Z"/><path class="cls-1" d="M78.1,8.81c-.22-.06-.48-.24-.65-.18-.87.3-1.69.74-2.57,1C65.13,12.15,55.3,14.37,45.34,16c-9.2,1.46-18.47,2.35-27.77,2.91a3.34,3.34,0,0,1-1.07-.24A2.55,2.55,0,0,1,15.43,18l2.09-.76,3.74-1.41a130.2,130.2,0,0,1,49.9-8.9c1.37,0,2.75,0,4.1.17a3.22,3.22,0,0,1,2.83,1.73ZM48.8,13.89l0-.32,1.34-.29c3.28-.76,6.57-1.5,9.84-2.31.37-.09.91-.52.92-.82,0-.7-.55-.88-1.19-.82-.21,0-.42,0-.63,0a104.89,104.89,0,0,0-23.24,3.74c-2.13.57-4.25,1.21-6.35,1.88-.31.1-.49.58-.73.89a10.13,10.13,0,0,0,1,.52,1.15,1.15,0,0,0,.52,0Z"/><path class="cls-1" d="M34.84,14.31l19.34-3.57.06.31c-1.77.94-17.39,3.88-19.33,3.64Z"/></g></g></g></svg>