<svg xmlns="http://www.w3.org/2000/svg" viewBox="0 0 101.76 118.92"><defs><style>.cls-1{fill:#b8ccd7;}</style></defs><title>flour</title><g id="Layer_2" data-name="Layer 2"><g id="Layer_1-2" data-name="Layer 1"><g id="_0fNYKk" data-name="0fNYKk"><path class="cls-1" d="M101.76,63.25c-.18,11.89-.34,23.77-.55,35.66a63.31,63.31,0,0,1-.51,8.61,23.59,23.59,0,0,1-2,5.74,13.06,13.06,0,0,1-2.06,3,2.57,2.57,0,0,1-1.59.76c-6.61.63-13.23,1.28-19.85,1.76-3,.21-6,.05-9,0-12.75,0-25.49.08-38.24-.14-7.39-.13-14.77-.79-22.16-1.2a4,4,0,0,1-3.66-3.14A69.86,69.86,0,0,1,0,95.45C.57,78.3.95,61.13,1.81,44c.48-9.6,1.78-19.16,2.78-28.73a7,7,0,0,1,1-2.67A8.26,8.26,0,0,0,6.72,7.5c-.15-1.56-.1-3.15-.09-4.72,0-1.4.11-1.45,1.53-1.57A396.19,396.19,0,0,1,48.72.1c5.6.11,11.2.8,16.79,1.34C73.41,2.19,81.32,3,89.21,3.88c3.32.39,6.59,1.2,9.86,1.89a1.29,1.29,0,0,1,.72.92q.46,3.72.78,7.45C102,30.49,101.6,46.87,101.76,63.25ZM69.81,33A14.13,14.13,0,0,0,70.92,32a16.92,16.92,0,0,0,1.89-2.41,2.41,2.41,0,0,0-.1-2.72c-.61-.82-1.52-.64-2.37-.51-.49.08-1,.23-1.62.38a9.33,9.33,0,0,0,0-2.06,4,4,0,0,0-.93-2c-.69-.59-1.62-.17-2.27.34-.88.69-1.66,1.51-2.52,2.31-1.16-.39-1.66-.29-2.41.83S59,28.68,58.21,30c-.15.25-.46.6-.67.58a2.69,2.69,0,0,0-2.78,1.72c-.57,1.08-1,2.24-1.49,3.37-2.32,0-3,2-4.4,3.41a2.38,2.38,0,0,0-3,.55A32.19,32.19,0,0,0,43.8,42a5.87,5.87,0,0,0-1.64-.35A2.69,2.69,0,0,0,40,43.44a22,22,0,0,0-2.24,10.83c0,.78-.14,1.14-.81,1.37-3.07,1.06-6.09,2.33-9.23,3.13a36.28,36.28,0,0,1-12,1.39c-1-.08-2-.12-3-.13-.69,0-1.36.17-1.42,1s.58,1.08,1.28,1.15,1.3.1,1.94.17a38.31,38.31,0,0,0,15-1.31c3.24-1,6.41-2.14,9.7-3.25A13.78,13.78,0,0,0,49.57,60.3c2.51-.29,3.2-1,3.69-3.32,4.14-1.44,4.87-2.28,4.52-5.26C59,51.3,60.2,51,61.34,50.45c2-.9,2.32-1.69,1.9-3.77a27.4,27.4,0,0,0,2.7-2.23,4.64,4.64,0,0,0,1.36-2.28c.1-.72-.5-1.54-.8-2.32,1.15-1,2.54-2.06,3.77-3.29S71.27,34,69.81,33Zm.35,35.92c-.09-1-.2-1.93-.25-2.84s-.37-1.2-1.32-1.19c-6,.05-12,0-18,0q-18,.07-36,.18c-2.39,0-2.34.06-2.71,2.27-.16.94.16,1.28,1,1.3,2.29.07,4.59.2,6.88.2Q44.43,69,69,69C69.34,69,69.65,69,70.15,68.94Zm-57.9,32.53H67.6c2.78,0,2.75,0,2.42-2.78-.09-.74-.4-.88-1-.87-1.33,0-2.67,0-4,0l-48.38.06H12.25ZM19.72,81.2c-.37-.72-.66-1.26-.93-1.81-.58-1.2-1.15-2.41-1.7-3.63-.75-1.64-1.8-2.72-3.8-2.19h-.1c-.85-.12-1.27.19-1.27,1.11,0,4.42-.12,8.83,0,13.25,0,2.27.21,2.24,2.52,2.14.63,0,.85-.25.87-.84.07-2.05.15-4.1.22-6.16,0-.35,0-.71.06-1.29.76,1.3,1.32,2.43,2,3.46,1.15,1.65,2.88,1.6,4,0,.79-1.13,1.56-2.26,2.47-3.57.15,3,.28,5.71.45,8.45,0,.29.29.81.47.82,1.14.08,2.3,0,3.55,0-.15-3.31-.26-6.59-.46-9.86-.12-2-.35-4-.6-5.92a1.25,1.25,0,0,0-.69-.91,16,16,0,0,0-3-.25,1.19,1.19,0,0,0-.89.55c-.77,1.57-1.45,3.18-2.19,4.75C20.51,79.9,20.14,80.46,19.72,81.2ZM69,91.49c0-3.5.07-6.89,0-10.27a19.23,19.23,0,0,0-.71-4.55,5.45,5.45,0,0,0-4.8-4.33,17.75,17.75,0,0,0-4.09.06c-1.85.22-1.83.34-1.75,2.2,0,.77.35,1,1.07,1a39.09,39.09,0,0,1,4,.17,2.3,2.3,0,0,1,1.49.74c1.06,1.47,1.09,3.22,1.21,5.07a7.19,7.19,0,0,0-5,.73,5.49,5.49,0,0,0-2.78,5.53,4.53,4.53,0,0,0,3.43,3.69C63.74,92.13,66.42,91.73,69,91.49ZM53.23,74l-5.06,7c-.08,0-.14-.05-.14-.07q-.12-2.25-.22-4.51c-.15-3.13.27-2.48-2.82-2.51a1.79,1.79,0,0,0-.41.13c-.07,1-.2,2.13-.21,3.22q-.06,6.57,0,13.14c0,.27.26.75.42.76,1.11.07,2.23,0,3.42,0V86.3c.47.41.74.61,1,.85,1.15,1.18,2.26,2.39,3.45,3.52A1.49,1.49,0,0,0,53.8,91c1-.33,1.93-.84,3.29-1.47l-6.23-6c1.21-1.81,2.45-3.58,3.6-5.4C56.26,75.33,56.66,76.23,53.23,74ZM37.62,80.07c-1.23-2-2.41-4-3.62-5.92-.17-.27-.5-.65-.74-.64-.94,0-1.88.22-2.92.35a13.16,13.16,0,0,0,.46,1.55A28.09,28.09,0,0,0,35.61,83c.37.41.54.69.25,1.23-1,1.84-1.91,3.71-2.85,5.57-.23.44-.44.89-.73,1.49a15.55,15.55,0,0,1,2.24.39,1.28,1.28,0,0,0,1.79-.81c2.36-5,4.73-10,7.09-15,.11-.23.17-.71.09-.76a9.48,9.48,0,0,0-2-.86c-.2-.05-.62.36-.79.65C39.63,76.53,38.68,78.23,37.62,80.07ZM94.11,15c1.13-1.85,2.16-3.49,3.15-5.16a6.1,6.1,0,0,0,.86-1.73,1.52,1.52,0,0,0-.43-1.29c-.24-.18-.87,0-1.26.2-.25.1-.41.45-.58.7-1.2,1.79-2.45,3.55-3.56,5.39a7.13,7.13,0,0,0-.9,2.67,1.63,1.63,0,0,0,1.75,2,22.4,22.4,0,0,0,4.2,0,4.25,4.25,0,0,0,2.16-1.18c.59-.57.3-1.22-.52-1.44A5,5,0,0,0,97.77,15C96.61,14.94,95.46,15,94.11,15Zm-5,92.38-.25.11c.69,1.58,1.36,3.17,2.11,4.73a1,1,0,0,0,.95.27c.24-.1.4-.56.45-.89a2,2,0,0,0-.2-.89c-.48-1.35-.94-2.71-1.47-4a4.41,4.41,0,0,0-.76-1c-.25.36-.53.7-.75,1.08A1.69,1.69,0,0,0,89.07,107.33ZM23.37,10.1a26,26,0,0,0,8.17-.41C29.26,8.69,25.16,8.88,23.37,10.1Zm69.74,99.82a2.71,2.71,0,0,0,.55-2.43A.86.86,0,0,0,93,107a1,1,0,0,0-.71.43A2.35,2.35,0,0,0,93.11,109.92ZM15.48,10.45c-.52-.47-.81-1-1.14-1-.71-.06-1.1.45-1.14,1.17s.27,1.23.88,1.1S14.89,11,15.48,10.45ZM89.38,21.6c1.11-1,.64-1.74.35-2.45-.09-.23-.61-.52-.74-.45s-.58.59-.52.81A15.86,15.86,0,0,0,89.38,21.6ZM11.69,10.39,10.42,9.22c-.3.35-.89.76-.83,1a1.77,1.77,0,0,0,1,1C10.76,11.31,11.18,10.8,11.69,10.39ZM96.92,109c-.39-.3-.64-.64-.86-.62a.83.83,0,0,0-.57.61c0,.26.32.51.51.76ZM67.64,11.79c-.38-.3-.63-.65-.85-.64s-.63.36-.63.57a.87.87,0,0,0,.58.64C67,12.4,67.23,12.07,67.64,11.79Zm-22.53-.37c.32-.4.67-.65.66-.87s-.36-.55-.62-.62-.57.34-.57.53S44.85,11,45.11,11.41Z"/><path class="cls-1" d="M46.72,53.06c.74-.56,1.57-1.2,2.42-1.82a.89.89,0,0,1,.56-.2c1.69.23,3.39.41,5,.77.51.11,1.27.74,1.26,1.11a2.15,2.15,0,0,1-1.08,1.42,13.59,13.59,0,0,1-2.68,1,1.23,1.23,0,0,1-.77-.12C49.9,54.51,48.33,53.79,46.72,53.06Z"/><path class="cls-1" d="M41,56.78c2.95-2.34,8.12-1.85,10.16,1C47.59,58.93,44.33,58.13,41,56.78Z"/><path class="cls-1" d="M51.62,49.23c.85-.78,1.7-1.56,2.57-2.33a.82.82,0,0,1,.54-.24c2.05.27,4.1.57,6.14.88.15,0,.27.18.55.39-1.47,1.14-3.2,1.25-4.76,1.8-1.77.63-3.29-.6-5-.25Z"/><path class="cls-1" d="M65.66,41.78a7.1,7.1,0,0,1-.71,1c-.63.57-1.3,1.1-1.94,1.66a2.94,2.94,0,0,1-3.07.73,18.35,18.35,0,0,0-3.58-.38,16.17,16.17,0,0,1,2.46-2.49,5.16,5.16,0,0,1,2.47-.46C62.65,41.73,64,41.78,65.66,41.78Z"/><path class="cls-1" d="M48.81,47.89a36.64,36.64,0,0,0,.71-5.09c0-2,1.08-3.3,2.3-4.6a3.45,3.45,0,0,1,.49-.36C52.9,42.73,52.06,46.23,48.81,47.89Z"/><path class="cls-1" d="M44.49,51.48c.08-2.3,0-4.39.26-6.43a7,7,0,0,1,2.71-4.4,25.27,25.27,0,0,1,0,2.94,39.83,39.83,0,0,1-1,5.85C46.23,50.22,45.2,50.77,44.49,51.48Z"/><path class="cls-1" d="M39.72,54A21.72,21.72,0,0,1,42,44h.31a7.17,7.17,0,0,1,.25,1.24,20.42,20.42,0,0,1-.47,6.5C41.64,53.26,41.51,53.47,39.72,54Z"/><path class="cls-1" d="M54.45,42.73c.13-3.55.13-7.09,2.32-10.23C58.11,35.18,56.73,41.13,54.45,42.73Z"/><path class="cls-1" d="M61.7,27.95c-.12,3.3.79,6.84-2.37,9.41a37.79,37.79,0,0,1-.17-4.76,8.48,8.48,0,0,1,1.08-2.72c.33-.7.77-1.35,1.16-2Z"/><path class="cls-1" d="M68.9,35.18c-.76.67-1.39,1.26-2.06,1.81a29.36,29.36,0,0,1-3.47,2.7,8.92,8.92,0,0,1-2.7.59A8.26,8.26,0,0,1,68.9,35.18Z"/><path class="cls-1" d="M65.56,33.51a46.06,46.06,0,0,1,2.56-4.22A4.27,4.27,0,0,1,71.21,28C71.16,29.58,67.53,33.13,65.56,33.51Z"/><path class="cls-1" d="M66.69,24.36c0,2.6-1.25,4.66-2.71,6.77C63.36,27.84,64.47,25.08,66.69,24.36Z"/><path class="cls-1" d="M65.53,84.21v4.48c-1.21-.27-2.43-.48-3.6-.85-.27-.08-.54-.68-.54-1a2.39,2.39,0,0,1,1.85-2.29A22.72,22.72,0,0,1,65.53,84.21Z"/></g></g></g></svg>