<svg xmlns="http://www.w3.org/2000/svg" viewBox="0 0 96.21 108.42"><defs><style>.cls-1{fill:#82dcfa;}</style></defs><title>milk</title><g id="Layer_2" data-name="Layer 2"><g id="Layer_1-2" data-name="Layer 1"><g id="HESOeF"><path class="cls-1" d="M75.75,99.24c-.84-2-1.58-3.86-2.44-5.71a16.15,16.15,0,0,0-1.73-2.88,3.07,3.07,0,0,0-4.37-.82,14.52,14.52,0,0,0-3.05,2.72c-3.23,3.85-6.38,7.78-9.53,11.69a4,4,0,0,0-.7,1.43c-.06.21.17.6.38.76s.53-.13.69-.31q3.15-3.66,6.26-7.35c1.62-1.92,3.22-3.86,4.87-5.76a9.49,9.49,0,0,1,1.62-1.45c1.06-.76,1.91-.64,2.57.48a37.48,37.48,0,0,1,2.07,4.11c.71,1.64,1.28,3.33,1.92,5a4.73,4.73,0,0,1,.12.46l-5.08,1.57c-5.44,1.7-10.86,3.42-16.32,5.06a4.85,4.85,0,0,1-2.44,0c-5.81-1.43-11.62-2.89-17.41-4.43-6.19-1.64-12.38-3.28-18.51-5.11C10,97.33,5.41,95.66.79,94.08c-.93-.32-.87-.16-.65-1.16,1.87-8.48,3.71-17,5.61-25.45C8.55,55,11.91,42.64,15.57,30.39c2.16-7.23,4.62-14.36,7-21.53a1.54,1.54,0,0,1,.69-.8,129,129,0,0,1,17.18-8A2.58,2.58,0,0,1,41.56,0c9,1.22,17.84,3.59,26.65,5.88C72.62,7.06,77,8.13,81.45,9.3a68.68,68.68,0,0,1,10.24,3.34,3.86,3.86,0,0,0,.67.13l3.3.79c.55.13.63.43.49,1-1,4-2.11,8-3.08,12Q90.12,38.67,87.25,50.8,83.86,65.09,80.5,79.39,78.22,89,75.91,98.62C75.87,98.8,75.82,99,75.75,99.24ZM61,89.45a2.6,2.6,0,0,0,3.44.19,10.85,10.85,0,0,0,1.39-1c1.28-1.06,2.53-2.15,3.81-3.21a.77.77,0,0,1,.62-.18A3.8,3.8,0,0,0,73.89,85c1.44-.82,2.84-1.73,4.22-2.65a1.54,1.54,0,0,0,.58-.89Q80.48,73,82.22,64.4c0-.2.06-.4.11-.73L81,64.38c-1.59.85-3.17,1.73-4.79,2.54a8.3,8.3,0,0,1-1.63.41A9.45,9.45,0,0,1,75,66.09c1.12-1.92,2.2-3.86,3.4-5.72a14.48,14.48,0,0,0,2.06-4.3,2.1,2.1,0,0,0-1.18-2.68,6.27,6.27,0,0,0-3.39-.63,19.09,19.09,0,0,0-8.63,3l-.79.51c2.86-10.85,5.54-21.68,8.83-32.44.56,1.28,1,2.46,1.57,3.6A17.13,17.13,0,0,0,79.85,32c1.3,1.37,2.44,1.4,3.83.15a5.47,5.47,0,0,0,.62-.61,52.62,52.62,0,0,0,3.43-4.35c1.57-2.44,3-5,4.4-7.53a6.87,6.87,0,0,0,.57-2,.74.74,0,0,0-.33-.6c-.12-.07-.46.06-.59.21a12.13,12.13,0,0,0-1.18,1.52c-1.54,2.42-3,4.91-4.59,7.27-1.11,1.62-2.44,3.09-3.69,4.62-.23.28-.56.55-.87.12a16.73,16.73,0,0,1-2.27-3.32,13.22,13.22,0,0,0-2.91-4.29,3.87,3.87,0,0,0-1.19-.77.65.65,0,0,0-1,.45c-.39,1.16-.86,2.3-1.21,3.47-1,3.4-2.09,6.79-3,10.22-1.76,6.33-3.52,12.66-5.16,19-1.79,6.94-3.37,13.94-5.17,20.88-1.47,5.69-3.11,11.34-4.68,17l-.18.68.15.09.93-.6-.52,2.34.19.07,1.24-2.68a2,2,0,0,1,.37-.7C58.35,91.53,59.7,90.49,61,89.45ZM8.93,67.53c-.08.23-.13.36-.17.5C7.52,72.52,6.26,77,5,81.49c-1,3.79-2,7.59-3,11.38-.08.31-.24.62.25.8,1.85.69,3.67,1.46,5.53,2.1,10.8,3.73,21.85,6.56,32.94,9.25.21.05.43.08.65.11a1.76,1.76,0,0,0-1.13-2,32.43,32.43,0,0,0-3.28-1c-1.8-.48-3.62-.92-5.43-1.39-.42-.11-.55-.35-.41-.79.21-.63.36-1.28.52-1.92a4.91,4.91,0,0,0-.18-3.36,9.2,9.2,0,0,0-4.67-4.65,11.9,11.9,0,0,0-6.89-1c-2.37.4-4.69,1.07-7,1.59a17,17,0,0,1-3.17.57c-2,.05-3-1.23-2.42-3.11A27.59,27.59,0,0,1,9,83.43a31.58,31.58,0,0,0,3.28-8.18,8,8,0,0,0-.22-4.66A5,5,0,0,0,8.93,67.53ZM55.66,18.3c0,.07-.1.15-.14.23a26.49,26.49,0,0,0-1.63,3.05,2,2,0,0,0,1.32,2.69,5.92,5.92,0,0,0,4.14.2,29.47,29.47,0,0,0,6.7-3.13,1.44,1.44,0,0,1,1-.16c1.14.24,2.26.56,3.39.84.43.11,1,.26,1.13-.27s-.39-.71-.81-.85c-1.37-.44-2.72-.92-4.1-1.28q-11.59-3-23.19-6a45.13,45.13,0,0,0-9.93-1.73.64.64,0,0,1-.44-.18c-.78-1-2-1.06-3-1.77A7.43,7.43,0,0,0,27,8.85a6,6,0,0,0-2.17.33c-.11,0-.2.25-.26.4C22.32,16,20.27,22.43,18.53,29a2.61,2.61,0,0,0,0,.42l.2.07a16.48,16.48,0,0,0,1-2c.46-1.4.86-2.82,1.23-4.25a3.71,3.71,0,0,1,3.48-3.05c1.51-.16,3-.23,4.52-.47a20.56,20.56,0,0,0,4.16-1,3.49,3.49,0,0,0,1.51-5.35c-.19-.27-.38-.54-.58-.8l.08-.13ZM89,13l0-.21L88,12.44c-8.82-2.65-17.74-4.91-26.7-7a.94.94,0,0,0-.54,0,8.76,8.76,0,0,0-3.39,2.37,1.7,1.7,0,0,0,.93,2.85A12.61,12.61,0,0,0,61.2,11c1.22,0,2.45-.13,3.67-.18.63,0,1.25,0,1.88,0l0,.17c-3,1.49-6.39,2.46-8.86,5.1.38.07.69.11,1,.18,3.17.78,6.34,1.55,9.49,2.38A1.48,1.48,0,0,0,70,18.25,12.32,12.32,0,0,1,71.58,17a19.48,19.48,0,0,1,8-2.76,7.73,7.73,0,0,1,2.35-.17C84.44,14.45,86.72,13.6,89,13ZM57.95,73.93l-.13-.08-2.76,1.9a54.56,54.56,0,0,0-7.5,5.87,17.68,17.68,0,0,0-5.38,9.08,5.19,5.19,0,0,0,4.12,6.4,8.14,8.14,0,0,0,5.12-.92,1.17,1.17,0,0,0,.7-.86q2.85-10.5,5.73-21ZM30.81,36.45h.1c0,.2,0,.39,0,.59.08,2.05.12,4.11.23,6.16a1.41,1.41,0,0,0,1.11,1.47,1.54,1.54,0,0,0,1.56-.91c.86-1.4,1.72-2.79,2.59-4.18a2,2,0,0,1,.26-.25l-.14.79c-.34,1.92-.69,3.84-1,5.77,0,.18.09.53.22.58.6.22,1.22.36,1.88.53.08-.31.15-.5.19-.7.3-1.42.56-2.86.9-4.27.66-2.75,1.36-5.48,2.07-8.22.13-.51.07-.78-.49-.87A8.52,8.52,0,0,1,39,32.58a.67.67,0,0,0-.87.25c-.79,1.09-1.61,2.16-2.37,3.27s-1.36,2.13-2,3.2a1.42,1.42,0,0,1-.16-.68c-.1-2.14-.17-4.28-.3-6.41C33.2,31,33.16,31,32,30.72c-.3-.08-.61-.13-.91-.22s-.67,0-.86.44a64.1,64.1,0,0,0-3.64,11.71,2,2,0,0,0-.06.56c0,.12.07.32.16.35.65.24,1.31.45,2,.67Zm59-6.19-.12-.11L87,31.59a25.26,25.26,0,0,0-6.49,4.77,11.94,11.94,0,0,0-3.23,5.93,2.76,2.76,0,0,0,1.74,3.16,5,5,0,0,0,3.7.28c1-.35,2-.86,3-1.3a1.47,1.47,0,0,0,.84-1.13c1-4.16,2-8.31,3.05-12.46C89.67,30.65,89.72,30.46,89.78,30.26ZM33.17,72l.17.09a7.09,7.09,0,0,0-.11,3.87,5.8,5.8,0,0,0,6.13,4.74,7.15,7.15,0,0,0,6-6.12,6.43,6.43,0,0,0-4-6.72c-2.58-1.12-5-.72-6.56,1.25A20.9,20.9,0,0,0,33.17,72Zm3.16-14.51c-.13.83-.28,1.42-.32,2A5,5,0,0,0,40.21,65,6.22,6.22,0,0,0,44,64.18a7.54,7.54,0,0,0,3.89-8.83,4.49,4.49,0,0,0-3.23-3.09,6.6,6.6,0,0,0-7.22,2.82A23.93,23.93,0,0,0,36.33,57.45ZM53.23,43a10.52,10.52,0,0,0,.2-1.44c.07-2.71-1.09-5.47-4.26-6.22a4,4,0,0,0-3.33.27A10,10,0,0,0,42,40.46a8.27,8.27,0,0,0-.2,5.08,4.67,4.67,0,0,0,6.39,3.19A8.08,8.08,0,0,0,53.23,43ZM23.31,67.06c.18-.86.35-1.63.48-2.4,0-.17-.07-.5-.18-.54-.62-.22-1.27-.37-1.94-.55a1.59,1.59,0,0,0-.13.26c-.42,1.28-.85,2.56-1.25,3.85a22.61,22.61,0,0,0-1.18,6c0,.82,0,.85.82.82a7.26,7.26,0,0,1,.93,0c.57.05.8-.2.89-.75.15-.91.36-1.81.55-2.71l.21-.05a.73.73,0,0,0,0,.25A12.64,12.64,0,0,0,28.21,77c.17.1.55.12.65,0,.53-.57,1-1.19,1.52-1.83a16.34,16.34,0,0,1-5.68-5.62c1.92-.79,3.92-1.24,5.8-2.2A12.09,12.09,0,0,1,29.31,66a1.17,1.17,0,0,0-1.62-.47C26.27,66.08,24.83,66.54,23.31,67.06Zm10.9-4.78a1.29,1.29,0,0,0,.06-.22,86.4,86.4,0,0,0-.67-12.12.69.69,0,0,0-.46-.43q-1.43-.3-2.88-.49a.84.84,0,0,0-.62.25,58.76,58.76,0,0,0-6.86,9.31,3.89,3.89,0,0,0-.2.48c.78.28,1.51.52,2.22.81a.68.68,0,0,0,.95-.26c1.32-1.91,2.66-3.82,4-5.73.42-.61.81-1.24,1.28-2,0,.24.08.33.08.42.14,2.11.28,4.23.4,6.34.06.93.07,1.87.13,2.8,0,.19.16.5.28.52C32.63,62.13,33.42,62.19,34.2,62.28ZM62,60.45a3.65,3.65,0,0,0-.33.26,32.55,32.55,0,0,0-4.26,6.19,4.24,4.24,0,0,0-.25,3.5,3.28,3.28,0,0,0,1.29,1.66Zm23.77-41c-.25-.09-.43-.23-.55-.19-1.82.57-3.63,1.14-5.43,1.77-.2.07-.3.46-.44.7.25.08.55.3.74.22,1.77-.7,3.52-1.44,5.27-2.17A2.59,2.59,0,0,0,85.78,19.45Z"/><path class="cls-1" d="M36.24,72.48c.37-.66.69-1.36,1.12-2A1.25,1.25,0,0,1,38.91,70a12.91,12.91,0,0,1,1.28.47,3.7,3.7,0,0,1,2.19,3.41,4.26,4.26,0,0,1-2.9,3.63,2.53,2.53,0,0,1-2.8-1.26A5.37,5.37,0,0,1,36.24,72.48Z"/><path class="cls-1" d="M45.3,58.53a5.16,5.16,0,0,1-3.87,3.69,2,2,0,0,1-2.56-1.37c-.67-2,.86-5.29,2.82-6.14a2.62,2.62,0,0,1,3.78,2.78A9.7,9.7,0,0,1,45.3,58.53Z"/><path class="cls-1" d="M44.23,41.73a5.19,5.19,0,0,1,3-3.78A2.29,2.29,0,0,1,50.34,39a4.66,4.66,0,0,1,.09,4.2A5.49,5.49,0,0,1,47,46.38a2.08,2.08,0,0,1-2.8-1.43A5.1,5.1,0,0,1,44.23,41.73Z"/></g></g></g></svg>