<?xml version="1.0" encoding="utf-8"?>
<!-- Generator: Adobe Illustrator 21.0.2, SVG Export Plug-In . SVG Version: 6.00 Build 0)  -->
<svg version="1.1" id="Layer_1" xmlns="http://www.w3.org/2000/svg" xmlns:xlink="http://www.w3.org/1999/xlink" x="0px" y="0px"
	 viewBox="0 0 99.2 125" style="enable-background:new 0 0 99.2 125;" xml:space="preserve">
<style type="text/css">
	.st0{fill:#FDC461;}
</style>
<title>pasta</title>
<g id="Layer_2">
	<g id="Layer_1-2">
		<g id="fyT6Ts">
			<path class="st0" d="M98.2,116.6c-30,3.7-60,5.8-90.1,7.2c0.1-0.6,0.2-1.1,0.3-1.7c0.6-2.8,1.2-5.6,1.8-8.5
				c0.1-0.5,0.2-1,0.2-1.6c0-0.5-0.2-1-0.5-1.4c-0.3-0.4-0.6-0.8-0.7-1.3c-1-3.4-2-6.8-3-10.3c-1.7-6.4-2.9-12.9-3.5-19.5
				C2,73.4,1.7,67.3,1.5,61c-0.1-9,0-18.1,0.8-27.2c0.2-1.1,0.5-2.2,1.1-3.1c0.9-1.9,1.8-3.9,2.7-5.8c0.4-0.8,0.4-1.7,0.1-2.5
				C5,18.9,3.9,15.5,2.7,12c0-0.1,0-0.2,0-0.3C4.1,11.3,5.6,11,7,10.7c0.2,0,0.4,0.1,0.5,0.2c0.4-0.2,0.9-0.4,1.3-0.5
				c4.7-0.8,9.5-1.6,14.2-2.3c8.6-1.2,17.2-2.3,25.7-3.3C55.4,4,62,3.3,68.6,2.6c1.4-0.2,2.8-0.2,4.2-0.3c0.2,0,0.4,0,0.7,0
				c-0.5,2.1-0.9,4.1-1.3,6.2c-0.3,1.5-0.8,3-1.1,4.5c-0.1,0.7-0.2,1.4-0.1,2.1c0.1,0.6,0.5,0.7,0.9,0.3c0.4-0.4,0.7-0.8,0.9-1.4
				c0.7-2.5,1.5-5,2.1-7.5c0.3-1.5,0.4-2.9,0.5-4.4l8.5-0.1C83.4,3,83,3.8,82.6,4.6c-1.1,2.5-2.2,5.1-3.3,7.6
				c-0.6,1.4-0.7,3.1,0,4.5c2.5,6.1,4.9,12.1,7.4,18.2c0.8,1.9,1.4,3.8,1.6,5.9c0.7,7.8,1.7,15.7,2.3,23.5c0.8,9.6,1,19.3,0.6,28.9
				c-0.1,3.1-0.5,6.2-0.8,9.4c-0.1,1,0.2,2,0.8,2.8c1.7,2.6,3.4,5.2,5.1,7.8C96.8,114.2,97.4,115.3,98.2,116.6z M31.5,56.2
				c0.1,0.8,0.3,1.6,0.5,2.4c1.1,3.1,4.1,5.1,7.4,5c1,0,2-0.3,3-0.2c3.2,0.2,6.3-0.6,9-2.2c5.5-3.2,10-7.4,12.2-13.8
				c1.1-3,1.8-6.2,2.3-9.4c0.5-4.3-2.8-8.1-5.4-9.1c-2.3-0.9-6.9,0-9,2.6c-0.1,0.2-0.2,0.4-0.2,0.6c-0.1,1.1-0.2,2.2-0.5,3.3
				c-0.7,2.5-2.2,4.8-4.1,6.5l-0.2-0.7c-0.3-2-2.1-3.4-4.1-3.2c-0.5,0.1-1,0.2-1.4,0.5c-0.5,0.2-1,0.5-1.5,0.8
				c-2.2,1.3-4.7,2-7.2,2.1c-3.1,0-5.9-0.7-7.3-4c-0.3-0.9-1.1-1.5-2-1.5c-2.9-0.4-5.6,1.2-6.6,4c-0.9,2.3-0.9,4.8,0.1,7.1
				c1.2,3.1,3.4,5.7,6.3,7.5C25.4,56,28.5,56.6,31.5,56.2z M44.2,84.4c0.2,0.7,0.4,1.4,0.6,2c0.2,0.6,0.8,1,1.4,0.9
				c0.6-0.2,1-0.7,0.9-1.4c0-0.3,0-0.5-0.1-0.8c-1-3.6-1.9-7.2-2.9-10.7c-0.2-0.7-0.5-1.5-0.9-2.1c-0.3-0.6-0.9-0.9-1.5-0.8
				c-0.6,0.1-0.9,0.6-1,1.1c-0.1,0.2-0.1,0.4-0.1,0.7c-0.2,2.7-0.4,5.4-0.6,8.2c-0.1,1.3-0.2,2.6-0.2,3.9l-0.2,0l-4.2-6.3l2.7-2.6
				c0.5-0.4,1-0.9,1.5-1.3c0.2-0.4,0.2-0.8,0.1-1.2c-0.2-0.5-0.7-0.5-1.1-0.3c-0.3,0.1-0.6,0.3-0.8,0.5c-1,0.9-2,1.9-3,2.9
				c-0.2,0.2-0.3,0.4-0.5,0.6c-0.2-1.2-0.4-2.3-0.6-3.4c0-0.3-0.1-0.6-0.3-0.9c-0.2-0.3-0.6-0.4-0.9-0.4c-0.3,0-0.6,0.4-0.7,0.7
				c-0.1,0.2-0.1,0.5-0.1,0.7c0.4,4,1,8,1.5,12c0.1,0.6,0.3,1.2,0.6,1.7c0.2,0.5,0.8,0.8,1.3,0.6c0,0,0,0,0,0
				c0.5-0.2,0.8-0.7,0.7-1.2c0-0.4-0.1-0.9-0.2-1.3c-0.2-1.3-0.4-2.5-0.7-3.8c1.1,1.5,2,3.1,3.1,4.6c0.4,0.5,0.8,1,1.4,1.4
				c0.8,0.6,2,0.5,2.6-0.3c0.3-0.3,0.4-0.7,0.4-1.2c0.1-0.8,0.1-1.6,0.2-2.4L44.2,84.4z M53.2,78.4c0,0.9-0.1,1.8,0,2.7
				c0.1,1.3,0.2,2.5,0.5,3.7c0.2,0.9,1,1.6,2,1.7c1,0.2,1.9-0.3,2.4-1.1c0.5-0.7,0.8-1.4,1.1-2.2c0.8-2.8,0.8-5.8,0.1-8.7
				c-0.2-1.2-0.7-2.4-1.5-3.3c-0.6-0.9-1.9-1.1-2.8-0.5c-0.4,0.3-0.6,0.6-0.8,1.1c-0.4,1-0.5,2.1-0.4,3.2c0,0.7-0.1,1.3-0.1,1.9
				c-0.2-0.8-0.3-1.7-0.5-2.5c-0.3-1.6-1.5-2.8-3.1-3.1c-1.7-0.3-3.1,0.8-3,2.4c0.3,2.9,0.6,5.7,1.1,8.6c0.3,1.4,0.8,2.8,1.4,4
				c0.2,0.5,0.9,0.8,1.4,0.6c0,0,0.1,0,0.1,0c0.6-0.2,0.9-0.8,0.7-1.4c-0.2-1.1-0.5-2.3-0.7-3.4c0-0.2-0.1-0.6,0.1-0.7
				C51.9,80.7,52.7,79.6,53.2,78.4z M17.5,80.1c-0.1-0.6-0.2-1.1-0.4-1.5c-0.4-1.2-0.7-2.5-1.1-3.7c-0.1-0.6-0.7-0.9-1.3-0.9
				c-0.5,0-1,0.4-1.1,1c-0.1,0.5-0.2,1-0.2,1.6c0,2.9,0,5.9,0,8.9c0,0.8,0.1,1.6,0.2,2.5c0,0.7,0.5,1.2,1.2,1.2c0,0,0.1,0,0.1,0
				c0.6-0.1,1-0.6,1-1.4c0,0,0,0,0-0.1c-0.1-1.2-0.2-2.5-0.2-3.7c0-0.9,0-1.9,0-2.8c0.3,1.2,0.6,2.3,0.8,3.5
				c0.1,0.6,0.4,1.1,1.1,1.1c0.7,0,1-0.4,1.1-1c0.1-0.6,0.2-1,0.3-1.6c0.1-0.6,0.3-1.3,0.5-2c0.2,1.8,0.3,3.6,0.4,5.4
				c0,0.4,0.1,0.9,0.2,1.3c0.1,0.5,0.6,0.8,1.1,0.7c0.5,0,1-0.4,1-1c0-0.3,0-0.6,0-0.9c-0.1-2.2-0.2-4.3-0.4-6.5
				c-0.1-1.5-0.2-3-0.3-4.5c0-0.5-0.4-1-0.9-1c-0.5-0.1-1,0.2-1.2,0.7c-0.2,0.5-0.4,1-0.6,1.5C18.2,77.8,17.9,78.9,17.5,80.1z
				 M62.7,77.9c0-0.3-0.1-0.5-0.1-0.8c-0.1-1.3-0.2-2.6-0.4-4c-0.1-0.6-0.2-1.2-0.4-1.8c-0.2-0.3-0.5-0.5-0.9-0.6
				c-0.3,0-0.6,0.5-0.8,0.8C59.9,71.7,60,72,60,72.2c0.2,3.3,0.4,6.6,0.6,9.9c0.1,1.2,0.2,2.3,0.4,3.5c0.1,0.7,0.7,1.2,1.4,1.2
				c0,0,0,0,0,0c0.6-0.1,0.9-0.6,0.9-1.4c-0.1-1.5-0.3-3-0.4-4.5c0-0.2-0.1-0.5-0.1-0.7l1.8-0.5c0,0.3,0.1,0.5,0.1,0.7
				c0.1,1.3,0.3,2.5,0.5,3.7c0.2,0.7,0.4,1.3,0.8,1.9c0.3,0.3,0.7,0.4,1,0.3c0.2,0,0.5-0.5,0.5-0.8c0-0.6,0-1.2,0-1.8
				c-0.2-2.3-0.4-4.6-0.5-7c-0.1-1.4,0.1-2.9,0-4.3c0.1-0.6-0.4-1.2-1-1.3c-0.6,0-1,0.3-1.1,1.1c-0.2,1.2-0.3,2.4-0.4,3.6
				c-0.1,1.7-0.1,1.7-1.8,2.1C62.8,77.9,62.8,77.9,62.7,77.9z M28.2,85.1c0,0.2,0.1,0.4,0.1,0.6c0.2,0.9,0.3,1.8,0.5,2.6
				c0.1,0.6,0.7,1,1.4,0.9c0.6-0.1,1-0.7,1-1.3c0-0.3,0-0.7-0.1-1c-0.7-3.7-1.5-7.3-2.3-10.9c-0.2-0.7-0.4-1.5-0.7-2.2
				c-0.2-0.6-0.9-0.9-1.4-0.7c-0.1,0-0.2,0.1-0.3,0.2c-0.6,0.4-1,1.1-1.1,1.8c-0.9,2.9-1.4,6-1.7,9c-0.1,1.4-0.3,2.7-0.4,4.1
				c-0.1,0.6,0.3,1.2,1,1.3c0.1,0,0.1,0,0.2,0c0.7,0,1.2-0.6,1.2-1.3c0,0,0,0,0,0c0-0.3,0-0.6,0.1-1c0.2-2.1,0.2-2.1,2.4-2.3
				L28.2,85.1z M70.2,75.6c0-0.9-0.1-1.7-0.1-2.5c0-0.4-0.1-0.9-0.2-1.3c-0.2-0.3-0.5-0.5-0.9-0.6c-0.3,0-0.6,0.4-0.8,0.7
				c-0.1,0.3-0.1,0.6-0.1,0.9c0.1,3.4,0.1,6.8,0.2,10.1c0,0.5,0.3,0.9,0.7,1.1c1.6,0.9,3.6,0.4,4.6-1.1c0,0,0,0,0,0
				c1.3-1.8,1-3.7,0.2-5.5C73,75.9,72,75.4,70.2,75.6z M77.7,76.8L77.7,76.8c-0.1-0.3-0.1-0.7-0.2-1c-0.3-2-0.6-4-0.9-5.9
				C76.5,69.4,76,69,75.5,69c-0.7,0.1-0.8,0.6-0.8,1.2c0,1.3,0,2.6,0.1,3.9c0.2,3,0.5,6,0.8,9c0.1,0.5,0.2,1,0.5,1.5
				c0.2,0.3,0.6,0.7,0.9,0.7s0.6-0.5,0.7-0.8c0.2-0.5,0.2-1.1,0.2-1.6C77.9,80.8,77.7,78.8,77.7,76.8z M27.6,118.3
				c0,0.4,0.2,0.8,0.3,1.2c0.3,0.3,0.5,0.6,0.9,0.8c0.2-0.3,0.6-0.6,0.6-1c0.1-0.9,0.2-1.7,0.3-2.6c0.1-0.5-0.2-0.9-0.7-1
				c-0.5-0.1-0.9,0.1-1.1,0.6c0,0,0,0.1,0,0.1C27.7,117.1,27.7,117.8,27.6,118.3z M19.3,16.2c-0.2-0.8-0.5-1.5-0.8-2.2
				c-0.2-0.3-0.5-0.4-0.8-0.4c-0.3,0.1-0.5,0.4-0.5,0.7c-0.1,1,0.2,2.1,0.8,2.9c0.2,0.2,0.5,0.4,0.7,0.4s0.4-0.4,0.5-0.7
				C19.3,16.7,19.3,16.5,19.3,16.2z M67.2,10.2L67.2,10.2C66.5,10.4,66,11,66,11.6c0,0.6,0,1.1,0.2,1.7c0.2,0.1,0.4,0.1,0.5,0
				c0.8-0.5,1.3-1.2,1.5-2.1c0.1-0.5-0.2-0.9-0.7-1C67.4,10.2,67.3,10.2,67.2,10.2z M14.7,18.9l0.3-0.2c-0.4-1.2-0.8-2.4-1.3-3.6
				c-0.2-0.2-0.4-0.3-0.7-0.3c-0.2,0.1-0.5,0.5-0.4,0.7c0.3,0.9,0.7,1.8,1.1,2.7C13.9,18.5,14.4,18.7,14.7,18.9L14.7,18.9z
				 M19.8,118.8l0.6,0.9c0.3-0.3,0.5-0.5,0.7-0.9c0.2-0.6,0.4-1.2,0.5-1.8c0.2-0.4,0-0.8-0.4-1c0,0-0.1,0-0.1,0
				c-0.4-0.1-0.8,0.1-0.9,0.5c0,0,0,0.1,0,0.2C20,117.3,20,118,19.8,118.8L19.8,118.8z M63.8,58.6c0.4,0.4,1,0.4,1.4,0c0,0,0,0,0,0
				c0.7-0.8,1.3-1.6,1.9-2.5c0.2-0.4-0.1-0.7-0.5-0.6c-0.3,0.1-0.6,0.3-0.8,0.6c-0.5,0.5-1,1.1-1.4,1.6L63.8,58.6z M30.4,64.2
				c0.1-0.3,0.3-0.5,0.3-0.6c-0.2-0.2-0.4-0.3-0.6-0.5c-0.1,0.2-0.4,0.4-0.4,0.5C29.8,63.7,30.1,64,30.4,64.2z"/>
			<path class="st0" d="M42.8,60.8c1.9-3.1,1-6.1-0.2-9c-0.5-0.9-1-1.8-1.6-2.6c1.1-0.6,2.2-1.3,3.2-2c3.9-2.8,6.6-7,7.7-11.6
				c0.1-0.4,0.2-0.9,0.2-1.3c-0.1-0.6,0.2-1.1,0.7-1.4c1.6-1.2,3.6-1.8,5.5-1.7c0.9,0.1,1.8,0.5,2.5,1.2c0.2,0.2,0.5,0.4,0.7,0.7
				c1.1,1.1,1.4,2.6,0.9,4c-1.5,5.1-3.6,9.8-7.4,13.6c-1.2,1.1-2.5,2.1-3.8,3.1c-0.1,0-0.2,0.1-0.2,0.1l0.1,0.2
				c0.8-0.2,1.6-0.4,2.4-0.7c1.3-0.6,2.4-1.5,3.2-2.7c3-3.7,5.2-8,6.7-12.6c0.1-0.2,0.1-0.4,0.2-0.7c0,0,0.1-0.1,0.2-0.2
				c0,0.4,0,0.7,0,1.1c-0.3,1.6-0.6,3.2-1,4.7c-2.3,7.7-8,13.9-15.5,16.8c-0.9,0.3-1.8,0.5-2.7,0.7C44,60.6,43.5,60.7,42.8,60.8z
				 M45.1,53.3l0.1,0.3c0.3,0,0.7,0.1,1,0.1c2.3-0.3,4.5-1.4,6-3.2c2.5-3.1,4.5-6.7,5.6-10.6c0.3-1.2,0.6-2.4,0.7-3.6
				c0-0.2-0.3-0.4-0.4-0.7c-0.2,0.2-0.5,0.3-0.5,0.5c-0.7,2.9-1.7,5.8-3.2,8.5c-0.6,1.2-1.3,2.4-2.1,3.6c-1.4,2.1-3.5,3.6-6,4.4
				C46,52.8,45.6,53.1,45.1,53.3z M42.7,50.9l0.1,0.3c0.6-0.1,1.1-0.2,1.7-0.4c3-1.2,5.6-3.3,7.3-6.1c0.1-0.2,0-0.4,0.1-0.6
				c-0.2,0.1-0.4,0.2-0.5,0.3c-0.8,0.9-1.6,1.8-2.6,2.6c-1.6,1.2-3.3,2.2-5,3.3C43.4,50.4,43.1,50.7,42.7,50.9L42.7,50.9z"/>
			<path class="st0" d="M32.8,50.7c-1,2.1-0.2,2-2.6,1.5c-2.4-0.5-4.7-1.6-6.4-3.4c-0.1-0.1-0.1-0.2-0.2-0.2c-0.1,0-0.5-0.1-0.8-0.2
				c0,0.3,0,0.6,0.1,0.8c0.8,0.9,1.8,1.7,2.8,2.4c1.4,1,3,1.6,4.7,1.8c0.4,0,0.9,0,1.4,0c0.1,1.1,0,1.1-1.1,1.1
				c-4,0-7.7-1.9-10.1-5.1c-0.5-0.6-0.9-1.4-1.4-2.1c-0.1-0.1-0.1-0.2-0.1-0.4c3.6-0.2,5.4-2.4,6.4-5.4c1,0.6,2.1,1.1,3.2,1.4
				c4.6,1.1,8.8,0.5,12.4-2.7c0.7-0.6,1.4-0.3,2.3-0.2c-0.3,0.4-0.6,0.8-0.9,1.2c-0.1,0.3,0.1,0.6,0.1,1c0.3,0,0.7-0.1,1-0.3
				c0.3-0.3,0.5-0.6,0.7-1l1.2,2.3c-2.3,1.9-4.9,3.3-7.7,4.1c-0.9,0.3-1.7,0.6-2.6,1c-0.3,0.1-0.6,0.4-0.8,0.6
				c-0.5,0.7-1.3,1.1-2.2,0.9c-1.8-0.2-3.5-0.9-5-1.9c-0.7-0.4-1.4-0.9-2.1-1.3c-0.3-0.1-0.5-0.1-0.8-0.1c0.1,0.2,0.1,0.6,0.3,0.7
				c2.2,2,4.6,3.4,7.6,3.5C32.4,50.6,32.6,50.6,32.8,50.7z M41.8,42.2l-0.4,0.2c-1.4,0.8-2.9,1.5-4.4,2.1c-3.1,1.2-6.5,1-9.5-0.4
				c-0.1-0.1-0.4-0.1-0.4,0c0,0.1-0.1,0.4-0.1,0.5c0.3,0.3,0.6,0.6,0.9,0.8c2.7,1.3,5.8,1.5,8.6,0.6c1.7-0.4,3.2-1.2,4.5-2.3
				C41.5,43.3,41.8,42.8,41.8,42.2L41.8,42.2z"/>
			<path class="st0" d="M41.3,56.4c0.2,1.3,0,2.6-0.6,3.7c-0.6,1.6-2.5,2-4,0.9c-0.5-0.4-1-0.9-1.3-1.4c-1.3-2.3-1.5-5-0.5-7.4
				c0.1-0.2,0.2-0.4,0.3-0.6c0.6-1.2,2.1-1.6,3.3-1c0.4,0.2,0.7,0.5,0.9,0.9C40.6,52.9,41.2,54.6,41.3,56.4z"/>
			<path class="st0" d="M23.7,39.7c0.1,2.2-1.2,4.3-3.3,5.1c-0.8,0.4-1.8,0.1-2.2-0.7c-0.1-0.2-0.2-0.5-0.2-0.7
				c-0.2-2.2,0.8-4.4,2.7-5.6C22.1,37,23.5,37.9,23.7,39.7z"/>
			<path class="st0" d="M42.7,78.6l0.9,3.5l-1.2,0l0.2-3.5L42.7,78.6z"/>
			<path class="st0" d="M55.8,83.8c-0.8-3.3-0.6-6.7,0.5-9.9C57.6,76,57.3,82,55.8,83.8z"/>
			<path class="st0" d="M49.3,73.6c1.8,0.6,2.1,3.7,0.6,5.4L49.3,73.6z"/>
			<path class="st0" d="M27.8,82.9l-1.6,0.2l0.5-4.3l0.2,0L27.8,82.9z"/>
			<path class="st0" d="M70.4,82.4c0.1-1.3,0.1-2.6,0.2-3.9c0-0.3,0.3-0.5,0.4-0.8c0.2,0.2,0.5,0.4,0.7,0.6c0.7,1,0.7,2.4,0,3.5
				c-0.3,0.3-0.6,0.5-1,0.7L70.4,82.4z"/>
		</g>
	</g>
</g>
</svg>
