<?xml version="1.0" encoding="utf-8"?>
<!-- Generator: Adobe Illustrator 21.0.2, SVG Export Plug-In . SVG Version: 6.00 Build 0)  -->
<svg version="1.1" id="Layer_1" xmlns="http://www.w3.org/2000/svg" xmlns:xlink="http://www.w3.org/1999/xlink" x="0px" y="0px"
	 viewBox="0 0 91.3 117.7" style="enable-background:new 0 0 91.3 117.7;" xml:space="preserve">
<style type="text/css">
	.st0{fill:#F2E19B;}
</style>
<title>rise</title>
<g id="Layer_2">
	<g id="Layer_1-2">
		<g id="A9xCUb">
			<path class="st0" d="M85.9,89.7c-0.8,5.5-1.5,11.1-2.3,16.6c-0.3,2-0.9,3.9-1.7,5.8c-0.5,1-1.3,1.9-2.2,2.5
				c-1.5,1.2-3.4,1.9-5.3,1.9c-13.3-0.6-26.7-1.2-40-1.8c-9.7-0.5-19.3-1.6-28.9-3.2C4,111.3,4,111.3,4,109.9c0-0.3-0.1-0.6-0.2-0.8
				c-0.5-1.2-0.9-2.4-1.2-3.6C2,99.9,1.8,94.3,2.1,88.6C2.5,79.4,4,70.3,5.4,61.1C6.9,50,9.2,39,12.3,28.3c0.7-2.2,1.5-4.4,2.3-6.5
				c0.4-1,0.5-2,0.3-3c-0.8-3.5-1.2-7-1-10.6c0.1-1.4,0.4-2.8,0.7-4.1c0.3-1.2,1.2-2,2.4-2.2C19.7,1.3,22.4,1,25,0.9
				C41.5,0.4,58,1.1,74.3,3.1c3.8,0.5,7.5,1.4,11.2,2.2c0.4,0.1,0.7,0.2,1.1,0.4c0.9,0.3,1.5,1.1,1.6,2c0.5,2.5,0.5,5.2,0.1,7.7
				c-0.5,3.9,0.3,7.7,0.3,11.6c0.1,8.3,0.2,16.6,0,24.9c-0.2,8.8-1,17.7-1.6,26.5C86.9,82.1,86.4,85.9,85.9,89.7L85.9,89.7z
				 M46.1,81.3c0,0.6,0,1.1,0,1.5c0,1.1,0.1,2.2,0.2,3.3c0,0.8,0.6,1.5,1.5,1.5c0.8,0,1.5-0.5,1.6-1.3c0.2-0.8,0.3-1.7,0.4-2.5
				c0.2-1.7,0.2-3.5,0.4-5.2c0.3-1.9,0.7-3.8,1-5.7c0.2-1.3-0.2-2.1-1.2-2.5c-1-0.3-1.8,0.1-2.4,1.3c-1.8,3.4-4,6.6-6.5,9.5
				c-0.3,0.4-0.7,0.7-1.3,1.2c0.1-0.6,0.1-1,0.2-1.3c0.5-3.2,0.9-6.5,1.4-9.7c0.1-0.5,0.1-1,0-1.4c-0.2-0.5-0.7-1.1-1.1-1.2
				s-1.1,0.4-1.5,0.8c-0.2,0.3-0.3,0.6-0.4,1c-0.7,3.9-1.4,7.8-2.1,11.8c-0.1,0.8-0.1,1.6,0.1,2.4c0.2,1.4,1.5,2.4,2.9,2.2
				c0.4,0,0.8-0.2,1.1-0.4c0.8-0.5,1.6-1.1,2.3-1.8C43.7,83.9,44.8,82.6,46.1,81.3z M43.5,59.4c1.1,0,2.3-0.2,3.4-0.4
				c2.2-0.7,4.4-1.6,6.4-2.6c4.1-1.9,7.8-4.6,10.7-8.1c1.2-1.3,1.9-2.9,2.2-4.6c0.2-1.2-0.5-2.3-1.7-2.6c0,0-0.1,0-0.1,0
				c-1.2-0.3-2.5-0.3-3.7,0.2c-1,0.4-1.9,0.9-2.9,1.2c-4.7,1.8-9.1,4.5-12.8,8c-1.4,1.2-2.6,2.6-3.7,4.2
				C39.8,57.1,40.8,58.8,43.5,59.4z M28.3,78.9c0.2,0,0.4,0,0.6-0.1c2.7-0.8,5.1-2.1,6.1-4.9c1.7-4.7-2.2-8.9-7.3-8.2
				c-1.1,0.1-2,0.9-2.1,2c-0.1,0.9-0.4,1.7-0.4,2.6c-0.5,5.4-0.9,10.8-1.4,16.2c0,0.3,0,0.5,0,0.8c0.1,0.9,0.8,1.6,1.7,1.7
				c0.9,0.1,1.7-0.6,1.9-1.5c0.1-0.3,0.1-0.7,0.1-1.1C27.8,84.1,28.1,81.6,28.3,78.9z M52.4,80.2c-0.5,2.4,0,4.8,1.6,6.7
				c2.1,2.6,5.9,3,8.5,0.9c0.4-0.3,0.8-0.7,1.1-1.1c0.7-1,0.7-1.9,0-2.6c-0.7-0.6-1.6-0.5-2.5,0.4c-0.3,0.3-0.7,0.5-1.1,0.7
				c-1.6,0.3-3.1-0.7-3.4-2.3c-0.1-0.3-0.1-0.5,0-0.8c0-1.9,0.4-3.7,1.4-5.3c0.5-0.8,1.1-1.4,1.7-2c0.8-0.7,1.4-0.5,1.6,0.5
				c0.1,0.8,0.2,1.5,0.2,2.3c0,0.6-0.2,1.3-0.1,2c0.1,0.8,0.7,1.3,1.4,1.4c0.8,0.1,1.5-0.3,1.7-1.1c0.7-1.9,0.7-3.9,0.1-5.8
				c-1.1-3.2-4.2-4.3-7.1-2.4C54.6,73.5,52.7,76.7,52.4,80.2z M45.4,45.3c-0.2-1-0.4-1.9-0.8-2.8c-2-3.8-4.9-7.2-8.3-9.9
				c-0.7-0.5-1.5-0.9-2.3-1.2c-0.6-0.2-1.2,0.1-1.5,0.6c-0.1,0.2-0.1,0.4-0.1,0.6c0.1,1.4,0.3,2.8,0.8,4.2c1.4,3.5,3.8,6.6,7,8.7
				c0.9,0.6,1.8,1.1,2.8,1.3C44.2,47.2,45,46.6,45.4,45.3z M79.9,10.7c-0.3-0.4-0.5-0.9-0.8-1.1c-0.6-0.4-1.2,0-1.6,0.6
				c-1.3,2.1-2.6,4.1-3.9,6.2c-0.3,0.4-0.5,0.9-0.7,1.4c-0.1,0.5-0.2,1-0.3,1.5c0.5-0.1,1.1-0.3,1.6-0.5
				C76.9,16.7,78.2,13.7,79.9,10.7z M30.4,13.2c0-1.1,0-1.9,0-2.6c0-2,0-4,0-6c0-0.6-0.4-1.2-1.1-1.2c-0.1,0-0.1,0-0.2,0
				c-0.6,0-1.1,0.5-1.1,1.2c0,0,0,0,0,0.1c-0.1,0.5,0,1,0,1.6c0,2.2,0,4.4,0.2,6.5c0.1,0.6,0.8,1.2,1.2,1.8L30.4,13.2z M23.6,14.2
				L23.6,14.2c0-0.8,0-1.7-0.1-2.5c-0.2-1.9-0.5-3.9-0.8-5.8C22.6,5.5,22.4,5,22.1,5s-1,0.1-1.1,0.4c-0.3,0.7-0.5,1.5-0.5,2.2
				c0.2,1.9,0.5,3.8,0.8,5.7c0.1,0.5,0.3,1,0.6,1.4c0.3,0.3,0.6,0.6,1,0.8c0.2-0.4,0.4-0.7,0.6-1.1C23.6,14.4,23.6,14.3,23.6,14.2
				L23.6,14.2z M56.4,13.8l0.2,0c0,0.2,0,0.3-0.1,0.5c-0.1,0.2-0.1,0.4-0.1,0.6c-0.1,0.6,0.3,0.8,0.8,0.6c1.7-0.9,2.9-2.6,3.2-4.6
				c0-0.5-0.2-1-0.6-1.3c-0.5-0.1-1,0-1.4,0.2c-0.3,0.2-0.6,0.5-0.7,0.9C57.2,11.8,56.9,12.8,56.4,13.8L56.4,13.8z M37.5,12
				c0.3,0.5,0.5,1.4,0.9,1.6c0.8,0.3,1.2-0.6,1.4-1.2s0.7-1.6,1-2.3c0.3-0.5,0.1-1.2-0.4-1.5c0,0-0.1,0-0.1-0.1
				c-0.5-0.3-1.2,0-1.4,0.5c0,0,0,0,0,0.1C38.3,10,38,10.9,37.5,12z M82.6,19c1.4,0,3.7-2.3,3.6-3.5c0-0.3-0.3-0.7-0.5-0.8
				c-0.4-0.1-0.8,0-1,0.3c-0.6,0.9-1.2,1.9-1.8,2.9C82.7,18.2,82.7,18.6,82.6,19L82.6,19z M74.8,109.3c0.1-0.7-0.6-1.4-1.1-1
				c-0.7,0.5-1.3,1.1-1.8,1.8c-0.1,0.1,0.2,0.7,0.5,0.8C73.1,111.2,74.7,110,74.8,109.3z"/>
			<path class="st0" d="M63.3,44.3c-2.2,5.5-15.2,13.3-19.9,12c0.4-0.8,0.9-1.5,1.5-2.2c3.3-3.3,6.8-6.4,11.2-8.2
				c0.7-0.3,1.4-0.6,2.1-0.9C60.5,44,60.5,43.9,63.3,44.3z"/>
			<path class="st0" d="M28.7,69.4c1.9,0.3,2.9,1.1,2.9,2.5c0,0.9-0.4,1.7-1.2,2.2c-0.6,0.4-1.1,0.7-2,1.3L28.7,69.4z"/>
			<path class="st0" d="M42.6,44.1c-3.7-2.1-6.4-5.5-7.8-9.6C38.2,37,40.9,40.3,42.6,44.1z"/>
		</g>
	</g>
</g>
</svg>
