<?xml version="1.0" encoding="utf-8"?>
<!-- Generator: Adobe Illustrator 21.0.2, SVG Export Plug-In . SVG Version: 6.00 Build 0)  -->
<svg version="1.1" id="Layer_1" xmlns="http://www.w3.org/2000/svg" xmlns:xlink="http://www.w3.org/1999/xlink" x="0px" y="0px"
	 viewBox="0 0 127.3 81.9" style="enable-background:new 0 0 127.3 81.9;" xml:space="preserve">
<style type="text/css">
	.st0{fill:#9CE2EA;}
</style>
<title>sugar</title>
<g id="Layer_2">
	<g id="Layer_1-2">
		<g id="_2652jC">
			<path class="st0" d="M90.3,80.6l-9.7-2C59.1,74.3,37.5,70,16,65.6c-1.6-0.2-3-1.5-3.3-3.1C9.1,49.9,5.5,37.3,2,24.7
				c-0.6-2.3-0.2-3.5,1.8-4.8c8.6-5.6,17.7-10.3,27.2-14.1c2.4-1.1,4.8-2.4,7.1-3.8c1-0.6,2.1-0.8,3.2-0.6c14.5,2.4,28.9,4.7,43.4,7
				c8.6,1.4,17.2,2.8,25.8,4.2c1.6,0.2,2.9,1.3,3.2,2.8c3.7,12.3,7.4,24.6,11.1,37c0.9,3.1,0.5,4.4-2.1,6.2L94.9,79.4
				C93.6,80.4,92,80.9,90.3,80.6z M84.2,38.6c1.7,0.4,3.1,0.8,4.5,1c6.1,0.7,12.1,1.4,18.2,1.9c0.4,0,1.1-0.6,1.3-1.1
				c1-3.5,1.9-7.1,2.7-10.6c0.7-3.1,1.3-6.1,1.9-9.2c0.1-0.5,0.1-1.1,0.1-1.6l-0.5-0.1c-0.2,0.5-0.4,1-0.5,1.5
				c-1.6,5.9-3.1,11.7-4.7,17.6c-0.1,1.1-1.1,1.8-2.1,1.7c-0.1,0-0.3,0-0.4-0.1C97.7,38.8,90.9,38,84,37.2c-1.2-0.1-1.5,0.1-1.3,1.3
				c1.3,6.4,2.5,12.7,4,19.1c1.1,4.6,2.7,9.2,4.1,13.8c0.1,0.4,0.6,0.6,0.9,0.9c0.2-0.4,0.3-0.8,0.3-1.2c-0.1-0.7-0.2-1.3-0.4-1.9
				c-1.3-4.7-2.7-9.4-3.9-14.1C86.5,49.7,85.4,44.3,84.2,38.6z M4.4,22.5l0,0.5c0.4,0.1,0.9,0.3,1.3,0.4c8.1,1.6,16.2,3.3,24.3,4.7
				c12.9,2.3,25.8,4.4,38.7,6.5c0.5,0.1,1.1-0.3,1.5-0.5c-0.4-0.3-0.8-0.7-1.2-0.7c-21.1-3.7-42.3-7.3-63.4-11
				C5.2,22.4,4.8,22.5,4.4,22.5z M36.5,52.9l2.2-0.1c0.3,1.7,0.5,3.2,0.8,4.8c0.4,2,0.6,2.1,2.7,1.9c0-0.2,0.1-0.5,0.1-0.7
				c0-0.5,0-1-0.1-1.4c-0.8-5.2-2.4-10.2-4.6-15c-0.6-1.4-1.6-0.7-2.4-0.8s-0.9,0.8-0.9,1.4c0,4.7-0.1,9.3-0.1,14
				c0,0.6,0.1,1.2,0.2,1.8l2.3,0.1L36.5,52.9z M56,43.8c-1.9-0.3-2.3,0.6-2.4,2c-0.1,1.9-0.4,3.7-0.6,5.6c-0.3,3.1-0.5,6.2-0.8,9.4
				l2.4,0.3l0.2-4.4c2.5-0.5,2.5-0.4,3.1,1.8c0.1,0.6,0.3,1.1,0.4,1.7c0.6,2.2,0.6,2.2,3.2,1.8L56,43.8z M65.4,62.2
				c-0.2-0.8-0.3-1.6-0.3-2.4c0-0.4,0.1-0.9,0.4-1.2c4-3.7,3.2-11.4-1.5-14.2c-0.4-0.3-0.9-0.5-1.4-0.6c-1.9-0.4-2.5,0.1-2.4,2
				c0,0.3,0,0.6,0.1,0.9c0.8,4.5,1.7,9.1,2.5,13.6C63.2,62.4,63.1,62.4,65.4,62.2L65.4,62.2z M47.2,55.7c0.5,1.3,0.9,2.2,1.3,3.1
				c0.9,2.1,0.9,2.1,3.5,2c-0.1-0.4-0.2-0.7-0.3-1c-1-2.4-2-4.7-2.9-7.2c-0.2-0.7-0.3-1.4-0.1-2.1c0.6-2.2,1.2-4.4,1.8-6.6
				c-1.3-0.7-1.9-0.4-2.2,0.8s-0.8,2.3-1.3,3.7l-2.4-5.6l-1.7,0.8c0.9,2.5,1.8,4.9,2.6,7.4c0.2,0.7,0.2,1.5,0.1,2.2
				c-0.5,2.2-1.2,4.4-1.8,6.7l2.4,0.4L47.2,55.7z M30.8,45c-0.4-1-0.7-2-1.1-2.9c-0.5-1.3-1.7-2.2-3.1-2.3c-1.6-0.1-2.5,0.9-3.2,2.1
				c-0.3,0.6-0.6,1.2-0.7,1.8c-0.9,4-0.2,8.1,1.7,11.6c0.8,1.7,2.8,2.5,4.6,1.7c0.4-0.2,0.7-0.4,1-0.7c1.6-1.6,2.3-4,1.8-6.2
				c-2.2,0.2-2.2,0.2-2.5,2.3c0,0.3-0.1,0.6-0.2,0.9c-0.4,0.6-0.9,1.4-1.4,1.5c-0.7-0.1-1.3-0.6-1.5-1.3c-0.7-1.8-1.2-3.7-1.4-5.7
				c-0.1-1.6,0.2-3.2,0.7-4.7c0.5-1.7,1.8-1.7,2.8-0.2c0.4,0.8,0.8,1.6,1.1,2.4L30.8,45z M93.3,77.1L92,74.9
				c-0.2,0.2-0.5,0.5-0.5,0.6c0.2,0.8,0.6,1.5,0.9,2.3L93.3,77.1z"/>
			<path class="st0" d="M38.4,50.8c-2.1,0.1-2.2,0.2-2.3-1.7c-0.1-1.6-0.2-3.2-0.3-4.8c0-0.3,0.1-0.5,0.3-0.7L38.4,50.8z"/>
			<path class="st0" d="M57,55.2l-2-0.2l0.2-5.7l0.3-0.1L57,55.2z"/>
			<path class="st0" d="M64.3,55.7c-0.8-3.4-1.5-6.6-2.3-9.8C65.1,46.8,66.4,52.1,64.3,55.7z"/>
		</g>
	</g>
</g>
</svg>
