<svg xmlns="http://www.w3.org/2000/svg" viewBox="0 0 95.37 92.82"><defs><style>.cls-1{fill:#ffd67f;}</style></defs><title>sunflower-oil</title><g id="Layer_2" data-name="Layer 2"><g id="Layer_1-2" data-name="Layer 1"><g id="VV5DBd"><path class="cls-1" d="M90,3.09l2.07,2.12a50.55,50.55,0,0,1,2.78,4.71c1.91,4.17-1.89,10.3-6.43,10.25a3.28,3.28,0,0,0-3.27,2c2.95,4.27,2.7,7.28-1.05,10.89a5.89,5.89,0,0,0-1.5,3.27,15.91,15.91,0,0,1-2.4,5.46c-1.1,1.51-2.59,2.65-2.75,4.76a4.58,4.58,0,0,1-1.25,2.16,11.38,11.38,0,0,1-7.09,3.88c-2.77.51-6,4-6.48,6.66A13.71,13.71,0,0,1,58.72,67c-7.42,7.17-14.85,14.32-22.06,21.7A12.37,12.37,0,0,1,25,92.59a20.17,20.17,0,0,1-6.43-2c-3.22-1.83-6.15-4.16-9.2-6.28L7,81.91c-.55-.73-1.06-1.47-1.64-2.17A21.69,21.69,0,0,1,.14,68.79c-.4-2.92-.05-5.74,2.15-7.88Q15.82,47.8,29.49,34.84A10.11,10.11,0,0,1,37,32a3.29,3.29,0,0,0,2-.74,36.5,36.5,0,0,0,3.66-3.52,2.51,2.51,0,0,0,.7-1.81c-.8-4.12,2.3-6.85,5.9-7.67A2.77,2.77,0,0,0,51,17c1.49-2.76,5.09-4.94,8.21-4.63a2.24,2.24,0,0,0,2.43-1C64.9,7,68.94,6.75,73,10.41c.09.08.25.08.79.25.38-.7,1.18-1.5,1.15-2.26A7.76,7.76,0,0,1,86,.75,36.89,36.89,0,0,1,90,3.09ZM38,71.24a37.44,37.44,0,0,0,8.55-18.13c.6-3.12,0-3.89-3.22-3.8a27.92,27.92,0,0,0-21.37,10.4A7.94,7.94,0,0,0,20,67.22c2.23,7.7,10.57,10.29,16.66,5.17C37,72.11,37.32,71.82,38,71.24Zm49.32-59,.21.59c-.33.44-.83.85-.94,1.34s.3.89.48,1.34a17.57,17.57,0,0,0,2.7-1.85c.21-.2-.13-1.24-.47-1.7-2-2.64-4-5.23-6.08-7.81a4.89,4.89,0,0,0-1.26-.82c-.12.5-.51,1.17-.32,1.46,1.27,2,.13,3.09-1.25,4.2a4.47,4.47,0,0,0-1.21,1.17,10.14,10.14,0,0,0-.62,2,5.23,5.23,0,0,0,2-.2c.84-.47,1.46-1.32,2.26-1.89a5.19,5.19,0,0,1,1.56-.47,5.26,5.26,0,0,1-.51,1.7c-.49.67-1.31,1.11-1.79,1.79a5.87,5.87,0,0,0-.55,1.81,5.36,5.36,0,0,0,2-.25,28.49,28.49,0,0,0,2.44-2A4.14,4.14,0,0,1,87.3,12.26ZM60.16,32.38l.3-.43c-.89-1-1.71-2.07-2.68-3a6.59,6.59,0,0,0-1.87-.86c0,.7-.18,1.58.16,2.07A38.12,38.12,0,0,0,72.27,43.23c.55.25,1.38-.11,2.08-.19a7.87,7.87,0,0,0-1.31-1.59C68.78,38.39,64.46,35.39,60.16,32.38Zm3.32-16.13C62,21.46,73.7,34.09,78.24,31.88,71.65,28.28,67.45,22.62,63.48,16.25ZM7.1,60.4l0,0c-.2.2-.41.39-.6.59-.8.85-2.24,1.77-1.17,2.94.74.81,2.27,1,3.49,1.25a1.67,1.67,0,0,0,1.38-.39c.78-.87,1.93-1.84,2-2.82.05-1.15-.9-2.35-1.41-3.54-1,.47-2,.92-3,1.42A2.88,2.88,0,0,0,7.1,60.4Zm27,26.27.74-2.34a18.6,18.6,0,0,0-3-.1,2.8,2.8,0,0,0-1.84.9,9.09,9.09,0,0,0-.83,2.51,8.09,8.09,0,0,0,2.59.57C32.41,88.14,33,87.41,34.09,86.67ZM59,46.77c1.94,1,3.65,2,5.43,2.81.36.17,1-.24,1.49-.38-.21-.46-.3-1.08-.66-1.35a49.91,49.91,0,0,0-4.57-3c-.43-.25-1.5-.22-1.64,0C58.8,45.33,59,46.06,59,46.77Zm-2.19-3.6c-1.55-1.59-3.1-3.19-4.71-4.72-.05-.05-1.08.57-1.08.87C51,40.55,54.95,43.59,56.82,43.17ZM76.16,15.72c-.93,2.17.55,2.95,1.46,3.84a5.13,5.13,0,0,0,4.74,1.7ZM41.82,39.78l.36-1.16-2.52-.85A11.62,11.62,0,0,0,39.32,39C40.13,39.32,41,39.54,41.82,39.78Z"/><path class="cls-1" d="M29.51,58.14,25.76,70c-.9-1.29-1.93-2.24-2.29-3.4C22.62,63.84,26.34,58.69,29.51,58.14Z"/></g></g></g></svg>