<svg xmlns="http://www.w3.org/2000/svg" viewBox="0 0 171.09 113.94"><defs><style>.cls-1{fill:#ceb5f4;}</style></defs><title>malls-ico</title><g id="Layer_2" data-name="Layer 2"><g id="Layer_1-2" data-name="Layer 1"><path class="cls-1" d="M131.91,30.74c-.69-1.92-17-24.43-19-26.59s-3.83-4-7.17-4S31.44-.19,28.44.15a13.76,13.76,0,0,0-8.5,4.5C18.11,7,.65,29.71.44,32s1.17,2.27,2.67,2.27,125.33-.6,126.33-.77S132.6,32.66,131.91,30.74Z"/><path class="cls-1" d="M129.34,36.51,2.86,37A2.85,2.85,0,0,0,0,39.77c-.06,7.8,9.82,12.59,15.44,1.38,1.48,8.54,12.23,7.16,15.17-.27.94,9.5,14.12,10.5,15.67-.94,2.52,11.13,15.78,9.43,17.44-.26-.17,11,15.2,11.14,16.89.26,1.88,11.75,14.94,8.65,16.19.31,2.94,11.75,17.11,8.74,18,.07,2.38,9.65,14,10.06,17.12-.37A2.68,2.68,0,0,0,129.34,36.51Z"/><path class="cls-1" d="M156.74,63.94c-.23.45-9.44,27.25-13.27,34.65a3.88,3.88,0,0,1-2.65,2c-5.9,1.21-18.83,1.43-24.93.53A4.18,4.18,0,0,1,113,99.27a157.21,157.21,0,0,1-10.43-21,3.41,3.41,0,0,1,2.68-4.6c10.72-1.59,39.81-.66,40.13-1s3.59-7.53,5.52-11.76a5.11,5.11,0,0,1,4.65-3h12.56a3,3,0,0,1,3,3.37h0a3,3,0,0,1-3,2.63Z"/><circle class="cls-1" cx="118.33" cy="108.75" r="5.19"/><circle class="cls-1" cx="137.23" cy="108.75" r="5.19"/><path class="cls-1" d="M97.87,78.64c-1.13-6.33,2.87-9,6.74-9.71,2.94-.57,12.29-.71,16.64-.74.4-8.7.53-16.22.53-16.22-2.27-.26-5.75-1.42-6.58-4.58-4.58,5-13.25,6.42-19,0-5.42,5.51-12.39,3.83-15.58,0-5.5,6.18-14.41,4.18-17.25-1.32-3.83,7.42-14.16,5.21-17.17.5-4.92,7.5-13.31,4.81-16.67.33-5,5.92-11.35,3.56-14.25-.08-.83,2.08-2.13,3.71-4.33,3.42,0,0-1.47,28.43-.32,38.79a4.69,4.69,0,0,0,4.17,4.12c13.85,1.54,65.44,1.94,89.93,1.63C102,89.42,98.46,81.95,97.87,78.64Zm-18,6.42a3.41,3.41,0,0,1-3,3.15A113.1,113.1,0,0,1,55.1,88a2.56,2.56,0,0,1-2.2-2.24,103.64,103.64,0,0,1-.34-14.64c.33-7.5,3.56-13.71,13.63-13.83,9.5-.12,12.62,6.83,13.37,12.5A102,102,0,0,1,79.86,85.06Z"/></g></g></svg>