<svg xmlns="http://www.w3.org/2000/svg" viewBox="0 0 124.36 86.97"><defs><style>.cls-1{fill:#ffb6c4;}</style></defs><title>handshake-ico</title><g id="Layer_2" data-name="Layer 2"><g id="Layer_1-2" data-name="Layer 1"><path class="cls-1" d="M53.7,83.15c.57-4.18-.25-8.73-.9-12.74-.87-5.37-2-11-5-15.57-4-6.13-10.38-8.7-17.46-6.76-6.39,1.75-9.55,6.34-9.43,12.08a61.63,61.63,0,0,0,6.78,10.72C32.46,77.26,41,91.53,50.89,85.54A11.18,11.18,0,0,0,53.7,83.15Z"/><path class="cls-1" d="M124.33,37c0-5.6,0-11.2-.11-16.8-.17-6.22,1.51-18-7.88-17.06-3.73.37-7.41,2.29-10.69,4-3.59,1.84-9,6-12.79,4.11C90,7.08,86.9,3.43,81,2.81c-.46,0-.91-.08-1.37-.09A80.38,80.38,0,0,0,49.17,18.84c-2.45,2.1-4.93,5-4.77,8.44.26,5.77,6.71,5.77,10.71,4.37,5.12-1.8,14.12-6.36,17.22-9,1,9.67,8.85,13.42,14.31,14.78a1.85,1.85,0,0,1,2.44,1.86,18.67,18.67,0,0,0,10.5,18.21,26.92,26.92,0,0,0,4,0,24,24,0,0,0,11.19-1.81,11.59,11.59,0,0,0,7.8-5.85C124.7,46,124.3,41.24,124.33,37Z"/><path class="cls-1" d="M85.07,41.2C78.77,39.52,71.25,35,69.64,28.53c-5.86,4-13.18,8.47-20,8.07a9.53,9.53,0,0,1-9.09-11.21c1.12-7.62,9.09-12.09,15-15.86,1.5-1,3-1.87,4.56-2.76-1.67-2.07-3.23-4.25-5.71-5.52-4.78-2.45-10.93-.84-15.6,1-5.26,2.11-10,7.5-15.52,8.41-4.81.79-9.45-1.88-14.32-2.41A3.64,3.64,0,0,0,7.74,8a7.89,7.89,0,0,0-.81,0H6.8a6.44,6.44,0,0,0-1.56.32,3.64,3.64,0,0,0-.59.23A3.82,3.82,0,0,0,2.5,10.08a3.58,3.58,0,0,0-1.27,2.46l-.15,1.54a49.9,49.9,0,0,0-.82,7.35A102.67,102.67,0,0,0,1.45,45.62c2.28,12,15.47,9.36,17.22,7.8,1.09-2.62,3.25-6.17,6.59-7.77,6.72-3.22,14.4-3.38,20.52,1.28,7.31,5.56,9.65,14.58,11,23.23a60,60,0,0,1,1,11,6.12,6.12,0,0,0,2.35,1.48c5.05,1.75,11.31-1.42,15.77-3.49,7.52-3.49,18.8-9.77,20.65-18.7A22.56,22.56,0,0,1,85.07,41.2Z"/></g></g></svg>