<svg xmlns="http://www.w3.org/2000/svg" width="26" height="18.969" viewBox="0 0 26 18.969">
  <metadata><?xpacket begin="﻿" id="W5M0MpCehiHzreSzNTczkc9d"?>
<x:xmpmeta xmlns:x="adobe:ns:meta/" x:xmptk="Adobe XMP Core 5.6-c138 79.159824, 2016/09/14-01:09:01        ">
   <rdf:RDF xmlns:rdf="http://www.w3.org/1999/02/22-rdf-syntax-ns#">
      <rdf:Description rdf:about=""/>
   </rdf:RDF>
</x:xmpmeta>
                                                                                                    
                                                                                                    
                                                                                                    
                                                                                                    
                                                                                                    
                                                                                                    
                                                                                                    
                                                                                                    
                                                                                                    
                                                                                                    
                                                                                                    
                                                                                                    
                                                                                                    
                                                                                                    
                                                                                                    
                                                                                                    
                                                                                                    
                                                                                                    
                                                                                                    
                                                                                                    
                           
<?xpacket end="w"?></metadata>
<defs>
    <style>
      .cls-1 {
        fill: #fff;
        fill-rule: evenodd;
      }
    </style>
  </defs>
  <path class="cls-1" d="M60.706,6.087a40.088,40.088,0,0,0-5.344-.005,1.338,1.338,0,0,0-1.148.622c-0.445.987-1.585,2.646-2.046,3.626-4.843-.206-10.1-0.207-14.947-0.193-1.046.035-1.509,1.311-1.091,2.357a66.9,66.9,0,0,0,3.429,7.29,1.6,1.6,0,0,0,1.314.79c2.792,0.04,5.451.04,8.177,0.04A2.025,2.025,0,0,0,50.9,19.473c1.679-3.133,3.875-7.7,5.342-10.923a40.057,40.057,0,0,1,4.462.048C62.414,8.713,62.406,6.2,60.706,6.087Zm-21.485,8.42L39.2,14.479a1.279,1.279,0,0,1,.219-1.6l0.017-.013a1.5,1.5,0,0,1,1.978,0,1.311,1.311,0,0,1,.261,1.541h0a1.045,1.045,0,0,1-.106.167,1.479,1.479,0,0,1-.438.408A1.459,1.459,0,0,1,39.222,14.508Zm3.49,4.169a1.321,1.321,0,1,1,0-2.642A1.321,1.321,0,1,1,42.712,18.677Zm1.016-4.794V13.862a1.4,1.4,0,0,1,2.8,0v0.021A1.4,1.4,0,0,1,43.728,13.883Zm4.831,3.908a1.36,1.36,0,0,1-.643.79,1.62,1.62,0,0,1-1.078.133l-0.019,0a1.3,1.3,0,0,1-.977-0.923l0-.018a1.472,1.472,0,0,1,.141-1.018,1.408,1.408,0,0,1,.836-0.607,1.474,1.474,0,0,1,.935.073,0.974,0.974,0,0,1,.132.056l0.011,0c0.012,0.006.024,0.018,0.036,0.025a1.3,1.3,0,0,1,.166.115c0.013,0.01.024,0.023,0.036,0.034a1.708,1.708,0,0,1,.143.14c0.024,0.027.044,0.055,0.066,0.084s0.055,0.065.077,0.1c0.009,0.013.013,0.028,0.021,0.042s0.017,0.034.026,0.052A1.31,1.31,0,0,1,48.559,17.791Zm2.484-3.573,0,0.016a0.986,0.986,0,0,1-.306.543c-0.011.013-.02,0.028-0.032,0.04a1.285,1.285,0,0,1-1.046.368,1.541,1.541,0,0,1-.338-0.029,1.418,1.418,0,0,1-.836-0.607,1.363,1.363,0,0,1-.141-1.018l0-.016a1.339,1.339,0,0,1,.977-0.923,1.505,1.505,0,0,1,1.361.34L50.7,12.949a1.164,1.164,0,0,1,.34,1.27h0ZM42.134,21.5c-0.025,0-.049-0.011-0.074-0.011a1.613,1.613,0,0,0-1.208.485l-0.037.037a2.689,2.689,0,0,0-.206.227,0.756,0.756,0,0,0-.123.254,1.447,1.447,0,0,0-.068.142,1.55,1.55,0,0,0-.062.581c0,0.023,0,.047,0,0.071,0.005,0.048.008,0.1,0.018,0.143a1.36,1.36,0,0,0,.025.2,1.407,1.407,0,0,0,.446.692,1.462,1.462,0,0,0,1.247.455A1.743,1.743,0,0,0,42.9,24.58a1.634,1.634,0,0,0,.7-2.246A1.832,1.832,0,0,0,42.134,21.5ZM48.9,21.65l-0.033-.007A1.665,1.665,0,0,0,48,21.6a1.6,1.6,0,0,0-.848.5,1.986,1.986,0,0,0-.235.257,1.6,1.6,0,0,0-.295.73c-0.006.02-.016,0.039-0.02,0.06a1.509,1.509,0,0,0,1.428,1.813,1.823,1.823,0,0,0,1.588-.46,1.625,1.625,0,0,0,.425-0.771,1.2,1.2,0,0,0,.107-0.482A1.684,1.684,0,0,0,48.9,21.65Z" transform="translate(-36 -6)"/>
</svg>
