<?xml version="1.0" encoding="utf-8"?>
<!-- Generator: Adobe Illustrator 21.0.2, SVG Export Plug-In . SVG Version: 6.00 Build 0)  -->
<svg version="1.1" id="Layer_1" xmlns="http://www.w3.org/2000/svg" xmlns:xlink="http://www.w3.org/1999/xlink" x="0px" y="0px"
	 viewBox="0 0 133 56.9" style="enable-background:new 0 0 133 56.9;" xml:space="preserve">
<style type="text/css">
	.st0{fill:#FFFFFF;}
</style>
<path id="Rounded_Rectangle_2" class="st0" d="M22,9L22,9c2.4,0,4.3,1.9,4.3,4.3v36.4c0,2.4-1.9,4.3-4.3,4.3l0,0
	c-2.4,0-4.3-1.9-4.3-4.3V13.3C17.7,10.9,19.6,9,22,9z"/>
<path id="Rounded_Rectangle_2_copy" class="st0" d="M4.3,27h36.4c2.4,0,4.3,1.9,4.3,4.3v0.4c0,2.4-1.9,4.3-4.3,4.3H4.3
	C1.9,36,0,34.1,0,31.7v-0.4C0,28.9,1.9,27,4.3,27z"/>
<path class="st0" d="M129.1,0.3c-5.6,0-10.5,0-16,0c-1.3,0.1-2.7,0.7-4,2.8s-3.8,7.2-5.6,10c-14.5-0.6-30.3-0.6-44.8-0.6
	c-3.1,0.1-4.5,3.9-3.3,7.1c3,7.5,6.4,14.8,10.3,21.9c0.8,1.4,2.3,2.3,3.9,2.4c8.4,0.1,16.4,0.1,24.5,0.1c2.4,0,4.5-1.3,5.6-3.4
	c5-9.4,11.6-23.1,16-32.8c4.5-0.2,8.6,0.2,13.4,0.1C133.9,7.5,134,0.2,129.1,0.3z M73.9,46.2c-0.1,0-0.1,0-0.2,0
	c-1.4,0-2.7,0.5-3.6,1.5c0,0-0.1,0.1-0.1,0.1c-0.2,0.2-0.4,0.4-0.6,0.7c-0.2,0.2-0.3,0.5-0.4,0.8c-0.1,0.1-0.1,0.3-0.2,0.4
	c-0.2,0.6-0.2,1.2-0.2,1.7c0,0.1,0,0.1,0,0.2c0,0.1,0,0.3,0.1,0.4c0,0.2,0,0.4,0.1,0.6c0.2,0.8,0.7,1.5,1.3,2.1c1,1,2.3,1.5,3.7,1.4
	c0.8,0,1.7-0.2,2.4-0.6c2.4-1.2,3.4-4.2,2.2-6.6c0-0.1-0.1-0.1-0.1-0.2C77.3,47.2,75.7,46.2,73.9,46.2z M93.1,46.2c0,0-0.1,0-0.1,0
	c-0.8-0.3-1.7-0.3-2.6-0.1c-1,0.2-1.9,0.7-2.5,1.5c-0.3,0.2-0.5,0.5-0.7,0.8c-0.5,0.6-0.8,1.4-0.9,2.2c0,0.1,0,0.1-0.1,0.2
	c-0.5,2.4,1.1,4.8,3.5,5.3c0.3,0.1,0.5,0.1,0.8,0.1c1.7,0.3,3.5-0.2,4.8-1.4c0.6-0.6,1.1-1.4,1.3-2.3c0.2-0.5,0.3-0.9,0.3-1.4
	C96.8,48.7,95.3,46.8,93.1,46.2L93.1,46.2z"/>
</svg>
