<svg id="fb-icon" xmlns="http://www.w3.org/2000/svg" width="27" height="27" viewBox="0 0 27 27"><defs><style>.cls-1 { fill: #3a589b; } .cls-2 { fill: #fff; fill-rule: evenodd; }</style></defs><rect id="Rounded_Rectangle_6" data-name="Rounded Rectangle 6" class="cls-1" width="27" height="27" rx="6" ry="6"/><path class="cls-2" d="M13.3 6.133a4.62 4.62 0 0 1 3.144-1.127c1.186-.01 2.37 0 3.556 0q.008 1.926 0 3.853h-2.3a1.064 1.064 0 0 0-1.073.84c-.012.86 0 1.72 0 2.58h3.37c-.08 1.243-.232 2.48-.408 3.713-.993.01-1.986 0-2.98.005-.008 3.667 0 7.333-.006 11-1.474.006-2.95 0-4.423 0-.027-3.667 0-7.336-.014-11-.72-.008-1.44.005-2.158-.006v-3.7c.72-.01 1.438 0 2.157-.005.022-1.2-.022-2.4.023-3.6A3.92 3.92 0 0 1 13.3 6.133z"/></svg>