<svg xmlns="http://www.w3.org/2000/svg" viewBox="0 0 27 27"><defs><style>.cls-1{fill:url(#linear-gradient);}.cls-2{fill:#fff;}</style><linearGradient id="linear-gradient" x1="28.01" y1=".39" x2="-1.32" y2="26.89" gradientUnits="userSpaceOnUse"><stop offset="0" stop-color="#f36"/><stop offset="1" stop-color="#66f"/></linearGradient></defs><title>inst-icon</title><g id="Layer_2" data-name="Layer 2"><g id="vk-icon"><rect id="Rounded_Rectangle_6" data-name="Rounded Rectangle 6" class="cls-1" width="27" height="27" rx="6" ry="6"/><path class="cls-2" d="M13.5 5.92c2.47 0 2.76 0 3.74.05a5.12 5.12 0 0 1 1.76.32A3.06 3.06 0 0 1 20.71 8 5.12 5.12 0 0 1 21 9.76c0 1 .05 1.27.05 3.74s0 2.76-.05 3.74a5.12 5.12 0 0 1-.29 1.76A3.06 3.06 0 0 1 19 20.71a5.12 5.12 0 0 1-1.72.32c-1 0-1.27.05-3.74.05s-2.76 0-3.74-.05a5.12 5.12 0 0 1-1.8-.32A3.06 3.06 0 0 1 6.29 19 5.12 5.12 0 0 1 6 17.24c0-1-.05-1.27-.05-3.74s0-2.76.05-3.74A5.12 5.12 0 0 1 6.29 8 3.06 3.06 0 0 1 8 6.29 5.12 5.12 0 0 1 9.76 6c1 0 1.27-.05 3.74-.05m0-1.67c-2.51 0-2.83 0-3.81.06a6.79 6.79 0 0 0-2.24.43 4.73 4.73 0 0 0-2.7 2.7 6.79 6.79 0 0 0-.43 2.24c0 1-.06 1.3-.06 3.81s0 2.83.06 3.81a6.78 6.78 0 0 0 .43 2.24 4.73 4.73 0 0 0 2.7 2.7 6.79 6.79 0 0 0 2.24.43c1 0 1.3.06 3.81.06s2.83 0 3.81-.06a6.79 6.79 0 0 0 2.24-.43 4.73 4.73 0 0 0 2.7-2.7 6.79 6.79 0 0 0 .43-2.24c0-1 .06-1.3.06-3.81s0-2.83-.06-3.81a6.79 6.79 0 0 0-.43-2.24 4.73 4.73 0 0 0-2.7-2.7 6.79 6.79 0 0 0-2.24-.43c-1 0-1.3-.06-3.81-.06"/><path class="cls-2" d="M13.5 8.75a4.75 4.75 0 1 0 4.75 4.75 4.75 4.75 0 0 0-4.75-4.75m0 7.83a3.08 3.08 0 1 1 3.08-3.08 3.08 3.08 0 0 1-3.08 3.08M19.55 8.56a1.11 1.11 0 1 1-1.11-1.11 1.11 1.11 0 0 1 1.11 1.11"/></g></g></svg>