<svg id="vk-icon" xmlns="http://www.w3.org/2000/svg" width="27" height="27" viewBox="0 0 27 27"><defs><style>.cls-1 { fill: #4b75a5; } .cls-2 { fill: #fff; fill-rule: evenodd; }</style></defs><rect id="Rounded_Rectangle_6" data-name="Rounded Rectangle 6" class="cls-1" width="27" height="27" rx="6" ry="6"/><path class="cls-2" d="M20.916 17.13a1.147 1.147 0 0 0-.055-.1 8.19 8.19 0 0 0-1.59-1.816l-.016-.016-.01-.008-.007-.008h-.008a9.386 9.386 0 0 1-.676-.674.625.625 0 0 1-.117-.665 6.236 6.236 0 0 1 .75-1.076q.342-.435.54-.7 1.443-1.89 1.25-2.415l-.05-.082a.485.485 0 0 0-.257-.136 1.33 1.33 0 0 0-.533-.02l-2.4.016a.317.317 0 0 0-.167 0l-.108.025-.042.02-.033.026a.358.358 0 0 0-.092.087.56.56 0 0 0-.083.144 13.23 13.23 0 0 1-.892 1.85q-.308.508-.566.882a4.3 4.3 0 0 1-.433.55 2.993 2.993 0 0 1-.316.283.305.305 0 0 1-.216.09l-.142-.033a.546.546 0 0 1-.187-.2.866.866 0 0 1-.1-.32 3.116 3.116 0 0 1-.03-.333v-.395s.008-.285.008-.345q0-.312.013-.678c.01-.244.016-.437.02-.58s.01-.292.01-.45a1.9 1.9 0 0 0-.03-.375 1.3 1.3 0 0 0-.087-.263.448.448 0 0 0-.17-.2.98.98 0 0 0-.28-.11A5.61 5.61 0 0 0 12.7 9a5.535 5.535 0 0 0-1.99.2 1.11 1.11 0 0 0-.318.246q-.15.18-.042.2a1.022 1.022 0 0 1 .708.353l.05.1a1.554 1.554 0 0 1 .117.377 3.74 3.74 0 0 1 .075.6 6.24 6.24 0 0 1 0 1.027q-.042.427-.08.665a1.313 1.313 0 0 1-.112.385 1.565 1.565 0 0 1-.1.18.135.135 0 0 1-.04.042.63.63 0 0 1-.226.04.53.53 0 0 1-.283-.114 1.974 1.974 0 0 1-.347-.316 4.27 4.27 0 0 1-.4-.563 9.712 9.712 0 0 1-.467-.854l-.133-.238q-.124-.23-.34-.67t-.385-.85a.54.54 0 0 0-.2-.262l-.04-.025a.574.574 0 0 0-.134-.07.907.907 0 0 0-.192-.053l-2.283.016a.587.587 0 0 0-.476.156l-.033.05a.26.26 0 0 0-.024.13.654.654 0 0 0 .05.223q.5 1.158 1.087 2.234t1.02 1.734q.433.657.884 1.24t.595.747c.1.11.174.193.23.247l.208.2a4.913 4.913 0 0 0 .587.472 9.954 9.954 0 0 0 .858.54 4.692 4.692 0 0 0 1.1.436 3.834 3.834 0 0 0 1.216.136h.96a.67.67 0 0 0 .44-.18l.034-.042a.543.543 0 0 0 .062-.152.8.8 0 0 0 .03-.226 2.736 2.736 0 0 1 .053-.637 1.673 1.673 0 0 1 .14-.427 1.065 1.065 0 0 1 .18-.242.73.73 0 0 1 .142-.12.618.618 0 0 1 .066-.028.534.534 0 0 1 .47.127 2.76 2.76 0 0 1 .51.476q.237.284.57.637a3.918 3.918 0 0 0 .583.526l.168.1a2.03 2.03 0 0 0 .433.18.95.95 0 0 0 .468.042l2.132-.033a.982.982 0 0 0 .492-.1.41.41 0 0 0 .208-.226.636.636 0 0 0 0-.28 1.067 1.067 0 0 0-.064-.227z"/></svg>