<svg xmlns="http://www.w3.org/2000/svg" viewBox="0 0 138.66 98.08"><defs><style>.cls-1{fill:#ee93f1;}.cls-2{fill:#90e5fc;}.cls-3{fill:#5ff6bf;}.cls-4{fill:#e6b884;}</style></defs><title>child set</title><g id="Layer_2" data-name="Layer 2"><g id="Layer_1-2" data-name="Layer 1"><path class="cls-1" d="M138.07,39.43c-6.79-5.92-14-11.34-21.12-16.86a2,2,0,0,0-2.31-.3L81.48,38.35C78.89,39.61,70.1,43.8,70.1,43.8s-13.35-4.22-17.65-5.43c-10.37-2.92-18.31-6-29.95-8.23C22.06,30.06,7.26,43,.57,49.67a2.16,2.16,0,0,0-.19,2.66c7.47,2.47,13.21,3.4,20.52,6.28a1.28,1.28,0,0,1-.68,2.47,67.64,67.64,0,0,1-6.66-1.65,175.34,175.34,0,0,0-.34,19.45,1.83,1.83,0,0,0,1.29,1.7C31.4,87.28,49.42,91.73,66.82,97c1.77.53,3.58,1.44,5.39,1,1.53-.4,3.18-1.74,4.55-2.49,8.56-4.67,17.24-9.12,25.86-13.67,6.66-3.51,13.31-7,20-10.52a1.77,1.77,0,0,0,.88-1.54c0-6,0-12.07,0-18.11,4.9-2.8,9.64-5.88,14.15-9A2,2,0,0,0,138.07,39.43Zm-65,55.33a1.07,1.07,0,0,1-1.93.25,10.18,10.18,0,0,1-.61-4.07c-.08-1.6-.21-3.23-.17-4.83,0-1.12,1.79-1.44,2-.27.27,1.47.39,3,.57,4.46S73.5,93.36,73.07,94.77ZM110.42,57C103.8,62,95,65.79,87,68.18c-.86.26-15-14.43-15.6-15.19.44,4.14.78,8.29,1.08,12.43.32,4.41,1.09,9.1.27,13.47-.2,1.05-1.75.94-2,0-1.21-4.27-.88-9-1.07-13.47-.16-3.8-.33-7.6-.47-11.4-2,2.5-10.17,14-13.22,15.54a1,1,0,0,1-.56.1.89.89,0,0,1-.57.14c-9.42-.77-19.35-3.82-28-7.5-.86-.36-.21-1.6.6-1.43,9.06,1.9,18.67,3.9,27.47,6.8C56,65,65.9,53.81,68.5,50.4a1.73,1.73,0,0,1,.57-.49v0A1.2,1.2,0,0,1,70.54,49c3.07.81,14.91,12.48,16.67,15.92,7.18-3.54,14.91-7.23,22.47-9.65C110.8,54.95,111.21,56.45,110.42,57Zm9.7-4.45a16.4,16.4,0,0,1-5.45,2.66c-1.12.39-1.89-1.45-.81-1.91,1.79-.76,3.41-1.83,5.25-2.48A1,1,0,0,1,120.12,52.6Z"/><path class="cls-2" d="M98.63,16.36a18.92,18.92,0,0,1,2.13,4.5,16.55,16.55,0,0,1,0,4.5s10.25-4.12,11.13-4.5-4.33-8.68-6.58-9.06S98.63,16.36,98.63,16.36Z"/><path class="cls-2" d="M60.13,7.11S65.88,8.71,67,10.35a27.15,27.15,0,0,1,2.13,4l1.25-1.12s0-5.12.63-6.12a21.68,21.68,0,0,1,1.88-2.37,7.63,7.63,0,0,0-6.37-3.37,12.11,12.11,0,0,0-7.29,2.48Z"/><path class="cls-3" d="M40.17,9.06c.16.88.33,1.77.51,2.65a14.1,14.1,0,0,1,.52,2.86q.75,0,1.5,0A10.29,10.29,0,0,1,42,11.64c-.15-.87-.26-1.74-.35-2.61C41.14,9.06,40.65,9.07,40.17,9.06Z"/><path class="cls-3" d="M36.1,13.8a29.32,29.32,0,0,1-.38-5.18.83.83,0,0,1,.06-.33c-.2-.06-.4-.11-.59-.18a.68.68,0,0,1,.36-1.32A24.52,24.52,0,0,0,47.8,5.73a.8.8,0,0,1,.61,1.45,15.23,15.23,0,0,1-5.05,1.68c.11.92.24,1.85.43,2.76a11.65,11.65,0,0,1,.52,2.87,18.43,18.43,0,0,0,13.2-7.65c-.37-1.75-1-4.06-1.75-4.59-1.25-.87-7.12-3.62-13-1.37S34.13,5,33.88,7.24a51.51,51.51,0,0,0-.05,5.89C34.59,13.38,35.34,13.61,36.1,13.8Z"/><path class="cls-3" d="M37.3,8.69c.16,1.86.6,3.69.79,5.53.48.08,1,.15,1.43.2A15.45,15.45,0,0,1,39,11.92c-.17-1-.3-2-.41-3C38.15,8.87,37.72,8.78,37.3,8.69Z"/><path class="cls-3" d="M60.83,24.45a15.71,15.71,0,0,1-.95-3c-.22-.79-.45-1.57-.66-2.36A39.09,39.09,0,0,1,37,25c.12,1,.23,2,.43,2.94s.6,2.15.74,3.26l5.3,1.52c.64-5.39,10.65-7.34,13.35-2.41.5.91-.74,1.93-1.46,1.13a5.27,5.27,0,0,0-5.57-1.65c-1.94.42-4.16,1.36-4.35,3.5l14.18,4.08S59.22,29.22,60.83,24.45Z"/><path class="cls-3" d="M64.51,11.49c-1.87-.79-4.9-2-6.1-2.42-5.16,8.21-16.23,9.19-24.85,5.65-1,.73-4.28,3.24-4.8,6.28a26.21,26.21,0,0,0,0,7.5l7.44,2.14c-.69-1.82-1.12-7.19-.38-7.33H36l.11,0c8.29-1,15.11-2.63,22.69-6.3a1,1,0,0,1,1,0,.83.83,0,0,1,.73.55c.45,1.13.79,2.3,1.14,3.46.12.38.25.76.37,1.15a36.3,36.3,0,0,1,5.65-6S66.88,12.49,64.51,11.49Z"/><path class="cls-4" d="M76.82,12.26c0,.86,0,1.72,0,2.58s.1,1.48,0,2.21c.81.28,1.6.5,2.39.69a23.11,23.11,0,0,1,.26-4.62A20.64,20.64,0,0,1,76.82,12.26Z"/><path class="cls-4" d="M74.92,16.31c0-.57,0-1.15.06-1.7a17.6,17.6,0,0,1,.29-3.05l-.77-.41c-.74-.42-.23-1.72.59-1.41a26,26,0,0,0,7.54,1.86c2.37.16,4.64-.39,7-.56A.79.79,0,0,1,90,12.49a15.05,15.05,0,0,1-8.73,1c-.06.94-.1,1.88-.08,2.82,0,.61.06,1.22.08,1.83,4.94.73,9.73-.25,15-2.75A26.32,26.32,0,0,0,96,8.86c-.62-2.12-6.12-4.75-11.87-5S74,6.11,73,7.86c-.8,1.4-1,5.44-1.1,7C72.93,15.41,73.93,15.9,74.92,16.31Z"/><path class="cls-4" d="M96.81,17.81a22.31,22.31,0,0,1-25.74-1.65c-1.71,1.43-5.63,4.8-6.8,6.83-3.13,5.38-2.13,15.38-2.13,15.38l3.67,1.22A45.89,45.89,0,0,1,66,29.11a.86.86,0,0,1,.06-.2A.92.92,0,0,1,67.3,28c7.17,3.24,13.5,4.88,21.06,4.51,5.53-2.8,10.36-5.17,10.77-5.17a23.15,23.15,0,0,0,0-5.33A11.87,11.87,0,0,0,96.81,17.81Z"/><path class="cls-4" d="M67.58,30.25a86,86,0,0,0,.23,10l3.32,1.11s5.84-3,12.19-6.27A30,30,0,0,1,67.58,30.25Z"/></g></g></svg>