<svg xmlns="http://www.w3.org/2000/svg" viewBox="0 0 99.5 77.23"><defs><style>.cls-1{fill:#fff;}.cls-2{fill:#88b9f3;}</style></defs><title>self-set</title><g id="Layer_2" data-name="Layer 2"><g id="Layer_1-2" data-name="Layer 1"><path class="cls-1" d="M97.46,33.69a66.54,66.54,0,0,1-7.93-8.36,2.07,2.07,0,0,0-2.19-.84q0-.3.07-.61.8-3.34,1.33-6.74A2.68,2.68,0,0,0,87.21,14a2.91,2.91,0,0,0-1.87-.08,6.71,6.71,0,0,0-6.73-.14,19.83,19.83,0,0,0-.5-5.86c-.71-2.38-2.91-2.67-5-2.87a56.41,56.41,0,0,0-9-.09c-2.94.19-3.33,4.24-1.12,5.11-.12.9-.22,1.81-.32,2.71q-.55,2.13-1,4.29A3,3,0,0,0,61,17c-.91,0-1.86-.07-2.81-.07a3.49,3.49,0,0,0-2-1.47v0c-.52-2-2.16-3-3.89-3.79a4.45,4.45,0,0,0-1-.66Q52.36,7.9,53.38,4.8a2.69,2.69,0,0,0-1.84-3.24A8.17,8.17,0,0,0,48,1.05a2.61,2.61,0,0,0-2.32,1.7A2.29,2.29,0,0,0,45,3.6l-1,2.18a42.38,42.38,0,0,0-4.35,5.76,18.88,18.88,0,0,0-7.59,2,5.07,5.07,0,0,0-3.51-3.23c-2.31-.63-4.51.5-6.26,2a12.87,12.87,0,0,0-5.58,4.58,22.14,22.14,0,0,0-3,9.69,2.54,2.54,0,0,0-2.78.57q-3.69,3.28-7.54,6.38A1.88,1.88,0,0,0,3,34C1.52,35,1.84,38.07,3.9,38.8c1.8.64,3.23,2.07,4.87,3a30.09,30.09,0,0,0,3.9,1.85q0,2.89.14,5.78-.07,5.34.37,10.67a2.42,2.42,0,0,0-1,2.54,2.38,2.38,0,0,0,.43,1.59A23.43,23.43,0,0,0,22,72.83,27.78,27.78,0,0,0,36.64,75a36.22,36.22,0,0,0,7.57-1.66,4.77,4.77,0,0,0,4.47,3.86,19,19,0,0,0,8.89-1.8c2.52-1.09,5.37-2.65,6.79-5.1l.08-.15a51.19,51.19,0,0,0,8.18-.45,96.3,96.3,0,0,0,12.46-2.12c3-.79,6.87-2.48,5.62-6.6-.22-.74.65-1.23.12-1.52.37-2.19-.17-4.76-.32-6.9l-.4-5.74a21.32,21.32,0,0,0-.31-4,42.15,42.15,0,0,0,7.66-5.38A2.65,2.65,0,0,0,97.46,33.69ZM85.34,39.15v0h.05Zm-52,25.72,0-.52q.08.25.18.5ZM70.16,25.78l0,0,0-.15Zm-45.83-8.1h0l.07-.07ZM74,64.14s0,.06,0,.08l-.34,0ZM10.93,27.39a3.08,3.08,0,0,0-.33.27l0,0Z"/><path class="cls-2" d="M49.75,54.32a1.12,1.12,0,0,0-1.1,1.1v.15a1.1,1.1,0,0,0,2.2,0v-.15A1.11,1.11,0,0,0,49.75,54.32Z"/><path class="cls-2" d="M48.45,59.22a35.35,35.35,0,0,0-.07,4.39c.06,1.41,2.26,1.41,2.2,0a35.35,35.35,0,0,1,.07-4.39C50.75,57.81,48.56,57.82,48.45,59.22Z"/><path class="cls-2" d="M99.35,35.57C96.78,31,93.22,27.43,89.49,23.8a1.25,1.25,0,0,0-.53-.6,39.29,39.29,0,0,0,.51-4.48c.08-1.55.18-3.12-1-4.31-2-2.05-5.75-2.13-8.62-1.83,0-.13,0-.27,0-.4a22.93,22.93,0,0,0,0-5c-.52-2.48-3.56-2.34-5.58-2.56A52.38,52.38,0,0,0,63,4.69,1.15,1.15,0,0,0,62,5.49a35.38,35.38,0,0,0-1.72,10,9.82,9.82,0,0,1-2-.27h0a10.38,10.38,0,0,0-6-5.07c.9-1.43,1.75-2.89,2.48-4.37C56,3.34,53.63,1.57,51.53.56,49-.63,47,.14,45.44,2.22c-2,2.63-4.82,5.44-6,8.62a14.37,14.37,0,0,0-6.5,1,4.88,4.88,0,0,0-3.79-2.92c-3.93-.4-8.53,2.42-11.19,5.05a18.11,18.11,0,0,0-5.17,11.38l-.3-.15a1.14,1.14,0,0,0-1.52.53,1.14,1.14,0,0,0-.3.2L4.58,31.79A27,27,0,0,0,.17,36.7a1,1,0,0,0-.12.86,1.09,1.09,0,0,0,.48.91A92.37,92.37,0,0,0,11.4,44.88q-.34,8.86,0,17.71c.05,1.41,2.25,1.41,2.2,0q-.32-8.3,0-16.6c1.57.81,3.15,1.6,4.71,2.42,6.23,3.25,12.49,6.44,18.84,9.46a1.11,1.11,0,0,0,1.24-.17.94.94,0,0,0,1.17-.24L45,51.35l2.62-2.89c.33-.36.65-.78,1-1.18V52.2a1.1,1.1,0,0,0,2.2,0V46.88A119.41,119.41,0,0,0,62,58.12a1.06,1.06,0,0,0,.95.26,1,1,0,0,0,.76-.12q13-7.16,25.67-15l.47,19.2a1.1,1.1,0,0,0,2.2,0l-.5-20.19a1.15,1.15,0,0,0-.06-.33q3.61-2.26,7.18-4.58A1.14,1.14,0,0,0,99,37,1,1,0,0,0,99.35,35.57ZM79.7,18.1q.07-1.66.12-3.33c2.27-.28,6-.4,7.12,1.53s.15,5.42-.32,7.57l-7.49,3.91Q79.48,22.94,79.7,18.1ZM63.87,6.8a52.44,52.44,0,0,1,8.38-.16c1.4.09,3.44,0,4.71.54s.8,2.44.77,3.73Q77.55,20,76.84,29L71,32.08a11.75,11.75,0,0,0-.49-2.48,29.78,29.78,0,0,0-1.77-3.45c-.73-1.56.28-3.7.56-5.32.25-1.47.42-2.94.54-4.43a1.11,1.11,0,0,0-.81-1.06c-2.18-.68-4.25-.28-6.46,0l-.14,0A33.28,33.28,0,0,1,63.87,6.8Zm-8.51,8.05-.39,0c-2,.26-3.65,1.44-5.42,2.29-.26.12-.51.23-.77.32l-.56-1c.91-1.46,1.88-2.92,2.84-4.39h0A8.18,8.18,0,0,1,55.35,14.85ZM40.17,13.1a1.1,1.1,0,0,0,1.06-.81c.62-2.23,2.37-4,3.75-5.86L45.3,6a18.53,18.53,0,0,0,3.3,2.38,1.1,1.1,0,0,0,1.11-1.9,16.24,16.24,0,0,1-3.07-2.24l.55-.72C48.36,2.05,49.85,2,51.42,3c.49.31,1.45,1,1.45,1.66,0,.36-.72,1.18-.92,1.49l-1.83,3L46,15.89A1.11,1.11,0,0,0,46,17l.58,1.06a23.71,23.71,0,0,1-6-.16c-.79-.09-1.15.77-1.06,1.39a43.62,43.62,0,0,0,1.78,7.55A14.17,14.17,0,0,0,38,37.59l-3.95-1.91a1.15,1.15,0,0,0,.12-.29c1.45-5.41,1.1-11,.47-16.52a27.63,27.63,0,0,0-1-5A12.71,12.71,0,0,1,40.17,13.1ZM19,16c2.21-2.4,6.55-5.45,10-4.61a3.5,3.5,0,0,1,2.15,1.74,1.21,1.21,0,0,0,.5,1c1,2.6,1.05,6.31,1.21,8.27a36.18,36.18,0,0,1-.72,12.26L14.89,26.41A16,16,0,0,1,19,16ZM44.07,49.16,38,55.87c-6.27-3-12.46-6.14-18.62-9.36-5.67-3-11.56-5.74-16.86-9.35a34.87,34.87,0,0,1,4.23-4.4l5.43-5.24L47.91,44.8A42.14,42.14,0,0,0,44.07,49.16Zm6.05-5.72-9.71-4.69a1.22,1.22,0,0,0,0-.18,11.91,11.91,0,0,1,2.93-10.69,1.1,1.1,0,0,0,.28-1.07,43.61,43.61,0,0,1-1.7-6.57,19.09,19.09,0,0,0,5.8-.11c2.32-.48,4.11-2,6.3-2.74s4.42.45,6.75.38,4.54-.88,6.82-.51a42.22,42.22,0,0,1-.7,4.63c-.25,1.17-.92,2.56-.76,3.77s1,1.89,1.53,2.81a10.27,10.27,0,0,1,1.24,4.74Q59.47,38.26,50.12,43.43ZM63,56.11A119.4,119.4,0,0,1,52,44.89Q70,35,88.14,25.55c3.29,3.2,6.43,6.34,8.81,10.27Q80.36,46.57,63,56.11Z"/><path class="cls-2" d="M48.42,23.36a1.11,1.11,0,0,0-1.5-.39,1.12,1.12,0,0,0-.39,1.5c.14.25.27.5.4.76l.16.33.09.2,0,.1a1.13,1.13,0,0,0,1.35.77,1.11,1.11,0,0,0,.77-1.35A17.71,17.71,0,0,0,48.42,23.36Z"/><path class="cls-2" d="M52.57,22.59a1.1,1.1,0,0,0-1.55,0,1.28,1.28,0,0,0-.32.78,1.47,1.47,0,0,0,1.1,1.49,1.11,1.11,0,0,0,1.35-.77A1.16,1.16,0,0,0,52.83,23,1.25,1.25,0,0,0,52.57,22.59Z"/><path class="cls-2" d="M62.55,19.57a12.25,12.25,0,0,1-.1,2.49,1.13,1.13,0,0,0,.77,1.35,1.11,1.11,0,0,0,1.35-.77,15,15,0,0,0,.18-3.07C64.67,18.16,62.48,18.15,62.55,19.57Z"/><path class="cls-2" d="M44.78,10.52l.73.3a1.1,1.1,0,0,0,.85-.11,1.1,1.1,0,0,0,.39-1.5,1.28,1.28,0,0,0-.66-.5l-.73-.3a1.1,1.1,0,0,0-.85.11,1.1,1.1,0,0,0-.39,1.5A1.28,1.28,0,0,0,44.78,10.52Z"/><path class="cls-2" d="M66.43,11.15a1.12,1.12,0,0,0,1.1-1.1V9.61a1.1,1.1,0,0,0-2.2,0v.44A1.11,1.11,0,0,0,66.43,11.15Z"/><path class="cls-2" d="M68.64,11.14a1.11,1.11,0,0,0,1.5-.39l.15-.29a1.1,1.1,0,1,0-1.9-1.11l-.15.29A1.12,1.12,0,0,0,68.64,11.14Z"/><path class="cls-2" d="M72.28,10.71h.15a1.1,1.1,0,0,0,0-2.2h-.15a1.1,1.1,0,0,0,0,2.2Z"/></g></g></svg>