<svg xmlns="http://www.w3.org/2000/svg" viewBox="0 0 102.73 90.07"><defs><style>.cls-1{fill:#b97bd0;}.cls-2{fill:#f2b031;}.cls-3{fill:#ed841d;}.cls-4{fill:#6fb097;}.cls-5{fill:#5dbe58;}.cls-6{fill:#946fb0;}.cls-7{fill:#9672b2;}.cls-8{fill:#6099db;}.cls-9{fill:#f5c15e;}.cls-10{fill:#81baa4;}.cls-11{fill:#f6c870;}.cls-12{fill:#9a77b5;}</style></defs><title>set_nabor-na-nedelyu</title><g id="Layer_2" data-name="Layer 2"><g id="Layer_1-2" data-name="Layer 1"><path class="cls-1" d="M50.57,90.07c-3.95-1.69-7.93-3.32-11.83-5.09C31.79,81.82,24.89,78.58,18,75.37c-1.12-.52-2.19-1.14-3.32-1.62A2.67,2.67,0,0,1,13,70.91c0-3.74,0-7.49,0-11.23,0-2.74,0-5.49-.16-8.22,0-.6-.82-1.35-1.44-1.68-3.05-1.63-6.17-3.13-9.26-4.68-2.61-1.32-2.71-1.59-.87-3.92,3.58-4.53,7.26-9,10.85-13.51a2.2,2.2,0,0,1,3-.74C20.7,29.42,26.35,31.86,32,34.4c6.77,3.08,13.5,6.23,20.24,9.37a2.93,2.93,0,0,0,2.69,0q10.35-4.86,20.73-9.65c3.35-1.54,6.75-3,10.13-4.47a3,3,0,0,1,3.3.64q6.42,5.61,12.78,11.29c1.3,1.16,1.22,1.5-.32,2.38-3.83,2.17-7.64,4.37-11.53,6.44a2.6,2.6,0,0,0-1.6,2.66c.05,6,0,11.95.06,17.92a2.8,2.8,0,0,1-1.78,2.9Q70.43,81.62,54.23,89.42l-1.39.65ZM53.18,48.3c.44.51.72.89,1.05,1.22C57.8,53,61.36,56.45,65,59.88A5,5,0,0,0,70.61,61c5.14-2.4,10.16-5.07,15.2-7.69.38-.2.53-.84.79-1.27-.47,0-1-.24-1.4-.07-2.25,1-4.48,2-6.69,3.12-2.73,1.32-5.43,2.7-8.17,4-1.64.79-2.92.65-3.81-.26q-5.88-6-11.77-12C53.58,45.7,53,45.69,52,47c-3.21,4.16-6.4,8.34-9.52,12.57-1.32,1.79-2.42,2.14-4.48,1.21Q27.39,56,16.74,51.3a11.22,11.22,0,0,0-1.62-.45l-.25.46a8.41,8.41,0,0,0,1.43,1.12q10.88,5.25,21.8,10.41a5.29,5.29,0,0,0,2,.27c2.05.06,3.05-1.43,4.11-2.85C47.16,56.35,50.08,52.45,53.18,48.3Zm-.57,38.89a.56.56,0,0,0-.17.14c-.28.42-.54.86-.81,1.28.29.11.74.39.84.3a5.13,5.13,0,0,0,.77-1.15,5,5,0,0,0,.23-.56,5.49,5.49,0,0,0,.75-1.82c0-10.71,0-21.43,0-32.15A5.91,5.91,0,0,0,54,51.54c-.09-.29-.45-.5-.69-.74-.25.29-.67.56-.72.88a18,18,0,0,0-.26,3q0,15.15,0,30.3A20.73,20.73,0,0,0,52.61,87.19Z"/><path class="cls-2" d="M40.31,0c.36.47,1.06,1,1.18,1.6.28,1.43.24,2.92.43,4.37a2.81,2.81,0,0,0,.62,1.5c3,3.23,4.49,7.32,6.27,11.22.53,1.17,0,1.69-1.49,1.82-2.78.25-5.57.45-8.35.69a20.31,20.31,0,0,0-2.53.34,4,4,0,0,0-3.3,2.57c-.74,2.09-1.65,4.12-2.37,6.21-.35,1-.77,1.39-1.85.94-2.7-1.14-5.44-2.19-8.15-3.3-1.79-.74-3.54-1.59-5.35-2.28a2.73,2.73,0,0,1-1.9-2.55c-.15-1.6-.38-3.2-.51-4.8a14.61,14.61,0,0,0-1.59-6.42c-.83-1.44-.68-1.84.82-2.49,1.94-.85,3.94-1.57,5.92-2.33,1.5-.58,3-1.22,4.51-1.71,3.69-1.19,7.4-2.32,11.11-3.47L38.13.59C38.72.42,39.31.27,40.31,0ZM37.2,13.47l-.28-.5c1.43-.28,2.87-.54,4.28-.87a3.56,3.56,0,0,0,1-.62c-.31-.24-.59-.66-.92-.69a7,7,0,0,0-2.53.05c-4.86,1.37-9.73,2.71-14.51,4.32a32.85,32.85,0,0,0-5.75,3c-.39.23-.56.85-.83,1.3l1.54.23.39.39c-.91.82-2.37,1.15-2.66,3.14a20.94,20.94,0,0,0,2.13-1,53.9,53.9,0,0,1,22.56-7.93c.35,0,.67-.38,1-.58-.35-.23-.71-.66-1-.65C40.11,13.17,38.66,13.34,37.2,13.47ZM22.88,22.06a3.32,3.32,0,0,0-2.75,2.35c-.18.42,0,1,.08,1.52.39-.27,1-.45,1.15-.82A2,2,0,0,1,24,23.93c2.43.5,4.71.09,6.26-2.23A4,4,0,0,1,34.92,20c.14,0,.28,0,.42.07a6.18,6.18,0,0,0,5-1.58c.9-.69,1.79-1.6,3.19-.89.36.19,1-.11,1.48-.19-.28-.44-.46-1-.85-1.29-1.94-1.38-3.46,0-4.83,1a5.07,5.07,0,0,1-4.49,1.14,5,5,0,0,0-5.62,2.1c-1.48,2.18-3.43,2.2-5.62,1.86C23.35,22.19,23.12,22.11,22.88,22.06ZM36.7,5.84c1.4-.92,1.08-1.9.93-2.83a.5.5,0,0,0-.43-.26c-.19.06-.47.25-.48.4C36.67,3.94,36.7,4.74,36.7,5.84ZM17.25,11.09l.67-.38L16.73,8.57l-.62.33ZM34.68,5.58l.73.08.19-1.89a3.32,3.32,0,0,0-.71,0C34.79,4.38,34.74,5,34.68,5.58Z"/><path class="cls-3" d="M51,19.82c.13-.28.34-.74.57-1.19C53,15.69,54.64,12.78,56,9.78a23.72,23.72,0,0,0,1.38-4.46c.44-1.8.69-2.06,2.5-1.8a23.84,23.84,0,0,1,3.35.62c3.68,1.07,7.34,2.21,11,3.34.65.2,1.44.55.88,1.38-2.25,3.3-2.53,7.32-4.09,10.86-.4.91-.85,1.8-1.25,2.7a1.62,1.62,0,0,1-2.1,1,30.62,30.62,0,0,0-10.45-.49,2.14,2.14,0,0,1-1.18-.19C54.44,21.83,52.83,20.88,51,19.82Zm5.83,1.81c.53-.2.75-.21.87-.33,1.56-1.52,3.15-3,3.49-5.33.27-1.84,0-3.81,1.49-5.32.15-.15-.06-.65-.1-1-.35.07-.77,0-1,.22a4.39,4.39,0,0,0-1.84,3.8A6.93,6.93,0,0,1,57.56,19a4.87,4.87,0,0,0-1.07,1.3C56.36,20.65,56.66,21.15,56.79,21.63ZM66.46,6.32c-2.2,1.75-2.2,1.74-4.73,1C60.91,7,60.07,6.83,59,6.54c1,1.87,9.84,4.46,12.44,3.54L68.09,8.88l.85-2.28-.52-.26-2,2.34-.24-.13ZM65,10.95c-.1-.12-.23-.42-.38-.43a1.15,1.15,0,0,0-.74.29,5.92,5.92,0,0,0-1.63,4.4,6.73,6.73,0,0,1-1.4,4.36c-.22.27-.12.81-.16,1.22.43-.06,1.1,0,1.26-.21A11.49,11.49,0,0,0,63.6,17.5c.58-2,.91-4.11,1.34-6.17C65,11.24,65,11.15,65,10.95Zm2.29-.08a2.34,2.34,0,0,0-2,2.19c-.36,2.35,0,4.86-1.49,7a.76.76,0,0,0,.19.72,1,1,0,0,0,.9.07,2.37,2.37,0,0,0,.95-1.17C66.38,16.82,66.81,14,67.31,10.86Z"/><path class="cls-4" d="M54.07,23.34c-.78,2-1.47,3.55-.28,5.22.15.21-.09.72-.21,1.07-1,3.1-2.09,6.19-3.12,9.29-.34,1-.91,1.32-1.95.87-5-2.16-10.09-4.32-15.17-6.42-1.07-.44-1.57-1.12-1.24-2.18a61.72,61.72,0,0,1,2.36-6.64,3.32,3.32,0,0,1,2.13-1.47,43.05,43.05,0,0,1,13.63-1.27C51.54,22,52.77,22.81,54.07,23.34ZM46.59,28l0-.34c0-.63.14-1.56-.19-1.81-.74-.56-1.42,0-1.83.74a4.79,4.79,0,0,0-.88,1.9,2.15,2.15,0,0,0,.87,1.54c.77.56,1.49.19,2.09-.52C47.07,29,47.35,28.53,46.59,28Zm-8.46-.46c.51.75.8,1.52,1.09,1.52a2.63,2.63,0,0,0,1.5-.78A5.88,5.88,0,0,0,41.57,27l.41.34a3.72,3.72,0,0,0-.15,1.07,3.08,3.08,0,0,0,.46.9c.21-.26.53-.49.6-.78a12,12,0,0,0,.32-2.24c0-1.06-.54-1.11-1.26-.61A17.71,17.71,0,0,0,40.5,27l-.1-1.79-1.24,1c-.8-.81-1.67-1.09-2.6-.28a3.19,3.19,0,0,0-.7,4ZM49.46,32.7c.44-.29.65-.36.72-.49,1.27-2.46,1-5.1.88-7.73,0-.16-.44-.44-.6-.4a.83.83,0,0,0-.45.61C49.82,27.26,49.65,29.83,49.46,32.7Zm-9.37-.24-.94-1.24a8.47,8.47,0,0,0-1,1.69c-.09.26.34.7.53,1.06Z"/><path class="cls-5" d="M75.91,17.82c2.69.7,5.42,1.26,8.06,2.13a4.05,4.05,0,0,1,2.4,4.8,5.74,5.74,0,0,1-3.06,4.37c-1.55.71-3.11,1.38-4.66,2.09-.86.39-1.39.09-1.59-.77-.66-2.72-2.77-4.11-5-5.33-1.18-.65-1.5-1.31-.93-2.48a16.87,16.87,0,0,0,.64-1.58c.9-2.48,1.41-2.85,4-2.89Zm-.18,4.7.4-.36c-.07-.36-.13-.72-.21-1.07s-.17-.67-.25-1L75.2,20a3.78,3.78,0,0,0-.38,1.48C74.89,21.88,75.41,22.18,75.74,22.52Z"/><path class="cls-6" d="M68.1,35.49c-4.55,2.33-8.88,4.56-13.24,6.74a3,3,0,0,1-1.63.29c-1-.14-1.53-.51-1.15-1.81.94-3.22,1.66-6.51,2.47-9.77L55,29.3C58.53,33.23,63.17,34.48,68.1,35.49Zm-11.55-.84c.61,1.77,3.86,2.85,5.39,1.82Zm2.07,3.54.06-.55-2.35-.38-.08.54C57,38.33,57.69,38.84,58.62,38.19Z"/><path class="cls-7" d="M75,31.07c0,.09,0,.45-.14.53-1.57.9-3.19,2.54-4.74,2.48a22.73,22.73,0,0,1-11.6-3.74A15.81,15.81,0,0,1,55.87,28c-1.31-1.35-1-3,.81-3.34a27.29,27.29,0,0,1,7-.53,16.38,16.38,0,0,1,8.84,3.15C74,28.39,75.06,30,75,31.07Zm-15-5.83c-1.13,0-2.29-.08-2.61,1.34s.56,2.26,1.73,2.71c2.63,1,5.26,2.08,8,2.84a5.24,5.24,0,0,0,3.36-.46,1.87,1.87,0,0,0-.06-3.46A28.18,28.18,0,0,0,60.06,25.24Z"/><path class="cls-8" d="M50.13,18.06c-.44-.91-.71-1.45-1-2-.9-1.92.05-3.31,2.18-3.06.32,0,.89.74.82.91C51.61,15.24,50.92,16.5,50.13,18.06Z"/><path class="cls-9" d="M27.23,16.35,19.57,20.1l-.39-.39L26.87,16Z"/><path class="cls-9" d="M37.2,13.47l-4,.63L36.92,13Z"/><path class="cls-10" d="M46.59,28a1.8,1.8,0,0,1-.3.29c-.38.24-.78.45-1.17.68,0-.34-.16-.84,0-1a3,3,0,0,1,1.16-.36.85.85,0,0,1,.27,0Z"/><path class="cls-11" d="M27.23,16.35,26.87,16l5.5-1.89,0,.41Z"/><path class="cls-9" d="M32.39,14.55l0-.41.85,0Z"/><path class="cls-12" d="M60.36,25.94l6.89,2.17a9.26,9.26,0,0,1,2,.64A2,2,0,0,1,70.11,30c0,.25-.67.79-1.08.84a5.91,5.91,0,0,1-2.36-.21c-2.28-.74-4.55-1.54-6.78-2.44-.55-.22-.91-.92-1.35-1.4Zm8,3.93c-.9-1.39-5-2.6-6.64-2.07C63.64,29,65.84,29.3,68.34,29.87Z"/></g></g></svg>