<svg xmlns="http://www.w3.org/2000/svg" viewBox="0 0 100.22 82.42"><defs><style>.cls-1{fill:#69d1e5;}.cls-2{fill:#e4d23d;}.cls-3{fill:#e9684b;}.cls-4{fill:#3a86e3;}.cls-5{fill:#b88376;}.cls-6{fill:#ebad43;}.cls-7{fill:#c962c8;}.cls-8{fill:#726dcf;}.cls-9{fill:#7cd645;}.cls-10{fill:#58b9e6;}.cls-11{fill:#7ad542;}.cls-12{fill:#cb68ca;}.cls-13{fill:#77ad9f;}.cls-14{fill:#e5d344;}.cls-15{fill:#d5e75b;}.cls-16{fill:#7fd749;}.cls-17{fill:#438ce4;}.cls-18{fill:#3d87e3;}.cls-19{fill:#498fe5;}.cls-20{fill:#fcedea;}.cls-21{fill:#fcfaec;}.cls-22{fill:#fcfaed;}.cls-23{fill:#fcfcfc;}.cls-24{fill:#fbeae6;}.cls-25{fill:#eaf2fb;}.cls-26{fill:#fcf5e9;}.cls-27{fill:#eef7fc;}.cls-28{fill:#f8edf8;}</style></defs><title>set_nabor-na-mesyats</title><g id="Layer_2" data-name="Layer 2"><g id="Layer_1-2" data-name="Layer 1"><path class="cls-1" d="M7.35,44.45c0-2,.07-4,0-6A2.06,2.06,0,0,0,6.3,37c-1.5-.74-3.12-1.23-4.64-1.95S-.4,33.22.39,31.62c2-4,4-8,6.12-11.91a2,2,0,0,1,2.74-1.12C15.69,20.82,22.15,23,28.6,25.2c7.65,2.6,15.29,5.23,23,7.76a3.7,3.7,0,0,0,2.37-.31c9.67-4.21,19.32-8.48,29-12.71,1.78-.78,3.62-1.4,5.42-2.13,2.26-.93,3.13-.81,4.54,1.22,1.7,2.46,3.28,5,4.78,7.59.87,1.51,1.34,3.27,2.25,4.76.78,1.28,0,1.73-.8,2.21-2,1.19-4.14,2.27-6.17,3.49A2,2,0,0,0,92,38.42c0,6.56.12,13.13.15,19.69,0,1.83-.15,3.66-.28,5.49a4.48,4.48,0,0,1-2.8,3.89c-4.46,2.09-8.87,4.34-13.43,6.19-6.9,2.8-13.92,5.28-20.86,8a12.89,12.89,0,0,1-9.35-.23c-9-3.24-18-6.48-26.92-9.81-2.41-.89-4.7-2.09-7-3.14A5.52,5.52,0,0,1,8,63.17c-.21-6.24-.51-12.48-.77-18.72Zm55.22,5.29c-2.77-4.6-5.34-9-8-13.31-1.48-2.38-2.74-2.32-4.11.16-2,3.63-4,7.29-5.82,11C44,48.83,43.37,49.1,42,48.63,33.82,45.77,25.57,43,17.32,40.17c-2.19-.74-4.38-1.46-6.6-2.1a4.15,4.15,0,0,0-1.57.21c.29.42.5,1,.9,1.24a12.77,12.77,0,0,0,2.56,1.21q14.34,5,28.7,10c2.53.88,3.57.5,5.07-1.73a14,14,0,0,0,.89-1.49c1.47-2.9,2.92-5.82,4.39-8.72a9.38,9.38,0,0,1,.76-1.06c.43.65.77,1.11,1.06,1.6,1.91,3.2,3.76,6.43,5.74,9.6C61,51.73,61.73,52,64.9,51.08a8.58,8.58,0,0,0,1.19-.41c7-3.1,13.91-6.19,20.84-9.33A8.55,8.55,0,0,0,89,39.75a1.12,1.12,0,0,0,.1-1c0-.14-.58-.23-.84-.16a16.26,16.26,0,0,0-2.22.79c-4.22,1.87-8.43,3.77-12.66,5.64C69.84,46.61,66.23,48.15,62.57,49.73Zm-9,11.16h0c0-4.77,0-9.55,0-14.32a36.4,36.4,0,0,0-.33-4.38c0-.35-.54-.65-.83-1-.22.32-.57.61-.62,1a22.11,22.11,0,0,0-.3,3.28c0,9.92-.05,19.83,0,29.75,0,1.79-.17,3.33-1.85,4.36-.23.14-.45.73-.34.89a1.31,1.31,0,0,0,1,.56,3.32,3.32,0,0,0,1.26-.56c1.94-1.1,2-3,2.06-4.9C53.63,70.66,53.61,65.78,53.61,60.9Z"/><path class="cls-2" d="M51.91,12c2.53.88,5.11,1.61,7.56,2.67a47.17,47.17,0,0,1,5.11,3c-.84,2.57-1.57,4.78-2.3,7-1,3-3.25,4.48-6.33,5.31.58-1.16,1.1-2.19,1.61-3.24a1.35,1.35,0,0,0-.83-2.12c-2.68-.9-5.38-1.76-8.06-2.66-1-.35-1.45.28-1.79,1-.86,1.9-1.71,3.81-2.55,5.7-1.81-.14-2.31-.59-1.68-2.08C44,23.5,45.52,20.49,47,17.45a41.75,41.75,0,0,0,2-4,2.1,2.1,0,0,1,2.41-1.68l0,0,.5.34Zm1.17,3.44-.53.1-.74-3-.4,0-1,3.17c1.34,1.59,10,5,11.7,4.38a10.26,10.26,0,0,0-1.6-1.27c-1.36-.68-2.78-1.23-4.15-1.89a3.43,3.43,0,0,1-1.09-1c-.49-.61-.91-1.29-1.54-2.22Zm6.6,7.78,0-.55a6.11,6.11,0,0,0-1.43-1.06Q54.14,20.18,50,18.88c-.35-.11-.82.17-1.23.27.28.37.49.92.86,1.07,2.85,1.17,5.73,2.29,8.63,3.33C58.61,23.7,59.18,23.37,59.68,23.26Z"/><path class="cls-3" d="M51.91,12h0l-.5-.34,0,0c-.08-.25-.13-.69-.24-.71-.76-.11-1.53-.13-2.29-.18l-.33.26c-1.38,2.68-2.64,5.44-4.18,8C43.27,21.07,42,20.89,41,18.89a3.68,3.68,0,0,0-.79-1.14c-2.42-2.12-3.68-6-2.5-8.92a5.5,5.5,0,0,1,2.65-2.52c3.91-1.83,7.93-2.22,12-.27a5,5,0,0,1,2.85,3.55c.39,1.65-.22,2.28-1.88,1.94C52.22,11.31,52.22,11.31,51.91,12Zm-6.5.77-6,.69-.17.45a5.61,5.61,0,0,0,1.85.77A4.4,4.4,0,0,0,45.42,12.81Zm-3.64-1.29-1-2.69c-.32.44-.83.85-.9,1.33-.14.89,0,1.82,1.17,2C41.2,12.22,41.47,11.8,41.78,11.53Z"/><path class="cls-4" d="M29.6,12.2a5.75,5.75,0,0,0,6.18-1.8c.22,1.23.39,2.14.53,3.06A9.58,9.58,0,0,0,39,19c2.38,2.39,2.27,3.08-.35,5.14a7.85,7.85,0,0,1-9.46-.43,2.77,2.77,0,0,1-.43-4c1.5-1.84,1.4-3.71,1-5.76A15,15,0,0,1,29.6,12.2Zm2.82,1.56-.69.44a13.68,13.68,0,0,0-.13,1.59c.06,1.93.29,3.86-.81,5.64a2.83,2.83,0,0,0-.14,1.68c0,.27.42.5.65.75.23-.23.54-.43.66-.71.27-.67.35-1.42.67-2.06,1-2.09.58-4.18.14-6.28A9.41,9.41,0,0,0,32.42,13.75Z"/><path class="cls-5" d="M22.56,7.39l1.57.67c.24-1.48-2.5-3.15-6.09-3.74a4.64,4.64,0,0,1,4.86-.43,23.41,23.41,0,0,1,3.79,3,2.35,2.35,0,0,0-.61-2.71,6.18,6.18,0,0,0-9-.28c-.39.38-1.17.36-1.77.52a4.23,4.23,0,0,1,.16-1.63c1.24-2.19,5.27-3.36,8-2.41a6.41,6.41,0,0,1,4.2,6.34,34.76,34.76,0,0,0,.61,6.69c.48,2.72-.81,5-1.54,7.43a1.41,1.41,0,0,1-1.25.61,2.05,2.05,0,0,1-1.22-1.19c-.4-1.89-.65-3.81-.91-5.73C23.13,12.18,22.87,9.88,22.56,7.39Zm3.72,4.09L26,11,23.86,12.1l.25.47A1.68,1.68,0,0,0,26.27,11.48Z"/><path class="cls-6" d="M73.27,15.91c.15-.14.42-.29.42-.43,0-2.35,1.78-3.08,3.47-3.64a41.62,41.62,0,0,1,6.53-1.55,2.75,2.75,0,0,1,3.17,2c.67,1.87.39,3.82-1,4.49-3.18,1.57-6.43,3-9.7,4.39-1.7.71-2-.7-2.33-1.89L73.23,16ZM76,15.5l.19.8,5.84-1.44-.16-.66A10.63,10.63,0,0,0,76,15.5Zm5,.9c-1.54.22-2.75.37-3.94.6,0,0-.1,1,.11,1.11C78,18.66,80.15,17.83,81,16.4Z"/><path class="cls-7" d="M73.27,15.91l0,.07,0,3.32a4.72,4.72,0,0,1-3.29,4.51c-1.56.61-3,1.43-4.57,2.1A4.19,4.19,0,0,1,64,26a5.31,5.31,0,0,1,0-1.3c.54-2.07,1.21-4.1,1.66-6.19a5.48,5.48,0,0,0-.31-2c2.07-.74,4.27-1.63,6.55-2.3C73.44,13.73,72.87,15.28,73.27,15.91Z"/><path class="cls-8" d="M92.27,9.61l-2.07.66,2.11.9-1.22,1.39.91.84a3.89,3.89,0,0,1-.6,1.28c-.5.46-1.2,1.1-1.72,1s-.93-.94-1.21-1.54a12.86,12.86,0,0,1-.28-1.7c-.73-2.51-2-3.51-4.87-3.54-1.42,0-1.56-.8-1.24-1.69a3.63,3.63,0,0,1,1.53-2A7.81,7.81,0,0,1,90,5a3.68,3.68,0,0,1,1.59,1.8A13.82,13.82,0,0,1,92.27,9.61Z"/><path class="cls-9" d="M11.25,18C8.45,17.36,8,16.5,7.85,11.8A22.12,22.12,0,0,0,21.48,9.51c.79,3.74,1.63,7.42,1.53,11.2l-.63.11c-.18-.73-.41-1.45-.54-2.2a5.85,5.85,0,0,0-7-5C12.49,14,11.61,15.84,11.25,18Z"/><path class="cls-10" d="M58.57,2c1.4.38,2.83.68,4.19,1.17a2.83,2.83,0,0,1,2,2.77c0,1.41-1,1.57-2,2-1.62.8-3.35,1.53-4.07,3.46a1.5,1.5,0,0,1-1.15.81c-.4,0-.78-.56-1.13-.92a1,1,0,0,1-.19-.59A7.76,7.76,0,0,0,54,5.51c-.82-.86,0-2.38,1.35-2.95a2.67,2.67,0,0,1,.75-.22c.78-.08,1.57-.12,2.35-.17ZM62,5.57l-5.8-1.34C56.64,6.38,60,7.37,62,5.57Z"/><path class="cls-11" d="M6.47,9.23A15.78,15.78,0,0,1,9,7.33,18.88,18.88,0,0,1,19.27,5.75a1.87,1.87,0,0,1,.89.28c.48.35,1.22.75,1.27,1.18a1.83,1.83,0,0,1-1,1.41,22.54,22.54,0,0,1-4.62,1.46,42.38,42.38,0,0,1-6.39.58,10.14,10.14,0,0,1-2.79-.76Z"/><path class="cls-12" d="M73.05,11.83a16.49,16.49,0,0,1-7.32,3c-2.33.48-4-.9-5.78-1.94-.72-.43-.12-2.49.91-2.91,2.88-1.18,5.81-2.05,9-1.44C71.74,8.91,72.89,9.85,73.05,11.83Zm-9.29-.12-1-1.29.77.92-2.08,1.49c.9,1.24,6.4.52,8-2l-4.18.81-1.07-1.37-.49,1.51Z"/><path class="cls-13" d="M71,3.8c3,.28,5.32,1,7.09,3,1.33,1.44,1.12,2.56-.62,3.41a7,7,0,0,1-2.18.83c-.48.05-1.37-.33-1.48-.7-.64-2.19-2.44-2.56-4.25-3A8.71,8.71,0,0,1,68.21,7a12.15,12.15,0,0,1-1.5-.9c.4-.45.72-1.08,1.22-1.3A27.71,27.71,0,0,1,71,3.8Z"/><path class="cls-14" d="M45.43,29.39l2.73-6.07L56.08,26a41.31,41.31,0,0,1-2.31,4.7c-.31.49-1.39.48-2.06.67.19-1.5.41-2.72.46-3.94,0-.43-.42-.87-.64-1.31a8.59,8.59,0,0,0-.71,1.39c-.12.39.06.87-.07,1.24a1.42,1.42,0,0,1-1.07.82l.45-4.35-.5-.26a8.44,8.44,0,0,0-1,1.55c-.24.63-.19,1.36-.4,2C47.86,29.71,46.84,30,45.43,29.39Z"/><path class="cls-15" d="M39.9,2.89a19,19,0,0,1-1.34,1.7c-.44.44-1.29,1.21-1.44,1.1a6.33,6.33,0,0,1-2-2.07,1.87,1.87,0,0,1,.62-1.7A10.11,10.11,0,0,1,43.65,1c.48.12.89,1,1.07,1.65,0,.17-.8.8-1.3.9C42.26,3.77,40.94,4.84,39.9,2.89Z"/><path class="cls-16" d="M20.34,21.16a20.06,20.06,0,0,1-1.43-1.66c-.26-.38-.32-.9-.57-1.28a1.77,1.77,0,0,0-3.18.06,1.07,1.07,0,0,1-1.77.42,1.84,1.84,0,0,1-.6-1.49c.28-1.8,2.16-2.74,4.15-2.2C19.35,15.68,20.69,17.82,20.34,21.16Z"/><path class="cls-17" d="M34.19,5.3c.81,1,1.57,2.13.79,3.52A4.14,4.14,0,0,1,30.93,11a1.8,1.8,0,0,1-1.77-2.39,16.54,16.54,0,0,0,3-.19,5,5,0,0,0,2-1.19c.46-.41.52-.95-.35-1.05Z"/><path class="cls-18" d="M34.19,5.3l-.38.88A21.9,21.9,0,0,1,31,7c-.4.07-.88-.31-1.32-.49.23-.54.31-1.24.71-1.59A2.91,2.91,0,0,1,34.19,5.3Z"/><path class="cls-19" d="M41.65,24c-.38,1-.53,2.32-1.24,3-.45.46-1.74.09-2.66.09v-.48l3.37-2.77Z"/><path class="cls-20" d="M73.2,19.3l0-3.32.65,3.31Z"/><path class="cls-20" d="M48.61,11.1l.33-.26Z"/><path class="cls-21" d="M53.08,15.48l.64-1.71c.64.93,1.05,1.6,1.54,2.22a3.43,3.43,0,0,0,1.09,1c1.37.67,2.79,1.21,4.15,1.89a10.26,10.26,0,0,1,1.6,1.27c-1.7.65-10.36-2.8-11.7-4.38l1-3.17.4,0,.74,3Z"/><path class="cls-22" d="M59.68,23.26c-.49.11-1.07.44-1.47.3-2.9-1-5.78-2.17-8.63-3.33-.37-.15-.57-.7-.86-1.07.41-.1.88-.38,1.23-.27q4.19,1.31,8.33,2.76a6.11,6.11,0,0,1,1.43,1.06Z"/><path class="cls-23" d="M51.45,11.71l.5.34Z"/><path class="cls-20" d="M45.42,12.81a4.4,4.4,0,0,1-4.29,1.92A5.61,5.61,0,0,1,39.27,14l.17-.45Z"/><path class="cls-24" d="M41.78,11.53c-.31.28-.58.69-.78.66-1.13-.19-1.31-1.12-1.17-2,.08-.48.59-.89.9-1.33Z"/><path class="cls-25" d="M32.42,13.75a9.41,9.41,0,0,1,.34,1c.44,2.1.89,4.2-.14,6.28-.32.64-.4,1.39-.67,2.06-.11.28-.43.47-.66.71-.23-.25-.61-.48-.65-.75a2.83,2.83,0,0,1,.14-1.68c1.11-1.79.88-3.71.81-5.64a13.68,13.68,0,0,1,.13-1.59Z"/><path class="cls-20" d="M26.27,11.48a1.68,1.68,0,0,1-2.17,1.09l-.25-.47L26,11Z"/><path class="cls-26" d="M76,15.5a10.63,10.63,0,0,1,5.88-1.3l.16.66L76.22,16.3Z"/><path class="cls-26" d="M81,16.4c-.86,1.43-3,2.25-3.83,1.72C77,18,77,17,77.07,17,78.26,16.77,79.47,16.62,81,16.4Z"/><path class="cls-27" d="M62,5.57c-2,1.79-5.39.8-5.8-1.34Z"/><path class="cls-28" d="M63.74,11.74l.49-1.51,1.07,1.37,4.18-.81c-1.63,2.57-7.13,3.28-8,2l2.08-1.49-.77-.92,1,1.29.12.06Z"/><path class="cls-12" d="M63.74,11.74l.14,0-.12-.06Z"/></g></g></svg>