<svg xmlns="http://www.w3.org/2000/svg" viewBox="0 0 103.48 78.78"><defs><style>.cls-1{fill:#986648;}.cls-2{fill:#feb563;}.cls-3{fill:#da694c;}.cls-4{fill:#48a9ec;}.cls-5{fill:#db6b4d;}.cls-6{fill:#db6b4e;}.cls-7{fill:#9a694c;}.cls-8{fill:#9b6a4d;}.cls-9{fill:#9a6a4d;}.cls-10{fill:#8681dc;}.cls-11{fill:#faeeeb;}.cls-12{fill:#dd755a;}.cls-13{fill:#e4937e;}.cls-14{fill:#938ee0;}.cls-15{fill:#5eb2ee;}.cls-16{fill:#e4927c;}.cls-17{fill:#fa9394;}.cls-18{fill:#d89242;}.cls-19{fill:#f6e7d7;}.cls-20{fill:#f9f0e5;}.cls-21{fill:#efd3b4;}.cls-22{fill:#faf3eb;}.cls-23{fill:#af83cb;}.cls-24{fill:#f6f2f9;}.cls-25{fill:#f2ebf6;}.cls-26{fill:#fef5eb;}.cls-27{fill:#fcf5f3;}.cls-28{fill:#f1c9be;}.cls-29{fill:#feb565;}</style></defs><title>set_nabor-sladkiy</title><g id="Layer_2" data-name="Layer 2"><g id="Layer_1-2" data-name="Layer 1"><path class="cls-1" d="M34.57,6.72a1.09,1.09,0,0,0-1.29-.56c-2.33.23-2.34.23-2.36-2.11,0-.33.32-.8-.26-.92s-.62.34-.76.68a4.51,4.51,0,0,0-.2.72c-.21.84.4,2.08-.38,2.49a12,12,0,0,1-4.16,1.15c-1.22.13-.92-1.06-1-1.82-.06-.55.52-1.41-.5-1.5-.8-.07-.87.77-1,1.36a1.42,1.42,0,0,0-.06.75c.69,2.16-.6,2.68-2.33,3.06s-2.15.13-2.26-1.61a3.69,3.69,0,0,1,2.4-4A62.35,62.35,0,0,1,33.87.22c3.19-.63,3.82,0,4.54,3.11.85,3.75,1.5,7.53,2.05,11.33A5,5,0,0,1,40,17.77c-.3.59-.84,1.22-1.43,1.1-2.25-.46-4.81,0-6.54-2.15a2.22,2.22,0,0,1,.78-3.45c.74-.34,1.53-.58,2.28-.91.31-.14.78-.29.55-.8a.71.71,0,0,0-.81-.33,12,12,0,0,1-1.3.24c-.76,0-1.84,1.14-2.2-.11s-.41-2.71,1-3.57A19.94,19.94,0,0,1,34.57,6.72Z"/><path class="cls-2" d="M65.06,13.52c-1.15,0-2.41.86-3.13-.53-1-1.84.93-2.47,1.82-3.82a6.86,6.86,0,0,0-5,.75c-.51.24-.93.66-1.44.89a2.2,2.2,0,0,1-2.48-.33c-.8-.73-.24-1.52.14-2.23C57.45,3.6,65,2.88,68.36,7a1.79,1.79,0,0,0,2.05.71,7.88,7.88,0,0,1,6,1.12c3.46,2.28,3.71,9.09.42,11.66-1.05.82-2.08.29-3-.2s-.39-1.25-.08-2A23.55,23.55,0,0,0,75,15a3,3,0,0,0-1-3.24c-1.11-.89-2.39-.66-3.61-.28-.84.26-.51,1.06-.52,1.63a7.88,7.88,0,0,1-2.17,5.29,4,4,0,0,1-2.27,1.24,1.84,1.84,0,0,1-2.07-.51,1.92,1.92,0,0,1,0-2.3C63.93,15.79,64.9,15,65.06,13.52Z"/><path class="cls-3" d="M83.79,14.14c-2.08-2.45-1.21-5.37,2-6a9.75,9.75,0,0,1,8.8,2.36c2,1.89,1.82,3.82-.48,5.45-.46.25-.76-.23-1.16-.24a11.36,11.36,0,0,1-7.49-2.28c-.57-.45-.87-.3-1,.37C84.28,14.08,84.11,14.27,83.79,14.14Z"/><path class="cls-4" d="M55.65,35.82c.86,1.52,1.54,2.62,2.12,3.76,1.16,2.27,1.61,2.37,3.6.65a22.65,22.65,0,0,0,2.22-2c.75-.85,1.35-1,2.05,0a8.23,8.23,0,0,0,1.13,1.27c.6.56.44.89-.21,1.26a74.8,74.8,0,0,1-8.92,4.51c-2.48,1-3.85-.18-3.37-2.77C54.67,40.42,55.12,38.36,55.65,35.82Z"/><path class="cls-5" d="M80.86,18.11c0-1.29-.41-2.62.36-3.87,5,4.63,9.42,5.57,14.29,3.09,0,3.66-1.34,5-5.44,5.38a9.8,9.8,0,0,1-3.17-.34c0-.71.55-.65,1-.78a11.48,11.48,0,0,0,1.33-.14C86.09,21.17,83.57,19.42,80.86,18.11Z"/><path class="cls-6" d="M94,23.55a4.1,4.1,0,0,1-3.84,4,11.85,11.85,0,0,1-5-.16,3.11,3.11,0,0,1-2.33-2,5,5,0,0,0-2.44-2.75c-1.44-.77-1.65-1.87-.65-3.3C83.28,24.7,88.26,25.2,94,23.55Z"/><path class="cls-7" d="M23.12,10.65c.28,1.32-.14,2.56.45,3.67.27.51,0,.82-.48,1s-.81.53-1.2.52c-1,0-1.92,2.26-2.81.14-1-2.36-.38-3.91,1.53-4.55Z"/><path class="cls-8" d="M24,16.58c-.23,2-.59,3.67,1.14,4.74.24.15.34.35.17.62a1.46,1.46,0,0,1-1.27.7,27.12,27.12,0,0,1-3-.27c-.82-.12-1.1-.78-1.13-1.51,0-1.11-.23-2.33,1-3C21.86,17.43,22.8,17.09,24,16.58Z"/><path class="cls-7" d="M29.6,14.63a4.12,4.12,0,0,0,1.47,3.8C30,19,29,19.54,28,20a1.63,1.63,0,0,1-2.37-1.43c-.22-2.08.44-3.1,2.45-3.74A2.33,2.33,0,0,1,29.6,14.63Z"/><path class="cls-9" d="M24.8,11.65c-.32-1.48.76-1.82,2-2.13,3.46-.83,3.45-.86,2.76,2.48-.11.53-3.28,2.22-3.92,2.1S24.79,13.22,24.8,11.65Z"/><path class="cls-10" d="M17.3,34.27c.08-.55.16-1,.22-1.54s.3-1.12,1-1.16a1.2,1.2,0,0,1,1.29,1.12,4.35,4.35,0,0,0,.83,2.23,1.23,1.23,0,0,1-.17,1.84c-.64.55-1.25.35-1.85-.15A3.46,3.46,0,0,1,17.3,34.27Z"/><path class="cls-11" d="M80.86,18.11c.52.18,1-.45,1.58,0,2.09,1.88,4.7,2.47,7.37,2.9a2.62,2.62,0,0,1,.68.35c-.72.84-1.63.57-2.46.63-2.19.26-3.84-1.1-5.69-1.87C82,19.4,80.86,19.15,80.86,18.11Z"/><path class="cls-12" d="M87.81,29.68A11.29,11.29,0,0,1,84,31.3c-.52.14-1,.25-1.33-.28a1.77,1.77,0,0,1,.07-1.8c.36-.7.9-.12,1.3,0A11.84,11.84,0,0,0,87.81,29.68Z"/><path class="cls-13" d="M83.79,14.14l.48-.49c.91-.1,1.48.61,2.22.92,2.21.95,4.41,2,6.84.64l.75.78C91.26,17.66,86.4,16.78,83.79,14.14Z"/><path class="cls-14" d="M20.21,32.22c0-.83,0-1.7.82-1.65,1.17.08,1.36,1.18,1.47,2.11.08.7-.32,1.37-1,1.32C20.31,33.92,20.26,32.92,20.21,32.22Z"/><path class="cls-15" d="M57.79,31.8c-.18,1,0,2.15-1.22,2.53-.39.12-.67-.37-.56-.76.28-1,0-2.29,1.15-2.75C57.79,30.55,57.71,31.41,57.79,31.8Z"/><path class="cls-16" d="M82.34,20.16c2,.35,3.68,1.59,5.69,1.87-.38.09-.84-.08-1.12.35A7.68,7.68,0,0,1,82.34,20.16Z"/><path class="cls-17" d="M103.06,38.81c-1.62-3.25-3.95-6-6.12-8.85-1.42-1.87-2.19-2-4.34-.92Q75.49,37.93,58.4,46.86a3,3,0,0,1-2.31.34c-9.46-2.32-18.92-4.62-28.41-6.83-5.32-1.24-10.68-2.32-16-3.42-1.15-.24-2.36-.49-3.31.66-2.58,3.1-5.22,6.14-7.77,9.27a2,2,0,0,0,1.1,3.36c1.74.53,3.52,1,5.3,1.38,1.15.25,1.7.72,1.6,2-.13,1.76,0,3.53,0,5.3H8.46c0,.88,0,1.77,0,2.65,0,5.42-.07,5.54,5.23,6.89C26.78,71.82,39.91,75,53,78.35c2.6.66,5,.69,7.42-.84,1.74-1.11,3.73-1.83,5.53-2.87q14.65-8.48,29.25-17a3.57,3.57,0,0,0,1.9-3.43c-.05-2.27,0-4.54,0-6.81a2.47,2.47,0,0,1,1.27-2.49c1.39-.86,2.66-1.91,4-2.84S103.75,40.18,103.06,38.81ZM56.39,77.15a.81.81,0,0,1-1.28.3c-.51-.39-.15-.87.1-1.16,1.12-1.27,1-2.78,1-4.29,0-5.17,0-10.33,0-15.5,0-.31,0-.63,0-.94.06-.72-.16-1.85.77-1.84s.66,1.17.67,1.84c.05,6,.06,12,.06,18a4,4,0,0,0,.65,2.78C57.45,76.2,56.82,76.35,56.39,77.15ZM93.44,47.91c-7.1,4.46-14.35,8.66-21.69,12.72a5.93,5.93,0,0,1-3.34.83C67,61.62,66,60.81,65,59.85a84.18,84.18,0,0,1-6.58-7.3c-1.38-1.73-1.44-1.7-2.69.25C54.41,54.92,53,57,51.68,59.16c-2.17,3.39-3.79,4.24-7.55,3.29C33.39,59.75,22.68,56.93,12,54.13c-.7-.18-1.72-.45-1.43-1.4s1.16-.4,1.8-.25q16.08,3.81,32,8.14c3.2.86,4.34.33,6.14-2.48,1.7-2.65,3.46-5.27,5.22-7.88.91-1.35,1.9-1.44,3.05-.18,2.25,2.46,4.39,5,6.66,7.48,2.68,2.89,3.2,3,6.78.9,5.24-3,10.41-6.16,15.65-9.2,1.63-.95,3.36-1.73,5.07-2.53.42-.19,1.11-.4,1.36.13S93.84,47.66,93.44,47.91Z"/><path class="cls-18" d="M41.86,25.3c-2.67-4.93-8.34-6.89-13-3.71-2.8,1.93-5.23,3.85-8.12,2.3-6,0-9.12,2.33-10.26,7-.77,3.16-.4,3.81,2.63,4.75,2.69.83,2.91.67,3-2,.07-2.54,1.16-4.15,3-4.41,3.42-.48,5.29,2.43,3.92,6.11-1,2.64-.73,3,2.05,3.27a2.64,2.64,0,0,0,2.24-.74c.28-.28.51-.86,1.06-.47a12.79,12.79,0,0,0,4.15,1.75c1.23.34,2.8-.29,3.58,1.62.25.62,2.06.65,3.17.85a2,2,0,0,0,2.43-1.35C43.55,35.29,44.6,30.37,41.86,25.3Zm-6.69,9.09c-2.82.36-6.64-1.58-5.52-5.8a3.7,3.7,0,0,1,4.07-3.13c2.38.07,3.68,1.08,4.11,3.31.17.86.2,1.74.29,2.61C38.07,34,38.07,34,35.17,34.39Z"/><path class="cls-19" d="M17.28,28a.8.8,0,0,1-.88-.84.77.77,0,0,1,.61-.84c.53-.11.83.22.91.71S17.64,27.83,17.28,28Z"/><path class="cls-20" d="M38.78,24.22a.86.86,0,0,1-.86.8.63.63,0,0,1-.68-.71.73.73,0,0,1,.83-.8A.65.65,0,0,1,38.78,24.22Z"/><path class="cls-21" d="M13.4,32.12c-.34-.05-.61-.22-.63-.57a.59.59,0,0,1,.72-.64.56.56,0,0,1,.53.64A.62.62,0,0,1,13.4,32.12Z"/><path class="cls-22" d="M36.76,22.31c0,.41-.19.7-.64.7a.56.56,0,0,1-.59-.56.61.61,0,0,1,.62-.72C36.53,21.72,36.66,22,36.76,22.31Z"/><path class="cls-23" d="M61.13,14.12A2.36,2.36,0,0,0,59.47,13c-4.63-.88-9.22-2-14-2a2.77,2.77,0,0,0-3,2.23c-.57,2.12-1.19,4.24-1.73,6.37a1.87,1.87,0,0,0,.48,2.09A10,10,0,0,1,44.3,27c.12.39.07,1.13.92.76s.63-.75.13-1.24c-.33-.32-.59-.7-.13-1.13a.75.75,0,0,1,1,.05,2.86,2.86,0,0,0,3.32.45.77.77,0,0,1,1,.27.65.65,0,0,1-.34.94c-.69.38-.74.7-.13,1.23.44.38,1.19.86.49,1.51s-1.16,0-1.68-.38c-1.77-1.14-2.25-1-3.51.75a11,11,0,0,1,4.21,2.44,1.44,1.44,0,0,1,.52,1.51c-.22.67-.8.75-1.38.76-.94,0-1.89,0-2.84,0-.77,0-1.3.27-1.28,1s.75.45,1.19.49c.62.06,1.26,0,1.89.06,1.62.14,1.93,1.23,1.71,2.56s-1.19,1.72-2.52,1.52c-1.57-.24-1.82-1.65-2.53-3a11.09,11.09,0,0,1-.81,2.71c-.85,1.33-.24,1.94.89,2.46A21.59,21.59,0,0,0,49.56,44c2.36.45,2.8.16,3.26-2.27.89-4.69,1.81-9.37,2.62-14.08a8.17,8.17,0,0,1,4-6.07C61.21,20.58,62.19,15.93,61.13,14.12ZM50.22,24.57a7.78,7.78,0,0,1-3.55-.25c-.59-.16-1.41-.22-1.37-1s1.05-.32,1.58-.76c-.36-.61-1.36-.61-1.1-1.31s1.1-.38,1.68-.31a6.05,6.05,0,0,1,3.35,1.63C51.74,23.39,51.48,24.31,50.22,24.57ZM51.74,19a1.37,1.37,0,0,1-1.32,1.14c-.43,0-1.13-.05-.85-.62,1.07-2.16-.67-1-1.36-1.35.14.7,1.28,1,.44,1.69s-1.44.24-2.08-.22a1.26,1.26,0,0,1-.39-1.82c.81-1.45,4-1.88,5.27-.72A1.62,1.62,0,0,1,51.74,19Z"/><path class="cls-24" d="M56.78,16.73a10.69,10.69,0,0,1-4-1.54c-.25-.15-.62-.31-.46-.69s.61-.4,1-.3a18.17,18.17,0,0,1,1.77.6c1.39.55,2.74.91,4-.29.23-.21.54-.41.8-.06a.81.81,0,0,1-.17,1.17A4.39,4.39,0,0,1,56.78,16.73Z"/><path class="cls-25" d="M45,14.31a1.89,1.89,0,0,1-1.17-1.68c0-.42.35-.78.74-.63a2,2,0,0,1,1.1,1.81C45.66,14.13,45.47,14.42,45,14.31Z"/><path class="cls-26" d="M72.86,9.16c0,.71-.28,1.08-.88,1.12s-.68-.29-.68-.71.23-1,.85-1C72.6,8.52,72.76,8.9,72.86,9.16Z"/><path class="cls-27" d="M93.33,15.21c-.87,1.59-2.37,1.18-3.66,1a10.94,10.94,0,0,1-5.4-2.55c-.31-.39-.7-.83-.25-1.3s.7-.05,1,.21C87.33,14.85,90.27,15.22,93.33,15.21Z"/><path class="cls-28" d="M82.91,25.07c.46-.14.66-.27.78-.22.78.3,1.8-.06,2.33.86,0,.07-.15.39-.25.4A3.08,3.08,0,0,1,82.91,25.07Z"/><path class="cls-29" d="M34.09,27.31A2.32,2.32,0,0,1,36.53,30a2.5,2.5,0,0,1-2.76,2.63,2.76,2.76,0,0,1-2.52-2.78C31.23,28.24,32.32,27.28,34.09,27.31Z"/><path class="cls-4" d="M66.85,26.53A9.55,9.55,0,0,0,69,26.06c.83-.3,2-1.18.64-1.6-2.35-.71-6.61-1-9.11.14a1.53,1.53,0,0,0,.12.38l.11.07a9.7,9.7,0,0,0,2.76,1.5A17.51,17.51,0,0,0,66.85,26.53Z"/><path class="cls-4" d="M74.86,24.59c-1.44-1.76-5-2.07-7-2.14a16,16,0,0,0-5.81.75,22.09,22.09,0,0,1,4.54-.13c1.28.07,4.22,0,5,1.4.95,1.75-1.53,2.51-4.11,2.81a21.93,21.93,0,0,0,2.65,0C71.38,27.18,76.62,26.74,74.86,24.59Z"/><path class="cls-4" d="M80.92,25.4c-.57-1.43-1.87-2-3.13-2.56A22.6,22.6,0,0,0,67.65,21c-1.81.09-3.8-.07-5.38,1.07a18.28,18.28,0,0,1,7.64-.44c1.82.25,6.37,1.2,6.47,3.74.08,2.14-3.64,2.54-5.1,2.72l-.18,0a10.27,10.27,0,0,0,4.47-.36h0a6.28,6.28,0,0,0,2.64-1.32c.79-.89-.77-1.52-.23-2.46,1.88.48,1.88,1.86,1.68,3.34h0a8.54,8.54,0,0,1-5.76,2.43A36.87,36.87,0,0,1,64.17,29c-2.49-.56-4.67-1.59-5.43-4.59-.65,1.39-1.44,2.58-1.09,3.89.52,1.94,1.32,3.8,2,5.69.35,1,.82,1.19,1.59.35S62.7,33,63.38,32.21c1-1.06,1.89-1,2.89,0,1.59,1.62,3.26,3.15,4.82,4.79a1.29,1.29,0,0,0,1.93.25,49.5,49.5,0,0,1,4.43-2.51,6,6,0,0,0,3.72-5.58C81.19,27.9,82.12,26.58,80.92,25.4Z"/></g></g></svg>