<svg xmlns="http://www.w3.org/2000/svg" viewBox="0 0 105.08 85.81"><defs><style>.cls-1{fill:#f7cc71;}.cls-2{fill:#3dc9d2;}.cls-3{fill:#f78d71;}.cls-4{fill:#d2793d;}.cls-5{fill:#5ea5d6;}.cls-6{fill:#d2c23d;}.cls-7{fill:#f77184;}.cls-8{fill:#3ecad3;}.cls-9{fill:#f77284;}.cls-10{fill:#5fd697;}.cls-11{fill:#3fcad3;}.cls-12{fill:#f77386;}.cls-13{fill:#5ed697;}.cls-14{fill:#6bd6dd;}.cls-15{fill:#7cdeaa;}.cls-16{fill:#7adae0;}.cls-17{fill:#e4f7f8;}.cls-18{fill:#7ac9ab;}.cls-19{fill:#fefcf9;}.cls-20{fill:#fdfaf1;}.cls-21{fill:#fcefd4;}.cls-22{fill:#fcf2db;}.cls-23{fill:#fcf0d6;}.cls-24{fill:#fdf5e4;}.cls-25{fill:#fdf3de;}.cls-26{fill:#f9fdfd;}.cls-27{fill:#fefcfb;}.cls-28{fill:#fef9f8;}.cls-29{fill:#fdf5f3;}.cls-30{fill:#fdf0ec;}.cls-31{fill:#fdede9;}.cls-32{fill:#fce2db;}.cls-33{fill:#fdf9f7;}.cls-34{fill:#faf2ed;}.cls-35{fill:#f8ece5;}.cls-36{fill:#f1d5c3;}.cls-37{fill:#f5f9fc;}.cls-38{fill:#e9f2f9;}.cls-39{fill:#d5e7f4;}.cls-40{fill:#fbfaf0;}.cls-41{fill:#faf9ee;}.cls-42{fill:#fbfdfd;}.cls-43{fill:#f79176;}</style></defs><title>set_nabor-na-2-nedeli</title><g id="Layer_2" data-name="Layer 2"><g id="Layer_1-2" data-name="Layer 1"><path class="cls-1" d="M36.54,37.77c2.52,0,4.74,0,6.95,0,.44,0,1,.21,1.07-.6s-.46-.72-.94-.78a32.52,32.52,0,0,0-7.56,0,3.49,3.49,0,0,1-2.63-.51,65.51,65.51,0,0,0-8-4.39c-1.26-.67-1.65-1.49-1.08-2.66a9.49,9.49,0,0,0,.57-4.29c0-2,.24-2.36,2.2-2.56a53.68,53.68,0,0,1,5.58-.15q6,0,12,.07c2.15,0,2.67.33,2.23,2.37-1,4.59.8,8.83,1.28,13.22a16,16,0,0,1,0,4.37c-.26,1.54-1.21,2.14-2.57,1.38C42.56,41.5,39.66,39.65,36.54,37.77Z"/><path class="cls-2" d="M86.43,9.85c2.47,3.94,4.58,4.86,9.4,4A18.75,18.75,0,0,1,94.69,16,8.17,8.17,0,0,0,93,22.14c.3,2-.53,3.14-2.45,3.89-2.43,1-4.83,2-7.33,2.75-2.7.77-4.93-.52-6.85-2.3A13.31,13.31,0,0,1,73.55,22a1.85,1.85,0,0,1,.5-2.36A16.24,16.24,0,0,1,81,16.15a5.19,5.19,0,0,0,3.48-2.8C85,12.16,85.75,11,86.43,9.85Z"/><path class="cls-3" d="M49.42,39.18a10.43,10.43,0,0,0-.63-4c-.64-1.77.53-2.91,1.24-4.13a62.3,62.3,0,0,1,4.22-6.44c1.28-1.7,2.14-2.13,4.1-1.36C62.61,24.89,67,26.39,71,28.72c.84.49,1.77.81,2.64,1.24,1.22.61,1.29,1.6.12,2.29-2.26,1.33-4.8,2-7.19,3.07-4,1.73-8,3.26-12.06,4.88a25,25,0,0,0-3.21,1.6c-1.48.86-1.87.62-1.87-1C49.42,40.38,49.42,40,49.42,39.18Z"/><path class="cls-4" d="M73.37,3.08a10.57,10.57,0,0,1,7.82,3.67c2.3,2.7,1.66,5.38-.12,7.77a2.34,2.34,0,0,1-1.62.83c-5.16.75-7.8,4.28-9.63,8.69-.83,2-2.42,2.25-3.87.62a2.12,2.12,0,0,1-.3-2.14A29.36,29.36,0,0,0,66.45,13c-.2-3.22,1.74-5.48,3.14-8A3.62,3.62,0,0,1,73.37,3.08Z"/><path class="cls-5" d="M59.53,5.79c0,.71-.09,1.22-.92,1.34a6.41,6.41,0,0,0-3.94,2.28,1.76,1.76,0,0,1-2.13.58,21,21,0,0,0-13.33,0c-.92.27-1.57,0-1.54-1a52.74,52.74,0,0,0-.29-5.57C37.3,2.2,37.69,1.68,39,1.5A52.83,52.83,0,0,1,47.33,1,43.58,43.58,0,0,0,57.11.07c1-.22,1.71.1,1.8,1.14A27.09,27.09,0,0,0,59.53,5.79Z"/><path class="cls-6" d="M56.58,13.68c-2-2.43-1.11-4.63,2-5.17,3.95-.69,6.82,1.67,6.95,5.67a35.5,35.5,0,0,1-.72,8.06C64.52,23.7,64,24,62.55,23.49c-1.9-.61-3.28-1.54-3.38-3.83-.07-1.61-1.09-3-1.79-4.39-.36-.74-.22-1,.41-1.46a16.65,16.65,0,0,1,4.07-1.92c.34-.11.91-.13.76-.7s-.6-.33-.93-.24C59.81,11.47,57.94,12,56.58,13.68Z"/><path class="cls-7" d="M27.5,17.54,27,17a5.11,5.11,0,0,0-5-1.72A3.69,3.69,0,0,0,18.77,18a15.84,15.84,0,0,0-.21,3.89,6.09,6.09,0,0,1-.74,2.79,1.23,1.23,0,0,1-1.26.79,5.36,5.36,0,0,1-3.72-2.81c-.1-.29-.18-.59-.3-.88-1.28-3.13-.44-4,2.27-6.24C16.7,14,19,13.47,21.34,12.8a7.08,7.08,0,0,1,4.82.07c1.91.73,3.85,3.66,3.65,5.75,0,.22,0,.46-.3.51a.66.66,0,0,1-.59-.24C28.45,18.43,28.19,17.76,27.5,17.54Z"/><path class="cls-7" d="M27.5,17.54c1.11-.19,1.23,1,2.05,1.51a18.7,18.7,0,0,0-1.35-4.55c-.43-1.09-4.82-2.64-5.67-1.9s-2,.73-2.92,1a14.38,14.38,0,0,0-6.49,4,2.92,2.92,0,0,0-.65,3,21.68,21.68,0,0,0,.9,2.49c.24.64,2.84,2.29,3.45,2.06a2.34,2.34,0,0,0,1.3-2.5c-.07-1.4.62-2.72.14-4.19-.37-1.14,2.18-3.41,3.69-3.68,1.72-.31,3.1.57,4.58,1.13.44.17.47.6.45,1a6.38,6.38,0,0,0-4.46-1.36A3.54,3.54,0,0,0,19,19.19c0,1,0,2,.05,3.06a5.34,5.34,0,0,1-1.16,2.92c-.26.4-.73.84-.2,1.27s1,0,1.37-.37a4.32,4.32,0,0,0,1.26-2.85c0-.89,0-1.77,0-2.66A3.59,3.59,0,0,1,21,18.44c.34-.5.78-.79,1.14,0a6.63,6.63,0,0,0,1.49,2.18c.18.18.47.38.32.67-.9,1.65-.17,3.41-.41,5.1a6.92,6.92,0,0,1-.1.79c-.45,1.7-.93,1.92-2.48,1.12a77.65,77.65,0,0,1-7-3.48c-2.61-1.69-3.13-6.34-.85-8.39a15,15,0,0,1,13-4.06,3.8,3.8,0,0,1,3.36,3.12c.28,1.16.72,2.28,1.06,3.43.12.4.61,1-.15,1.18-.58.15-1.29.38-1.66-.54A16.89,16.89,0,0,0,27.5,17.54Z"/><path class="cls-8" d="M89.32,7.92c-.94.19-.94,1.18-1.49,1.72-.42-.14-.38-.53-.41-.84a5.08,5.08,0,0,1,3.21-4.43,6.64,6.64,0,0,1,6.9,2.92,4.1,4.1,0,0,1-3.22,6h-.13c-2.45.11-2.57-.05-1.71-2.31a6.53,6.53,0,0,0,.23-.76c0-.07,0-.16-.09-.34-.95.31-.93,1.28-1.36,1.91-.19.29-.06.94-.69.75s-.32-.71-.17-1.1a10.59,10.59,0,0,1,.54-1,.73.73,0,0,0-.34-.94.59.59,0,0,1-.26-.17V8.56C90.07,8.23,89.6,8.22,89.32,7.92Z"/><path class="cls-9" d="M29.17,12.26c-4.87-2.67-13.49-1.43-19,5.45a2.92,2.92,0,0,1,.3-3,10.77,10.77,0,0,1,5.82-4.4,17.52,17.52,0,0,1,9.89-1A3.56,3.56,0,0,1,29.17,12.26Z"/><path class="cls-10" d="M52.33,17a1.86,1.86,0,0,1,1.28.25,6.62,6.62,0,0,0,3.73,2c.62.07.48,1.21.76,1.93a9.36,9.36,0,0,1-3.71-.11c-2.62-.88-4.13-.17-5.59,2.18-.23.37-.34.83-.8,1.1-.59-1.08.28-2.37-.53-3.38-.29-.34-.81.06-1.17-.5C48.34,19.38,49.77,17.29,52.33,17Z"/><path class="cls-10" d="M54.52,22a35,35,0,0,0-4.9,7.72,4.63,4.63,0,0,1-.66,1c-.46.54-.79.45-1-.23-.63-2-.84-4,.84-5.65a7.81,7.81,0,0,0,.86-1.34C51,21.49,51.94,21.16,54.52,22Z"/><path class="cls-11" d="M72.34,21.91c1.55,4,3.6,7.09,8.24,7.92l-2.37,1.05a1.33,1.33,0,0,1-1.67-.35,13.48,13.48,0,0,0-4.61-3.06c-1.39-.61-1.58-1.05-1-2.47C71.34,24,71.8,23.09,72.34,21.91Z"/><path class="cls-12" d="M22.58,16.87a4.77,4.77,0,0,1,4.92,3c.13.41,0,.53-.35.64a2.29,2.29,0,0,1-2.26-.25A6.82,6.82,0,0,1,22.58,16.87Z"/><path class="cls-13" d="M46.62,10.39a1.87,1.87,0,0,0-1.85-.11c.64.63.91,1.33.35,2a1.08,1.08,0,0,1-1.62.17l-.18-.12a15.11,15.11,0,0,0-9.21,1.53,3.46,3.46,0,0,1-2.06.47h0c-.41.61-1.24,1-1.27,1.79-.13,3.06,2,4.83,5,4.13l.26-.06A3.22,3.22,0,0,0,38,16c-.23-.7-.41-1.34.27-1.93,1.52-1.32,4.69-1,5.87.54C45,15.79,46.06,16,47.06,15,49,13.09,49.25,12,46.62,10.39Z"/><path class="cls-14" d="M89.32,7.92c.7-.36.69.41,1,.64-1.28.32-1,1.74-1.79,2.51C88.14,9.81,89.46,9,89.32,7.92Z"/><path class="cls-15" d="M43.27,10.17a28.34,28.34,0,0,0-5.88,1.26,13,13,0,0,0-2.68,1c1.16.54,2-.32,2.91-.68a1.2,1.2,0,0,0,.31-.1,10.88,10.88,0,0,0,2-.06,4.46,4.46,0,0,1,3.32.24c.58.08,1.49.9,1.51-.43A1.22,1.22,0,0,0,43.27,10.17Z"/><path class="cls-16" d="M90.33,9.27h.3c.3.36,0,.59-.19.82l-.9,1.7A4.33,4.33,0,0,1,90.33,9.27Z"/><path class="cls-17" d="M90.44,10.09l.19-.82c.14-.24.39-.29.53-.08.27.43.06.83-.22,1.19A.5.5,0,0,0,90.44,10.09Z"/><path class="cls-18" d="M104.72,38.42c-2.93-3.51-5.91-7-8.79-10.5a3.06,3.06,0,0,0-4-.91c-8.54,3.36-17.11,6.64-25.63,10-6.34,2.52-12.64,5.16-19,7.76a2.13,2.13,0,0,1-2.24-.1c-3.29-2.27-6.83-4.12-10.27-6.14-6.88-4-13.76-8.1-20.6-12.22-1.5-.9-2.69-1-4,.24-3,2.66-6.05,5.2-9,7.87-1.67,1.51-1.58,2.1.28,3.34s3.79,2.47,5.72,3.66a2.28,2.28,0,0,1,1.22,2.27c-.09,2.79,0,5.59,0,8.39H8.29c0,2.66.1,5.33,0,8a3.91,3.91,0,0,0,2,3.75C15,67,19.77,70.31,24.63,73.42c5.9,3.78,11.75,7.63,17.61,11.48a4.68,4.68,0,0,0,4.38.63c2.83-.94,5.53-2.16,8.28-3.28C68.43,76.69,81.64,70.38,95,64.46c4.13-1.83,4.1-1.92,4.12-6.48s0-9.32,0-14a1.53,1.53,0,0,1,1.08-1.71c1.28-.49,2.54-1.06,3.78-1.64S105.4,39.24,104.72,38.42ZM44.36,84.5c-.25.11-.51.19-.73,0a.5.5,0,0,1,0-.71,3.83,3.83,0,0,0,.64-2.09c.1-.54.13-1.19.79-1.15s.54.77.6,1.27a5.17,5.17,0,0,1,0,.53A2,2,0,0,1,44.36,84.5ZM45.9,55.73c0,6.08,0,12.15,0,18.23,0,1.68-.15,3.36-.24,5,0,.33.1.81-.44.79s-.59-.44-.57-.78c.07-1.23,0-2.46,0-3.69,0-3.64,0-7.27,0-10.91h0c0-3.73,0-7.45,0-11.18,0-.67-.18-1.7.71-1.73.62,0,.47,1,.56,1.58A16,16,0,0,1,45.9,55.73ZM97.07,44.39a92.94,92.94,0,0,1-9.18,4.23c-5.67,2.18-11.16,4.79-16.71,7.27-3.89,1.74-7.75,3.53-11.62,5.3a3,3,0,0,1-1.64.39,4.38,4.38,0,0,1-3.26-1.54c-3-3.36-5.54-7-8.23-10.61-.73-1-1.17-1.19-2.06-.19-1.83,2.05-3.76,4-5.67,6a6,6,0,0,1-7.57,1.26A191.35,191.35,0,0,1,13,45.88c-.78-.51-1.58-1-2.37-1.48-.3-.19-.73-.41-.56-.79s.69-.27,1-.14a37.81,37.81,0,0,1,5.29,2.79c5,2.89,10,5.81,14.94,8.71,2.57,1.49,4.33,1.22,6.38-1s4.14-4.51,6.23-6.74c1.3-1.4,1.93-1.42,3.08.08,2.78,3.62,5.64,7.19,8.2,11,1.21,1.8,2.3,2.13,4.25,1.16C66.3,56,73.26,52.92,80.31,50l16.23-6.67c.4-.17.91-.52,1.19,0S97.48,44.18,97.07,44.39Z"/><path class="cls-19" d="M37.67,28.19a29.22,29.22,0,0,1,5.17.26c.47.09.91.16.88.76s-.58.55-1,.54a85.26,85.26,0,0,0-8.62-.05c-2,.18-4,.24-5.94.54-.47.07-1.29.48-1.39-.44s.72-.72,1.25-.82A48.6,48.6,0,0,1,37.67,28.19Z"/><path class="cls-19" d="M42.46,31.69c0,1.13-2,3.21-3.12,3.19-.33,0-.63-.07-.75-.41s.09-.5.32-.65a7.61,7.61,0,0,0,2.36-2.43A.69.69,0,0,1,42,31C42.37,31.06,42.46,31.35,42.46,31.69Z"/><path class="cls-19" d="M35.52,34.42a.77.77,0,0,1-.46.86.6.6,0,0,1-.82-.45,4.78,4.78,0,0,0-1.75-2.55c-.22-.21-.52-.46-.27-.77s.56-.18.87-.11A3.85,3.85,0,0,1,35.52,34.42Z"/><path class="cls-20" d="M36.6,31.27c.35.68,1.55.27,1.76,1.23.08.35-.33.49-.66.46a1.65,1.65,0,0,1-1.6-1.15C36,31.55,36.15,31.29,36.6,31.27Z"/><path class="cls-21" d="M29.4,22.91a.73.73,0,0,1,.5.85c-.12.63.58,1.25,0,1.87a.41.41,0,0,1-.32-.13A3.6,3.6,0,0,1,29.4,22.91Z"/><path class="cls-22" d="M31.84,23c.4,0,.48.21.46.36-.07.72.52,1.44.06,2.15a.24.24,0,0,1-.42-.07A4.52,4.52,0,0,1,31.84,23Z"/><path class="cls-23" d="M43.87,25.42c-.4-.07-.36-.36-.35-.62,0-.42.12-.83.64-.83.33,0,.41.29.39.57A1,1,0,0,1,43.87,25.42Z"/><path class="cls-24" d="M40.28,25.39c-.13-.1-.18-.12-.19-.15a1.5,1.5,0,0,1,.47-1.64c.16-.16.37,0,.41.17C41.17,24.52,40.76,25,40.28,25.39Z"/><path class="cls-25" d="M36.77,24c-.13.36-.21.8-.66.89-.26.05-.36-.21-.33-.44,0-.39.1-.83.54-.94S36.75,23.7,36.77,24Z"/><path class="cls-26" d="M78.38,22c-.54,0-.56-.39-.52-.75a2.15,2.15,0,0,1,1.05-1.46,10,10,0,0,1,4.59-1.64A1.84,1.84,0,0,0,85,17.07c.51-1,1.06-1.95,1.64-2.89.16-.26.4-.7.82-.42s.13.56,0,.84q-1,2-1.93,3.94a1.68,1.68,0,0,1-1.35.95c-2,.32-4,.66-5.49,2.35A1.14,1.14,0,0,1,78.38,22Z"/><path class="cls-27" d="M56.68,38c-2.07,0-2.59-.72-2-2.65A5.23,5.23,0,0,1,58,31.9c.73-.29,1.49-.52,1.95.4s1,2,0,2.89a5.87,5.87,0,0,0-1.78,2.07A1.34,1.34,0,0,1,56.68,38Z"/><path class="cls-28" d="M66.39,32.19,56.13,28.25c-.24-.09-.56-.12-.58-.45s.28-.41.54-.43c.46,0,.42-.35.44-.66a1.74,1.74,0,0,1,.08-.65c.27-.57.44-1.65,1.1-1.42.94.33,0,1.09-.12,1.66A5.56,5.56,0,0,1,57,27.56a70.8,70.8,0,0,1,8.63,3.18c.5.25.7,0,.91-.43s.46-1,.93-.74,0,.77-.23,1.08a.82.82,0,0,0,0,1.17C67.22,32.57,66.77,32.3,66.39,32.19Z"/><path class="cls-29" d="M64,34.18c0,.61-.21,1.12-.79,1.1-1,0-1.1-.93-1.25-1.62-.11-.47.35-.67.79-.64C63.51,33.07,64,33.44,64,34.18Z"/><path class="cls-30" d="M66.39,32.19c.33,0,.68,0,.87-.36.34.15.68.48,1-.09a1.78,1.78,0,0,1,.49-.61c.34-.26.58-1,1.07-.62s-.16.82-.36,1.25C68.62,33.5,67.47,32.52,66.39,32.19Z"/><path class="cls-31" d="M59.33,25.91c.35-.06.43.16.43.38,0,.53,0,1.08-.62,1.32-.24.1-.41-.14-.42-.37A1.44,1.44,0,0,1,59.33,25.91Z"/><path class="cls-32" d="M61.77,26.94c.18.57.14.94-.31,1.14-.07,0-.3-.08-.31-.14C61.08,27.47,61.17,27.07,61.77,26.94Z"/><path class="cls-33" d="M71.71,7.39c.38.13.9.27,1.38.48a61.91,61.91,0,0,1,6.37,3.31,1.35,1.35,0,0,1,.33.22c.38.43,1.27.8.82,1.43s-.91-.25-1.34-.48c-2.59-1.36-5.09-2.89-7.81-4-.29-.12-.78-.17-.67-.67S71.27,7.36,71.71,7.39Z"/><path class="cls-34" d="M75.12,13.41c-1-.57-2-1.13-3-1.72a.4.4,0,0,1-.09-.35.3.3,0,0,1,.42-.19,6.62,6.62,0,0,1,2.89,1.5.46.46,0,0,1,.12.59C75.44,13.33,75.28,13.35,75.12,13.41Z"/><path class="cls-35" d="M73.38,5.39c-.05.44.07,1-.43,1s-.43-.37-.41-.68,0-1,.51-1S73.3,5.18,73.38,5.39Z"/><path class="cls-36" d="M75.12,5.8c0,.25-.11.48-.35.49s-.39-.28-.4-.55,0-.47.32-.46S75.09,5.54,75.12,5.8Z"/><path class="cls-37" d="M40.28,6c1.4-1.3,3.22-1.24,4.92-1.49a15.4,15.4,0,0,1,4.09-.25c1,.13.9-1.42,1.58-.93a1.79,1.79,0,0,0,1.74.42c.58-.16,1.22-.08.76-1a.36.36,0,0,1,.2-.54c.12,0,.4.13.42.23.2,1.45,1.16.78,1.88.67A3.32,3.32,0,0,1,57.76,3c-.52.95-1.46,1-2.26,1.19-3.58.93-7.26,1-10.92,1.35C43.15,5.66,41.71,5.85,40.28,6Z"/><path class="cls-38" d="M40.63,3.23c-.05.28,0,.69-.34.62-.56-.1-.51-.63-.53-1.07,0-.25,0-.64.33-.59C40.71,2.29,40.5,2.89,40.63,3.23Z"/><path class="cls-39" d="M42.87,3.49c.07.28-.05.47-.31.46-.41,0-.6-.3-.65-.68s.07-.49.32-.48C42.66,2.79,42.73,3.2,42.87,3.49Z"/><path class="cls-40" d="M63.47,13.36a2,2,0,0,1-.49.37,10.93,10.93,0,0,0-3.66,2.57c-.28.26-.61.65-1,.2s.08-.64.3-.89A8.05,8.05,0,0,1,62.57,13C62.86,13,63.27,12.8,63.47,13.36Z"/><path class="cls-41" d="M62,16.22c.23,0,.48-.06.6.19s-.08.42-.27.53a15.73,15.73,0,0,0-2.45,1.56.38.38,0,0,1-.59-.06.67.67,0,0,1,.07-.85A4.72,4.72,0,0,1,62,16.22Z"/><path class="cls-42" d="M94.37,9.3a4.32,4.32,0,0,1-4-2.24,1.14,1.14,0,0,1-.07-1.37,1.21,1.21,0,0,1,1.32-.4,2.58,2.58,0,0,1,2.24,2c.14.61.37.93,1,.92.38,0,1-.16,1,.53s-.61.53-1,.57C94.73,9.31,94.55,9.3,94.37,9.3Z"/><path class="cls-43" d="M59.24,33.67c0,.79-2.06,2.24-2.71,2s-.49-.49-.27-.86a4.87,4.87,0,0,1,2-1.85C58.93,32.69,59.27,32.94,59.24,33.67Z"/><path class="cls-13" d="M56.93,17a10.28,10.28,0,0,0-7.85-6.41h-.88a.4.4,0,0,0,.13.52c.67.61,1.36,1.19.84,2.25-.66,1.33-1.3,2.66-3,2.88a1.87,1.87,0,0,1-2.06-1.07c-.9-1.59-4.29-1.81-5.45-.42a1,1,0,0,0-.16,1.13c.82,1.57.12,2.81-.76,4-.09.12-.16.26-.29.5v0l.05.06h1.73l-.22.07a.67.67,0,0,0,.22-.07,39.66,39.66,0,0,1,6.06.18h0c1.78-.8,3.17-2.17,4.77-3.25,1.22-.82,2.53-1.37,4-.68h0a3.38,3.38,0,0,1,1.22,1.14c.42.76,1.26.55,1.77.33S57.11,17.38,56.93,17Z"/></g></g></svg>