<svg xmlns="http://www.w3.org/2000/svg" viewBox="0 0 78.02 56.97"><defs><style>.cls-1{fill:#fff;}</style></defs><title>basket</title><g id="Layer_2" data-name="Layer 2"><g id="Layer_1-2" data-name="Layer 1"><path class="cls-1" d="M74.19.28a120.27,120.27,0,0,0-16,0c-1.29.08-2.89.63-3.44,1.86C53.38,5.09,50,10.06,48.57,13c-14.53-.62-30.3-.62-44.84-.58C.59,12.52-.8,16.36.46,19.5A200.68,200.68,0,0,0,10.75,41.37a4.79,4.79,0,0,0,3.94,2.37c8.38.12,16.35.12,24.53.12a6.08,6.08,0,0,0,5.56-3.42c5-9.4,11.62-23.09,16-32.77a120.18,120.18,0,0,1,13.39.15C79.31,8.15,79.29.62,74.19.28ZM9.73,25.54l0-.09a3.84,3.84,0,0,1,.66-4.8l.05,0a4.5,4.5,0,0,1,5.93,0,3.93,3.93,0,0,1,.78,4.62h0a3.11,3.11,0,0,1-.32.5A4.44,4.44,0,0,1,15.48,27a4.38,4.38,0,0,1-5.74-1.42ZM20.2,38c-5.41,0-5.4-7.93,0-7.93S25.6,38,20.2,38Zm3-14.38V23.6a4.2,4.2,0,0,1,8.39,0v.06a4.2,4.2,0,0,1-8.39,0ZM37.75,35.39a4.08,4.08,0,0,1-1.93,2.37,4.86,4.86,0,0,1-3.23.4h-.06a3.91,3.91,0,0,1-2.93-2.77v-.06A4.42,4.42,0,0,1,30,32.27a4.22,4.22,0,0,1,2.51-1.82,4.43,4.43,0,0,1,2.81.22,2.93,2.93,0,0,1,.4.17h0l.11.08a4,4,0,0,1,.5.34l.11.1a5.16,5.16,0,0,1,.43.42c.07.08.13.17.2.25l.23.29s0,.08.06.13l.08.15a3.94,3.94,0,0,1,.27,2.78ZM45.2,24.67a.1.1,0,0,1,0,0,3,3,0,0,1-.92,1.63l-.1.12A3.86,3.86,0,0,1,41,27.56a4.65,4.65,0,0,1-1-.09,4.25,4.25,0,0,1-2.51-1.82,4.09,4.09,0,0,1-.42-3.05.1.1,0,0,1,0,0A4,4,0,0,1,40,19.79a4.52,4.52,0,0,1,4.08,1l.06,0a3.49,3.49,0,0,1,1,3.81h0ZM18.47,46.51l-.22,0a4.84,4.84,0,0,0-3.62,1.46l-.11.11a8.25,8.25,0,0,0-.62.68,2.26,2.26,0,0,0-.37.76,4.21,4.21,0,0,0-.2.43,4.62,4.62,0,0,0-.19,1.74c0,.07,0,.14,0,.21s0,.29.06.43a4,4,0,0,0,.07.59A4.21,4.21,0,0,0,14.62,55a4.39,4.39,0,0,0,3.74,1.37,5.23,5.23,0,0,0,2.42-.58A4.9,4.9,0,0,0,23,49.17L22.87,49A5.5,5.5,0,0,0,18.47,46.51ZM38.76,47l-.1,0a5,5,0,0,0-2.59-.14,4.82,4.82,0,0,0-2.54,1.49,6,6,0,0,0-.71.77,4.8,4.8,0,0,0-.88,2.19c0,.06,0,.12-.06.18a4.53,4.53,0,0,0,4.28,5.44,5.47,5.47,0,0,0,4.77-1.38,4.87,4.87,0,0,0,1.27-2.31,3.58,3.58,0,0,0,.32-1.45A5.05,5.05,0,0,0,38.76,47Z"/></g></g></svg>