<svg xmlns="http://www.w3.org/2000/svg" viewBox="0 0 579.54 248.82"><defs><style>.cls-1{fill:#0d41eb;}.cls-2{fill:#10bfe8;}.cls-3{fill:#ff704a;}.cls-4{fill:#ffc166;}.cls-5{fill:#edaf77;}.cls-6{fill:#ffb43b;}.cls-7{fill:#95b2f9;}.cls-8{fill:#6ee1f4;}.cls-9{fill:#f99;}</style></defs><title>404</title><g id="Layer_2" data-name="Layer 2"><g id="Layer_2-2" data-name="Layer 2"><path class="cls-1" d="M164.61,138.53c6.85-.42,13.7-.19,20.55,0A2.89,2.89,0,0,0,188,135.7c.44-11.34.59-22.69.93-34A3,3,0,0,0,185.73,97c-2.3.4-4,3.62-5.21,5.31-2.78,4-5.26,8.24-7.75,12.43C169,121.09,165.5,127.52,162,134,161,135.89,162.23,138.68,164.61,138.53ZM177,120.69c2-3.43,4.07-6.85,6.15-10.24-.32,5.46-.43,10.95-.55,16.42a2,2,0,0,0-.37.47,39.51,39.51,0,0,0-2.72,5.34c-3.18-.1-6.36-.19-9.54-.21C172.3,128.54,174.66,124.63,177,120.69Z"/><path class="cls-1" d="M249.14,167.48c-.08-5,.38-10.12-2-14.66-2.71-5.21-6.36-10.12-9.66-15,.37-16.63,1-33.28.92-49.92,0-6.34.94-14.24-2.51-19.93-1.66-2.73-4.33-4.82-6.54-7.08-2.76-2.82-5.33-5.81-8.14-8.59a2.24,2.24,0,0,0-1.58-.66c-2-1.66-4.87-1.82-7.9-2.11-8.12-.79-16.51-1.21-24.61,0a2.47,2.47,0,0,0-2.7,1c-13.44,19-26.26,38.29-38.88,57.8q-4.67,7.21-9.34,14.41c-2.88,4.43-6.41,8.84-8.64,13.63-3.18,6.85-1.9,16.41-1.31,23.71.09,1.16.84,2.67,2.16,2.88,5.66,7.13,11.79,13,21.11,14.08,11,1.22,22.4,2.23,33.49,1.85q-.11,6.25-.21,12.5a2.76,2.76,0,0,0,.9,2.1,2.08,2.08,0,0,0,.66,1.17c4.85,4.44,9.48,9.59,15.83,11.83,7.16,2.53,15.46,2,22.91,1.87,4.94-.1,10.94-.14,13.44-5.24,1.38-2.83,1.1-6.24,1.17-9.3q.12-5.11.22-10.21c3.1-.16,6.27-.39,8.57-2.67C250,177.46,249.22,171.85,249.14,167.48ZM231.78,92.58c-.08,14.26-.54,28.51-.72,42.77q-4.21-.27-8.42-.58c0-19.89.35-39.78.08-59.67-.06-4.15.21-8.78,0-13.22,2.24,2.55,4.55,5,6.63,7.75C233.63,75.3,231.82,85.84,231.78,92.58Zm-97.51,43.28c5.64-9.54,12.09-18.71,18.09-28C163.86,89.94,175.3,72,187.51,54.54c7.76.55,15.54.43,23.29,1.23,4.71.49,4.57-.3,4.85,3.68.51,7.41.45,14.88.47,22.3.05,18.72-.28,37.44-.27,56.17a3.47,3.47,0,0,0,3.39,3.39c3.77.23,7.54.53,11.31.82a67.06,67.06,0,0,1,.16,10.05,43.28,43.28,0,0,1-.36,7.25c-.26,1.24,0,1.58-1.1,2.32s-5.56.1-6.79-.12a3.29,3.29,0,0,0-4.08,3.11c-.67,7.55-1.11,15.12-1.38,22.69a196.5,196.5,0,0,1-28.18,1c0-8.43,0-16.87-.13-25.3a2.44,2.44,0,0,0-1-2,2.81,2.81,0,0,0-2.64-1.39,373.43,373.43,0,0,1-53-2.39C131.3,150.15,130.63,142,134.27,135.86Zm20.14,35.69c-5.52-.5-9.87-.8-14.24-4.53-1.17-1-2.3-2-3.42-3.07a338.88,338.88,0,0,0,46.6,2.19q-.11,3.42-.19,6.84C173.57,172.46,164,172.41,154.41,171.55Zm88.45.29c-.17,5.9-3.11,5-8,5.52a3.3,3.3,0,0,0-3.21,3.21c-.16,5.47.44,11.58-.43,17-.66,4.09-2.56,4.1-6.19,4.23-2.78.1-5.57.12-8.36.11-5.37,0-10.87-.08-15.93-2.1a36.76,36.76,0,0,1-8.4-5.11,174.33,174.33,0,0,0,27.83-1,3.36,3.36,0,0,0,3.27-3.27c.17-7.36.58-14.71,1.13-22a20.1,20.1,0,0,0,8.07-.76c3.64-1.26,3.81-3.86,4.07-7.32.29-3.82.61-7.81.62-11.77,2.76,4.06,5.14,8.38,5.38,12.92C242.86,164.83,243,168.38,242.86,171.83Z"/><path class="cls-2" d="M315.91,91c-1.39-7.65-5.34-14.47-12.76-17.45a2.63,2.63,0,0,0-3,.74,16.77,16.77,0,0,0-13.79,4.6c-5.22,5.11-5.58,13-6.38,19.84-2.15,18.28-3.08,38.11.16,56.33,1.2,6.77,4.72,13,11.25,15.85a16.39,16.39,0,0,0,17.37-2.77c5.29-4.86,6.72-12.41,7.71-19.19a167.6,167.6,0,0,0,1.47-27.39C317.71,111.56,317.72,101,315.91,91ZM285,145.72a234.93,234.93,0,0,1,1.08-50.81c1.07-8.11,4.67-16.84,14.5-15.4l0,0c5.11,2.54,7.35,7,8.43,12-3.28-.6-6.88,1.11-9,4-3.93,5.27-4,13-4.23,19.26-.54,17-.51,34,.09,51C286.61,164,285.72,153.41,285,145.72ZM309.56,151c-.93,5.2-2.82,11.53-7.37,13.91-.26-11.3-.46-22.6-.39-33.91,0-5.72.09-11.44.23-17.16.1-4,.67-20.23,7.91-16.41.09,1.08.17,2.16.24,3.22.53,8.23,1,16.49,1.13,24.74A138.48,138.48,0,0,1,309.56,151Z"/><path class="cls-2" d="M358.85,82.63a81.48,81.48,0,0,0-16.79-19.24c-5.79-4.87-12.4-9.6-20-10.77a59,59,0,0,0-20.34-4.44,3.16,3.16,0,0,0-1.78.41A63.48,63.48,0,0,0,269.91,55c-11.43,5.69-17.81,16.61-20.84,28.68-3.8,15.13-4.49,31.42-4.06,46.94a220.12,220.12,0,0,0,2.08,24.69c.93,6.63,2.42,13.26,6,19a1.88,1.88,0,0,0,.07.45c3.69,12.14,15.22,24.75,26.82,29.72,11.1,4.76,23.92,6,35.86,4.8,11.22-1.12,23.25-4.38,31.6-12.39,9-8.62,15.92-20.76,17.45-33.19.42-3.39-4.69-3.68-5.68-.77-2.06,6.07-3.32,12.09-6.66,17.67a58.66,58.66,0,0,1-9.4,12c-7.6,7.3-19,10-29.22,10.71s-21-.23-30.59-4c-6-2.37-10.46-6.25-14.34-10.74a55.16,55.16,0,0,0,18.35,5.61c14,1.79,30.68.09,42.23-8.69,23.24-17.67,22.31-51.13,21.29-77.36-.5-12.76-2.33-25.08-8.18-36.28a78.36,78.36,0,0,1,11.55,15.4c7.9,13.71,9.78,27.86,8.66,43.39-.24,3.26,4.77,3.8,5.61.76C373,115.17,367.47,96.53,358.85,82.63Zm-15.14,56.29c-1,12.29-3.33,24.37-11.14,34.31-8.4,10.69-20.81,14.15-33.94,14.64-12.85.48-26.41-2.49-35.79-11.84-9.68-9.65-10.2-24.89-11-37.73a216.38,216.38,0,0,1,1.34-42.19C254.86,83,258.5,68.63,270.6,61.44c8.63-5.13,19.58-7.46,29.65-7.3a3.51,3.51,0,0,0,1.5.54C312.83,56,326,59.23,332.88,68.77a59.94,59.94,0,0,1,10.77,30.6A273.79,273.79,0,0,1,343.71,138.92Z"/><path class="cls-3" d="M420.89,136.66c-.09-11.8-.31-23.61-.47-35.41-.06-4.09-6.42-4.1-6.37,0v.21c-7.34,10.68-13.38,22.11-20,33.23a2.93,2.93,0,0,0,2.51,4.37c7-.32,14.11.84,21.17.76A3.2,3.2,0,0,0,420.89,136.66ZM412.66,131a12.76,12.76,0,0,0-1.28,2.46c-3.25-.1-6.49-.27-9.74-.3,4.19-7.38,8.22-14.84,12.54-22.14q.11,8.75.26,17.51A24.8,24.8,0,0,0,412.66,131Z"/><path class="cls-3" d="M480.81,164.79c-.11-2.87.19-6.38-.63-9.17s-3.37-5.69-5-8.1a109.54,109.54,0,0,0-7.63-10.07c.63-16.16-.37-32.57-1.34-48.68-.38-6.28-.29-12.93-3.34-18.62a68.63,68.63,0,0,0-13.38-17,2.12,2.12,0,0,0-1.36-.57,3.42,3.42,0,0,0-1.69-.51c-7.79-.27-15.58-.48-23.37-.49-2.51,0-6-.69-8.16.75s-4.28,5.37-5.83,7.46c-8.49,11.46-16.31,23.42-23.91,35.48-7.5,11.9-14.76,23.95-22,36-3.68,6.07-5.46,10.52-5.5,17.68,0,3.78-.08,7.57,0,11.35,0,2.39,0,4.49,2.15,5.93a7.83,7.83,0,0,0,1.3.68c5.52,6.87,13.1,12.64,21.89,14.28,9.17,1.71,18.54,1.26,27.82,1.08-.06,3.41-.12,6.82-.12,10.23a2.8,2.8,0,0,0,.22,1,2.41,2.41,0,0,0,.33,3,135.14,135.14,0,0,0,12.48,10.65,16,16,0,0,0,10.2,3.75,147.58,147.58,0,0,0,17-.11c4.07-.22,8.57-.23,12.5-1.4a3.1,3.1,0,0,0,2.19-2.87c.89-8,1-16,1.16-24a107.52,107.52,0,0,0,11-.47,3.16,3.16,0,0,0,3-3A121.26,121.26,0,0,0,480.81,164.79Zm-23.5-92.27c3.29,6.08,2.55,14.48,2.91,21.2.76,14.33.67,28.68,1.21,43a23.55,23.55,0,0,0-2.66-.18l-7.71-.17c.78-25-.29-50-1.17-74.94A101.24,101.24,0,0,1,457.31,72.52Zm-46.5,103.86c-8.46.16-17.08.53-25.44-.92-5.89-1-10.36-3.95-14.73-7.3,4.6.17,9.21.24,13.82.34q13.22.29,26.45.48Q410.88,172.68,410.81,176.38Zm5.35-8.8c1.14-1.92.25-5.09-2.68-5.13q-14-.19-28.06-.5c-4.84-.11-9.68-.18-14.51-.35-1.5-.05-5.36.35-6.34-.57-1.19-1.13-.45-4.9-.44-6.42,0-3.93-.66-8.57.43-12.39,1-3.59,3.77-7,5.68-10.12q5.64-9.32,11.32-18.63c8.15-13.31,16.45-26.54,25.31-39.39q3.17-4.6,6.45-9.11,1.8-2.47,3.65-4.9c1.94-2.55.69-1.4,2.91-1.92,3.45-.82,8.05,0,11.61.07,3.92.07,7.84.18,11.76.31.93,27,2.19,54,1.25,81a3.27,3.27,0,0,0,3.23,3.23l6.39.12c1.44,0,4.5-.46,6.36-.15-.15.15.07.71,0,1.42a48,48,0,0,0,.21,4.82,67.22,67.22,0,0,1-.33,7.63c-.08.74,0,4.77-.76,5.52.16-.31-2.25-.26-2.39-.25-2.8.09-5.58,0-8.38.32a3.14,3.14,0,0,0-3.05,3.05c-.24,8.49-.16,17-.43,25.48-9.55,1.84-19.48,1.26-29-.57C416.34,182.64,416.71,175.08,416.17,167.58Zm58.65,8.75c-3.63.36-7.29.26-10.94.52a3,3,0,0,0-2.9,2.9c-.2,8.09-.31,16.36-1.14,24.44-7.69,1.71-16.9,1-24.5.68-4.41-.2-6-.9-9.54-3.57-2.06-1.56-4.11-3.15-6.16-4.71A77.94,77.94,0,0,0,449,196a3,3,0,0,0,2.19-2.88c.37-8.29.32-16.58.56-24.87,4.82.19,11.29.93,13.4-3.2,1.5-2.93,1.52-7.79,1.74-11.1.15-2.31.22-4.7.16-7.07q1.53,2.11,3,4.26c1,1.46,2,2.93,3,4.43.36.57,1.26,2.69,1.18,1.92C475.44,163.32,475.14,170.22,474.82,176.33Z"/><path class="cls-4" d="M549.38,109.88c-.81-5.57-6.77-7.47-11.75-7a10.27,10.27,0,0,0-4.83,1.78c1.88-3.16,2.87-7,.28-9.93-3.52-4-9.21-2.21-12.46,1.08a22.65,22.65,0,0,0-6.4,17.69,15.89,15.89,0,0,0,18.38,14.32c.27,0,.53,0,.82,0a2.45,2.45,0,0,0,1.3-.44,18.62,18.62,0,0,0,6.09-2.92C545.13,121.3,550.21,115.63,549.38,109.88Zm-27.72-6.61a14.47,14.47,0,0,1,2.69-3.79,5.65,5.65,0,0,1,3.33-1.91L529,100.7c-.41,3.77-5.13,6.83-8.9,6.66A16.87,16.87,0,0,1,521.65,103.27Zm-2,8.63a10.72,10.72,0,0,0,8.2-1.81c-2.15,3.68-3.19,8.08-2.55,11.58C521.39,119.86,519.73,116,519.62,111.9Zm18,7.82a15.31,15.31,0,0,1-5,2.48c-3.11-1.69-1.92-6.39-.36-9.24a9.33,9.33,0,0,1,3.17-3.7c1.92-1.11,7.74-1.56,8.39,1.86C544.4,114.06,539.69,118.2,537.65,119.72Z"/><path class="cls-5" d="M117.61,21.64a11.72,11.72,0,0,0-14.69-1.19,11.37,11.37,0,0,0-5.19,8.73,8.44,8.44,0,0,0-9.92-2.31,13.3,13.3,0,0,0-8.53,14.31C80,47.45,83.65,51.64,89.45,54c12.91,5.34,26.61-2.41,30.4-15.39C121.58,32.7,122.6,26.31,117.61,21.64Zm-6.35,2.89c5.69,1.83,5.16,7.87,2.69,13.36a2.8,2.8,0,0,0-.55-.06c-3.47,0-7.58-1.28-9.34-4.6C101.67,28.69,106.37,23,111.26,24.53ZM84.78,40.43c-.31-2.87.24-5,2.52-7,3.24-2.79,6.11-2.2,7.18,1.7,1.18,4.31-1.1,9.6-2.34,13.92C88.31,47.77,85.27,45,84.78,40.43Zm22,7a17.78,17.78,0,0,1-10.19,2.43,30.22,30.22,0,0,0,3.59-12.42,13.7,13.7,0,0,0,10.46,6.11A16.41,16.41,0,0,1,106.74,47.43Z"/><path class="cls-6" d="M133.13,215.31c1.53-3.11,3.41-8.59-.59-10.67s-10.39-.21-13.82,2a2.71,2.71,0,0,0-.41.32c-8.23,3.89-16.81,10.47-20.86,18.05-1.56,2.91-3.37,8-.64,10.72,3.29,3.28,9.69,1.79,13.37.31C119.64,232.26,128.61,224.52,133.13,215.31Zm-31.27,13.6c.52-3,3.71-5.86,5.77-7.88a60,60,0,0,1,12.47-9.71,2.81,2.81,0,0,0,.55-.09,50.65,50.65,0,0,1,5-1.32l2.68-.21q1.45.14.29,1.49c-.27,2.84-3.6,6.43-5.36,8.49A40.83,40.83,0,0,1,109.88,230C107.24,231.25,101,234.12,101.86,228.91Z"/><path class="cls-6" d="M136.43,216C130.58,229.28,120,237,106.69,241.57a2.27,2.27,0,0,0,1.21,4.38c14.71-2.58,26.82-14.95,32-28.43C140.69,215.52,137.31,214.07,136.43,216Z"/><path class="cls-7" d="M542.41,20.7A25.53,25.53,0,0,0,540.47,15c-.83-2-1.73-4-2.71-6A6.17,6.17,0,0,0,539,4.76C538.53,1,535,.2,531.66.22a1.69,1.69,0,0,0-1.08-.2,128.88,128.88,0,0,0-46.11,15.17c-4.69,2.61-13.14,6.38-15,11.88-1.71,4.91,2.67,5.7,6.65,5.54a2.65,2.65,0,0,0,0,.53A37.34,37.34,0,0,0,479.28,42c-.47,0-.93,0-1.4,0-3.76-.17-3.75,5.68,0,5.84,24.2,1,49.06-7.31,67.15-23.55C547.07,22.41,544.56,19.78,542.41,20.7Zm-3.89,2.83A95,95,0,0,1,484.73,42a2.15,2.15,0,0,0-.16-.83,48.57,48.57,0,0,0-4.32-9,151,151,0,0,0,46.82-15.25,52.27,52.27,0,0,0,7.11-4.31c.55,1.37,1.1,2.74,1.63,4.13.81,2.14,1.27,4.62,2.52,6.54A2.5,2.5,0,0,0,538.52,23.53Zm-63.29,4s3.43-2.7,3.3-2.63c2-1.44,4.12-2.72,6.23-4a126.84,126.84,0,0,1,14.62-7.45A138.9,138.9,0,0,1,529,4.67c.5,0,1,0,1.5,0,1.86.06,2.11-.35,2.06,1.46-.07,2.4-4.62,4.48-6.61,5.59a116.83,116.83,0,0,1-15.34,6.95,148.16,148.16,0,0,1-31.86,8.51A25.13,25.13,0,0,1,475.23,27.54Z"/><path class="cls-8" d="M579.4,190.11c-.57-4.07-3.49-4.44-7.09-5.12-5.41-1-10.77-2.24-16.19-3.19-4.59-.8-10.14-2.32-14.62-.58-5.24,2-10.16,6.11-14.84,9.18q-8.24,5.39-16.45,10.83a2.18,2.18,0,0,0-1,2.14,2.28,2.28,0,0,0-.17.55c-1.93,11.56-3.17,23.16-3.93,34.86a2.51,2.51,0,0,0,1.81,2.38,179,179,0,0,0,20.49,5.62c4.67,1,11.14,3.26,15.78,1.27,5.4-2.32,10.44-7.27,15.2-10.7,5.18-3.74,10.84-7.25,15.59-11.55a2.11,2.11,0,0,0,1.62-1.75c1.34-7.75,2.28-15.63,3.15-23.45C579.08,197.26,579.86,193.45,579.4,190.11ZM526,241c-5.34-1.15-10.62-2.56-15.86-4.08.44-9.59,1.36-19.16,2.67-28.67,4,4.42,7,10.22,10.27,15.12a2.58,2.58,0,0,0,4,.52,76.24,76.24,0,0,1,11.33-10.07c-.74,9.73-1.86,19.66-1.55,29.32C533.17,243,529.21,241.71,526,241Zm16.78.95a8.07,8.07,0,0,1-1,.5c1.52-10.94,1.41-22.34,2.08-33.34.13-2.1-2.21-2.93-3.82-2.19-5.57,2.54-10.09,6.72-14.32,11.08-3.07-5-6.5-11.26-11.25-14,8.12-4.74,15.89-10.07,23.88-15,2.73-1.69,5.11-3.35,8.44-3.31a43.25,43.25,0,0,1,7.2,1.08c4.89.91,9.75,2,14.63,3,.54.11,2,.21,3.25.37-8.15,5.11-16.71,9.43-24.85,14.53-1.92,1.2-.69,4.77,1.62,3.84,8.91-3.58,17.34-9,25.35-14.44-.21,3.24-.61,6.47-1,9.69-.75,6.06-1.94,12.16-2.33,18.26C560.69,227.65,552.57,236.24,542.75,242Z"/><path class="cls-9" d="M85.77,145.48c-5-7.31-11.2-14-16.74-20.82-5.38-6.65-10.56-13.92-16.56-20.09.61-4.78-3.94-7.13-8.68-6.58a27.42,27.42,0,0,0-3.39.63,2,2,0,0,0-1.39.1c-1.12.45-2.23.92-3.32,1.42a63.31,63.31,0,0,0-13,7.16,2.52,2.52,0,0,0-.44.4A76.36,76.36,0,0,0,5.55,123.58c-3,3.92-8.83,10.93-3.15,15.25a7.41,7.41,0,0,0,3.77,1.46,2.26,2.26,0,0,0,.26.61c4.71,7.6,11.63,14.4,17.34,21.28C29.07,168.55,34.2,176.23,40.4,182c-2.35,1-2.21,4.86.74,4.82,10.14-.15,21.22-6.74,29-12.74C79,167.22,86,159,89,148.07A2.27,2.27,0,0,0,85.77,145.48ZM6.45,131.25c1.81-4.18,6.12-8.33,9.29-11.53a75.77,75.77,0,0,1,14.38-11.35,79.56,79.56,0,0,1,10-4c1.59-.5,6.33-2.43,6.69.57.19,1.59-3.36,5.33-4.27,6.37-6.86,7.88-16.1,14-25,19.38a36,36,0,0,1-7.36,3.65C6.68,135.5,4.9,134.82,6.45,131.25Zm59.81,39a67,67,0,0,1-11.58,6.84,66.22,66.22,0,0,1-9.12,3.11c-4.72-7.4-11.57-14-17.21-20.62-5.46-6.46-10.8-14.19-17.16-19.92a38.06,38.06,0,0,0,7.52-3.44,136.35,136.35,0,0,0,20-14c4.21-3.5,9.18-7.82,12-12.91,4.38,6,9.37,11.62,13.94,17.37,5.91,7.42,11.48,15.73,18.32,22.32a2.11,2.11,0,0,0,.67.44C80.17,158,73.61,164.88,66.26,170.28Z"/><path class="cls-9" d="M48.84,151.81c6.1-2,8.22-11.13,4.25-15.9a9.23,9.23,0,0,0-8.4-3.33,8.67,8.67,0,0,0-5.52,2.54A10.62,10.62,0,0,0,37.52,137a2.24,2.24,0,0,0-.24.45,13.06,13.06,0,0,0-2.16,7.45C35.43,151.26,43.7,153.46,48.84,151.81ZM40,144.59a7.38,7.38,0,0,1,1.52-5.5c2.18-1.62,5.34-2.5,7.44-.21s.83,7.39-2.29,8.24C44.41,147.72,40.52,147.07,40,144.59Z"/><path class="cls-9" d="M60.82,144.43c-4.7,6.06-10.42,9.28-17,12.88-2.4,1.32-.76,5,1.84,4.37,7.66-2,14.21-8.25,18.66-14.53C65.79,145.09,62.38,142.41,60.82,144.43Z"/></g></g></svg>