<svg xmlns="http://www.w3.org/2000/svg" viewBox="0 0 97.76 67.93"><title>short-logo</title><g id="Layer_2" data-name="Layer 2"><g id="Layer_1-2" data-name="Layer 1"><path d="M45.56,31.14c-1.13,0-1.55.76-1.49-.7a10.07,10.07,0,0,0-.28-2.16A11,11,0,0,0,41.66,24a24.31,24.31,0,0,0-7.43-6C32,16.64,28.62,15.49,26.16,17,23.33,18.85,21,21.64,18.61,24,13.26,29.29,8,35,4.41,41.65A36.25,36.25,0,0,0,1.07,51.5C.42,54.5-.42,57.9.23,61c.59,2.82,2.08,5.27,5,6,3.17.75,7.66-.37,10.78-1.13,7.09-1.74,12.65-6.37,17.81-11.28A105.75,105.75,0,0,0,46.92,39.4a5.45,5.45,0,0,0,2.77-4.49c.19-2.48-2-3.72-4.13-3.77Zm-18.68-11a16.67,16.67,0,0,1,4.83,10.93c0,.61-1.37-.75-1.66-1l-2.6-1.78c-1.78-1.22-3.57-2.42-5.41-3.55a30.39,30.39,0,0,1,4.84-4.69ZM15.5,31.56l.28-.3a19.74,19.74,0,0,1,4.65,4.47c.52.76,2.16,4,2.25,5.53-2-.9-3.92-2.87-5.56-4.06a17,17,0,0,0-4.29-2.55C13.72,33.59,14.62,32.56,15.5,31.56Zm29.17,7.12a.67.67,0,0,0-.1.21c-2.91,3.13-5.89,6.19-9,9.17-4.14,4-8.35,8.69-13.21,11.85a29.17,29.17,0,0,1-8,3.45c-2.74.78-8.14,2.26-10.18-.51-1.78-2.42-1-6-.47-8.72a56.16,56.16,0,0,1,2-8,35.24,35.24,0,0,1,5.9-10c1.65,1.39,3.61,2.53,5.28,3.89s3.84,3.49,6.1,4a1.23,1.23,0,0,0,1.19-.31c1.81-1.9,0-5.93-.94-7.92a13.6,13.6,0,0,0-5.92-6.25c1.24-1.31,2.5-2.59,3.78-3.86,2.7,2.39,5.52,4.61,8.33,6.86,1.45,1.16,3.44,2.42,4.52.14,1.19-2.53-.48-6.13-1.4-8.45a15.89,15.89,0,0,0-2.72-4.91c2.46.36,5.18,3,6.76,4.24,2.44,2,4.36,4.57,4.34,7.81A2.43,2.43,0,0,0,43.13,34h.06c.87.1,3.62-.55,3.81.92.13,1.24-1.62,2.82-2.32,3.79ZM41.83,14.53a1.37,1.37,0,0,0,2-.82v-.23a1.15,1.15,0,0,0,.28-.83,1.64,1.64,0,0,0-2.81-1.09,1.83,1.83,0,0,0-.45,1.73A2,2,0,0,0,41.83,14.53Zm.87-1.43a0,0,0,0,1,.05,0Zm12.05,2.81a1.56,1.56,0,0,0,.44.92,1.64,1.64,0,0,0,1.52.4,2.61,2.61,0,0,0,1.92-1.75,1.77,1.77,0,0,0-1.71-2.4,1.71,1.71,0,0,0-1.31.48,2.92,2.92,0,0,0-.7,1.09A1.52,1.52,0,0,0,54.75,15.91ZM53.46,3.69h.3l.38-.17.22-.1a1.58,1.58,0,0,0,.75-1.68A2.16,2.16,0,0,0,54.56.45,1.52,1.52,0,0,0,52.71.21a2.1,2.1,0,0,0-.85,2.84l.09.16a1.45,1.45,0,0,0,.79.61,1.4,1.4,0,0,0,.72-.13ZM87.83,30.24c-2.71-3.66-5.48-7.59-9-10.52a1.6,1.6,0,0,0-.59-.57C76.86,17,73.52,16,71.19,16c-3.94.11-6.9,3.89-9.27,6.57A49.12,49.12,0,0,0,54.12,34c-1.42,3-3.38,7.52.07,9.7,1.34,2.89,4.57,5.35,6.7,7.43,3.24,3.17,6.36,6.63,10,9.41a46.51,46.51,0,0,0,10.55,5.63c2.65,1.11,6.68,2.34,9.76,1.48a1.08,1.08,0,0,0,1.06.11c3.79-1.54,4.5-5.83,5.2-9.45.95-4.87-.54-10-2.2-14.55A53,53,0,0,0,87.83,30.24Zm5,14.83c-2.64,1.28-5.22,2.72-7.79,4.15a17.69,17.69,0,0,1,2.16-3.46,22.11,22.11,0,0,1,4-4.11,32.07,32.07,0,0,1,1.63,3.42ZM86.24,33.49a19.78,19.78,0,0,0-4.35,2.9C80.25,37.78,78.53,40,76.48,41c.28-1.58,2.55-5.3,3-6a25.27,25.27,0,0,1,4.46-5q1.18,1.74,2.33,3.5Zm-32,7c.05-2.56,2.35-6.14,3.21-7.63a53.14,53.14,0,0,1,5-7.11,52.06,52.06,0,0,1,5.25-5.68c1.6-1.45,3.83-2.32,5.91-1.34a11.31,11.31,0,0,1,2.46,1.44,29.31,29.31,0,0,1-5.93,5.21,7.48,7.48,0,0,0-3.52,5.72c-.2,2.41-.83,3.86-3.34,4.33a15.47,15.47,0,0,0-3.59,1.15,15.66,15.66,0,0,0-5.42,3.91ZM91.11,65.24c-6.83,1.23-14.76-4.1-19.6-8.4-2.89-2.56-5.66-5.27-8.5-7.89-2.44-2.25-5.13-4.28-7.44-6.67a23.63,23.63,0,0,1,6.86-3.72c2.57-.8,5-.71,6.35-3.35A7.89,7.89,0,0,0,69.36,32c.16-2.77,1.26-3.82,3.42-5.25a21.68,21.68,0,0,0,5.55-5.19c1.47,2.26,3,4.5,4.51,6.74a21.57,21.57,0,0,0-5.79,6.19c-1.32,2-3.25,5.39-2.64,7.9s3.86-.15,4.75-.84c2.75-2.16,5.15-4.74,8.34-6.24q1.36,2.12,2.63,4.31l-.15.09c-3.53,2.69-8.49,7.34-7.79,12.21a1.33,1.33,0,0,0,1.95.79c3.17-1.87,6.44-3.55,9.63-5.38a47.22,47.22,0,0,1,1.52,5.11c.85,3.68-.46,10.94-4.15,12.77Z"/></g></g></svg>